G04 #@! TF.GenerationSoftware,KiCad,Pcbnew,(5.1.5)-2*
G04 #@! TF.CreationDate,2020-04-10T10:41:53+07:00*
G04 #@! TF.ProjectId,KIT_7SegLED_74HC595,4b49545f-3753-4656-974c-45445f373448,rev?*
G04 #@! TF.SameCoordinates,Original*
G04 #@! TF.FileFunction,Other,User*
%FSLAX46Y46*%
G04 Gerber Fmt 4.6, Leading zero omitted, Abs format (unit mm)*
G04 Created by KiCad (PCBNEW (5.1.5)-2) date 2020-04-10 10:41:53*
%MOMM*%
%LPD*%
G04 APERTURE LIST*
%ADD10C,0.050000*%
G04 APERTURE END LIST*
D10*
X143917400Y-38093900D02*
X143917400Y-39553900D01*
X143917400Y-39553900D02*
X147217400Y-39553900D01*
X147217400Y-39553900D02*
X147217400Y-38093900D01*
X147217400Y-38093900D02*
X143917400Y-38093900D01*
X147231400Y-38093400D02*
X147231400Y-36633400D01*
X147231400Y-36633400D02*
X143931400Y-36633400D01*
X143931400Y-36633400D02*
X143931400Y-38093400D01*
X143931400Y-38093400D02*
X147231400Y-38093400D01*
X147231400Y-45396400D02*
X143931400Y-45396400D01*
X147231400Y-46856400D02*
X147231400Y-45396400D01*
X143931400Y-46856400D02*
X147231400Y-46856400D01*
X143931400Y-45396400D02*
X143931400Y-46856400D01*
X143917400Y-43935900D02*
X143917400Y-45395900D01*
X143917400Y-45395900D02*
X147217400Y-45395900D01*
X147217400Y-45395900D02*
X147217400Y-43935900D01*
X147217400Y-43935900D02*
X143917400Y-43935900D01*
X147217400Y-42475400D02*
X143917400Y-42475400D01*
X147217400Y-43935400D02*
X147217400Y-42475400D01*
X143917400Y-43935400D02*
X147217400Y-43935400D01*
X143917400Y-42475400D02*
X143917400Y-43935400D01*
X143917400Y-41014900D02*
X143917400Y-42474900D01*
X143917400Y-42474900D02*
X147217400Y-42474900D01*
X147217400Y-42474900D02*
X147217400Y-41014900D01*
X147217400Y-41014900D02*
X143917400Y-41014900D01*
X147217400Y-39554400D02*
X143917400Y-39554400D01*
X147217400Y-41014400D02*
X147217400Y-39554400D01*
X143917400Y-41014400D02*
X147217400Y-41014400D01*
X143917400Y-39554400D02*
X143917400Y-41014400D01*
X154726900Y-47008400D02*
X147326900Y-47008400D01*
X154726900Y-36608400D02*
X154726900Y-47008400D01*
X147326900Y-36608400D02*
X154726900Y-36608400D01*
X147326900Y-47008400D02*
X147326900Y-36608400D01*
X156869101Y-38092799D02*
X160169101Y-38092799D01*
X156869101Y-36632799D02*
X156869101Y-38092799D01*
X160169101Y-36632799D02*
X156869101Y-36632799D01*
X160169101Y-38092799D02*
X160169101Y-36632799D01*
X156869101Y-45395799D02*
X156869101Y-46855799D01*
X156869101Y-46855799D02*
X160169101Y-46855799D01*
X160169101Y-46855799D02*
X160169101Y-45395799D01*
X160169101Y-45395799D02*
X156869101Y-45395799D01*
X160155101Y-43935299D02*
X156855101Y-43935299D01*
X160155101Y-45395299D02*
X160155101Y-43935299D01*
X156855101Y-45395299D02*
X160155101Y-45395299D01*
X156855101Y-43935299D02*
X156855101Y-45395299D01*
X156855101Y-42474799D02*
X156855101Y-43934799D01*
X156855101Y-43934799D02*
X160155101Y-43934799D01*
X160155101Y-43934799D02*
X160155101Y-42474799D01*
X160155101Y-42474799D02*
X156855101Y-42474799D01*
X160155101Y-41014299D02*
X156855101Y-41014299D01*
X160155101Y-42474299D02*
X160155101Y-41014299D01*
X156855101Y-42474299D02*
X160155101Y-42474299D01*
X156855101Y-41014299D02*
X156855101Y-42474299D01*
X156855101Y-39553799D02*
X156855101Y-41013799D01*
X156855101Y-41013799D02*
X160155101Y-41013799D01*
X160155101Y-41013799D02*
X160155101Y-39553799D01*
X160155101Y-39553799D02*
X156855101Y-39553799D01*
X160155101Y-38093299D02*
X156855101Y-38093299D01*
X160155101Y-39553299D02*
X160155101Y-38093299D01*
X156855101Y-39553299D02*
X160155101Y-39553299D01*
X156855101Y-38093299D02*
X156855101Y-39553299D01*
X167664601Y-47007799D02*
X160264601Y-47007799D01*
X167664601Y-36607799D02*
X167664601Y-47007799D01*
X160264601Y-36607799D02*
X167664601Y-36607799D01*
X160264601Y-47007799D02*
X160264601Y-36607799D01*
X176173101Y-38092799D02*
X179473101Y-38092799D01*
X176173101Y-36632799D02*
X176173101Y-38092799D01*
X179473101Y-36632799D02*
X176173101Y-36632799D01*
X179473101Y-38092799D02*
X179473101Y-36632799D01*
X176173101Y-45395799D02*
X176173101Y-46855799D01*
X176173101Y-46855799D02*
X179473101Y-46855799D01*
X179473101Y-46855799D02*
X179473101Y-45395799D01*
X179473101Y-45395799D02*
X176173101Y-45395799D01*
X179459101Y-43935299D02*
X176159101Y-43935299D01*
X179459101Y-45395299D02*
X179459101Y-43935299D01*
X176159101Y-45395299D02*
X179459101Y-45395299D01*
X176159101Y-43935299D02*
X176159101Y-45395299D01*
X176159101Y-42474799D02*
X176159101Y-43934799D01*
X176159101Y-43934799D02*
X179459101Y-43934799D01*
X179459101Y-43934799D02*
X179459101Y-42474799D01*
X179459101Y-42474799D02*
X176159101Y-42474799D01*
X179459101Y-41014299D02*
X176159101Y-41014299D01*
X179459101Y-42474299D02*
X179459101Y-41014299D01*
X176159101Y-42474299D02*
X179459101Y-42474299D01*
X176159101Y-41014299D02*
X176159101Y-42474299D01*
X176159101Y-39553799D02*
X176159101Y-41013799D01*
X176159101Y-41013799D02*
X179459101Y-41013799D01*
X179459101Y-41013799D02*
X179459101Y-39553799D01*
X179459101Y-39553799D02*
X176159101Y-39553799D01*
X179459101Y-38093299D02*
X176159101Y-38093299D01*
X179459101Y-39553299D02*
X179459101Y-38093299D01*
X176159101Y-39553299D02*
X179459101Y-39553299D01*
X176159101Y-38093299D02*
X176159101Y-39553299D01*
X192424001Y-38092799D02*
X192424001Y-36632799D01*
X192424001Y-36632799D02*
X189124001Y-36632799D01*
X189124001Y-36632799D02*
X189124001Y-38092799D01*
X189124001Y-38092799D02*
X192424001Y-38092799D01*
X192424001Y-45395799D02*
X189124001Y-45395799D01*
X192424001Y-46855799D02*
X192424001Y-45395799D01*
X189124001Y-46855799D02*
X192424001Y-46855799D01*
X189124001Y-45395799D02*
X189124001Y-46855799D01*
X189110001Y-43935299D02*
X189110001Y-45395299D01*
X189110001Y-45395299D02*
X192410001Y-45395299D01*
X192410001Y-45395299D02*
X192410001Y-43935299D01*
X192410001Y-43935299D02*
X189110001Y-43935299D01*
X192410001Y-42474799D02*
X189110001Y-42474799D01*
X192410001Y-43934799D02*
X192410001Y-42474799D01*
X189110001Y-43934799D02*
X192410001Y-43934799D01*
X189110001Y-42474799D02*
X189110001Y-43934799D01*
X189110001Y-41014299D02*
X189110001Y-42474299D01*
X189110001Y-42474299D02*
X192410001Y-42474299D01*
X192410001Y-42474299D02*
X192410001Y-41014299D01*
X192410001Y-41014299D02*
X189110001Y-41014299D01*
X192410001Y-39553799D02*
X189110001Y-39553799D01*
X192410001Y-41013799D02*
X192410001Y-39553799D01*
X189110001Y-41013799D02*
X192410001Y-41013799D01*
X189110001Y-39553799D02*
X189110001Y-41013799D01*
X189110001Y-38093299D02*
X189110001Y-39553299D01*
X189110001Y-39553299D02*
X192410001Y-39553299D01*
X192410001Y-39553299D02*
X192410001Y-38093299D01*
X192410001Y-38093299D02*
X189110001Y-38093299D01*
X186968601Y-47007799D02*
X179568601Y-47007799D01*
X186968601Y-36607799D02*
X186968601Y-47007799D01*
X179568601Y-36607799D02*
X186968601Y-36607799D01*
X179568601Y-47007799D02*
X179568601Y-36607799D01*
X192519501Y-47007799D02*
X192519501Y-36607799D01*
X192519501Y-36607799D02*
X199919501Y-36607799D01*
X199919501Y-36607799D02*
X199919501Y-47007799D01*
X199919501Y-47007799D02*
X192519501Y-47007799D01*
X172431500Y-33111400D02*
X169071500Y-33111400D01*
X172431500Y-35011400D02*
X172431500Y-33111400D01*
X169071500Y-35011400D02*
X172431500Y-35011400D01*
X169071500Y-33111400D02*
X169071500Y-35011400D01*
X140116500Y-34656500D02*
X140116500Y-31256500D01*
X140116500Y-31256500D02*
X136616500Y-31256500D01*
X136616500Y-31256500D02*
X136616500Y-34656500D01*
X136616500Y-34656500D02*
X140116500Y-34656500D01*
X150460500Y-55306000D02*
X150460500Y-53406000D01*
X150460500Y-53406000D02*
X147100500Y-53406000D01*
X147100500Y-53406000D02*
X147100500Y-55306000D01*
X147100500Y-55306000D02*
X150460500Y-55306000D01*
X195926500Y-53279000D02*
X192566500Y-53279000D01*
X195926500Y-55179000D02*
X195926500Y-53279000D01*
X192566500Y-55179000D02*
X195926500Y-55179000D01*
X192566500Y-53279000D02*
X192566500Y-55179000D01*
X140031500Y-37335500D02*
X140031500Y-35435500D01*
X140031500Y-35435500D02*
X136671500Y-35435500D01*
X136671500Y-35435500D02*
X136671500Y-37335500D01*
X136671500Y-37335500D02*
X140031500Y-37335500D01*
M02*
