G04 #@! TF.GenerationSoftware,KiCad,Pcbnew,(5.1.5)-2*
G04 #@! TF.CreationDate,2020-04-10T10:41:53+07:00*
G04 #@! TF.ProjectId,KIT_7SegLED_74HC595,4b49545f-3753-4656-974c-45445f373448,rev?*
G04 #@! TF.SameCoordinates,Original*
G04 #@! TF.FileFunction,Other,Fab,Top*
%FSLAX46Y46*%
G04 Gerber Fmt 4.6, Leading zero omitted, Abs format (unit mm)*
G04 Created by KiCad (PCBNEW (5.1.5)-2) date 2020-04-10 10:41:53*
%MOMM*%
%LPD*%
G04 APERTURE LIST*
%ADD10C,0.100000*%
%ADD11C,0.150000*%
%ADD12C,0.060000*%
%ADD13C,0.080000*%
G04 APERTURE END LIST*
D10*
X176339500Y-30924500D02*
X176339500Y-29019500D01*
X176339500Y-29019500D02*
X194119500Y-29019500D01*
X194119500Y-29019500D02*
X194119500Y-31559500D01*
X194119500Y-31559500D02*
X176974500Y-31559500D01*
X176974500Y-31559500D02*
X176339500Y-30924500D01*
X155570601Y-50726499D02*
X156570601Y-51726499D01*
X168170601Y-32676499D02*
X155570601Y-32676499D01*
X156570601Y-51726499D02*
X168170601Y-51726499D01*
X168170601Y-51726499D02*
X168170601Y-32676499D01*
X155570601Y-50726499D02*
X155570601Y-32676499D01*
X142632900Y-50727100D02*
X143632900Y-51727100D01*
X155232900Y-32677100D02*
X142632900Y-32677100D01*
X143632900Y-51727100D02*
X155232900Y-51727100D01*
X155232900Y-51727100D02*
X155232900Y-32677100D01*
X142632900Y-50727100D02*
X142632900Y-32677100D01*
X174874601Y-50726499D02*
X174874601Y-32676499D01*
X187474601Y-51726499D02*
X187474601Y-32676499D01*
X175874601Y-51726499D02*
X187474601Y-51726499D01*
X187474601Y-32676499D02*
X174874601Y-32676499D01*
X174874601Y-50726499D02*
X175874601Y-51726499D01*
X187825501Y-50726499D02*
X188825501Y-51726499D01*
X200425501Y-32676499D02*
X187825501Y-32676499D01*
X188825501Y-51726499D02*
X200425501Y-51726499D01*
X200425501Y-51726499D02*
X200425501Y-32676499D01*
X187825501Y-50726499D02*
X187825501Y-32676499D01*
X170017046Y-38465376D02*
G75*
G03X170017601Y-36133710I1500555J1165476D01*
G01*
X173017601Y-37299900D02*
G75*
G03X173017601Y-37299900I-1500000J0D01*
G01*
X170017601Y-36133710D02*
X170017601Y-38466090D01*
X173027601Y-47991090D02*
X173027601Y-45658710D01*
X173027601Y-46824900D02*
G75*
G03X173027601Y-46824900I-1500000J0D01*
G01*
X173028156Y-45659424D02*
G75*
G03X173027601Y-47991090I-1500555J-1165476D01*
G01*
X141890000Y-44186000D02*
G75*
G03X141890000Y-44186000I-6000000J0D01*
G01*
X136890000Y-44186000D02*
G75*
G03X136890000Y-44186000I-1000000J0D01*
G01*
X152396000Y-59588001D02*
X158396000Y-59588001D01*
X152396000Y-53588001D02*
X158396000Y-53588001D01*
X158396000Y-53588001D02*
X158396000Y-59588001D01*
X152396000Y-53588001D02*
X152396000Y-59588001D01*
X184527000Y-53479000D02*
X184527000Y-59479000D01*
X190527000Y-53479000D02*
X190527000Y-59479000D01*
X184527000Y-53479000D02*
X190527000Y-53479000D01*
X184527000Y-59479000D02*
X190527000Y-59479000D01*
X149542500Y-30924500D02*
X149542500Y-29019500D01*
X149542500Y-29019500D02*
X169862500Y-29019500D01*
X169862500Y-29019500D02*
X169862500Y-31559500D01*
X169862500Y-31559500D02*
X150177500Y-31559500D01*
X150177500Y-31559500D02*
X149542500Y-30924500D01*
X161690000Y-55714500D02*
X161690000Y-54414500D01*
X161690000Y-54414500D02*
X161390000Y-54114500D01*
X161390000Y-54114500D02*
X160890000Y-54114500D01*
X160890000Y-54114500D02*
X160890000Y-55714500D01*
X160890000Y-55714500D02*
X161690000Y-55714500D01*
X181057600Y-55714800D02*
X181857600Y-55714800D01*
X181057600Y-54114800D02*
X181057600Y-55714800D01*
X181557600Y-54114800D02*
X181057600Y-54114800D01*
X181857600Y-54414800D02*
X181557600Y-54114800D01*
X181857600Y-55714800D02*
X181857600Y-54414800D01*
X164430000Y-53762400D02*
X164430000Y-55762400D01*
X163230000Y-53762400D02*
X164430000Y-53762400D01*
X163230000Y-55762400D02*
X163230000Y-53762400D01*
X164430000Y-55762400D02*
X163230000Y-55762400D01*
X179466800Y-55813200D02*
X178266800Y-55813200D01*
X178266800Y-55813200D02*
X178266800Y-53813200D01*
X178266800Y-53813200D02*
X179466800Y-53813200D01*
X179466800Y-53813200D02*
X179466800Y-55813200D01*
D11*
X195536642Y-34027595D02*
X195584261Y-34075214D01*
X195631880Y-34218071D01*
X195631880Y-34313309D01*
X195584261Y-34456166D01*
X195489023Y-34551404D01*
X195393785Y-34599023D01*
X195203309Y-34646642D01*
X195060452Y-34646642D01*
X194869976Y-34599023D01*
X194774738Y-34551404D01*
X194679500Y-34456166D01*
X194631880Y-34313309D01*
X194631880Y-34218071D01*
X194679500Y-34075214D01*
X194727119Y-34027595D01*
X195631880Y-33456166D02*
X195584261Y-33551404D01*
X195536642Y-33599023D01*
X195441404Y-33646642D01*
X195155690Y-33646642D01*
X195060452Y-33599023D01*
X195012833Y-33551404D01*
X194965214Y-33456166D01*
X194965214Y-33313309D01*
X195012833Y-33218071D01*
X195060452Y-33170452D01*
X195155690Y-33122833D01*
X195441404Y-33122833D01*
X195536642Y-33170452D01*
X195584261Y-33218071D01*
X195631880Y-33313309D01*
X195631880Y-33456166D01*
X194965214Y-32694261D02*
X195631880Y-32694261D01*
X195060452Y-32694261D02*
X195012833Y-32646642D01*
X194965214Y-32551404D01*
X194965214Y-32408547D01*
X195012833Y-32313309D01*
X195108071Y-32265690D01*
X195631880Y-32265690D01*
X194965214Y-31789500D02*
X195631880Y-31789500D01*
X195060452Y-31789500D02*
X195012833Y-31741880D01*
X194965214Y-31646642D01*
X194965214Y-31503785D01*
X195012833Y-31408547D01*
X195108071Y-31360928D01*
X195631880Y-31360928D01*
X195727119Y-31122833D02*
X195727119Y-30360928D01*
X194631880Y-29932357D02*
X194631880Y-29837119D01*
X194679500Y-29741880D01*
X194727119Y-29694261D01*
X194822357Y-29646642D01*
X195012833Y-29599023D01*
X195250928Y-29599023D01*
X195441404Y-29646642D01*
X195536642Y-29694261D01*
X195584261Y-29741880D01*
X195631880Y-29837119D01*
X195631880Y-29932357D01*
X195584261Y-30027595D01*
X195536642Y-30075214D01*
X195441404Y-30122833D01*
X195250928Y-30170452D01*
X195012833Y-30170452D01*
X194822357Y-30122833D01*
X194727119Y-30075214D01*
X194679500Y-30027595D01*
X194631880Y-29932357D01*
X195631880Y-28646642D02*
X195631880Y-29218071D01*
X195631880Y-28932357D02*
X194631880Y-28932357D01*
X194774738Y-29027595D01*
X194869976Y-29122833D01*
X194917595Y-29218071D01*
X195631880Y-28313309D02*
X194965214Y-27789500D01*
X194965214Y-28313309D02*
X195631880Y-27789500D01*
X194631880Y-27218071D02*
X194631880Y-27122833D01*
X194679500Y-27027595D01*
X194727119Y-26979976D01*
X194822357Y-26932357D01*
X195012833Y-26884738D01*
X195250928Y-26884738D01*
X195441404Y-26932357D01*
X195536642Y-26979976D01*
X195584261Y-27027595D01*
X195631880Y-27122833D01*
X195631880Y-27218071D01*
X195584261Y-27313309D01*
X195536642Y-27360928D01*
X195441404Y-27408547D01*
X195250928Y-27456166D01*
X195012833Y-27456166D01*
X194822357Y-27408547D01*
X194727119Y-27360928D01*
X194679500Y-27313309D01*
X194631880Y-27218071D01*
X194631880Y-26551404D02*
X194631880Y-25884738D01*
X195631880Y-26313309D01*
X184896166Y-29741880D02*
X184896166Y-30456166D01*
X184848547Y-30599023D01*
X184753309Y-30694261D01*
X184610452Y-30741880D01*
X184515214Y-30741880D01*
X185324738Y-29837119D02*
X185372357Y-29789500D01*
X185467595Y-29741880D01*
X185705690Y-29741880D01*
X185800928Y-29789500D01*
X185848547Y-29837119D01*
X185896166Y-29932357D01*
X185896166Y-30027595D01*
X185848547Y-30170452D01*
X185277119Y-30741880D01*
X185896166Y-30741880D01*
X226210880Y-51211952D02*
X226210880Y-50640523D01*
X227210880Y-50926238D02*
X226210880Y-50926238D01*
X227210880Y-50307190D02*
X226544214Y-50307190D01*
X226210880Y-50307190D02*
X226258500Y-50354809D01*
X226306119Y-50307190D01*
X226258500Y-50259571D01*
X226210880Y-50307190D01*
X226306119Y-50307190D01*
X226544214Y-49831000D02*
X227210880Y-49831000D01*
X226639452Y-49831000D02*
X226591833Y-49783380D01*
X226544214Y-49688142D01*
X226544214Y-49545285D01*
X226591833Y-49450047D01*
X226687071Y-49402428D01*
X227210880Y-49402428D01*
X226544214Y-49021476D02*
X227210880Y-48783380D01*
X226544214Y-48545285D02*
X227210880Y-48783380D01*
X227448976Y-48878619D01*
X227496595Y-48926238D01*
X227544214Y-49021476D01*
X227306119Y-48402428D02*
X227306119Y-47640523D01*
X227210880Y-46831000D02*
X226734690Y-47164333D01*
X227210880Y-47402428D02*
X226210880Y-47402428D01*
X226210880Y-47021476D01*
X226258500Y-46926238D01*
X226306119Y-46878619D01*
X226401357Y-46831000D01*
X226544214Y-46831000D01*
X226639452Y-46878619D01*
X226687071Y-46926238D01*
X226734690Y-47021476D01*
X226734690Y-47402428D01*
X226210880Y-46545285D02*
X226210880Y-45973857D01*
X227210880Y-46259571D02*
X226210880Y-46259571D01*
X227115642Y-45069095D02*
X227163261Y-45116714D01*
X227210880Y-45259571D01*
X227210880Y-45354809D01*
X227163261Y-45497666D01*
X227068023Y-45592904D01*
X226972785Y-45640523D01*
X226782309Y-45688142D01*
X226639452Y-45688142D01*
X226448976Y-45640523D01*
X226353738Y-45592904D01*
X226258500Y-45497666D01*
X226210880Y-45354809D01*
X226210880Y-45259571D01*
X226258500Y-45116714D01*
X226306119Y-45069095D01*
X227306119Y-44878619D02*
X227306119Y-44116714D01*
X227210880Y-43878619D02*
X226210880Y-43878619D01*
X226210880Y-43640523D01*
X226258500Y-43497666D01*
X226353738Y-43402428D01*
X226448976Y-43354809D01*
X226639452Y-43307190D01*
X226782309Y-43307190D01*
X226972785Y-43354809D01*
X227068023Y-43402428D01*
X227163261Y-43497666D01*
X227210880Y-43640523D01*
X227210880Y-43878619D01*
X227163261Y-42926238D02*
X227210880Y-42783380D01*
X227210880Y-42545285D01*
X227163261Y-42450047D01*
X227115642Y-42402428D01*
X227020404Y-42354809D01*
X226925166Y-42354809D01*
X226829928Y-42402428D01*
X226782309Y-42450047D01*
X226734690Y-42545285D01*
X226687071Y-42735761D01*
X226639452Y-42831000D01*
X226591833Y-42878619D01*
X226496595Y-42926238D01*
X226401357Y-42926238D01*
X226306119Y-42878619D01*
X226258500Y-42831000D01*
X226210880Y-42735761D01*
X226210880Y-42497666D01*
X226258500Y-42354809D01*
X227210880Y-41402428D02*
X227210880Y-41973857D01*
X227210880Y-41688142D02*
X226210880Y-41688142D01*
X226353738Y-41783380D01*
X226448976Y-41878619D01*
X226496595Y-41973857D01*
X226210880Y-41069095D02*
X226210880Y-40450047D01*
X226591833Y-40783380D01*
X226591833Y-40640523D01*
X226639452Y-40545285D01*
X226687071Y-40497666D01*
X226782309Y-40450047D01*
X227020404Y-40450047D01*
X227115642Y-40497666D01*
X227163261Y-40545285D01*
X227210880Y-40640523D01*
X227210880Y-40926238D01*
X227163261Y-41021476D01*
X227115642Y-41069095D01*
X226210880Y-39831000D02*
X226210880Y-39735761D01*
X226258500Y-39640523D01*
X226306119Y-39592904D01*
X226401357Y-39545285D01*
X226591833Y-39497666D01*
X226829928Y-39497666D01*
X227020404Y-39545285D01*
X227115642Y-39592904D01*
X227163261Y-39640523D01*
X227210880Y-39735761D01*
X227210880Y-39831000D01*
X227163261Y-39926238D01*
X227115642Y-39973857D01*
X227020404Y-40021476D01*
X226829928Y-40069095D01*
X226591833Y-40069095D01*
X226401357Y-40021476D01*
X226306119Y-39973857D01*
X226258500Y-39926238D01*
X226210880Y-39831000D01*
X226210880Y-39164333D02*
X226210880Y-38497666D01*
X227210880Y-38926238D01*
X132491166Y-56742080D02*
X132491166Y-57456366D01*
X132443547Y-57599223D01*
X132348309Y-57694461D01*
X132205452Y-57742080D01*
X132110214Y-57742080D01*
X132919738Y-56837319D02*
X132967357Y-56789700D01*
X133062595Y-56742080D01*
X133300690Y-56742080D01*
X133395928Y-56789700D01*
X133443547Y-56837319D01*
X133491166Y-56932557D01*
X133491166Y-57027795D01*
X133443547Y-57170652D01*
X132872119Y-57742080D01*
X133491166Y-57742080D01*
X226598166Y-30707080D02*
X226598166Y-31421366D01*
X226550547Y-31564223D01*
X226455309Y-31659461D01*
X226312452Y-31707080D01*
X226217214Y-31707080D01*
X226979119Y-30707080D02*
X227598166Y-30707080D01*
X227264833Y-31088033D01*
X227407690Y-31088033D01*
X227502928Y-31135652D01*
X227550547Y-31183271D01*
X227598166Y-31278509D01*
X227598166Y-31516604D01*
X227550547Y-31611842D01*
X227502928Y-31659461D01*
X227407690Y-31707080D01*
X227121976Y-31707080D01*
X227026738Y-31659461D01*
X226979119Y-31611842D01*
X226598166Y-56742080D02*
X226598166Y-57456366D01*
X226550547Y-57599223D01*
X226455309Y-57694461D01*
X226312452Y-57742080D01*
X226217214Y-57742080D01*
X227502928Y-57075414D02*
X227502928Y-57742080D01*
X227264833Y-56694461D02*
X227026738Y-57408747D01*
X227645785Y-57408747D01*
X132491166Y-30707080D02*
X132491166Y-31421366D01*
X132443547Y-31564223D01*
X132348309Y-31659461D01*
X132205452Y-31707080D01*
X132110214Y-31707080D01*
X133491166Y-31707080D02*
X132919738Y-31707080D01*
X133205452Y-31707080D02*
X133205452Y-30707080D01*
X133110214Y-30849938D01*
X133014976Y-30945176D01*
X132919738Y-30992795D01*
X169822981Y-46868165D02*
X168822981Y-46868165D01*
X169822981Y-46296737D02*
X169251553Y-46725308D01*
X168822981Y-46296737D02*
X169394410Y-46868165D01*
X169727743Y-45296737D02*
X169775362Y-45344356D01*
X169822981Y-45487213D01*
X169822981Y-45582451D01*
X169775362Y-45725308D01*
X169680124Y-45820546D01*
X169584886Y-45868165D01*
X169394410Y-45915784D01*
X169251553Y-45915784D01*
X169061077Y-45868165D01*
X168965839Y-45820546D01*
X168870601Y-45725308D01*
X168822981Y-45582451D01*
X168822981Y-45487213D01*
X168870601Y-45344356D01*
X168918220Y-45296737D01*
X169775362Y-44915784D02*
X169822981Y-44772927D01*
X169822981Y-44534832D01*
X169775362Y-44439594D01*
X169727743Y-44391975D01*
X169632505Y-44344356D01*
X169537267Y-44344356D01*
X169442029Y-44391975D01*
X169394410Y-44439594D01*
X169346791Y-44534832D01*
X169299172Y-44725308D01*
X169251553Y-44820546D01*
X169203934Y-44868165D01*
X169108696Y-44915784D01*
X169013458Y-44915784D01*
X168918220Y-44868165D01*
X168870601Y-44820546D01*
X168822981Y-44725308D01*
X168822981Y-44487213D01*
X168870601Y-44344356D01*
X169537267Y-43963403D02*
X169537267Y-43487213D01*
X169822981Y-44058641D02*
X168822981Y-43725308D01*
X169822981Y-43391975D01*
X168822981Y-42868165D02*
X168822981Y-42772927D01*
X168870601Y-42677689D01*
X168918220Y-42630070D01*
X169013458Y-42582451D01*
X169203934Y-42534832D01*
X169442029Y-42534832D01*
X169632505Y-42582451D01*
X169727743Y-42630070D01*
X169775362Y-42677689D01*
X169822981Y-42772927D01*
X169822981Y-42868165D01*
X169775362Y-42963403D01*
X169727743Y-43011022D01*
X169632505Y-43058641D01*
X169442029Y-43106260D01*
X169203934Y-43106260D01*
X169013458Y-43058641D01*
X168918220Y-43011022D01*
X168870601Y-42963403D01*
X168822981Y-42868165D01*
X168918220Y-42153879D02*
X168870601Y-42106260D01*
X168822981Y-42011022D01*
X168822981Y-41772927D01*
X168870601Y-41677689D01*
X168918220Y-41630070D01*
X169013458Y-41582451D01*
X169108696Y-41582451D01*
X169251553Y-41630070D01*
X169822981Y-42201499D01*
X169822981Y-41582451D01*
X169442029Y-41153879D02*
X169442029Y-40391975D01*
X169822981Y-39391975D02*
X169822981Y-39963403D01*
X169822981Y-39677689D02*
X168822981Y-39677689D01*
X168965839Y-39772927D01*
X169061077Y-39868165D01*
X169108696Y-39963403D01*
X168822981Y-38772927D02*
X168822981Y-38677689D01*
X168870601Y-38582451D01*
X168918220Y-38534832D01*
X169013458Y-38487213D01*
X169203934Y-38439594D01*
X169442029Y-38439594D01*
X169632505Y-38487213D01*
X169727743Y-38534832D01*
X169775362Y-38582451D01*
X169822981Y-38677689D01*
X169822981Y-38772927D01*
X169775362Y-38868165D01*
X169727743Y-38915784D01*
X169632505Y-38963403D01*
X169442029Y-39011022D01*
X169203934Y-39011022D01*
X169013458Y-38963403D01*
X168918220Y-38915784D01*
X168870601Y-38868165D01*
X168822981Y-38772927D01*
X168822981Y-37534832D02*
X168822981Y-38011022D01*
X169299172Y-38058641D01*
X169251553Y-38011022D01*
X169203934Y-37915784D01*
X169203934Y-37677689D01*
X169251553Y-37582451D01*
X169299172Y-37534832D01*
X169394410Y-37487213D01*
X169632505Y-37487213D01*
X169727743Y-37534832D01*
X169775362Y-37582451D01*
X169822981Y-37677689D01*
X169822981Y-37915784D01*
X169775362Y-38011022D01*
X169727743Y-38058641D01*
X161322981Y-42713403D02*
X162132505Y-42713403D01*
X162227743Y-42665784D01*
X162275362Y-42618165D01*
X162322981Y-42522927D01*
X162322981Y-42332451D01*
X162275362Y-42237213D01*
X162227743Y-42189594D01*
X162132505Y-42141975D01*
X161322981Y-42141975D01*
X161656315Y-41237213D02*
X162322981Y-41237213D01*
X161275362Y-41475308D02*
X161989648Y-41713403D01*
X161989648Y-41094356D01*
X156885280Y-46868766D02*
X155885280Y-46868766D01*
X156885280Y-46297338D02*
X156313852Y-46725909D01*
X155885280Y-46297338D02*
X156456709Y-46868766D01*
X156790042Y-45297338D02*
X156837661Y-45344957D01*
X156885280Y-45487814D01*
X156885280Y-45583052D01*
X156837661Y-45725909D01*
X156742423Y-45821147D01*
X156647185Y-45868766D01*
X156456709Y-45916385D01*
X156313852Y-45916385D01*
X156123376Y-45868766D01*
X156028138Y-45821147D01*
X155932900Y-45725909D01*
X155885280Y-45583052D01*
X155885280Y-45487814D01*
X155932900Y-45344957D01*
X155980519Y-45297338D01*
X156837661Y-44916385D02*
X156885280Y-44773528D01*
X156885280Y-44535433D01*
X156837661Y-44440195D01*
X156790042Y-44392576D01*
X156694804Y-44344957D01*
X156599566Y-44344957D01*
X156504328Y-44392576D01*
X156456709Y-44440195D01*
X156409090Y-44535433D01*
X156361471Y-44725909D01*
X156313852Y-44821147D01*
X156266233Y-44868766D01*
X156170995Y-44916385D01*
X156075757Y-44916385D01*
X155980519Y-44868766D01*
X155932900Y-44821147D01*
X155885280Y-44725909D01*
X155885280Y-44487814D01*
X155932900Y-44344957D01*
X156599566Y-43964004D02*
X156599566Y-43487814D01*
X156885280Y-44059242D02*
X155885280Y-43725909D01*
X156885280Y-43392576D01*
X155885280Y-42868766D02*
X155885280Y-42773528D01*
X155932900Y-42678290D01*
X155980519Y-42630671D01*
X156075757Y-42583052D01*
X156266233Y-42535433D01*
X156504328Y-42535433D01*
X156694804Y-42583052D01*
X156790042Y-42630671D01*
X156837661Y-42678290D01*
X156885280Y-42773528D01*
X156885280Y-42868766D01*
X156837661Y-42964004D01*
X156790042Y-43011623D01*
X156694804Y-43059242D01*
X156504328Y-43106861D01*
X156266233Y-43106861D01*
X156075757Y-43059242D01*
X155980519Y-43011623D01*
X155932900Y-42964004D01*
X155885280Y-42868766D01*
X155980519Y-42154480D02*
X155932900Y-42106861D01*
X155885280Y-42011623D01*
X155885280Y-41773528D01*
X155932900Y-41678290D01*
X155980519Y-41630671D01*
X156075757Y-41583052D01*
X156170995Y-41583052D01*
X156313852Y-41630671D01*
X156885280Y-42202100D01*
X156885280Y-41583052D01*
X156504328Y-41154480D02*
X156504328Y-40392576D01*
X156885280Y-39392576D02*
X156885280Y-39964004D01*
X156885280Y-39678290D02*
X155885280Y-39678290D01*
X156028138Y-39773528D01*
X156123376Y-39868766D01*
X156170995Y-39964004D01*
X155885280Y-38773528D02*
X155885280Y-38678290D01*
X155932900Y-38583052D01*
X155980519Y-38535433D01*
X156075757Y-38487814D01*
X156266233Y-38440195D01*
X156504328Y-38440195D01*
X156694804Y-38487814D01*
X156790042Y-38535433D01*
X156837661Y-38583052D01*
X156885280Y-38678290D01*
X156885280Y-38773528D01*
X156837661Y-38868766D01*
X156790042Y-38916385D01*
X156694804Y-38964004D01*
X156504328Y-39011623D01*
X156266233Y-39011623D01*
X156075757Y-38964004D01*
X155980519Y-38916385D01*
X155932900Y-38868766D01*
X155885280Y-38773528D01*
X155885280Y-37535433D02*
X155885280Y-38011623D01*
X156361471Y-38059242D01*
X156313852Y-38011623D01*
X156266233Y-37916385D01*
X156266233Y-37678290D01*
X156313852Y-37583052D01*
X156361471Y-37535433D01*
X156456709Y-37487814D01*
X156694804Y-37487814D01*
X156790042Y-37535433D01*
X156837661Y-37583052D01*
X156885280Y-37678290D01*
X156885280Y-37916385D01*
X156837661Y-38011623D01*
X156790042Y-38059242D01*
X148385280Y-42714004D02*
X149194804Y-42714004D01*
X149290042Y-42666385D01*
X149337661Y-42618766D01*
X149385280Y-42523528D01*
X149385280Y-42333052D01*
X149337661Y-42237814D01*
X149290042Y-42190195D01*
X149194804Y-42142576D01*
X148385280Y-42142576D01*
X148480519Y-41714004D02*
X148432900Y-41666385D01*
X148385280Y-41571147D01*
X148385280Y-41333052D01*
X148432900Y-41237814D01*
X148480519Y-41190195D01*
X148575757Y-41142576D01*
X148670995Y-41142576D01*
X148813852Y-41190195D01*
X149385280Y-41761623D01*
X149385280Y-41142576D01*
X189126981Y-46868165D02*
X188126981Y-46868165D01*
X189126981Y-46296737D02*
X188555553Y-46725308D01*
X188126981Y-46296737D02*
X188698410Y-46868165D01*
X189031743Y-45296737D02*
X189079362Y-45344356D01*
X189126981Y-45487213D01*
X189126981Y-45582451D01*
X189079362Y-45725308D01*
X188984124Y-45820546D01*
X188888886Y-45868165D01*
X188698410Y-45915784D01*
X188555553Y-45915784D01*
X188365077Y-45868165D01*
X188269839Y-45820546D01*
X188174601Y-45725308D01*
X188126981Y-45582451D01*
X188126981Y-45487213D01*
X188174601Y-45344356D01*
X188222220Y-45296737D01*
X189079362Y-44915784D02*
X189126981Y-44772927D01*
X189126981Y-44534832D01*
X189079362Y-44439594D01*
X189031743Y-44391975D01*
X188936505Y-44344356D01*
X188841267Y-44344356D01*
X188746029Y-44391975D01*
X188698410Y-44439594D01*
X188650791Y-44534832D01*
X188603172Y-44725308D01*
X188555553Y-44820546D01*
X188507934Y-44868165D01*
X188412696Y-44915784D01*
X188317458Y-44915784D01*
X188222220Y-44868165D01*
X188174601Y-44820546D01*
X188126981Y-44725308D01*
X188126981Y-44487213D01*
X188174601Y-44344356D01*
X188841267Y-43963403D02*
X188841267Y-43487213D01*
X189126981Y-44058641D02*
X188126981Y-43725308D01*
X189126981Y-43391975D01*
X188126981Y-42868165D02*
X188126981Y-42772927D01*
X188174601Y-42677689D01*
X188222220Y-42630070D01*
X188317458Y-42582451D01*
X188507934Y-42534832D01*
X188746029Y-42534832D01*
X188936505Y-42582451D01*
X189031743Y-42630070D01*
X189079362Y-42677689D01*
X189126981Y-42772927D01*
X189126981Y-42868165D01*
X189079362Y-42963403D01*
X189031743Y-43011022D01*
X188936505Y-43058641D01*
X188746029Y-43106260D01*
X188507934Y-43106260D01*
X188317458Y-43058641D01*
X188222220Y-43011022D01*
X188174601Y-42963403D01*
X188126981Y-42868165D01*
X188222220Y-42153879D02*
X188174601Y-42106260D01*
X188126981Y-42011022D01*
X188126981Y-41772927D01*
X188174601Y-41677689D01*
X188222220Y-41630070D01*
X188317458Y-41582451D01*
X188412696Y-41582451D01*
X188555553Y-41630070D01*
X189126981Y-42201499D01*
X189126981Y-41582451D01*
X188746029Y-41153879D02*
X188746029Y-40391975D01*
X189126981Y-39391975D02*
X189126981Y-39963403D01*
X189126981Y-39677689D02*
X188126981Y-39677689D01*
X188269839Y-39772927D01*
X188365077Y-39868165D01*
X188412696Y-39963403D01*
X188126981Y-38772927D02*
X188126981Y-38677689D01*
X188174601Y-38582451D01*
X188222220Y-38534832D01*
X188317458Y-38487213D01*
X188507934Y-38439594D01*
X188746029Y-38439594D01*
X188936505Y-38487213D01*
X189031743Y-38534832D01*
X189079362Y-38582451D01*
X189126981Y-38677689D01*
X189126981Y-38772927D01*
X189079362Y-38868165D01*
X189031743Y-38915784D01*
X188936505Y-38963403D01*
X188746029Y-39011022D01*
X188507934Y-39011022D01*
X188317458Y-38963403D01*
X188222220Y-38915784D01*
X188174601Y-38868165D01*
X188126981Y-38772927D01*
X188126981Y-37534832D02*
X188126981Y-38011022D01*
X188603172Y-38058641D01*
X188555553Y-38011022D01*
X188507934Y-37915784D01*
X188507934Y-37677689D01*
X188555553Y-37582451D01*
X188603172Y-37534832D01*
X188698410Y-37487213D01*
X188936505Y-37487213D01*
X189031743Y-37534832D01*
X189079362Y-37582451D01*
X189126981Y-37677689D01*
X189126981Y-37915784D01*
X189079362Y-38011022D01*
X189031743Y-38058641D01*
X180626981Y-42713403D02*
X181436505Y-42713403D01*
X181531743Y-42665784D01*
X181579362Y-42618165D01*
X181626981Y-42522927D01*
X181626981Y-42332451D01*
X181579362Y-42237213D01*
X181531743Y-42189594D01*
X181436505Y-42141975D01*
X180626981Y-42141975D01*
X180626981Y-41237213D02*
X180626981Y-41427689D01*
X180674601Y-41522927D01*
X180722220Y-41570546D01*
X180865077Y-41665784D01*
X181055553Y-41713403D01*
X181436505Y-41713403D01*
X181531743Y-41665784D01*
X181579362Y-41618165D01*
X181626981Y-41522927D01*
X181626981Y-41332451D01*
X181579362Y-41237213D01*
X181531743Y-41189594D01*
X181436505Y-41141975D01*
X181198410Y-41141975D01*
X181103172Y-41189594D01*
X181055553Y-41237213D01*
X181007934Y-41332451D01*
X181007934Y-41522927D01*
X181055553Y-41618165D01*
X181103172Y-41665784D01*
X181198410Y-41713403D01*
X202077881Y-46868165D02*
X201077881Y-46868165D01*
X202077881Y-46296737D02*
X201506453Y-46725308D01*
X201077881Y-46296737D02*
X201649310Y-46868165D01*
X201982643Y-45296737D02*
X202030262Y-45344356D01*
X202077881Y-45487213D01*
X202077881Y-45582451D01*
X202030262Y-45725308D01*
X201935024Y-45820546D01*
X201839786Y-45868165D01*
X201649310Y-45915784D01*
X201506453Y-45915784D01*
X201315977Y-45868165D01*
X201220739Y-45820546D01*
X201125501Y-45725308D01*
X201077881Y-45582451D01*
X201077881Y-45487213D01*
X201125501Y-45344356D01*
X201173120Y-45296737D01*
X202030262Y-44915784D02*
X202077881Y-44772927D01*
X202077881Y-44534832D01*
X202030262Y-44439594D01*
X201982643Y-44391975D01*
X201887405Y-44344356D01*
X201792167Y-44344356D01*
X201696929Y-44391975D01*
X201649310Y-44439594D01*
X201601691Y-44534832D01*
X201554072Y-44725308D01*
X201506453Y-44820546D01*
X201458834Y-44868165D01*
X201363596Y-44915784D01*
X201268358Y-44915784D01*
X201173120Y-44868165D01*
X201125501Y-44820546D01*
X201077881Y-44725308D01*
X201077881Y-44487213D01*
X201125501Y-44344356D01*
X201792167Y-43963403D02*
X201792167Y-43487213D01*
X202077881Y-44058641D02*
X201077881Y-43725308D01*
X202077881Y-43391975D01*
X201077881Y-42868165D02*
X201077881Y-42772927D01*
X201125501Y-42677689D01*
X201173120Y-42630070D01*
X201268358Y-42582451D01*
X201458834Y-42534832D01*
X201696929Y-42534832D01*
X201887405Y-42582451D01*
X201982643Y-42630070D01*
X202030262Y-42677689D01*
X202077881Y-42772927D01*
X202077881Y-42868165D01*
X202030262Y-42963403D01*
X201982643Y-43011022D01*
X201887405Y-43058641D01*
X201696929Y-43106260D01*
X201458834Y-43106260D01*
X201268358Y-43058641D01*
X201173120Y-43011022D01*
X201125501Y-42963403D01*
X201077881Y-42868165D01*
X201173120Y-42153879D02*
X201125501Y-42106260D01*
X201077881Y-42011022D01*
X201077881Y-41772927D01*
X201125501Y-41677689D01*
X201173120Y-41630070D01*
X201268358Y-41582451D01*
X201363596Y-41582451D01*
X201506453Y-41630070D01*
X202077881Y-42201499D01*
X202077881Y-41582451D01*
X201696929Y-41153879D02*
X201696929Y-40391975D01*
X202077881Y-39391975D02*
X202077881Y-39963403D01*
X202077881Y-39677689D02*
X201077881Y-39677689D01*
X201220739Y-39772927D01*
X201315977Y-39868165D01*
X201363596Y-39963403D01*
X201077881Y-38772927D02*
X201077881Y-38677689D01*
X201125501Y-38582451D01*
X201173120Y-38534832D01*
X201268358Y-38487213D01*
X201458834Y-38439594D01*
X201696929Y-38439594D01*
X201887405Y-38487213D01*
X201982643Y-38534832D01*
X202030262Y-38582451D01*
X202077881Y-38677689D01*
X202077881Y-38772927D01*
X202030262Y-38868165D01*
X201982643Y-38915784D01*
X201887405Y-38963403D01*
X201696929Y-39011022D01*
X201458834Y-39011022D01*
X201268358Y-38963403D01*
X201173120Y-38915784D01*
X201125501Y-38868165D01*
X201077881Y-38772927D01*
X201077881Y-37534832D02*
X201077881Y-38011022D01*
X201554072Y-38058641D01*
X201506453Y-38011022D01*
X201458834Y-37915784D01*
X201458834Y-37677689D01*
X201506453Y-37582451D01*
X201554072Y-37534832D01*
X201649310Y-37487213D01*
X201887405Y-37487213D01*
X201982643Y-37534832D01*
X202030262Y-37582451D01*
X202077881Y-37677689D01*
X202077881Y-37915784D01*
X202030262Y-38011022D01*
X201982643Y-38058641D01*
X193577881Y-42713403D02*
X194387405Y-42713403D01*
X194482643Y-42665784D01*
X194530262Y-42618165D01*
X194577881Y-42522927D01*
X194577881Y-42332451D01*
X194530262Y-42237213D01*
X194482643Y-42189594D01*
X194387405Y-42141975D01*
X193577881Y-42141975D01*
X194006453Y-41522927D02*
X193958834Y-41618165D01*
X193911215Y-41665784D01*
X193815977Y-41713403D01*
X193768358Y-41713403D01*
X193673120Y-41665784D01*
X193625501Y-41618165D01*
X193577881Y-41522927D01*
X193577881Y-41332451D01*
X193625501Y-41237213D01*
X193673120Y-41189594D01*
X193768358Y-41141975D01*
X193815977Y-41141975D01*
X193911215Y-41189594D01*
X193958834Y-41237213D01*
X194006453Y-41332451D01*
X194006453Y-41522927D01*
X194054072Y-41618165D01*
X194101691Y-41665784D01*
X194196929Y-41713403D01*
X194387405Y-41713403D01*
X194482643Y-41665784D01*
X194530262Y-41618165D01*
X194577881Y-41522927D01*
X194577881Y-41332451D01*
X194530262Y-41237213D01*
X194482643Y-41189594D01*
X194387405Y-41141975D01*
X194196929Y-41141975D01*
X194101691Y-41189594D01*
X194054072Y-41237213D01*
X194006453Y-41332451D01*
X169874743Y-40712280D02*
X169874743Y-39712280D01*
X170112839Y-39712280D01*
X170255696Y-39759900D01*
X170350934Y-39855138D01*
X170398553Y-39950376D01*
X170446172Y-40140852D01*
X170446172Y-40283709D01*
X170398553Y-40474185D01*
X170350934Y-40569423D01*
X170255696Y-40664661D01*
X170112839Y-40712280D01*
X169874743Y-40712280D01*
X171065220Y-39712280D02*
X171255696Y-39712280D01*
X171350934Y-39759900D01*
X171446172Y-39855138D01*
X171493791Y-40045614D01*
X171493791Y-40378947D01*
X171446172Y-40569423D01*
X171350934Y-40664661D01*
X171255696Y-40712280D01*
X171065220Y-40712280D01*
X170969981Y-40664661D01*
X170874743Y-40569423D01*
X170827124Y-40378947D01*
X170827124Y-40045614D01*
X170874743Y-39855138D01*
X170969981Y-39759900D01*
X171065220Y-39712280D01*
X171779505Y-39712280D02*
X172350934Y-39712280D01*
X172065220Y-40712280D02*
X172065220Y-39712280D01*
X173208077Y-40712280D02*
X172636648Y-40712280D01*
X172922362Y-40712280D02*
X172922362Y-39712280D01*
X172827124Y-39855138D01*
X172731886Y-39950376D01*
X172636648Y-39997995D01*
X169884743Y-44317280D02*
X169884743Y-43317280D01*
X170122839Y-43317280D01*
X170265696Y-43364900D01*
X170360934Y-43460138D01*
X170408553Y-43555376D01*
X170456172Y-43745852D01*
X170456172Y-43888709D01*
X170408553Y-44079185D01*
X170360934Y-44174423D01*
X170265696Y-44269661D01*
X170122839Y-44317280D01*
X169884743Y-44317280D01*
X171075220Y-43317280D02*
X171265696Y-43317280D01*
X171360934Y-43364900D01*
X171456172Y-43460138D01*
X171503791Y-43650614D01*
X171503791Y-43983947D01*
X171456172Y-44174423D01*
X171360934Y-44269661D01*
X171265696Y-44317280D01*
X171075220Y-44317280D01*
X170979981Y-44269661D01*
X170884743Y-44174423D01*
X170837124Y-43983947D01*
X170837124Y-43650614D01*
X170884743Y-43460138D01*
X170979981Y-43364900D01*
X171075220Y-43317280D01*
X171789505Y-43317280D02*
X172360934Y-43317280D01*
X172075220Y-44317280D02*
X172075220Y-43317280D01*
X172646648Y-43412519D02*
X172694267Y-43364900D01*
X172789505Y-43317280D01*
X173027601Y-43317280D01*
X173122839Y-43364900D01*
X173170458Y-43412519D01*
X173218077Y-43507757D01*
X173218077Y-43602995D01*
X173170458Y-43745852D01*
X172599029Y-44317280D01*
X173218077Y-44317280D01*
X128418571Y-46114571D02*
X128466190Y-45971714D01*
X128513809Y-45924095D01*
X128609047Y-45876476D01*
X128751904Y-45876476D01*
X128847142Y-45924095D01*
X128894761Y-45971714D01*
X128942380Y-46066952D01*
X128942380Y-46447904D01*
X127942380Y-46447904D01*
X127942380Y-46114571D01*
X127990000Y-46019333D01*
X128037619Y-45971714D01*
X128132857Y-45924095D01*
X128228095Y-45924095D01*
X128323333Y-45971714D01*
X128370952Y-46019333D01*
X128418571Y-46114571D01*
X128418571Y-46447904D01*
X128275714Y-45019333D02*
X128942380Y-45019333D01*
X128275714Y-45447904D02*
X128799523Y-45447904D01*
X128894761Y-45400285D01*
X128942380Y-45305047D01*
X128942380Y-45162190D01*
X128894761Y-45066952D01*
X128847142Y-45019333D01*
X128275714Y-44638380D02*
X128275714Y-44114571D01*
X128942380Y-44638380D01*
X128942380Y-44114571D01*
X128275714Y-43828857D02*
X128275714Y-43305047D01*
X128942380Y-43828857D01*
X128942380Y-43305047D01*
X128894761Y-42543142D02*
X128942380Y-42638380D01*
X128942380Y-42828857D01*
X128894761Y-42924095D01*
X128799523Y-42971714D01*
X128418571Y-42971714D01*
X128323333Y-42924095D01*
X128275714Y-42828857D01*
X128275714Y-42638380D01*
X128323333Y-42543142D01*
X128418571Y-42495523D01*
X128513809Y-42495523D01*
X128609047Y-42971714D01*
X128942380Y-42066952D02*
X128275714Y-42066952D01*
X128466190Y-42066952D02*
X128370952Y-42019333D01*
X128323333Y-41971714D01*
X128275714Y-41876476D01*
X128275714Y-41781238D01*
X138501428Y-40756952D02*
X138501428Y-39995047D01*
X138882380Y-40376000D02*
X138120476Y-40376000D01*
X139818571Y-45066952D02*
X139866190Y-44924095D01*
X139913809Y-44876476D01*
X140009047Y-44828857D01*
X140151904Y-44828857D01*
X140247142Y-44876476D01*
X140294761Y-44924095D01*
X140342380Y-45019333D01*
X140342380Y-45400285D01*
X139342380Y-45400285D01*
X139342380Y-45066952D01*
X139390000Y-44971714D01*
X139437619Y-44924095D01*
X139532857Y-44876476D01*
X139628095Y-44876476D01*
X139723333Y-44924095D01*
X139770952Y-44971714D01*
X139818571Y-45066952D01*
X139818571Y-45400285D01*
X139342380Y-44495523D02*
X139342380Y-43828857D01*
X140342380Y-44495523D01*
X140342380Y-43828857D01*
X140342380Y-42924095D02*
X140342380Y-43495523D01*
X140342380Y-43209809D02*
X139342380Y-43209809D01*
X139485238Y-43305047D01*
X139580476Y-43400285D01*
X139628095Y-43495523D01*
X154012666Y-61242762D02*
X154155523Y-61290381D01*
X154393619Y-61290381D01*
X154488857Y-61242762D01*
X154536476Y-61195143D01*
X154584095Y-61099905D01*
X154584095Y-61004667D01*
X154536476Y-60909429D01*
X154488857Y-60861810D01*
X154393619Y-60814191D01*
X154203142Y-60766572D01*
X154107904Y-60718953D01*
X154060285Y-60671334D01*
X154012666Y-60576096D01*
X154012666Y-60480858D01*
X154060285Y-60385620D01*
X154107904Y-60338001D01*
X154203142Y-60290381D01*
X154441238Y-60290381D01*
X154584095Y-60338001D01*
X154917428Y-60290381D02*
X155155523Y-61290381D01*
X155346000Y-60576096D01*
X155536476Y-61290381D01*
X155774571Y-60290381D01*
X156679333Y-61290381D02*
X156107904Y-61290381D01*
X156393619Y-61290381D02*
X156393619Y-60290381D01*
X156298380Y-60433239D01*
X156203142Y-60528477D01*
X156107904Y-60576096D01*
X154062666Y-56992762D02*
X154205523Y-57040381D01*
X154443619Y-57040381D01*
X154538857Y-56992762D01*
X154586476Y-56945143D01*
X154634095Y-56849905D01*
X154634095Y-56754667D01*
X154586476Y-56659429D01*
X154538857Y-56611810D01*
X154443619Y-56564191D01*
X154253142Y-56516572D01*
X154157904Y-56468953D01*
X154110285Y-56421334D01*
X154062666Y-56326096D01*
X154062666Y-56230858D01*
X154110285Y-56135620D01*
X154157904Y-56088001D01*
X154253142Y-56040381D01*
X154491238Y-56040381D01*
X154634095Y-56088001D01*
X154967428Y-56040381D02*
X155205523Y-57040381D01*
X155396000Y-56326096D01*
X155586476Y-57040381D01*
X155824571Y-56040381D01*
X156729333Y-57040381D02*
X156157904Y-57040381D01*
X156443619Y-57040381D02*
X156443619Y-56040381D01*
X156348380Y-56183239D01*
X156253142Y-56278477D01*
X156157904Y-56326096D01*
X186143666Y-61133761D02*
X186286523Y-61181380D01*
X186524619Y-61181380D01*
X186619857Y-61133761D01*
X186667476Y-61086142D01*
X186715095Y-60990904D01*
X186715095Y-60895666D01*
X186667476Y-60800428D01*
X186619857Y-60752809D01*
X186524619Y-60705190D01*
X186334142Y-60657571D01*
X186238904Y-60609952D01*
X186191285Y-60562333D01*
X186143666Y-60467095D01*
X186143666Y-60371857D01*
X186191285Y-60276619D01*
X186238904Y-60229000D01*
X186334142Y-60181380D01*
X186572238Y-60181380D01*
X186715095Y-60229000D01*
X187048428Y-60181380D02*
X187286523Y-61181380D01*
X187477000Y-60467095D01*
X187667476Y-61181380D01*
X187905571Y-60181380D01*
X188810333Y-61181380D02*
X188238904Y-61181380D01*
X188524619Y-61181380D02*
X188524619Y-60181380D01*
X188429380Y-60324238D01*
X188334142Y-60419476D01*
X188238904Y-60467095D01*
X186193666Y-56883761D02*
X186336523Y-56931380D01*
X186574619Y-56931380D01*
X186669857Y-56883761D01*
X186717476Y-56836142D01*
X186765095Y-56740904D01*
X186765095Y-56645666D01*
X186717476Y-56550428D01*
X186669857Y-56502809D01*
X186574619Y-56455190D01*
X186384142Y-56407571D01*
X186288904Y-56359952D01*
X186241285Y-56312333D01*
X186193666Y-56217095D01*
X186193666Y-56121857D01*
X186241285Y-56026619D01*
X186288904Y-55979000D01*
X186384142Y-55931380D01*
X186622238Y-55931380D01*
X186765095Y-55979000D01*
X187098428Y-55931380D02*
X187336523Y-56931380D01*
X187527000Y-56217095D01*
X187717476Y-56931380D01*
X187955571Y-55931380D01*
X188288904Y-56026619D02*
X188336523Y-55979000D01*
X188431761Y-55931380D01*
X188669857Y-55931380D01*
X188765095Y-55979000D01*
X188812714Y-56026619D01*
X188860333Y-56121857D01*
X188860333Y-56217095D01*
X188812714Y-56359952D01*
X188241285Y-56931380D01*
X188860333Y-56931380D01*
X171374880Y-32860928D02*
X171374880Y-33337119D01*
X170374880Y-33337119D01*
X170851071Y-32527595D02*
X170851071Y-32194261D01*
X171374880Y-32051404D02*
X171374880Y-32527595D01*
X170374880Y-32527595D01*
X170374880Y-32051404D01*
X171374880Y-31622833D02*
X170374880Y-31622833D01*
X170374880Y-31384738D01*
X170422500Y-31241880D01*
X170517738Y-31146642D01*
X170612976Y-31099023D01*
X170803452Y-31051404D01*
X170946309Y-31051404D01*
X171136785Y-31099023D01*
X171232023Y-31146642D01*
X171327261Y-31241880D01*
X171374880Y-31384738D01*
X171374880Y-31622833D01*
X171470119Y-30860928D02*
X171470119Y-30099023D01*
X171279642Y-29289500D02*
X171327261Y-29337119D01*
X171374880Y-29479976D01*
X171374880Y-29575214D01*
X171327261Y-29718071D01*
X171232023Y-29813309D01*
X171136785Y-29860928D01*
X170946309Y-29908547D01*
X170803452Y-29908547D01*
X170612976Y-29860928D01*
X170517738Y-29813309D01*
X170422500Y-29718071D01*
X170374880Y-29575214D01*
X170374880Y-29479976D01*
X170422500Y-29337119D01*
X170470119Y-29289500D01*
X170374880Y-28670452D02*
X170374880Y-28479976D01*
X170422500Y-28384738D01*
X170517738Y-28289500D01*
X170708214Y-28241880D01*
X171041547Y-28241880D01*
X171232023Y-28289500D01*
X171327261Y-28384738D01*
X171374880Y-28479976D01*
X171374880Y-28670452D01*
X171327261Y-28765690D01*
X171232023Y-28860928D01*
X171041547Y-28908547D01*
X170708214Y-28908547D01*
X170517738Y-28860928D01*
X170422500Y-28765690D01*
X170374880Y-28670452D01*
X171374880Y-27813309D02*
X170374880Y-27813309D01*
X171374880Y-27241880D01*
X170374880Y-27241880D01*
X159369166Y-29741880D02*
X159369166Y-30456166D01*
X159321547Y-30599023D01*
X159226309Y-30694261D01*
X159083452Y-30741880D01*
X158988214Y-30741880D01*
X160369166Y-30741880D02*
X159797738Y-30741880D01*
X160083452Y-30741880D02*
X160083452Y-29741880D01*
X159988214Y-29884738D01*
X159892976Y-29979976D01*
X159797738Y-30027595D01*
X160362380Y-55652595D02*
X159362380Y-55652595D01*
X159362380Y-55414500D01*
X159410000Y-55271642D01*
X159505238Y-55176404D01*
X159600476Y-55128785D01*
X159790952Y-55081166D01*
X159933809Y-55081166D01*
X160124285Y-55128785D01*
X160219523Y-55176404D01*
X160314761Y-55271642D01*
X160362380Y-55414500D01*
X160362380Y-55652595D01*
X160362380Y-54128785D02*
X160362380Y-54700214D01*
X160362380Y-54414500D02*
X159362380Y-54414500D01*
X159505238Y-54509738D01*
X159600476Y-54604976D01*
X159648095Y-54700214D01*
D12*
X161470952Y-55209738D02*
X161070952Y-55209738D01*
X161070952Y-55114500D01*
X161090000Y-55057357D01*
X161128095Y-55019261D01*
X161166190Y-55000214D01*
X161242380Y-54981166D01*
X161299523Y-54981166D01*
X161375714Y-55000214D01*
X161413809Y-55019261D01*
X161451904Y-55057357D01*
X161470952Y-55114500D01*
X161470952Y-55209738D01*
X161070952Y-54847833D02*
X161070952Y-54600214D01*
X161223333Y-54733547D01*
X161223333Y-54676404D01*
X161242380Y-54638309D01*
X161261428Y-54619261D01*
X161299523Y-54600214D01*
X161394761Y-54600214D01*
X161432857Y-54619261D01*
X161451904Y-54638309D01*
X161470952Y-54676404D01*
X161470952Y-54790690D01*
X161451904Y-54828785D01*
X161432857Y-54847833D01*
D11*
X180529980Y-55652895D02*
X179529980Y-55652895D01*
X179529980Y-55414800D01*
X179577600Y-55271942D01*
X179672838Y-55176704D01*
X179768076Y-55129085D01*
X179958552Y-55081466D01*
X180101409Y-55081466D01*
X180291885Y-55129085D01*
X180387123Y-55176704D01*
X180482361Y-55271942D01*
X180529980Y-55414800D01*
X180529980Y-55652895D01*
X180529980Y-54129085D02*
X180529980Y-54700514D01*
X180529980Y-54414800D02*
X179529980Y-54414800D01*
X179672838Y-54510038D01*
X179768076Y-54605276D01*
X179815695Y-54700514D01*
D12*
X181638552Y-55210038D02*
X181238552Y-55210038D01*
X181238552Y-55114800D01*
X181257600Y-55057657D01*
X181295695Y-55019561D01*
X181333790Y-55000514D01*
X181409980Y-54981466D01*
X181467123Y-54981466D01*
X181543314Y-55000514D01*
X181581409Y-55019561D01*
X181619504Y-55057657D01*
X181638552Y-55114800D01*
X181638552Y-55210038D01*
X181371885Y-54638609D02*
X181638552Y-54638609D01*
X181219504Y-54733847D02*
X181505219Y-54829085D01*
X181505219Y-54581466D01*
D13*
X164056190Y-55083828D02*
X163818095Y-55250495D01*
X164056190Y-55369542D02*
X163556190Y-55369542D01*
X163556190Y-55179066D01*
X163580000Y-55131447D01*
X163603809Y-55107638D01*
X163651428Y-55083828D01*
X163722857Y-55083828D01*
X163770476Y-55107638D01*
X163794285Y-55131447D01*
X163818095Y-55179066D01*
X163818095Y-55369542D01*
X163556190Y-54917161D02*
X163556190Y-54607638D01*
X163746666Y-54774304D01*
X163746666Y-54702876D01*
X163770476Y-54655257D01*
X163794285Y-54631447D01*
X163841904Y-54607638D01*
X163960952Y-54607638D01*
X164008571Y-54631447D01*
X164032380Y-54655257D01*
X164056190Y-54702876D01*
X164056190Y-54845733D01*
X164032380Y-54893352D01*
X164008571Y-54917161D01*
X163556190Y-54440971D02*
X163556190Y-54131447D01*
X163746666Y-54298114D01*
X163746666Y-54226685D01*
X163770476Y-54179066D01*
X163794285Y-54155257D01*
X163841904Y-54131447D01*
X163960952Y-54131447D01*
X164008571Y-54155257D01*
X164032380Y-54179066D01*
X164056190Y-54226685D01*
X164056190Y-54369542D01*
X164032380Y-54417161D01*
X164008571Y-54440971D01*
X179092990Y-55134628D02*
X178854895Y-55301295D01*
X179092990Y-55420342D02*
X178592990Y-55420342D01*
X178592990Y-55229866D01*
X178616800Y-55182247D01*
X178640609Y-55158438D01*
X178688228Y-55134628D01*
X178759657Y-55134628D01*
X178807276Y-55158438D01*
X178831085Y-55182247D01*
X178854895Y-55229866D01*
X178854895Y-55420342D01*
X178592990Y-54967961D02*
X178592990Y-54658438D01*
X178783466Y-54825104D01*
X178783466Y-54753676D01*
X178807276Y-54706057D01*
X178831085Y-54682247D01*
X178878704Y-54658438D01*
X178997752Y-54658438D01*
X179045371Y-54682247D01*
X179069180Y-54706057D01*
X179092990Y-54753676D01*
X179092990Y-54896533D01*
X179069180Y-54944152D01*
X179045371Y-54967961D01*
X178759657Y-54229866D02*
X179092990Y-54229866D01*
X178569180Y-54348914D02*
X178926323Y-54467961D01*
X178926323Y-54158438D01*
M02*
