G04 #@! TF.GenerationSoftware,KiCad,Pcbnew,(5.1.5)-2*
G04 #@! TF.CreationDate,2020-04-10T10:41:52+07:00*
G04 #@! TF.ProjectId,KIT_7SegLED_74HC595,4b49545f-3753-4656-974c-45445f373448,rev?*
G04 #@! TF.SameCoordinates,Original*
G04 #@! TF.FileFunction,Copper,L1,Top*
G04 #@! TF.FilePolarity,Positive*
%FSLAX46Y46*%
G04 Gerber Fmt 4.6, Leading zero omitted, Abs format (unit mm)*
G04 Created by KiCad (PCBNEW (5.1.5)-2) date 2020-04-10 10:41:52*
%MOMM*%
%LPD*%
G04 APERTURE LIST*
%ADD10R,1.700000X1.700000*%
%ADD11O,1.700000X1.700000*%
%ADD12C,1.800000*%
%ADD13R,1.800000X1.800000*%
%ADD14C,5.000000*%
%ADD15C,0.800000*%
%ADD16R,1.524000X2.000000*%
%ADD17O,1.524000X2.000000*%
%ADD18R,1.500000X1.500000*%
%ADD19C,1.500000*%
%ADD20R,2.000000X2.000000*%
%ADD21C,2.000000*%
%ADD22C,1.700000*%
%ADD23C,0.100000*%
%ADD24C,1.200000*%
%ADD25C,0.400000*%
%ADD26C,0.250000*%
G04 APERTURE END LIST*
D10*
X177609500Y-30289500D03*
D11*
X180149500Y-30289500D03*
X182689500Y-30289500D03*
X185229500Y-30289500D03*
X187769500Y-30289500D03*
X190309500Y-30289500D03*
X192849500Y-30289500D03*
D12*
X211518500Y-32131000D03*
X214058500Y-32131000D03*
X216598500Y-32131000D03*
X219138500Y-32131000D03*
X221678500Y-32131000D03*
X206438500Y-56261000D03*
X208978500Y-56261000D03*
X211518500Y-56261000D03*
X214058500Y-56261000D03*
X216598500Y-56261000D03*
X219138500Y-56261000D03*
D13*
X221678500Y-56261000D03*
D14*
X132524500Y-57289700D03*
D15*
X134399500Y-57289700D03*
X133850325Y-58615525D03*
X132524500Y-59164700D03*
X131198675Y-58615525D03*
X130649500Y-57289700D03*
X131198675Y-55963875D03*
X132524500Y-55414700D03*
X133850325Y-55963875D03*
X227957325Y-29928875D03*
X226631500Y-29379700D03*
X225305675Y-29928875D03*
X224756500Y-31254700D03*
X225305675Y-32580525D03*
X226631500Y-33129700D03*
X227957325Y-32580525D03*
X228506500Y-31254700D03*
D14*
X226631500Y-31254700D03*
X226631500Y-57289700D03*
D15*
X228506500Y-57289700D03*
X227957325Y-58615525D03*
X226631500Y-59164700D03*
X225305675Y-58615525D03*
X224756500Y-57289700D03*
X225305675Y-55963875D03*
X226631500Y-55414700D03*
X227957325Y-55963875D03*
X133850325Y-29928875D03*
X132524500Y-29379700D03*
X131198675Y-29928875D03*
X130649500Y-31254700D03*
X131198675Y-32580525D03*
X132524500Y-33129700D03*
X133850325Y-32580525D03*
X134399500Y-31254700D03*
D14*
X132524500Y-31254700D03*
D16*
X156790601Y-49821499D03*
D17*
X159330601Y-49821499D03*
X161870601Y-49821499D03*
X164410601Y-49821499D03*
X166950601Y-49821499D03*
X166950601Y-34581499D03*
X164410601Y-34581499D03*
X161870601Y-34581499D03*
X159330601Y-34581499D03*
X156790601Y-34581499D03*
D16*
X143852900Y-49822100D03*
D17*
X146392900Y-49822100D03*
X148932900Y-49822100D03*
X151472900Y-49822100D03*
X154012900Y-49822100D03*
X154012900Y-34582100D03*
X151472900Y-34582100D03*
X148932900Y-34582100D03*
X146392900Y-34582100D03*
X143852900Y-34582100D03*
X176094601Y-34581499D03*
X178634601Y-34581499D03*
X181174601Y-34581499D03*
X183714601Y-34581499D03*
X186254601Y-34581499D03*
X186254601Y-49821499D03*
X183714601Y-49821499D03*
X181174601Y-49821499D03*
X178634601Y-49821499D03*
D16*
X176094601Y-49821499D03*
X189045501Y-49821499D03*
D17*
X191585501Y-49821499D03*
X194125501Y-49821499D03*
X196665501Y-49821499D03*
X199205501Y-49821499D03*
X199205501Y-34581499D03*
X196665501Y-34581499D03*
X194125501Y-34581499D03*
X191585501Y-34581499D03*
X189045501Y-34581499D03*
D18*
X170247601Y-37299900D03*
D19*
X172787601Y-37299900D03*
X170257601Y-46824900D03*
D18*
X172797601Y-46824900D03*
D20*
X135890000Y-40386000D03*
D21*
X135890000Y-47986000D03*
D22*
X152146000Y-54338001D03*
X158646000Y-54338001D03*
X152146000Y-58838001D03*
X158646000Y-58838001D03*
X190777000Y-58729000D03*
X184277000Y-58729000D03*
X190777000Y-54229000D03*
X184277000Y-54229000D03*
D10*
X150812500Y-30289500D03*
D11*
X153352500Y-30289500D03*
X155892500Y-30289500D03*
X158432500Y-30289500D03*
X160972500Y-30289500D03*
X163512500Y-30289500D03*
X166052500Y-30289500D03*
X168592500Y-30289500D03*
G04 #@! TA.AperFunction,SMDPad,CuDef*
D23*
G36*
X161523329Y-53490523D02*
G01*
X161543957Y-53493583D01*
X161564185Y-53498650D01*
X161583820Y-53505676D01*
X161602672Y-53514592D01*
X161620559Y-53525313D01*
X161637309Y-53537735D01*
X161652760Y-53551740D01*
X161666765Y-53567191D01*
X161679187Y-53583941D01*
X161689908Y-53601828D01*
X161698824Y-53620680D01*
X161705850Y-53640315D01*
X161710917Y-53660543D01*
X161713977Y-53681171D01*
X161715000Y-53702000D01*
X161715000Y-54502000D01*
X161713977Y-54522829D01*
X161710917Y-54543457D01*
X161705850Y-54563685D01*
X161698824Y-54583320D01*
X161689908Y-54602172D01*
X161679187Y-54620059D01*
X161666765Y-54636809D01*
X161652760Y-54652260D01*
X161637309Y-54666265D01*
X161620559Y-54678687D01*
X161602672Y-54689408D01*
X161583820Y-54698324D01*
X161564185Y-54705350D01*
X161543957Y-54710417D01*
X161523329Y-54713477D01*
X161502500Y-54714500D01*
X161077500Y-54714500D01*
X161056671Y-54713477D01*
X161036043Y-54710417D01*
X161015815Y-54705350D01*
X160996180Y-54698324D01*
X160977328Y-54689408D01*
X160959441Y-54678687D01*
X160942691Y-54666265D01*
X160927240Y-54652260D01*
X160913235Y-54636809D01*
X160900813Y-54620059D01*
X160890092Y-54602172D01*
X160881176Y-54583320D01*
X160874150Y-54563685D01*
X160869083Y-54543457D01*
X160866023Y-54522829D01*
X160865000Y-54502000D01*
X160865000Y-53702000D01*
X160866023Y-53681171D01*
X160869083Y-53660543D01*
X160874150Y-53640315D01*
X160881176Y-53620680D01*
X160890092Y-53601828D01*
X160900813Y-53583941D01*
X160913235Y-53567191D01*
X160927240Y-53551740D01*
X160942691Y-53537735D01*
X160959441Y-53525313D01*
X160977328Y-53514592D01*
X160996180Y-53505676D01*
X161015815Y-53498650D01*
X161036043Y-53493583D01*
X161056671Y-53490523D01*
X161077500Y-53489500D01*
X161502500Y-53489500D01*
X161523329Y-53490523D01*
G37*
G04 #@! TD.AperFunction*
G04 #@! TA.AperFunction,SMDPad,CuDef*
G36*
X161523329Y-55115523D02*
G01*
X161543957Y-55118583D01*
X161564185Y-55123650D01*
X161583820Y-55130676D01*
X161602672Y-55139592D01*
X161620559Y-55150313D01*
X161637309Y-55162735D01*
X161652760Y-55176740D01*
X161666765Y-55192191D01*
X161679187Y-55208941D01*
X161689908Y-55226828D01*
X161698824Y-55245680D01*
X161705850Y-55265315D01*
X161710917Y-55285543D01*
X161713977Y-55306171D01*
X161715000Y-55327000D01*
X161715000Y-56127000D01*
X161713977Y-56147829D01*
X161710917Y-56168457D01*
X161705850Y-56188685D01*
X161698824Y-56208320D01*
X161689908Y-56227172D01*
X161679187Y-56245059D01*
X161666765Y-56261809D01*
X161652760Y-56277260D01*
X161637309Y-56291265D01*
X161620559Y-56303687D01*
X161602672Y-56314408D01*
X161583820Y-56323324D01*
X161564185Y-56330350D01*
X161543957Y-56335417D01*
X161523329Y-56338477D01*
X161502500Y-56339500D01*
X161077500Y-56339500D01*
X161056671Y-56338477D01*
X161036043Y-56335417D01*
X161015815Y-56330350D01*
X160996180Y-56323324D01*
X160977328Y-56314408D01*
X160959441Y-56303687D01*
X160942691Y-56291265D01*
X160927240Y-56277260D01*
X160913235Y-56261809D01*
X160900813Y-56245059D01*
X160890092Y-56227172D01*
X160881176Y-56208320D01*
X160874150Y-56188685D01*
X160869083Y-56168457D01*
X160866023Y-56147829D01*
X160865000Y-56127000D01*
X160865000Y-55327000D01*
X160866023Y-55306171D01*
X160869083Y-55285543D01*
X160874150Y-55265315D01*
X160881176Y-55245680D01*
X160890092Y-55226828D01*
X160900813Y-55208941D01*
X160913235Y-55192191D01*
X160927240Y-55176740D01*
X160942691Y-55162735D01*
X160959441Y-55150313D01*
X160977328Y-55139592D01*
X160996180Y-55130676D01*
X161015815Y-55123650D01*
X161036043Y-55118583D01*
X161056671Y-55115523D01*
X161077500Y-55114500D01*
X161502500Y-55114500D01*
X161523329Y-55115523D01*
G37*
G04 #@! TD.AperFunction*
G04 #@! TA.AperFunction,SMDPad,CuDef*
G36*
X181690929Y-55115823D02*
G01*
X181711557Y-55118883D01*
X181731785Y-55123950D01*
X181751420Y-55130976D01*
X181770272Y-55139892D01*
X181788159Y-55150613D01*
X181804909Y-55163035D01*
X181820360Y-55177040D01*
X181834365Y-55192491D01*
X181846787Y-55209241D01*
X181857508Y-55227128D01*
X181866424Y-55245980D01*
X181873450Y-55265615D01*
X181878517Y-55285843D01*
X181881577Y-55306471D01*
X181882600Y-55327300D01*
X181882600Y-56127300D01*
X181881577Y-56148129D01*
X181878517Y-56168757D01*
X181873450Y-56188985D01*
X181866424Y-56208620D01*
X181857508Y-56227472D01*
X181846787Y-56245359D01*
X181834365Y-56262109D01*
X181820360Y-56277560D01*
X181804909Y-56291565D01*
X181788159Y-56303987D01*
X181770272Y-56314708D01*
X181751420Y-56323624D01*
X181731785Y-56330650D01*
X181711557Y-56335717D01*
X181690929Y-56338777D01*
X181670100Y-56339800D01*
X181245100Y-56339800D01*
X181224271Y-56338777D01*
X181203643Y-56335717D01*
X181183415Y-56330650D01*
X181163780Y-56323624D01*
X181144928Y-56314708D01*
X181127041Y-56303987D01*
X181110291Y-56291565D01*
X181094840Y-56277560D01*
X181080835Y-56262109D01*
X181068413Y-56245359D01*
X181057692Y-56227472D01*
X181048776Y-56208620D01*
X181041750Y-56188985D01*
X181036683Y-56168757D01*
X181033623Y-56148129D01*
X181032600Y-56127300D01*
X181032600Y-55327300D01*
X181033623Y-55306471D01*
X181036683Y-55285843D01*
X181041750Y-55265615D01*
X181048776Y-55245980D01*
X181057692Y-55227128D01*
X181068413Y-55209241D01*
X181080835Y-55192491D01*
X181094840Y-55177040D01*
X181110291Y-55163035D01*
X181127041Y-55150613D01*
X181144928Y-55139892D01*
X181163780Y-55130976D01*
X181183415Y-55123950D01*
X181203643Y-55118883D01*
X181224271Y-55115823D01*
X181245100Y-55114800D01*
X181670100Y-55114800D01*
X181690929Y-55115823D01*
G37*
G04 #@! TD.AperFunction*
G04 #@! TA.AperFunction,SMDPad,CuDef*
G36*
X181690929Y-53490823D02*
G01*
X181711557Y-53493883D01*
X181731785Y-53498950D01*
X181751420Y-53505976D01*
X181770272Y-53514892D01*
X181788159Y-53525613D01*
X181804909Y-53538035D01*
X181820360Y-53552040D01*
X181834365Y-53567491D01*
X181846787Y-53584241D01*
X181857508Y-53602128D01*
X181866424Y-53620980D01*
X181873450Y-53640615D01*
X181878517Y-53660843D01*
X181881577Y-53681471D01*
X181882600Y-53702300D01*
X181882600Y-54502300D01*
X181881577Y-54523129D01*
X181878517Y-54543757D01*
X181873450Y-54563985D01*
X181866424Y-54583620D01*
X181857508Y-54602472D01*
X181846787Y-54620359D01*
X181834365Y-54637109D01*
X181820360Y-54652560D01*
X181804909Y-54666565D01*
X181788159Y-54678987D01*
X181770272Y-54689708D01*
X181751420Y-54698624D01*
X181731785Y-54705650D01*
X181711557Y-54710717D01*
X181690929Y-54713777D01*
X181670100Y-54714800D01*
X181245100Y-54714800D01*
X181224271Y-54713777D01*
X181203643Y-54710717D01*
X181183415Y-54705650D01*
X181163780Y-54698624D01*
X181144928Y-54689708D01*
X181127041Y-54678987D01*
X181110291Y-54666565D01*
X181094840Y-54652560D01*
X181080835Y-54637109D01*
X181068413Y-54620359D01*
X181057692Y-54602472D01*
X181048776Y-54583620D01*
X181041750Y-54563985D01*
X181036683Y-54543757D01*
X181033623Y-54523129D01*
X181032600Y-54502300D01*
X181032600Y-53702300D01*
X181033623Y-53681471D01*
X181036683Y-53660843D01*
X181041750Y-53640615D01*
X181048776Y-53620980D01*
X181057692Y-53602128D01*
X181068413Y-53584241D01*
X181080835Y-53567491D01*
X181094840Y-53552040D01*
X181110291Y-53538035D01*
X181127041Y-53525613D01*
X181144928Y-53514892D01*
X181163780Y-53505976D01*
X181183415Y-53498950D01*
X181203643Y-53493883D01*
X181224271Y-53490823D01*
X181245100Y-53489800D01*
X181670100Y-53489800D01*
X181690929Y-53490823D01*
G37*
G04 #@! TD.AperFunction*
G04 #@! TA.AperFunction,SMDPad,CuDef*
G36*
X164310142Y-53338574D02*
G01*
X164333803Y-53342084D01*
X164357007Y-53347896D01*
X164379529Y-53355954D01*
X164401153Y-53366182D01*
X164421670Y-53378479D01*
X164440883Y-53392729D01*
X164458607Y-53408793D01*
X164474671Y-53426517D01*
X164488921Y-53445730D01*
X164501218Y-53466247D01*
X164511446Y-53487871D01*
X164519504Y-53510393D01*
X164525316Y-53533597D01*
X164528826Y-53557258D01*
X164530000Y-53581150D01*
X164530000Y-54068650D01*
X164528826Y-54092542D01*
X164525316Y-54116203D01*
X164519504Y-54139407D01*
X164511446Y-54161929D01*
X164501218Y-54183553D01*
X164488921Y-54204070D01*
X164474671Y-54223283D01*
X164458607Y-54241007D01*
X164440883Y-54257071D01*
X164421670Y-54271321D01*
X164401153Y-54283618D01*
X164379529Y-54293846D01*
X164357007Y-54301904D01*
X164333803Y-54307716D01*
X164310142Y-54311226D01*
X164286250Y-54312400D01*
X163373750Y-54312400D01*
X163349858Y-54311226D01*
X163326197Y-54307716D01*
X163302993Y-54301904D01*
X163280471Y-54293846D01*
X163258847Y-54283618D01*
X163238330Y-54271321D01*
X163219117Y-54257071D01*
X163201393Y-54241007D01*
X163185329Y-54223283D01*
X163171079Y-54204070D01*
X163158782Y-54183553D01*
X163148554Y-54161929D01*
X163140496Y-54139407D01*
X163134684Y-54116203D01*
X163131174Y-54092542D01*
X163130000Y-54068650D01*
X163130000Y-53581150D01*
X163131174Y-53557258D01*
X163134684Y-53533597D01*
X163140496Y-53510393D01*
X163148554Y-53487871D01*
X163158782Y-53466247D01*
X163171079Y-53445730D01*
X163185329Y-53426517D01*
X163201393Y-53408793D01*
X163219117Y-53392729D01*
X163238330Y-53378479D01*
X163258847Y-53366182D01*
X163280471Y-53355954D01*
X163302993Y-53347896D01*
X163326197Y-53342084D01*
X163349858Y-53338574D01*
X163373750Y-53337400D01*
X164286250Y-53337400D01*
X164310142Y-53338574D01*
G37*
G04 #@! TD.AperFunction*
G04 #@! TA.AperFunction,SMDPad,CuDef*
G36*
X164310142Y-55213574D02*
G01*
X164333803Y-55217084D01*
X164357007Y-55222896D01*
X164379529Y-55230954D01*
X164401153Y-55241182D01*
X164421670Y-55253479D01*
X164440883Y-55267729D01*
X164458607Y-55283793D01*
X164474671Y-55301517D01*
X164488921Y-55320730D01*
X164501218Y-55341247D01*
X164511446Y-55362871D01*
X164519504Y-55385393D01*
X164525316Y-55408597D01*
X164528826Y-55432258D01*
X164530000Y-55456150D01*
X164530000Y-55943650D01*
X164528826Y-55967542D01*
X164525316Y-55991203D01*
X164519504Y-56014407D01*
X164511446Y-56036929D01*
X164501218Y-56058553D01*
X164488921Y-56079070D01*
X164474671Y-56098283D01*
X164458607Y-56116007D01*
X164440883Y-56132071D01*
X164421670Y-56146321D01*
X164401153Y-56158618D01*
X164379529Y-56168846D01*
X164357007Y-56176904D01*
X164333803Y-56182716D01*
X164310142Y-56186226D01*
X164286250Y-56187400D01*
X163373750Y-56187400D01*
X163349858Y-56186226D01*
X163326197Y-56182716D01*
X163302993Y-56176904D01*
X163280471Y-56168846D01*
X163258847Y-56158618D01*
X163238330Y-56146321D01*
X163219117Y-56132071D01*
X163201393Y-56116007D01*
X163185329Y-56098283D01*
X163171079Y-56079070D01*
X163158782Y-56058553D01*
X163148554Y-56036929D01*
X163140496Y-56014407D01*
X163134684Y-55991203D01*
X163131174Y-55967542D01*
X163130000Y-55943650D01*
X163130000Y-55456150D01*
X163131174Y-55432258D01*
X163134684Y-55408597D01*
X163140496Y-55385393D01*
X163148554Y-55362871D01*
X163158782Y-55341247D01*
X163171079Y-55320730D01*
X163185329Y-55301517D01*
X163201393Y-55283793D01*
X163219117Y-55267729D01*
X163238330Y-55253479D01*
X163258847Y-55241182D01*
X163280471Y-55230954D01*
X163302993Y-55222896D01*
X163326197Y-55217084D01*
X163349858Y-55213574D01*
X163373750Y-55212400D01*
X164286250Y-55212400D01*
X164310142Y-55213574D01*
G37*
G04 #@! TD.AperFunction*
G04 #@! TA.AperFunction,SMDPad,CuDef*
G36*
X179346942Y-55264374D02*
G01*
X179370603Y-55267884D01*
X179393807Y-55273696D01*
X179416329Y-55281754D01*
X179437953Y-55291982D01*
X179458470Y-55304279D01*
X179477683Y-55318529D01*
X179495407Y-55334593D01*
X179511471Y-55352317D01*
X179525721Y-55371530D01*
X179538018Y-55392047D01*
X179548246Y-55413671D01*
X179556304Y-55436193D01*
X179562116Y-55459397D01*
X179565626Y-55483058D01*
X179566800Y-55506950D01*
X179566800Y-55994450D01*
X179565626Y-56018342D01*
X179562116Y-56042003D01*
X179556304Y-56065207D01*
X179548246Y-56087729D01*
X179538018Y-56109353D01*
X179525721Y-56129870D01*
X179511471Y-56149083D01*
X179495407Y-56166807D01*
X179477683Y-56182871D01*
X179458470Y-56197121D01*
X179437953Y-56209418D01*
X179416329Y-56219646D01*
X179393807Y-56227704D01*
X179370603Y-56233516D01*
X179346942Y-56237026D01*
X179323050Y-56238200D01*
X178410550Y-56238200D01*
X178386658Y-56237026D01*
X178362997Y-56233516D01*
X178339793Y-56227704D01*
X178317271Y-56219646D01*
X178295647Y-56209418D01*
X178275130Y-56197121D01*
X178255917Y-56182871D01*
X178238193Y-56166807D01*
X178222129Y-56149083D01*
X178207879Y-56129870D01*
X178195582Y-56109353D01*
X178185354Y-56087729D01*
X178177296Y-56065207D01*
X178171484Y-56042003D01*
X178167974Y-56018342D01*
X178166800Y-55994450D01*
X178166800Y-55506950D01*
X178167974Y-55483058D01*
X178171484Y-55459397D01*
X178177296Y-55436193D01*
X178185354Y-55413671D01*
X178195582Y-55392047D01*
X178207879Y-55371530D01*
X178222129Y-55352317D01*
X178238193Y-55334593D01*
X178255917Y-55318529D01*
X178275130Y-55304279D01*
X178295647Y-55291982D01*
X178317271Y-55281754D01*
X178339793Y-55273696D01*
X178362997Y-55267884D01*
X178386658Y-55264374D01*
X178410550Y-55263200D01*
X179323050Y-55263200D01*
X179346942Y-55264374D01*
G37*
G04 #@! TD.AperFunction*
G04 #@! TA.AperFunction,SMDPad,CuDef*
G36*
X179346942Y-53389374D02*
G01*
X179370603Y-53392884D01*
X179393807Y-53398696D01*
X179416329Y-53406754D01*
X179437953Y-53416982D01*
X179458470Y-53429279D01*
X179477683Y-53443529D01*
X179495407Y-53459593D01*
X179511471Y-53477317D01*
X179525721Y-53496530D01*
X179538018Y-53517047D01*
X179548246Y-53538671D01*
X179556304Y-53561193D01*
X179562116Y-53584397D01*
X179565626Y-53608058D01*
X179566800Y-53631950D01*
X179566800Y-54119450D01*
X179565626Y-54143342D01*
X179562116Y-54167003D01*
X179556304Y-54190207D01*
X179548246Y-54212729D01*
X179538018Y-54234353D01*
X179525721Y-54254870D01*
X179511471Y-54274083D01*
X179495407Y-54291807D01*
X179477683Y-54307871D01*
X179458470Y-54322121D01*
X179437953Y-54334418D01*
X179416329Y-54344646D01*
X179393807Y-54352704D01*
X179370603Y-54358516D01*
X179346942Y-54362026D01*
X179323050Y-54363200D01*
X178410550Y-54363200D01*
X178386658Y-54362026D01*
X178362997Y-54358516D01*
X178339793Y-54352704D01*
X178317271Y-54344646D01*
X178295647Y-54334418D01*
X178275130Y-54322121D01*
X178255917Y-54307871D01*
X178238193Y-54291807D01*
X178222129Y-54274083D01*
X178207879Y-54254870D01*
X178195582Y-54234353D01*
X178185354Y-54212729D01*
X178177296Y-54190207D01*
X178171484Y-54167003D01*
X178167974Y-54143342D01*
X178166800Y-54119450D01*
X178166800Y-53631950D01*
X178167974Y-53608058D01*
X178171484Y-53584397D01*
X178177296Y-53561193D01*
X178185354Y-53538671D01*
X178195582Y-53517047D01*
X178207879Y-53496530D01*
X178222129Y-53477317D01*
X178238193Y-53459593D01*
X178255917Y-53443529D01*
X178275130Y-53429279D01*
X178295647Y-53416982D01*
X178317271Y-53406754D01*
X178339793Y-53398696D01*
X178362997Y-53392884D01*
X178386658Y-53389374D01*
X178410550Y-53388200D01*
X179323050Y-53388200D01*
X179346942Y-53389374D01*
G37*
G04 #@! TD.AperFunction*
D15*
X151599900Y-38823900D03*
X144706400Y-36502400D03*
X152044400Y-42443400D03*
X155282900Y-39649400D03*
X148551900Y-36855400D03*
X161489601Y-36854799D03*
X184286101Y-42442799D03*
X180793601Y-36854799D03*
X197237001Y-42442799D03*
X193744501Y-36854799D03*
X165061900Y-42570400D03*
X187540900Y-39649400D03*
X180809900Y-36855400D03*
X168300400Y-39903400D03*
D24*
X135890000Y-36449000D03*
X202628500Y-45021500D03*
D15*
X151663400Y-46253400D03*
X164601101Y-46252799D03*
X183905101Y-46252799D03*
X196856001Y-46252799D03*
X151472900Y-36982400D03*
X183714601Y-36982400D03*
X164553900Y-37363400D03*
X196684900Y-37299900D03*
D24*
X202692000Y-37465000D03*
D15*
X164553900Y-38950900D03*
X156908500Y-37020500D03*
X183841601Y-38823299D03*
X176339500Y-37338000D03*
X196748400Y-38950900D03*
X189103000Y-37020500D03*
X152044400Y-43713400D03*
X152044400Y-39903400D03*
X184286101Y-39902799D03*
X197237001Y-39902799D03*
X164998400Y-40030400D03*
D24*
X202628500Y-40005000D03*
D15*
X152044400Y-41173400D03*
X184286101Y-41172799D03*
X197237001Y-41172799D03*
X164998400Y-41300400D03*
D24*
X202628500Y-42545000D03*
D15*
X155473400Y-43078400D03*
X165061900Y-43840400D03*
X184286101Y-43712799D03*
X169252900Y-43624500D03*
X197237001Y-43712799D03*
X187794900Y-43014900D03*
D24*
X202628500Y-34925000D03*
X141325600Y-41757600D03*
D25*
X151599900Y-38823900D02*
X147027900Y-38823900D01*
X147027900Y-38823900D02*
X144706400Y-36502400D01*
X148551900Y-36855400D02*
X149567900Y-37871400D01*
X153504900Y-37871400D02*
X155282900Y-39649400D01*
X179260500Y-36385500D02*
X175450500Y-36385500D01*
X174815500Y-38100000D02*
X174815500Y-37020500D01*
X174815500Y-37020500D02*
X175450500Y-36385500D01*
X173012100Y-39903400D02*
X174815500Y-38100000D01*
X168300400Y-39903400D02*
X173012100Y-39903400D01*
X179729799Y-36854799D02*
X179260500Y-36385500D01*
X180793601Y-36854799D02*
X179729799Y-36854799D01*
X196112799Y-42442799D02*
X197237001Y-42442799D01*
X195795900Y-42125900D02*
X196112799Y-42442799D01*
X185762900Y-42125900D02*
X195795900Y-42125900D01*
X184286101Y-42442799D02*
X185446001Y-42442799D01*
X185446001Y-42442799D02*
X185762900Y-42125900D01*
X185826400Y-37934900D02*
X187540900Y-39649400D01*
X180809900Y-36855400D02*
X181889400Y-37934900D01*
X181889400Y-37934900D02*
X185826400Y-37934900D01*
D26*
X166522400Y-38125400D02*
X168300400Y-39903400D01*
X162966400Y-38125400D02*
X166522400Y-38125400D01*
X161489601Y-36854799D02*
X161695799Y-36854799D01*
X161695799Y-36854799D02*
X162966400Y-38125400D01*
X197701501Y-42442799D02*
X197237001Y-42442799D01*
X198335900Y-41808400D02*
X197701501Y-42442799D01*
X193744501Y-36899501D02*
X194906900Y-38061900D01*
X197319900Y-38061900D02*
X198335900Y-39077900D01*
X194906900Y-38061900D02*
X197319900Y-38061900D01*
X193744501Y-36854799D02*
X193744501Y-36899501D01*
X198335900Y-39077900D02*
X198335900Y-41808400D01*
D25*
X184223202Y-42379900D02*
X184286101Y-42442799D01*
X165061900Y-42570400D02*
X165887400Y-42570400D01*
X165887400Y-42570400D02*
X166077900Y-42379900D01*
X152933400Y-42443400D02*
X152044400Y-42443400D01*
X153187400Y-42189400D02*
X152933400Y-42443400D01*
X165061900Y-42570400D02*
X163982400Y-42570400D01*
X163982400Y-42570400D02*
X163601400Y-42189400D01*
X152044400Y-42443400D02*
X142557500Y-42443400D01*
D26*
X142557500Y-42443400D02*
X142265400Y-42443400D01*
D25*
X161489601Y-36854799D02*
X159600299Y-36854799D01*
D26*
X159600299Y-36854799D02*
X159219299Y-36854799D01*
X159219299Y-36854799D02*
X158559500Y-36195000D01*
X158559500Y-36195000D02*
X154876500Y-36195000D01*
D25*
X149567900Y-37871400D02*
X153225500Y-37846000D01*
D26*
X154876500Y-36195000D02*
X153225500Y-37846000D01*
D25*
X153225500Y-37846000D02*
X153504900Y-37871400D01*
X219138500Y-56261000D02*
X219138500Y-57213500D01*
X167106600Y-42379900D02*
X184223202Y-42379900D01*
X166077900Y-42379900D02*
X167106600Y-42379900D01*
X153885900Y-42189400D02*
X153187400Y-42189400D01*
X163601400Y-42189400D02*
X153885900Y-42189400D01*
X158646000Y-58838001D02*
X152146000Y-58838001D01*
X190777000Y-58729000D02*
X184277000Y-58729000D01*
X158755001Y-58729000D02*
X158646000Y-58838001D01*
X184277000Y-58729000D02*
X158755001Y-58729000D01*
X158683001Y-58801000D02*
X158646000Y-58838001D01*
X168783000Y-58801000D02*
X158683001Y-58801000D01*
X168783000Y-48260000D02*
X168783000Y-58801000D01*
X167106600Y-42379900D02*
X167106600Y-46583600D01*
X167106600Y-46583600D02*
X168783000Y-48260000D01*
X217877000Y-58729000D02*
X219138500Y-57467500D01*
X190777000Y-58729000D02*
X217877000Y-58729000D01*
X219138500Y-57213500D02*
X219138500Y-57467500D01*
X219138500Y-57467500D02*
X219138500Y-56261000D01*
X148246001Y-58838001D02*
X140017500Y-50609500D01*
X152146000Y-58838001D02*
X148246001Y-58838001D01*
D26*
X160591500Y-36576000D02*
X160870299Y-36854799D01*
X160591500Y-33274000D02*
X160591500Y-36576000D01*
X172085000Y-31940500D02*
X161925000Y-31940500D01*
X160870299Y-36854799D02*
X161489601Y-36854799D01*
X161925000Y-31940500D02*
X160591500Y-33274000D01*
X175196500Y-28829000D02*
X172085000Y-31940500D01*
X180149500Y-29718000D02*
X179260500Y-28829000D01*
X180149500Y-30289500D02*
X180149500Y-29718000D01*
X179260500Y-28829000D02*
X175196500Y-28829000D01*
D25*
X201104500Y-40005000D02*
X198666701Y-42442799D01*
X180149500Y-30797500D02*
X181991000Y-32639000D01*
X181991000Y-32639000D02*
X200279000Y-32639000D01*
X198666701Y-42442799D02*
X197237001Y-42442799D01*
X200279000Y-32639000D02*
X201104500Y-33464500D01*
X180149500Y-30289500D02*
X180149500Y-30797500D01*
X201104500Y-33464500D02*
X201104500Y-40005000D01*
X135572500Y-36449000D02*
X135890000Y-36449000D01*
X133413500Y-38608000D02*
X135572500Y-36449000D01*
X140017500Y-50609500D02*
X134429500Y-50609500D01*
X133413500Y-49593500D02*
X133413500Y-38608000D01*
X134429500Y-50609500D02*
X133413500Y-49593500D01*
X137033000Y-36449000D02*
X135890000Y-36449000D01*
X139255500Y-38671500D02*
X137033000Y-36449000D01*
X153885900Y-44424600D02*
X153289000Y-45021500D01*
X153289000Y-45021500D02*
X141097000Y-45021500D01*
X153885900Y-42189400D02*
X153885900Y-44424600D01*
X141097000Y-45021500D02*
X139255500Y-43180000D01*
X139255500Y-43180000D02*
X139255500Y-38671500D01*
X197509799Y-42442799D02*
X197237001Y-42442799D01*
X217741500Y-58864500D02*
X205232000Y-58864500D01*
X205232000Y-58864500D02*
X203835000Y-57467500D01*
X219138500Y-57467500D02*
X217741500Y-58864500D01*
X203835000Y-57467500D02*
X203835000Y-48768000D01*
X203835000Y-48768000D02*
X197509799Y-42442799D01*
X181174601Y-48919799D02*
X183841601Y-46252799D01*
X181174601Y-49821499D02*
X181174601Y-48919799D01*
X183841601Y-46252799D02*
X183905101Y-46252799D01*
X194125501Y-48919799D02*
X196792501Y-46252799D01*
X194125501Y-49821499D02*
X194125501Y-48919799D01*
X196792501Y-46252799D02*
X196856001Y-46252799D01*
D26*
X148932900Y-34759900D02*
X148932900Y-34582100D01*
D25*
X151472900Y-36982400D02*
X151155400Y-36982400D01*
X151155400Y-36982400D02*
X148932900Y-34759900D01*
X183286400Y-36982400D02*
X181174601Y-34870601D01*
X183714601Y-36982400D02*
X183286400Y-36982400D01*
X181174601Y-34870601D02*
X181174601Y-34581499D01*
X194125501Y-35121501D02*
X194125501Y-34581499D01*
X196303900Y-37299900D02*
X194125501Y-35121501D01*
X196684900Y-37299900D02*
X196303900Y-37299900D01*
X161870601Y-50397199D02*
X161870601Y-49821499D01*
X149948900Y-51650900D02*
X160616900Y-51650900D01*
X148932900Y-49822100D02*
X148932900Y-50634900D01*
X160616900Y-51650900D02*
X161870601Y-50397199D01*
X148932900Y-50634900D02*
X149948900Y-51650900D01*
X164600500Y-46253400D02*
X164601101Y-46252799D01*
X151663400Y-46253400D02*
X164600500Y-46253400D01*
X183905101Y-46252799D02*
X196856001Y-46252799D01*
D26*
X183714601Y-36982400D02*
X186347100Y-36982400D01*
X186347100Y-36982400D02*
X187134500Y-36195000D01*
X187134500Y-36195000D02*
X192786000Y-36195000D01*
X194125501Y-34855499D02*
X194125501Y-34581499D01*
X192786000Y-36195000D02*
X194125501Y-34855499D01*
D25*
X181174601Y-34581499D02*
X181174601Y-34045101D01*
X182546802Y-44894500D02*
X183905101Y-46252799D01*
X171577000Y-44894500D02*
X182546802Y-44894500D01*
X170257601Y-46824900D02*
X170257601Y-46213899D01*
X170257601Y-46213899D02*
X171577000Y-44894500D01*
X164553900Y-37363400D02*
X164172900Y-37363400D01*
X161870601Y-35061101D02*
X161870601Y-34581499D01*
X164172900Y-37363400D02*
X161870601Y-35061101D01*
X161870601Y-33552799D02*
X161870601Y-34581499D01*
X181174601Y-34045101D02*
X179832000Y-32702500D01*
X162720900Y-32702500D02*
X161870601Y-33552799D01*
X179832000Y-32702500D02*
X162720900Y-32702500D01*
X177609500Y-30480000D02*
X177609500Y-30289500D01*
X181174601Y-34045101D02*
X177609500Y-30480000D01*
X148932900Y-46253400D02*
X148932900Y-49822100D01*
X151663400Y-46253400D02*
X148932900Y-46253400D01*
X161870601Y-46252799D02*
X164601101Y-46252799D01*
X161870601Y-49821499D02*
X161870601Y-46252799D01*
X140550900Y-46253400D02*
X151663400Y-46253400D01*
X135890000Y-40386000D02*
X135890000Y-41592500D01*
X135890000Y-41592500D02*
X140550900Y-46253400D01*
X156908500Y-37020500D02*
X158162802Y-37020500D01*
X158162802Y-37020500D02*
X160093202Y-38950900D01*
X160093202Y-38950900D02*
X164553900Y-38950900D01*
X179269601Y-38823299D02*
X183841601Y-38823299D01*
X176339500Y-37338000D02*
X177784302Y-37338000D01*
X177784302Y-37338000D02*
X179269601Y-38823299D01*
X189103000Y-37020500D02*
X190417702Y-37020500D01*
X192348102Y-38950900D02*
X196748400Y-38950900D01*
X190417702Y-37020500D02*
X192348102Y-38950900D01*
X152044400Y-43713400D02*
X142557500Y-43713400D01*
D26*
X155892500Y-30162500D02*
X155892500Y-30289500D01*
X154559000Y-28829000D02*
X155892500Y-30162500D01*
X141312900Y-43713400D02*
X140144500Y-42545000D01*
X142557500Y-43713400D02*
X141312900Y-43713400D01*
X140144500Y-32956500D02*
X144272000Y-28829000D01*
X144272000Y-28829000D02*
X154559000Y-28829000D01*
X140144500Y-42545000D02*
X140144500Y-32956500D01*
D25*
X152044400Y-39903400D02*
X152107900Y-39966900D01*
X197237001Y-39902799D02*
X197300501Y-39966299D01*
X152044400Y-39903400D02*
X142519400Y-39903400D01*
X164998400Y-40030400D02*
X164998400Y-40013500D01*
X164998400Y-40013500D02*
X165045601Y-39966299D01*
X184286702Y-39903400D02*
X184286101Y-39902799D01*
X196399751Y-39902799D02*
X195700650Y-40601900D01*
X197237001Y-39902799D02*
X196399751Y-39902799D01*
X195700650Y-40601900D02*
X185889900Y-40601900D01*
X185889900Y-40601900D02*
X185191400Y-39903400D01*
X185191400Y-39903400D02*
X184286702Y-39903400D01*
X183287001Y-39902799D02*
X184286101Y-39902799D01*
X182397400Y-40792400D02*
X183287001Y-39902799D01*
X166966900Y-40792400D02*
X182397400Y-40792400D01*
X164998400Y-40030400D02*
X166204900Y-40030400D01*
X166204900Y-40030400D02*
X166966900Y-40792400D01*
X154393900Y-40601900D02*
X153695400Y-39903400D01*
X163664900Y-40601900D02*
X154393900Y-40601900D01*
X153695400Y-39903400D02*
X152044400Y-39903400D01*
X164998400Y-40030400D02*
X164236400Y-40030400D01*
X164236400Y-40030400D02*
X163664900Y-40601900D01*
D26*
X160972500Y-31178500D02*
X160972500Y-30289500D01*
X142049500Y-39433500D02*
X142049500Y-33782000D01*
X142049500Y-33782000D02*
X142938500Y-32893000D01*
X142938500Y-32893000D02*
X159258000Y-32893000D01*
X142519400Y-39903400D02*
X142049500Y-39433500D01*
X159258000Y-32893000D02*
X160972500Y-31178500D01*
D25*
X152044400Y-41173400D02*
X152107900Y-41236900D01*
X197237001Y-41172799D02*
X197300501Y-41236299D01*
X164998400Y-41300400D02*
X164998400Y-41283500D01*
X164998400Y-41283500D02*
X165045601Y-41236299D01*
X196368001Y-41172799D02*
X197237001Y-41172799D01*
X184286101Y-41172799D02*
X184477202Y-41363900D01*
X196176900Y-41363900D02*
X196368001Y-41172799D01*
X184477202Y-41363900D02*
X196176900Y-41363900D01*
X165950900Y-41300400D02*
X166204900Y-41554400D01*
X164998400Y-41300400D02*
X165950900Y-41300400D01*
X183476900Y-41173400D02*
X184285500Y-41173400D01*
X166204900Y-41554400D02*
X183095900Y-41554400D01*
X184285500Y-41173400D02*
X184286101Y-41172799D01*
X183095900Y-41554400D02*
X183476900Y-41173400D01*
X153250900Y-41427400D02*
X152996900Y-41173400D01*
X164236400Y-41427400D02*
X153250900Y-41427400D01*
X164998400Y-41300400D02*
X164363400Y-41300400D01*
X152996900Y-41173400D02*
X152044400Y-41173400D01*
X164363400Y-41300400D02*
X164236400Y-41427400D01*
X152044400Y-41173400D02*
X142557500Y-41173400D01*
D26*
X158432500Y-30670500D02*
X158432500Y-30289500D01*
X142455900Y-41173400D02*
X141414500Y-40132000D01*
X141414500Y-40132000D02*
X141414500Y-33528000D01*
X156781500Y-32321500D02*
X158432500Y-30670500D01*
X141414500Y-33528000D02*
X142621000Y-32321500D01*
X142557500Y-41173400D02*
X142455900Y-41173400D01*
X142621000Y-32321500D02*
X156781500Y-32321500D01*
D25*
X164934299Y-43712799D02*
X156107799Y-43712799D01*
X165061900Y-43840400D02*
X164934299Y-43712799D01*
X156107799Y-43712799D02*
X155473400Y-43078400D01*
X169252900Y-43624500D02*
X169341800Y-43713400D01*
X169341800Y-43713400D02*
X184285500Y-43713400D01*
X184285500Y-43713400D02*
X184286101Y-43712799D01*
X187794900Y-43014900D02*
X195287900Y-43014900D01*
X195985799Y-43712799D02*
X197237001Y-43712799D01*
X195287900Y-43014900D02*
X195985799Y-43712799D01*
D26*
X153352500Y-30797500D02*
X153352500Y-30289500D01*
X152336500Y-31813500D02*
X153352500Y-30797500D01*
X142011400Y-42443400D02*
X142265400Y-42443400D01*
X140779500Y-41211500D02*
X140779500Y-33210500D01*
X141325600Y-41757600D02*
X142011400Y-42443400D01*
X141325600Y-41757600D02*
X141579600Y-41757600D01*
X141579600Y-41757600D02*
X142265400Y-42443400D01*
X141325600Y-41757600D02*
X140779500Y-41211500D01*
X140779500Y-33210500D02*
X142176500Y-31813500D01*
X142176500Y-31813500D02*
X152336500Y-31813500D01*
D25*
X163830000Y-53824900D02*
X163830000Y-53136800D01*
X161870601Y-51177401D02*
X161870601Y-49821499D01*
X163830000Y-53136800D02*
X161870601Y-51177401D01*
X178866800Y-53875700D02*
X178866800Y-53594000D01*
X181174601Y-51286199D02*
X181174601Y-49821499D01*
X178866800Y-53594000D02*
X181174601Y-51286199D01*
X182181500Y-51777900D02*
X181174601Y-50771001D01*
X192938400Y-51777900D02*
X182181500Y-51777900D01*
X181174601Y-50771001D02*
X181174601Y-49821499D01*
X194125501Y-49821499D02*
X194125501Y-50590799D01*
X194125501Y-50590799D02*
X192938400Y-51777900D01*
X158646000Y-54338001D02*
X152146000Y-54338001D01*
X158882001Y-54102000D02*
X158646000Y-54338001D01*
X161290000Y-54102000D02*
X158882001Y-54102000D01*
X190777000Y-54229000D02*
X184277000Y-54229000D01*
X184150300Y-54102300D02*
X184277000Y-54229000D01*
X181457600Y-54102300D02*
X184150300Y-54102300D01*
D26*
X215455500Y-30289500D02*
X193294000Y-30289500D01*
X216598500Y-32131000D02*
X216598500Y-31432500D01*
X216598500Y-31432500D02*
X215455500Y-30289500D01*
X182689500Y-30670500D02*
X182689500Y-30289500D01*
X203644500Y-31877000D02*
X183896000Y-31877000D01*
X183896000Y-31877000D02*
X182689500Y-30670500D01*
X206438500Y-56261000D02*
X206438500Y-34671000D01*
X206438500Y-34671000D02*
X203644500Y-31877000D01*
D25*
X163802900Y-55727000D02*
X163830000Y-55699900D01*
X161290000Y-55727000D02*
X163802900Y-55727000D01*
X178890200Y-55727300D02*
X178866800Y-55750700D01*
X181457600Y-55727300D02*
X178890200Y-55727300D01*
M02*
