M48
; DRILL file {KiCad (5.1.5)-2} date 2020-04-10 10:41:58 AM
; FORMAT={-:-/ absolute / metric / decimal}
; #@! TF.CreationDate,2020-04-10T10:41:58+07:00
; #@! TF.GenerationSoftware,Kicad,Pcbnew,(5.1.5)-2
; #@! TF.FileFunction,Plated,1,2,PTH
FMAT,2
METRIC
T1C0.400
T2C0.500
T3C0.600
T4C0.800
T5C0.900
T6C1.000
T7C2.500
%
G90
G05
T1
X144.706Y-36.502
X148.552Y-36.855
X151.473Y-36.982
X151.6Y-38.824
X151.663Y-46.253
X152.044Y-39.903
X152.044Y-41.173
X152.044Y-42.443
X152.044Y-43.713
X155.283Y-39.649
X155.473Y-43.078
X156.909Y-37.02
X161.49Y-36.855
X164.554Y-37.363
X164.554Y-38.951
X164.601Y-46.253
X164.998Y-40.03
X164.998Y-41.3
X165.062Y-42.57
X165.062Y-43.84
X168.3Y-39.903
X169.253Y-43.624
X176.339Y-37.338
X180.794Y-36.855
X180.81Y-36.855
X183.715Y-36.982
X183.842Y-38.823
X183.905Y-46.253
X184.286Y-39.903
X184.286Y-41.173
X184.286Y-42.443
X184.286Y-43.713
X187.541Y-39.649
X187.795Y-43.015
X189.103Y-37.02
X193.745Y-36.855
X196.685Y-37.3
X196.748Y-38.951
X196.856Y-46.253
X197.237Y-39.903
X197.237Y-41.173
X197.237Y-42.443
X197.237Y-43.713
T2
X130.649Y-31.255
X131.199Y-29.929
X131.199Y-32.581
X132.524Y-29.38
X132.524Y-33.13
X133.85Y-29.929
X133.85Y-32.581
X134.399Y-31.255
X224.756Y-31.255
X225.306Y-29.929
X225.306Y-32.581
X226.631Y-29.38
X226.631Y-33.13
X227.957Y-29.929
X227.957Y-32.581
X228.506Y-31.255
X130.649Y-57.29
X131.199Y-55.964
X131.199Y-58.616
X132.524Y-55.415
X132.524Y-59.165
X133.85Y-55.964
X133.85Y-58.616
X134.399Y-57.29
X224.756Y-57.29
X225.306Y-55.964
X225.306Y-58.616
X226.631Y-55.415
X226.631Y-59.165
X227.957Y-55.964
X227.957Y-58.616
X228.506Y-57.29
T3
X135.89Y-36.449
X141.326Y-41.758
X202.629Y-34.925
X202.629Y-40.005
X202.629Y-42.545
X202.629Y-45.021
X202.692Y-37.465
T4
X189.046Y-34.581
X189.046Y-49.821
X191.586Y-34.581
X191.586Y-49.821
X194.126Y-34.581
X194.126Y-49.821
X196.666Y-34.581
X196.666Y-49.821
X199.206Y-34.581
X199.206Y-49.821
X143.853Y-34.582
X143.853Y-49.822
X146.393Y-34.582
X146.393Y-49.822
X148.933Y-34.582
X148.933Y-49.822
X151.473Y-34.582
X151.473Y-49.822
X154.013Y-34.582
X154.013Y-49.822
X156.791Y-34.581
X156.791Y-49.821
X159.331Y-34.581
X159.331Y-49.821
X161.871Y-34.581
X161.871Y-49.821
X164.411Y-34.581
X164.411Y-49.821
X166.951Y-34.581
X166.951Y-49.821
X176.095Y-34.581
X176.095Y-49.821
X178.635Y-34.581
X178.635Y-49.821
X181.175Y-34.581
X181.175Y-49.821
X183.715Y-34.581
X183.715Y-49.821
X186.255Y-34.581
X186.255Y-49.821
T5
X170.258Y-46.825
X172.798Y-46.825
X170.248Y-37.3
X172.788Y-37.3
T6
X177.609Y-30.29
X180.149Y-30.29
X182.689Y-30.29
X185.23Y-30.29
X187.769Y-30.29
X190.309Y-30.29
X192.849Y-30.29
X135.89Y-40.386
X135.89Y-47.986
X150.812Y-30.29
X153.352Y-30.29
X155.892Y-30.29
X158.433Y-30.29
X160.972Y-30.29
X163.512Y-30.29
X166.052Y-30.29
X168.593Y-30.29
X184.277Y-54.229
X184.277Y-58.729
X190.777Y-54.229
X190.777Y-58.729
X152.146Y-54.338
X152.146Y-58.838
X158.646Y-54.338
X158.646Y-58.838
X206.439Y-56.261
X208.978Y-56.261
X211.518Y-32.131
X211.518Y-56.261
X214.058Y-32.131
X214.058Y-56.261
X216.599Y-32.131
X216.599Y-56.261
X219.138Y-32.131
X219.138Y-56.261
X221.678Y-32.131
X221.678Y-56.261
T7
X226.631Y-31.255
X132.524Y-57.29
X226.631Y-57.29
X132.524Y-31.255
T0
M30
