G04 #@! TF.GenerationSoftware,KiCad,Pcbnew,(5.1.5)-2*
G04 #@! TF.CreationDate,2020-04-10T10:41:52+07:00*
G04 #@! TF.ProjectId,KIT_7SegLED_74HC595,4b49545f-3753-4656-974c-45445f373448,rev?*
G04 #@! TF.SameCoordinates,Original*
G04 #@! TF.FileFunction,Soldermask,Top*
G04 #@! TF.FilePolarity,Negative*
%FSLAX46Y46*%
G04 Gerber Fmt 4.6, Leading zero omitted, Abs format (unit mm)*
G04 Created by KiCad (PCBNEW (5.1.5)-2) date 2020-04-10 10:41:52*
%MOMM*%
%LPD*%
G04 APERTURE LIST*
%ADD10C,0.100000*%
G04 APERTURE END LIST*
D10*
G36*
X227375598Y-54836733D02*
G01*
X227836045Y-55027456D01*
X227839852Y-55029033D01*
X228257668Y-55308209D01*
X228612991Y-55663532D01*
X228886046Y-56072188D01*
X228892168Y-56081350D01*
X229084467Y-56545602D01*
X229182500Y-57038447D01*
X229182500Y-57540953D01*
X229084467Y-58033798D01*
X228905365Y-58466189D01*
X228892167Y-58498052D01*
X228612991Y-58915868D01*
X228257668Y-59271191D01*
X227839852Y-59550367D01*
X227839851Y-59550368D01*
X227839850Y-59550368D01*
X227375598Y-59742667D01*
X226882753Y-59840700D01*
X226380247Y-59840700D01*
X225887402Y-59742667D01*
X225423150Y-59550368D01*
X225423149Y-59550368D01*
X225423148Y-59550367D01*
X225005332Y-59271191D01*
X224650009Y-58915868D01*
X224370833Y-58498052D01*
X224357635Y-58466189D01*
X224178533Y-58033798D01*
X224080500Y-57540953D01*
X224080500Y-57038447D01*
X224178533Y-56545602D01*
X224370832Y-56081350D01*
X224376954Y-56072188D01*
X224650009Y-55663532D01*
X225005332Y-55308209D01*
X225423148Y-55029033D01*
X225426955Y-55027456D01*
X225887402Y-54836733D01*
X226380247Y-54738700D01*
X226882753Y-54738700D01*
X227375598Y-54836733D01*
G37*
G36*
X133268598Y-54836733D02*
G01*
X133729045Y-55027456D01*
X133732852Y-55029033D01*
X134150668Y-55308209D01*
X134505991Y-55663532D01*
X134779046Y-56072188D01*
X134785168Y-56081350D01*
X134977467Y-56545602D01*
X135075500Y-57038447D01*
X135075500Y-57540953D01*
X134977467Y-58033798D01*
X134798365Y-58466189D01*
X134785167Y-58498052D01*
X134505991Y-58915868D01*
X134150668Y-59271191D01*
X133732852Y-59550367D01*
X133732851Y-59550368D01*
X133732850Y-59550368D01*
X133268598Y-59742667D01*
X132775753Y-59840700D01*
X132273247Y-59840700D01*
X131780402Y-59742667D01*
X131316150Y-59550368D01*
X131316149Y-59550368D01*
X131316148Y-59550367D01*
X130898332Y-59271191D01*
X130543009Y-58915868D01*
X130263833Y-58498052D01*
X130250635Y-58466189D01*
X130071533Y-58033798D01*
X129973500Y-57540953D01*
X129973500Y-57038447D01*
X130071533Y-56545602D01*
X130263832Y-56081350D01*
X130269954Y-56072188D01*
X130543009Y-55663532D01*
X130898332Y-55308209D01*
X131316148Y-55029033D01*
X131319955Y-55027456D01*
X131780402Y-54836733D01*
X132273247Y-54738700D01*
X132775753Y-54738700D01*
X133268598Y-54836733D01*
G37*
G36*
X152259512Y-57941928D02*
G01*
X152408812Y-57971625D01*
X152572784Y-58039545D01*
X152720354Y-58138148D01*
X152845853Y-58263647D01*
X152944456Y-58411217D01*
X153012376Y-58575189D01*
X153047000Y-58749260D01*
X153047000Y-58926742D01*
X153012376Y-59100813D01*
X152944456Y-59264785D01*
X152845853Y-59412355D01*
X152720354Y-59537854D01*
X152572784Y-59636457D01*
X152408812Y-59704377D01*
X152259512Y-59734074D01*
X152234742Y-59739001D01*
X152057258Y-59739001D01*
X152032488Y-59734074D01*
X151883188Y-59704377D01*
X151719216Y-59636457D01*
X151571646Y-59537854D01*
X151446147Y-59412355D01*
X151347544Y-59264785D01*
X151279624Y-59100813D01*
X151245000Y-58926742D01*
X151245000Y-58749260D01*
X151279624Y-58575189D01*
X151347544Y-58411217D01*
X151446147Y-58263647D01*
X151571646Y-58138148D01*
X151719216Y-58039545D01*
X151883188Y-57971625D01*
X152032488Y-57941928D01*
X152057258Y-57937001D01*
X152234742Y-57937001D01*
X152259512Y-57941928D01*
G37*
G36*
X158759512Y-57941928D02*
G01*
X158908812Y-57971625D01*
X159072784Y-58039545D01*
X159220354Y-58138148D01*
X159345853Y-58263647D01*
X159444456Y-58411217D01*
X159512376Y-58575189D01*
X159547000Y-58749260D01*
X159547000Y-58926742D01*
X159512376Y-59100813D01*
X159444456Y-59264785D01*
X159345853Y-59412355D01*
X159220354Y-59537854D01*
X159072784Y-59636457D01*
X158908812Y-59704377D01*
X158759512Y-59734074D01*
X158734742Y-59739001D01*
X158557258Y-59739001D01*
X158532488Y-59734074D01*
X158383188Y-59704377D01*
X158219216Y-59636457D01*
X158071646Y-59537854D01*
X157946147Y-59412355D01*
X157847544Y-59264785D01*
X157779624Y-59100813D01*
X157745000Y-58926742D01*
X157745000Y-58749260D01*
X157779624Y-58575189D01*
X157847544Y-58411217D01*
X157946147Y-58263647D01*
X158071646Y-58138148D01*
X158219216Y-58039545D01*
X158383188Y-57971625D01*
X158532488Y-57941928D01*
X158557258Y-57937001D01*
X158734742Y-57937001D01*
X158759512Y-57941928D01*
G37*
G36*
X184390512Y-57832927D02*
G01*
X184539812Y-57862624D01*
X184703784Y-57930544D01*
X184851354Y-58029147D01*
X184976853Y-58154646D01*
X185075456Y-58302216D01*
X185143376Y-58466188D01*
X185178000Y-58640259D01*
X185178000Y-58817741D01*
X185143376Y-58991812D01*
X185075456Y-59155784D01*
X184976853Y-59303354D01*
X184851354Y-59428853D01*
X184703784Y-59527456D01*
X184539812Y-59595376D01*
X184390512Y-59625073D01*
X184365742Y-59630000D01*
X184188258Y-59630000D01*
X184163488Y-59625073D01*
X184014188Y-59595376D01*
X183850216Y-59527456D01*
X183702646Y-59428853D01*
X183577147Y-59303354D01*
X183478544Y-59155784D01*
X183410624Y-58991812D01*
X183376000Y-58817741D01*
X183376000Y-58640259D01*
X183410624Y-58466188D01*
X183478544Y-58302216D01*
X183577147Y-58154646D01*
X183702646Y-58029147D01*
X183850216Y-57930544D01*
X184014188Y-57862624D01*
X184163488Y-57832927D01*
X184188258Y-57828000D01*
X184365742Y-57828000D01*
X184390512Y-57832927D01*
G37*
G36*
X190890512Y-57832927D02*
G01*
X191039812Y-57862624D01*
X191203784Y-57930544D01*
X191351354Y-58029147D01*
X191476853Y-58154646D01*
X191575456Y-58302216D01*
X191643376Y-58466188D01*
X191678000Y-58640259D01*
X191678000Y-58817741D01*
X191643376Y-58991812D01*
X191575456Y-59155784D01*
X191476853Y-59303354D01*
X191351354Y-59428853D01*
X191203784Y-59527456D01*
X191039812Y-59595376D01*
X190890512Y-59625073D01*
X190865742Y-59630000D01*
X190688258Y-59630000D01*
X190663488Y-59625073D01*
X190514188Y-59595376D01*
X190350216Y-59527456D01*
X190202646Y-59428853D01*
X190077147Y-59303354D01*
X189978544Y-59155784D01*
X189910624Y-58991812D01*
X189876000Y-58817741D01*
X189876000Y-58640259D01*
X189910624Y-58466188D01*
X189978544Y-58302216D01*
X190077147Y-58154646D01*
X190202646Y-58029147D01*
X190350216Y-57930544D01*
X190514188Y-57862624D01*
X190663488Y-57832927D01*
X190688258Y-57828000D01*
X190865742Y-57828000D01*
X190890512Y-57832927D01*
G37*
G36*
X216875895Y-55346546D02*
G01*
X217048966Y-55418234D01*
X217110156Y-55459120D01*
X217204727Y-55522310D01*
X217337190Y-55654773D01*
X217368877Y-55702196D01*
X217441266Y-55810534D01*
X217512954Y-55983605D01*
X217549500Y-56167333D01*
X217549500Y-56354667D01*
X217512954Y-56538395D01*
X217441266Y-56711466D01*
X217441265Y-56711467D01*
X217337190Y-56867227D01*
X217204727Y-56999690D01*
X217146723Y-57038447D01*
X217048966Y-57103766D01*
X216875895Y-57175454D01*
X216692167Y-57212000D01*
X216504833Y-57212000D01*
X216321105Y-57175454D01*
X216148034Y-57103766D01*
X216050277Y-57038447D01*
X215992273Y-56999690D01*
X215859810Y-56867227D01*
X215755735Y-56711467D01*
X215755734Y-56711466D01*
X215684046Y-56538395D01*
X215647500Y-56354667D01*
X215647500Y-56167333D01*
X215684046Y-55983605D01*
X215755734Y-55810534D01*
X215828123Y-55702196D01*
X215859810Y-55654773D01*
X215992273Y-55522310D01*
X216086844Y-55459120D01*
X216148034Y-55418234D01*
X216321105Y-55346546D01*
X216504833Y-55310000D01*
X216692167Y-55310000D01*
X216875895Y-55346546D01*
G37*
G36*
X222629500Y-57212000D02*
G01*
X220727500Y-57212000D01*
X220727500Y-55310000D01*
X222629500Y-55310000D01*
X222629500Y-57212000D01*
G37*
G36*
X219415895Y-55346546D02*
G01*
X219588966Y-55418234D01*
X219650156Y-55459120D01*
X219744727Y-55522310D01*
X219877190Y-55654773D01*
X219908877Y-55702196D01*
X219981266Y-55810534D01*
X220052954Y-55983605D01*
X220089500Y-56167333D01*
X220089500Y-56354667D01*
X220052954Y-56538395D01*
X219981266Y-56711466D01*
X219981265Y-56711467D01*
X219877190Y-56867227D01*
X219744727Y-56999690D01*
X219686723Y-57038447D01*
X219588966Y-57103766D01*
X219415895Y-57175454D01*
X219232167Y-57212000D01*
X219044833Y-57212000D01*
X218861105Y-57175454D01*
X218688034Y-57103766D01*
X218590277Y-57038447D01*
X218532273Y-56999690D01*
X218399810Y-56867227D01*
X218295735Y-56711467D01*
X218295734Y-56711466D01*
X218224046Y-56538395D01*
X218187500Y-56354667D01*
X218187500Y-56167333D01*
X218224046Y-55983605D01*
X218295734Y-55810534D01*
X218368123Y-55702196D01*
X218399810Y-55654773D01*
X218532273Y-55522310D01*
X218626844Y-55459120D01*
X218688034Y-55418234D01*
X218861105Y-55346546D01*
X219044833Y-55310000D01*
X219232167Y-55310000D01*
X219415895Y-55346546D01*
G37*
G36*
X214335895Y-55346546D02*
G01*
X214508966Y-55418234D01*
X214570156Y-55459120D01*
X214664727Y-55522310D01*
X214797190Y-55654773D01*
X214828877Y-55702196D01*
X214901266Y-55810534D01*
X214972954Y-55983605D01*
X215009500Y-56167333D01*
X215009500Y-56354667D01*
X214972954Y-56538395D01*
X214901266Y-56711466D01*
X214901265Y-56711467D01*
X214797190Y-56867227D01*
X214664727Y-56999690D01*
X214606723Y-57038447D01*
X214508966Y-57103766D01*
X214335895Y-57175454D01*
X214152167Y-57212000D01*
X213964833Y-57212000D01*
X213781105Y-57175454D01*
X213608034Y-57103766D01*
X213510277Y-57038447D01*
X213452273Y-56999690D01*
X213319810Y-56867227D01*
X213215735Y-56711467D01*
X213215734Y-56711466D01*
X213144046Y-56538395D01*
X213107500Y-56354667D01*
X213107500Y-56167333D01*
X213144046Y-55983605D01*
X213215734Y-55810534D01*
X213288123Y-55702196D01*
X213319810Y-55654773D01*
X213452273Y-55522310D01*
X213546844Y-55459120D01*
X213608034Y-55418234D01*
X213781105Y-55346546D01*
X213964833Y-55310000D01*
X214152167Y-55310000D01*
X214335895Y-55346546D01*
G37*
G36*
X211795895Y-55346546D02*
G01*
X211968966Y-55418234D01*
X212030156Y-55459120D01*
X212124727Y-55522310D01*
X212257190Y-55654773D01*
X212288877Y-55702196D01*
X212361266Y-55810534D01*
X212432954Y-55983605D01*
X212469500Y-56167333D01*
X212469500Y-56354667D01*
X212432954Y-56538395D01*
X212361266Y-56711466D01*
X212361265Y-56711467D01*
X212257190Y-56867227D01*
X212124727Y-56999690D01*
X212066723Y-57038447D01*
X211968966Y-57103766D01*
X211795895Y-57175454D01*
X211612167Y-57212000D01*
X211424833Y-57212000D01*
X211241105Y-57175454D01*
X211068034Y-57103766D01*
X210970277Y-57038447D01*
X210912273Y-56999690D01*
X210779810Y-56867227D01*
X210675735Y-56711467D01*
X210675734Y-56711466D01*
X210604046Y-56538395D01*
X210567500Y-56354667D01*
X210567500Y-56167333D01*
X210604046Y-55983605D01*
X210675734Y-55810534D01*
X210748123Y-55702196D01*
X210779810Y-55654773D01*
X210912273Y-55522310D01*
X211006844Y-55459120D01*
X211068034Y-55418234D01*
X211241105Y-55346546D01*
X211424833Y-55310000D01*
X211612167Y-55310000D01*
X211795895Y-55346546D01*
G37*
G36*
X209255895Y-55346546D02*
G01*
X209428966Y-55418234D01*
X209490156Y-55459120D01*
X209584727Y-55522310D01*
X209717190Y-55654773D01*
X209748877Y-55702196D01*
X209821266Y-55810534D01*
X209892954Y-55983605D01*
X209929500Y-56167333D01*
X209929500Y-56354667D01*
X209892954Y-56538395D01*
X209821266Y-56711466D01*
X209821265Y-56711467D01*
X209717190Y-56867227D01*
X209584727Y-56999690D01*
X209526723Y-57038447D01*
X209428966Y-57103766D01*
X209255895Y-57175454D01*
X209072167Y-57212000D01*
X208884833Y-57212000D01*
X208701105Y-57175454D01*
X208528034Y-57103766D01*
X208430277Y-57038447D01*
X208372273Y-56999690D01*
X208239810Y-56867227D01*
X208135735Y-56711467D01*
X208135734Y-56711466D01*
X208064046Y-56538395D01*
X208027500Y-56354667D01*
X208027500Y-56167333D01*
X208064046Y-55983605D01*
X208135734Y-55810534D01*
X208208123Y-55702196D01*
X208239810Y-55654773D01*
X208372273Y-55522310D01*
X208466844Y-55459120D01*
X208528034Y-55418234D01*
X208701105Y-55346546D01*
X208884833Y-55310000D01*
X209072167Y-55310000D01*
X209255895Y-55346546D01*
G37*
G36*
X206715895Y-55346546D02*
G01*
X206888966Y-55418234D01*
X206950156Y-55459120D01*
X207044727Y-55522310D01*
X207177190Y-55654773D01*
X207208877Y-55702196D01*
X207281266Y-55810534D01*
X207352954Y-55983605D01*
X207389500Y-56167333D01*
X207389500Y-56354667D01*
X207352954Y-56538395D01*
X207281266Y-56711466D01*
X207281265Y-56711467D01*
X207177190Y-56867227D01*
X207044727Y-56999690D01*
X206986723Y-57038447D01*
X206888966Y-57103766D01*
X206715895Y-57175454D01*
X206532167Y-57212000D01*
X206344833Y-57212000D01*
X206161105Y-57175454D01*
X205988034Y-57103766D01*
X205890277Y-57038447D01*
X205832273Y-56999690D01*
X205699810Y-56867227D01*
X205595735Y-56711467D01*
X205595734Y-56711466D01*
X205524046Y-56538395D01*
X205487500Y-56354667D01*
X205487500Y-56167333D01*
X205524046Y-55983605D01*
X205595734Y-55810534D01*
X205668123Y-55702196D01*
X205699810Y-55654773D01*
X205832273Y-55522310D01*
X205926844Y-55459120D01*
X205988034Y-55418234D01*
X206161105Y-55346546D01*
X206344833Y-55310000D01*
X206532167Y-55310000D01*
X206715895Y-55346546D01*
G37*
G36*
X181792218Y-55067765D02*
G01*
X181825033Y-55077719D01*
X181855265Y-55093879D01*
X181881770Y-55115630D01*
X181903521Y-55142135D01*
X181919681Y-55172367D01*
X181929635Y-55205182D01*
X181933600Y-55245440D01*
X181933600Y-56209160D01*
X181929635Y-56249418D01*
X181919681Y-56282233D01*
X181903521Y-56312465D01*
X181881770Y-56338970D01*
X181855265Y-56360721D01*
X181825033Y-56376881D01*
X181792218Y-56386835D01*
X181751960Y-56390800D01*
X181163240Y-56390800D01*
X181122982Y-56386835D01*
X181090167Y-56376881D01*
X181059935Y-56360721D01*
X181033430Y-56338970D01*
X181011679Y-56312465D01*
X180995519Y-56282233D01*
X180985565Y-56249418D01*
X180981600Y-56209160D01*
X180981600Y-55245440D01*
X180985565Y-55205182D01*
X180995519Y-55172367D01*
X181011679Y-55142135D01*
X181033430Y-55115630D01*
X181059935Y-55093879D01*
X181090167Y-55077719D01*
X181122982Y-55067765D01*
X181163240Y-55063800D01*
X181751960Y-55063800D01*
X181792218Y-55067765D01*
G37*
G36*
X161624618Y-55067465D02*
G01*
X161657433Y-55077419D01*
X161687665Y-55093579D01*
X161714170Y-55115330D01*
X161735921Y-55141835D01*
X161752081Y-55172067D01*
X161762035Y-55204882D01*
X161766000Y-55245140D01*
X161766000Y-56208860D01*
X161762035Y-56249118D01*
X161752081Y-56281933D01*
X161735921Y-56312165D01*
X161714170Y-56338670D01*
X161687665Y-56360421D01*
X161657433Y-56376581D01*
X161624618Y-56386535D01*
X161584360Y-56390500D01*
X160995640Y-56390500D01*
X160955382Y-56386535D01*
X160922567Y-56376581D01*
X160892335Y-56360421D01*
X160865830Y-56338670D01*
X160844079Y-56312165D01*
X160827919Y-56281933D01*
X160817965Y-56249118D01*
X160814000Y-56208860D01*
X160814000Y-55245140D01*
X160817965Y-55204882D01*
X160827919Y-55172067D01*
X160844079Y-55141835D01*
X160865830Y-55115330D01*
X160892335Y-55093579D01*
X160922567Y-55077419D01*
X160955382Y-55067465D01*
X160995640Y-55063500D01*
X161584360Y-55063500D01*
X161624618Y-55067465D01*
G37*
G36*
X179451268Y-55216765D02*
G01*
X179489938Y-55228496D01*
X179525577Y-55247546D01*
X179556817Y-55273183D01*
X179582454Y-55304423D01*
X179601504Y-55340062D01*
X179613235Y-55378732D01*
X179617800Y-55425088D01*
X179617800Y-56076312D01*
X179613235Y-56122668D01*
X179601504Y-56161338D01*
X179582454Y-56196977D01*
X179556817Y-56228217D01*
X179525577Y-56253854D01*
X179489938Y-56272904D01*
X179451268Y-56284635D01*
X179404912Y-56289200D01*
X178328688Y-56289200D01*
X178282332Y-56284635D01*
X178243662Y-56272904D01*
X178208023Y-56253854D01*
X178176783Y-56228217D01*
X178151146Y-56196977D01*
X178132096Y-56161338D01*
X178120365Y-56122668D01*
X178115800Y-56076312D01*
X178115800Y-55425088D01*
X178120365Y-55378732D01*
X178132096Y-55340062D01*
X178151146Y-55304423D01*
X178176783Y-55273183D01*
X178208023Y-55247546D01*
X178243662Y-55228496D01*
X178282332Y-55216765D01*
X178328688Y-55212200D01*
X179404912Y-55212200D01*
X179451268Y-55216765D01*
G37*
G36*
X164414468Y-55165965D02*
G01*
X164453138Y-55177696D01*
X164488777Y-55196746D01*
X164520017Y-55222383D01*
X164545654Y-55253623D01*
X164564704Y-55289262D01*
X164576435Y-55327932D01*
X164581000Y-55374288D01*
X164581000Y-56025512D01*
X164576435Y-56071868D01*
X164564704Y-56110538D01*
X164545654Y-56146177D01*
X164520017Y-56177417D01*
X164488777Y-56203054D01*
X164453138Y-56222104D01*
X164414468Y-56233835D01*
X164368112Y-56238400D01*
X163291888Y-56238400D01*
X163245532Y-56233835D01*
X163206862Y-56222104D01*
X163171223Y-56203054D01*
X163139983Y-56177417D01*
X163114346Y-56146177D01*
X163095296Y-56110538D01*
X163083565Y-56071868D01*
X163079000Y-56025512D01*
X163079000Y-55374288D01*
X163083565Y-55327932D01*
X163095296Y-55289262D01*
X163114346Y-55253623D01*
X163139983Y-55222383D01*
X163171223Y-55196746D01*
X163206862Y-55177696D01*
X163245532Y-55165965D01*
X163291888Y-55161400D01*
X164368112Y-55161400D01*
X164414468Y-55165965D01*
G37*
G36*
X152259512Y-53441928D02*
G01*
X152408812Y-53471625D01*
X152572784Y-53539545D01*
X152720354Y-53638148D01*
X152845853Y-53763647D01*
X152944456Y-53911217D01*
X153012376Y-54075189D01*
X153027358Y-54150512D01*
X153046684Y-54247668D01*
X153047000Y-54249260D01*
X153047000Y-54426742D01*
X153012376Y-54600813D01*
X152944456Y-54764785D01*
X152845853Y-54912355D01*
X152720354Y-55037854D01*
X152572784Y-55136457D01*
X152408812Y-55204377D01*
X152266444Y-55232695D01*
X152234742Y-55239001D01*
X152057258Y-55239001D01*
X152025556Y-55232695D01*
X151883188Y-55204377D01*
X151719216Y-55136457D01*
X151571646Y-55037854D01*
X151446147Y-54912355D01*
X151347544Y-54764785D01*
X151279624Y-54600813D01*
X151245000Y-54426742D01*
X151245000Y-54249260D01*
X151245317Y-54247668D01*
X151264642Y-54150512D01*
X151279624Y-54075189D01*
X151347544Y-53911217D01*
X151446147Y-53763647D01*
X151571646Y-53638148D01*
X151719216Y-53539545D01*
X151883188Y-53471625D01*
X152032488Y-53441928D01*
X152057258Y-53437001D01*
X152234742Y-53437001D01*
X152259512Y-53441928D01*
G37*
G36*
X158759512Y-53441928D02*
G01*
X158908812Y-53471625D01*
X159072784Y-53539545D01*
X159220354Y-53638148D01*
X159345853Y-53763647D01*
X159444456Y-53911217D01*
X159512376Y-54075189D01*
X159527358Y-54150512D01*
X159546684Y-54247668D01*
X159547000Y-54249260D01*
X159547000Y-54426742D01*
X159512376Y-54600813D01*
X159444456Y-54764785D01*
X159345853Y-54912355D01*
X159220354Y-55037854D01*
X159072784Y-55136457D01*
X158908812Y-55204377D01*
X158766444Y-55232695D01*
X158734742Y-55239001D01*
X158557258Y-55239001D01*
X158525556Y-55232695D01*
X158383188Y-55204377D01*
X158219216Y-55136457D01*
X158071646Y-55037854D01*
X157946147Y-54912355D01*
X157847544Y-54764785D01*
X157779624Y-54600813D01*
X157745000Y-54426742D01*
X157745000Y-54249260D01*
X157745317Y-54247668D01*
X157764642Y-54150512D01*
X157779624Y-54075189D01*
X157847544Y-53911217D01*
X157946147Y-53763647D01*
X158071646Y-53638148D01*
X158219216Y-53539545D01*
X158383188Y-53471625D01*
X158532488Y-53441928D01*
X158557258Y-53437001D01*
X158734742Y-53437001D01*
X158759512Y-53441928D01*
G37*
G36*
X190884730Y-53331777D02*
G01*
X191039812Y-53362624D01*
X191203784Y-53430544D01*
X191351354Y-53529147D01*
X191476853Y-53654646D01*
X191575456Y-53802216D01*
X191643376Y-53966188D01*
X191673073Y-54115488D01*
X191678000Y-54140258D01*
X191678000Y-54317742D01*
X191675949Y-54328054D01*
X191643376Y-54491812D01*
X191575456Y-54655784D01*
X191476853Y-54803354D01*
X191351354Y-54928853D01*
X191203784Y-55027456D01*
X191039812Y-55095376D01*
X190890512Y-55125073D01*
X190865742Y-55130000D01*
X190688258Y-55130000D01*
X190663488Y-55125073D01*
X190514188Y-55095376D01*
X190350216Y-55027456D01*
X190202646Y-54928853D01*
X190077147Y-54803354D01*
X189978544Y-54655784D01*
X189910624Y-54491812D01*
X189878051Y-54328054D01*
X189876000Y-54317742D01*
X189876000Y-54140258D01*
X189880927Y-54115488D01*
X189910624Y-53966188D01*
X189978544Y-53802216D01*
X190077147Y-53654646D01*
X190202646Y-53529147D01*
X190350216Y-53430544D01*
X190514188Y-53362624D01*
X190669270Y-53331777D01*
X190688258Y-53328000D01*
X190865742Y-53328000D01*
X190884730Y-53331777D01*
G37*
G36*
X184384730Y-53331777D02*
G01*
X184539812Y-53362624D01*
X184703784Y-53430544D01*
X184851354Y-53529147D01*
X184976853Y-53654646D01*
X185075456Y-53802216D01*
X185143376Y-53966188D01*
X185173073Y-54115488D01*
X185178000Y-54140258D01*
X185178000Y-54317742D01*
X185175949Y-54328054D01*
X185143376Y-54491812D01*
X185075456Y-54655784D01*
X184976853Y-54803354D01*
X184851354Y-54928853D01*
X184703784Y-55027456D01*
X184539812Y-55095376D01*
X184390512Y-55125073D01*
X184365742Y-55130000D01*
X184188258Y-55130000D01*
X184163488Y-55125073D01*
X184014188Y-55095376D01*
X183850216Y-55027456D01*
X183702646Y-54928853D01*
X183577147Y-54803354D01*
X183478544Y-54655784D01*
X183410624Y-54491812D01*
X183378051Y-54328054D01*
X183376000Y-54317742D01*
X183376000Y-54140258D01*
X183380927Y-54115488D01*
X183410624Y-53966188D01*
X183478544Y-53802216D01*
X183577147Y-53654646D01*
X183702646Y-53529147D01*
X183850216Y-53430544D01*
X184014188Y-53362624D01*
X184169270Y-53331777D01*
X184188258Y-53328000D01*
X184365742Y-53328000D01*
X184384730Y-53331777D01*
G37*
G36*
X181792218Y-53442765D02*
G01*
X181825033Y-53452719D01*
X181855265Y-53468879D01*
X181881770Y-53490630D01*
X181903521Y-53517135D01*
X181919681Y-53547367D01*
X181929635Y-53580182D01*
X181933600Y-53620440D01*
X181933600Y-54584160D01*
X181929635Y-54624418D01*
X181919681Y-54657233D01*
X181903521Y-54687465D01*
X181881770Y-54713970D01*
X181855265Y-54735721D01*
X181825033Y-54751881D01*
X181792218Y-54761835D01*
X181751960Y-54765800D01*
X181163240Y-54765800D01*
X181122982Y-54761835D01*
X181090167Y-54751881D01*
X181059935Y-54735721D01*
X181033430Y-54713970D01*
X181011679Y-54687465D01*
X180995519Y-54657233D01*
X180985565Y-54624418D01*
X180981600Y-54584160D01*
X180981600Y-53620440D01*
X180985565Y-53580182D01*
X180995519Y-53547367D01*
X181011679Y-53517135D01*
X181033430Y-53490630D01*
X181059935Y-53468879D01*
X181090167Y-53452719D01*
X181122982Y-53442765D01*
X181163240Y-53438800D01*
X181751960Y-53438800D01*
X181792218Y-53442765D01*
G37*
G36*
X161624618Y-53442465D02*
G01*
X161657433Y-53452419D01*
X161687665Y-53468579D01*
X161714170Y-53490330D01*
X161735921Y-53516835D01*
X161752081Y-53547067D01*
X161762035Y-53579882D01*
X161766000Y-53620140D01*
X161766000Y-54583860D01*
X161762035Y-54624118D01*
X161752081Y-54656933D01*
X161735921Y-54687165D01*
X161714170Y-54713670D01*
X161687665Y-54735421D01*
X161657433Y-54751581D01*
X161624618Y-54761535D01*
X161584360Y-54765500D01*
X160995640Y-54765500D01*
X160955382Y-54761535D01*
X160922567Y-54751581D01*
X160892335Y-54735421D01*
X160865830Y-54713670D01*
X160844079Y-54687165D01*
X160827919Y-54656933D01*
X160817965Y-54624118D01*
X160814000Y-54583860D01*
X160814000Y-53620140D01*
X160817965Y-53579882D01*
X160827919Y-53547067D01*
X160844079Y-53516835D01*
X160865830Y-53490330D01*
X160892335Y-53468579D01*
X160922567Y-53452419D01*
X160955382Y-53442465D01*
X160995640Y-53438500D01*
X161584360Y-53438500D01*
X161624618Y-53442465D01*
G37*
G36*
X179451268Y-53341765D02*
G01*
X179489938Y-53353496D01*
X179525577Y-53372546D01*
X179556817Y-53398183D01*
X179582454Y-53429423D01*
X179601504Y-53465062D01*
X179613235Y-53503732D01*
X179617800Y-53550088D01*
X179617800Y-54201312D01*
X179613235Y-54247668D01*
X179601504Y-54286338D01*
X179582454Y-54321977D01*
X179556817Y-54353217D01*
X179525577Y-54378854D01*
X179489938Y-54397904D01*
X179451268Y-54409635D01*
X179404912Y-54414200D01*
X178328688Y-54414200D01*
X178282332Y-54409635D01*
X178243662Y-54397904D01*
X178208023Y-54378854D01*
X178176783Y-54353217D01*
X178151146Y-54321977D01*
X178132096Y-54286338D01*
X178120365Y-54247668D01*
X178115800Y-54201312D01*
X178115800Y-53550088D01*
X178120365Y-53503732D01*
X178132096Y-53465062D01*
X178151146Y-53429423D01*
X178176783Y-53398183D01*
X178208023Y-53372546D01*
X178243662Y-53353496D01*
X178282332Y-53341765D01*
X178328688Y-53337200D01*
X179404912Y-53337200D01*
X179451268Y-53341765D01*
G37*
G36*
X164414468Y-53290965D02*
G01*
X164453138Y-53302696D01*
X164488777Y-53321746D01*
X164520017Y-53347383D01*
X164545654Y-53378623D01*
X164564704Y-53414262D01*
X164576435Y-53452932D01*
X164581000Y-53499288D01*
X164581000Y-54150512D01*
X164576435Y-54196868D01*
X164564704Y-54235538D01*
X164545654Y-54271177D01*
X164520017Y-54302417D01*
X164488777Y-54328054D01*
X164453138Y-54347104D01*
X164414468Y-54358835D01*
X164368112Y-54363400D01*
X163291888Y-54363400D01*
X163245532Y-54358835D01*
X163206862Y-54347104D01*
X163171223Y-54328054D01*
X163139983Y-54302417D01*
X163114346Y-54271177D01*
X163095296Y-54235538D01*
X163083565Y-54196868D01*
X163079000Y-54150512D01*
X163079000Y-53499288D01*
X163083565Y-53452932D01*
X163095296Y-53414262D01*
X163114346Y-53378623D01*
X163139983Y-53347383D01*
X163171223Y-53321746D01*
X163206862Y-53302696D01*
X163245532Y-53290965D01*
X163291888Y-53286400D01*
X164368112Y-53286400D01*
X164414468Y-53290965D01*
G37*
G36*
X149092275Y-48782864D02*
G01*
X149243548Y-48828752D01*
X149245529Y-48829353D01*
X149386763Y-48904844D01*
X149510559Y-49006441D01*
X149612156Y-49130237D01*
X149687647Y-49271470D01*
X149687647Y-49271471D01*
X149687648Y-49271473D01*
X149734136Y-49424724D01*
X149745900Y-49544167D01*
X149745900Y-50100032D01*
X149734136Y-50219476D01*
X149687830Y-50372126D01*
X149687647Y-50372730D01*
X149612156Y-50513963D01*
X149510559Y-50637759D01*
X149386763Y-50739356D01*
X149245530Y-50814847D01*
X149245527Y-50814848D01*
X149092276Y-50861336D01*
X148932900Y-50877033D01*
X148773525Y-50861336D01*
X148620274Y-50814848D01*
X148620271Y-50814847D01*
X148479038Y-50739356D01*
X148355242Y-50637759D01*
X148253646Y-50513965D01*
X148253645Y-50513963D01*
X148178152Y-50372727D01*
X148131664Y-50219476D01*
X148119900Y-50100033D01*
X148119900Y-49544168D01*
X148131664Y-49424725D01*
X148178152Y-49271474D01*
X148178153Y-49271471D01*
X148253644Y-49130237D01*
X148355241Y-49006441D01*
X148479037Y-48904844D01*
X148620270Y-48829353D01*
X148622251Y-48828752D01*
X148773524Y-48782864D01*
X148932900Y-48767167D01*
X149092275Y-48782864D01*
G37*
G36*
X151632275Y-48782864D02*
G01*
X151783548Y-48828752D01*
X151785529Y-48829353D01*
X151926763Y-48904844D01*
X152050559Y-49006441D01*
X152152156Y-49130237D01*
X152227647Y-49271470D01*
X152227647Y-49271471D01*
X152227648Y-49271473D01*
X152274136Y-49424724D01*
X152285900Y-49544167D01*
X152285900Y-50100032D01*
X152274136Y-50219476D01*
X152227830Y-50372126D01*
X152227647Y-50372730D01*
X152152156Y-50513963D01*
X152050559Y-50637759D01*
X151926763Y-50739356D01*
X151785530Y-50814847D01*
X151785527Y-50814848D01*
X151632276Y-50861336D01*
X151472900Y-50877033D01*
X151313525Y-50861336D01*
X151160274Y-50814848D01*
X151160271Y-50814847D01*
X151019038Y-50739356D01*
X150895242Y-50637759D01*
X150793646Y-50513965D01*
X150793645Y-50513963D01*
X150718152Y-50372727D01*
X150671664Y-50219476D01*
X150659900Y-50100033D01*
X150659900Y-49544168D01*
X150671664Y-49424725D01*
X150718152Y-49271474D01*
X150718153Y-49271471D01*
X150793644Y-49130237D01*
X150895241Y-49006441D01*
X151019037Y-48904844D01*
X151160270Y-48829353D01*
X151162251Y-48828752D01*
X151313524Y-48782864D01*
X151472900Y-48767167D01*
X151632275Y-48782864D01*
G37*
G36*
X154172275Y-48782864D02*
G01*
X154323548Y-48828752D01*
X154325529Y-48829353D01*
X154466763Y-48904844D01*
X154590559Y-49006441D01*
X154692156Y-49130237D01*
X154767647Y-49271470D01*
X154767647Y-49271471D01*
X154767648Y-49271473D01*
X154814136Y-49424724D01*
X154825900Y-49544167D01*
X154825900Y-50100032D01*
X154814136Y-50219476D01*
X154767830Y-50372126D01*
X154767647Y-50372730D01*
X154692156Y-50513963D01*
X154590559Y-50637759D01*
X154466763Y-50739356D01*
X154325530Y-50814847D01*
X154325527Y-50814848D01*
X154172276Y-50861336D01*
X154012900Y-50877033D01*
X153853525Y-50861336D01*
X153700274Y-50814848D01*
X153700271Y-50814847D01*
X153559038Y-50739356D01*
X153435242Y-50637759D01*
X153333646Y-50513965D01*
X153333645Y-50513963D01*
X153258152Y-50372727D01*
X153211664Y-50219476D01*
X153199900Y-50100033D01*
X153199900Y-49544168D01*
X153211664Y-49424725D01*
X153258152Y-49271474D01*
X153258153Y-49271471D01*
X153333644Y-49130237D01*
X153435241Y-49006441D01*
X153559037Y-48904844D01*
X153700270Y-48829353D01*
X153702251Y-48828752D01*
X153853524Y-48782864D01*
X154012900Y-48767167D01*
X154172275Y-48782864D01*
G37*
G36*
X146552275Y-48782864D02*
G01*
X146703548Y-48828752D01*
X146705529Y-48829353D01*
X146846763Y-48904844D01*
X146970559Y-49006441D01*
X147072156Y-49130237D01*
X147147647Y-49271470D01*
X147147647Y-49271471D01*
X147147648Y-49271473D01*
X147194136Y-49424724D01*
X147205900Y-49544167D01*
X147205900Y-50100032D01*
X147194136Y-50219476D01*
X147147830Y-50372126D01*
X147147647Y-50372730D01*
X147072156Y-50513963D01*
X146970559Y-50637759D01*
X146846763Y-50739356D01*
X146705530Y-50814847D01*
X146705527Y-50814848D01*
X146552276Y-50861336D01*
X146392900Y-50877033D01*
X146233525Y-50861336D01*
X146080274Y-50814848D01*
X146080271Y-50814847D01*
X145939038Y-50739356D01*
X145815242Y-50637759D01*
X145713646Y-50513965D01*
X145713645Y-50513963D01*
X145638152Y-50372727D01*
X145591664Y-50219476D01*
X145579900Y-50100033D01*
X145579900Y-49544168D01*
X145591664Y-49424725D01*
X145638152Y-49271474D01*
X145638153Y-49271471D01*
X145713644Y-49130237D01*
X145815241Y-49006441D01*
X145939037Y-48904844D01*
X146080270Y-48829353D01*
X146082251Y-48828752D01*
X146233524Y-48782864D01*
X146392900Y-48767167D01*
X146552275Y-48782864D01*
G37*
G36*
X181333976Y-48782263D02*
G01*
X181487227Y-48828751D01*
X181487230Y-48828752D01*
X181628464Y-48904243D01*
X181752260Y-49005840D01*
X181853857Y-49129636D01*
X181929348Y-49270869D01*
X181929348Y-49270870D01*
X181929349Y-49270872D01*
X181975837Y-49424123D01*
X181987601Y-49543566D01*
X181987601Y-50099431D01*
X181975837Y-50218875D01*
X181929349Y-50372126D01*
X181929348Y-50372129D01*
X181853857Y-50513362D01*
X181752260Y-50637158D01*
X181628464Y-50738755D01*
X181487231Y-50814246D01*
X181487228Y-50814247D01*
X181333977Y-50860735D01*
X181174601Y-50876432D01*
X181015226Y-50860735D01*
X180861975Y-50814247D01*
X180861972Y-50814246D01*
X180720739Y-50738755D01*
X180596943Y-50637158D01*
X180495839Y-50513964D01*
X180495346Y-50513363D01*
X180419853Y-50372126D01*
X180373365Y-50218875D01*
X180361601Y-50099432D01*
X180361601Y-49543567D01*
X180373365Y-49424124D01*
X180419853Y-49270873D01*
X180419854Y-49270870D01*
X180495345Y-49129636D01*
X180596942Y-49005840D01*
X180720738Y-48904243D01*
X180861971Y-48828752D01*
X180861974Y-48828751D01*
X181015225Y-48782263D01*
X181174601Y-48766566D01*
X181333976Y-48782263D01*
G37*
G36*
X164569976Y-48782263D02*
G01*
X164723227Y-48828751D01*
X164723230Y-48828752D01*
X164864464Y-48904243D01*
X164988260Y-49005840D01*
X165089857Y-49129636D01*
X165165348Y-49270869D01*
X165165348Y-49270870D01*
X165165349Y-49270872D01*
X165211837Y-49424123D01*
X165223601Y-49543566D01*
X165223601Y-50099431D01*
X165211837Y-50218875D01*
X165165349Y-50372126D01*
X165165348Y-50372129D01*
X165089857Y-50513362D01*
X164988260Y-50637158D01*
X164864464Y-50738755D01*
X164723231Y-50814246D01*
X164723228Y-50814247D01*
X164569977Y-50860735D01*
X164410601Y-50876432D01*
X164251226Y-50860735D01*
X164097975Y-50814247D01*
X164097972Y-50814246D01*
X163956739Y-50738755D01*
X163832943Y-50637158D01*
X163731839Y-50513964D01*
X163731346Y-50513363D01*
X163655853Y-50372126D01*
X163609365Y-50218875D01*
X163597601Y-50099432D01*
X163597601Y-49543567D01*
X163609365Y-49424124D01*
X163655853Y-49270873D01*
X163655854Y-49270870D01*
X163731345Y-49129636D01*
X163832942Y-49005840D01*
X163956738Y-48904243D01*
X164097971Y-48828752D01*
X164097974Y-48828751D01*
X164251225Y-48782263D01*
X164410601Y-48766566D01*
X164569976Y-48782263D01*
G37*
G36*
X167109976Y-48782263D02*
G01*
X167263227Y-48828751D01*
X167263230Y-48828752D01*
X167404464Y-48904243D01*
X167528260Y-49005840D01*
X167629857Y-49129636D01*
X167705348Y-49270869D01*
X167705348Y-49270870D01*
X167705349Y-49270872D01*
X167751837Y-49424123D01*
X167763601Y-49543566D01*
X167763601Y-50099431D01*
X167751837Y-50218875D01*
X167705349Y-50372126D01*
X167705348Y-50372129D01*
X167629857Y-50513362D01*
X167528260Y-50637158D01*
X167404464Y-50738755D01*
X167263231Y-50814246D01*
X167263228Y-50814247D01*
X167109977Y-50860735D01*
X166950601Y-50876432D01*
X166791226Y-50860735D01*
X166637975Y-50814247D01*
X166637972Y-50814246D01*
X166496739Y-50738755D01*
X166372943Y-50637158D01*
X166271839Y-50513964D01*
X166271346Y-50513363D01*
X166195853Y-50372126D01*
X166149365Y-50218875D01*
X166137601Y-50099432D01*
X166137601Y-49543567D01*
X166149365Y-49424124D01*
X166195853Y-49270873D01*
X166195854Y-49270870D01*
X166271345Y-49129636D01*
X166372942Y-49005840D01*
X166496738Y-48904243D01*
X166637971Y-48828752D01*
X166637974Y-48828751D01*
X166791225Y-48782263D01*
X166950601Y-48766566D01*
X167109976Y-48782263D01*
G37*
G36*
X159489976Y-48782263D02*
G01*
X159643227Y-48828751D01*
X159643230Y-48828752D01*
X159784464Y-48904243D01*
X159908260Y-49005840D01*
X160009857Y-49129636D01*
X160085348Y-49270869D01*
X160085348Y-49270870D01*
X160085349Y-49270872D01*
X160131837Y-49424123D01*
X160143601Y-49543566D01*
X160143601Y-50099431D01*
X160131837Y-50218875D01*
X160085349Y-50372126D01*
X160085348Y-50372129D01*
X160009857Y-50513362D01*
X159908260Y-50637158D01*
X159784464Y-50738755D01*
X159643231Y-50814246D01*
X159643228Y-50814247D01*
X159489977Y-50860735D01*
X159330601Y-50876432D01*
X159171226Y-50860735D01*
X159017975Y-50814247D01*
X159017972Y-50814246D01*
X158876739Y-50738755D01*
X158752943Y-50637158D01*
X158651839Y-50513964D01*
X158651346Y-50513363D01*
X158575853Y-50372126D01*
X158529365Y-50218875D01*
X158517601Y-50099432D01*
X158517601Y-49543567D01*
X158529365Y-49424124D01*
X158575853Y-49270873D01*
X158575854Y-49270870D01*
X158651345Y-49129636D01*
X158752942Y-49005840D01*
X158876738Y-48904243D01*
X159017971Y-48828752D01*
X159017974Y-48828751D01*
X159171225Y-48782263D01*
X159330601Y-48766566D01*
X159489976Y-48782263D01*
G37*
G36*
X183873976Y-48782263D02*
G01*
X184027227Y-48828751D01*
X184027230Y-48828752D01*
X184168464Y-48904243D01*
X184292260Y-49005840D01*
X184393857Y-49129636D01*
X184469348Y-49270869D01*
X184469348Y-49270870D01*
X184469349Y-49270872D01*
X184515837Y-49424123D01*
X184527601Y-49543566D01*
X184527601Y-50099431D01*
X184515837Y-50218875D01*
X184469349Y-50372126D01*
X184469348Y-50372129D01*
X184393857Y-50513362D01*
X184292260Y-50637158D01*
X184168464Y-50738755D01*
X184027231Y-50814246D01*
X184027228Y-50814247D01*
X183873977Y-50860735D01*
X183714601Y-50876432D01*
X183555226Y-50860735D01*
X183401975Y-50814247D01*
X183401972Y-50814246D01*
X183260739Y-50738755D01*
X183136943Y-50637158D01*
X183035839Y-50513964D01*
X183035346Y-50513363D01*
X182959853Y-50372126D01*
X182913365Y-50218875D01*
X182901601Y-50099432D01*
X182901601Y-49543567D01*
X182913365Y-49424124D01*
X182959853Y-49270873D01*
X182959854Y-49270870D01*
X183035345Y-49129636D01*
X183136942Y-49005840D01*
X183260738Y-48904243D01*
X183401971Y-48828752D01*
X183401974Y-48828751D01*
X183555225Y-48782263D01*
X183714601Y-48766566D01*
X183873976Y-48782263D01*
G37*
G36*
X178793976Y-48782263D02*
G01*
X178947227Y-48828751D01*
X178947230Y-48828752D01*
X179088464Y-48904243D01*
X179212260Y-49005840D01*
X179313857Y-49129636D01*
X179389348Y-49270869D01*
X179389348Y-49270870D01*
X179389349Y-49270872D01*
X179435837Y-49424123D01*
X179447601Y-49543566D01*
X179447601Y-50099431D01*
X179435837Y-50218875D01*
X179389349Y-50372126D01*
X179389348Y-50372129D01*
X179313857Y-50513362D01*
X179212260Y-50637158D01*
X179088464Y-50738755D01*
X178947231Y-50814246D01*
X178947228Y-50814247D01*
X178793977Y-50860735D01*
X178634601Y-50876432D01*
X178475226Y-50860735D01*
X178321975Y-50814247D01*
X178321972Y-50814246D01*
X178180739Y-50738755D01*
X178056943Y-50637158D01*
X177955839Y-50513964D01*
X177955346Y-50513363D01*
X177879853Y-50372126D01*
X177833365Y-50218875D01*
X177821601Y-50099432D01*
X177821601Y-49543567D01*
X177833365Y-49424124D01*
X177879853Y-49270873D01*
X177879854Y-49270870D01*
X177955345Y-49129636D01*
X178056942Y-49005840D01*
X178180738Y-48904243D01*
X178321971Y-48828752D01*
X178321974Y-48828751D01*
X178475225Y-48782263D01*
X178634601Y-48766566D01*
X178793976Y-48782263D01*
G37*
G36*
X191744876Y-48782263D02*
G01*
X191898127Y-48828751D01*
X191898130Y-48828752D01*
X192039364Y-48904243D01*
X192163160Y-49005840D01*
X192264757Y-49129636D01*
X192340248Y-49270869D01*
X192340248Y-49270870D01*
X192340249Y-49270872D01*
X192386737Y-49424123D01*
X192398501Y-49543566D01*
X192398501Y-50099431D01*
X192386737Y-50218875D01*
X192340249Y-50372126D01*
X192340248Y-50372129D01*
X192264757Y-50513362D01*
X192163160Y-50637158D01*
X192039364Y-50738755D01*
X191898131Y-50814246D01*
X191898128Y-50814247D01*
X191744877Y-50860735D01*
X191585501Y-50876432D01*
X191426126Y-50860735D01*
X191272875Y-50814247D01*
X191272872Y-50814246D01*
X191131639Y-50738755D01*
X191007843Y-50637158D01*
X190906739Y-50513964D01*
X190906246Y-50513363D01*
X190830753Y-50372126D01*
X190784265Y-50218875D01*
X190772501Y-50099432D01*
X190772501Y-49543567D01*
X190784265Y-49424124D01*
X190830753Y-49270873D01*
X190830754Y-49270870D01*
X190906245Y-49129636D01*
X191007842Y-49005840D01*
X191131638Y-48904243D01*
X191272871Y-48828752D01*
X191272874Y-48828751D01*
X191426125Y-48782263D01*
X191585501Y-48766566D01*
X191744876Y-48782263D01*
G37*
G36*
X194284876Y-48782263D02*
G01*
X194438127Y-48828751D01*
X194438130Y-48828752D01*
X194579364Y-48904243D01*
X194703160Y-49005840D01*
X194804757Y-49129636D01*
X194880248Y-49270869D01*
X194880248Y-49270870D01*
X194880249Y-49270872D01*
X194926737Y-49424123D01*
X194938501Y-49543566D01*
X194938501Y-50099431D01*
X194926737Y-50218875D01*
X194880249Y-50372126D01*
X194880248Y-50372129D01*
X194804757Y-50513362D01*
X194703160Y-50637158D01*
X194579364Y-50738755D01*
X194438131Y-50814246D01*
X194438128Y-50814247D01*
X194284877Y-50860735D01*
X194125501Y-50876432D01*
X193966126Y-50860735D01*
X193812875Y-50814247D01*
X193812872Y-50814246D01*
X193671639Y-50738755D01*
X193547843Y-50637158D01*
X193446739Y-50513964D01*
X193446246Y-50513363D01*
X193370753Y-50372126D01*
X193324265Y-50218875D01*
X193312501Y-50099432D01*
X193312501Y-49543567D01*
X193324265Y-49424124D01*
X193370753Y-49270873D01*
X193370754Y-49270870D01*
X193446245Y-49129636D01*
X193547842Y-49005840D01*
X193671638Y-48904243D01*
X193812871Y-48828752D01*
X193812874Y-48828751D01*
X193966125Y-48782263D01*
X194125501Y-48766566D01*
X194284876Y-48782263D01*
G37*
G36*
X196824876Y-48782263D02*
G01*
X196978127Y-48828751D01*
X196978130Y-48828752D01*
X197119364Y-48904243D01*
X197243160Y-49005840D01*
X197344757Y-49129636D01*
X197420248Y-49270869D01*
X197420248Y-49270870D01*
X197420249Y-49270872D01*
X197466737Y-49424123D01*
X197478501Y-49543566D01*
X197478501Y-50099431D01*
X197466737Y-50218875D01*
X197420249Y-50372126D01*
X197420248Y-50372129D01*
X197344757Y-50513362D01*
X197243160Y-50637158D01*
X197119364Y-50738755D01*
X196978131Y-50814246D01*
X196978128Y-50814247D01*
X196824877Y-50860735D01*
X196665501Y-50876432D01*
X196506126Y-50860735D01*
X196352875Y-50814247D01*
X196352872Y-50814246D01*
X196211639Y-50738755D01*
X196087843Y-50637158D01*
X195986739Y-50513964D01*
X195986246Y-50513363D01*
X195910753Y-50372126D01*
X195864265Y-50218875D01*
X195852501Y-50099432D01*
X195852501Y-49543567D01*
X195864265Y-49424124D01*
X195910753Y-49270873D01*
X195910754Y-49270870D01*
X195986245Y-49129636D01*
X196087842Y-49005840D01*
X196211638Y-48904243D01*
X196352871Y-48828752D01*
X196352874Y-48828751D01*
X196506125Y-48782263D01*
X196665501Y-48766566D01*
X196824876Y-48782263D01*
G37*
G36*
X199364876Y-48782263D02*
G01*
X199518127Y-48828751D01*
X199518130Y-48828752D01*
X199659364Y-48904243D01*
X199783160Y-49005840D01*
X199884757Y-49129636D01*
X199960248Y-49270869D01*
X199960248Y-49270870D01*
X199960249Y-49270872D01*
X200006737Y-49424123D01*
X200018501Y-49543566D01*
X200018501Y-50099431D01*
X200006737Y-50218875D01*
X199960249Y-50372126D01*
X199960248Y-50372129D01*
X199884757Y-50513362D01*
X199783160Y-50637158D01*
X199659364Y-50738755D01*
X199518131Y-50814246D01*
X199518128Y-50814247D01*
X199364877Y-50860735D01*
X199205501Y-50876432D01*
X199046126Y-50860735D01*
X198892875Y-50814247D01*
X198892872Y-50814246D01*
X198751639Y-50738755D01*
X198627843Y-50637158D01*
X198526739Y-50513964D01*
X198526246Y-50513363D01*
X198450753Y-50372126D01*
X198404265Y-50218875D01*
X198392501Y-50099432D01*
X198392501Y-49543567D01*
X198404265Y-49424124D01*
X198450753Y-49270873D01*
X198450754Y-49270870D01*
X198526245Y-49129636D01*
X198627842Y-49005840D01*
X198751638Y-48904243D01*
X198892871Y-48828752D01*
X198892874Y-48828751D01*
X199046125Y-48782263D01*
X199205501Y-48766566D01*
X199364876Y-48782263D01*
G37*
G36*
X162029976Y-48782263D02*
G01*
X162183227Y-48828751D01*
X162183230Y-48828752D01*
X162324464Y-48904243D01*
X162448260Y-49005840D01*
X162549857Y-49129636D01*
X162625348Y-49270869D01*
X162625348Y-49270870D01*
X162625349Y-49270872D01*
X162671837Y-49424123D01*
X162683601Y-49543566D01*
X162683601Y-50099431D01*
X162671837Y-50218875D01*
X162625349Y-50372126D01*
X162625348Y-50372129D01*
X162549857Y-50513362D01*
X162448260Y-50637158D01*
X162324464Y-50738755D01*
X162183231Y-50814246D01*
X162183228Y-50814247D01*
X162029977Y-50860735D01*
X161870601Y-50876432D01*
X161711226Y-50860735D01*
X161557975Y-50814247D01*
X161557972Y-50814246D01*
X161416739Y-50738755D01*
X161292943Y-50637158D01*
X161191839Y-50513964D01*
X161191346Y-50513363D01*
X161115853Y-50372126D01*
X161069365Y-50218875D01*
X161057601Y-50099432D01*
X161057601Y-49543567D01*
X161069365Y-49424124D01*
X161115853Y-49270873D01*
X161115854Y-49270870D01*
X161191345Y-49129636D01*
X161292942Y-49005840D01*
X161416738Y-48904243D01*
X161557971Y-48828752D01*
X161557974Y-48828751D01*
X161711225Y-48782263D01*
X161870601Y-48766566D01*
X162029976Y-48782263D01*
G37*
G36*
X186413976Y-48782263D02*
G01*
X186567227Y-48828751D01*
X186567230Y-48828752D01*
X186708464Y-48904243D01*
X186832260Y-49005840D01*
X186933857Y-49129636D01*
X187009348Y-49270869D01*
X187009348Y-49270870D01*
X187009349Y-49270872D01*
X187055837Y-49424123D01*
X187067601Y-49543566D01*
X187067601Y-50099431D01*
X187055837Y-50218875D01*
X187009349Y-50372126D01*
X187009348Y-50372129D01*
X186933857Y-50513362D01*
X186832260Y-50637158D01*
X186708464Y-50738755D01*
X186567231Y-50814246D01*
X186567228Y-50814247D01*
X186413977Y-50860735D01*
X186254601Y-50876432D01*
X186095226Y-50860735D01*
X185941975Y-50814247D01*
X185941972Y-50814246D01*
X185800739Y-50738755D01*
X185676943Y-50637158D01*
X185575839Y-50513964D01*
X185575346Y-50513363D01*
X185499853Y-50372126D01*
X185453365Y-50218875D01*
X185441601Y-50099432D01*
X185441601Y-49543567D01*
X185453365Y-49424124D01*
X185499853Y-49270873D01*
X185499854Y-49270870D01*
X185575345Y-49129636D01*
X185676942Y-49005840D01*
X185800738Y-48904243D01*
X185941971Y-48828752D01*
X185941974Y-48828751D01*
X186095225Y-48782263D01*
X186254601Y-48766566D01*
X186413976Y-48782263D01*
G37*
G36*
X144665900Y-50873100D02*
G01*
X143039900Y-50873100D01*
X143039900Y-48771100D01*
X144665900Y-48771100D01*
X144665900Y-50873100D01*
G37*
G36*
X157603601Y-50872499D02*
G01*
X155977601Y-50872499D01*
X155977601Y-48770499D01*
X157603601Y-48770499D01*
X157603601Y-50872499D01*
G37*
G36*
X176907601Y-50872499D02*
G01*
X175281601Y-50872499D01*
X175281601Y-48770499D01*
X176907601Y-48770499D01*
X176907601Y-50872499D01*
G37*
G36*
X189858501Y-50872499D02*
G01*
X188232501Y-50872499D01*
X188232501Y-48770499D01*
X189858501Y-48770499D01*
X189858501Y-50872499D01*
G37*
G36*
X136196564Y-46975389D02*
G01*
X136387833Y-47054615D01*
X136387835Y-47054616D01*
X136559973Y-47169635D01*
X136706365Y-47316027D01*
X136793931Y-47447078D01*
X136821385Y-47488167D01*
X136900611Y-47679436D01*
X136941000Y-47882484D01*
X136941000Y-48089516D01*
X136900611Y-48292564D01*
X136821385Y-48483833D01*
X136821384Y-48483835D01*
X136706365Y-48655973D01*
X136559973Y-48802365D01*
X136387835Y-48917384D01*
X136387834Y-48917385D01*
X136387833Y-48917385D01*
X136196564Y-48996611D01*
X135993516Y-49037000D01*
X135786484Y-49037000D01*
X135583436Y-48996611D01*
X135392167Y-48917385D01*
X135392166Y-48917385D01*
X135392165Y-48917384D01*
X135220027Y-48802365D01*
X135073635Y-48655973D01*
X134958616Y-48483835D01*
X134958615Y-48483833D01*
X134879389Y-48292564D01*
X134839000Y-48089516D01*
X134839000Y-47882484D01*
X134879389Y-47679436D01*
X134958615Y-47488167D01*
X134986070Y-47447078D01*
X135073635Y-47316027D01*
X135220027Y-47169635D01*
X135392165Y-47054616D01*
X135392167Y-47054615D01*
X135583436Y-46975389D01*
X135786484Y-46935000D01*
X135993516Y-46935000D01*
X136196564Y-46975389D01*
G37*
G36*
X170491243Y-46054681D02*
G01*
X170637015Y-46115062D01*
X170637017Y-46115063D01*
X170768209Y-46202722D01*
X170879779Y-46314292D01*
X170967438Y-46445484D01*
X170967439Y-46445486D01*
X171027820Y-46591258D01*
X171058601Y-46746007D01*
X171058601Y-46903793D01*
X171027820Y-47058542D01*
X170967439Y-47204314D01*
X170967438Y-47204316D01*
X170879779Y-47335508D01*
X170768209Y-47447078D01*
X170637017Y-47534737D01*
X170637016Y-47534738D01*
X170637015Y-47534738D01*
X170491243Y-47595119D01*
X170336494Y-47625900D01*
X170178708Y-47625900D01*
X170023959Y-47595119D01*
X169878187Y-47534738D01*
X169878186Y-47534738D01*
X169878185Y-47534737D01*
X169746993Y-47447078D01*
X169635423Y-47335508D01*
X169547764Y-47204316D01*
X169547763Y-47204314D01*
X169487382Y-47058542D01*
X169456601Y-46903793D01*
X169456601Y-46746007D01*
X169487382Y-46591258D01*
X169547763Y-46445486D01*
X169547764Y-46445484D01*
X169635423Y-46314292D01*
X169746993Y-46202722D01*
X169878185Y-46115063D01*
X169878187Y-46115062D01*
X170023959Y-46054681D01*
X170178708Y-46023900D01*
X170336494Y-46023900D01*
X170491243Y-46054681D01*
G37*
G36*
X173598601Y-47625900D02*
G01*
X171996601Y-47625900D01*
X171996601Y-46023900D01*
X173598601Y-46023900D01*
X173598601Y-47625900D01*
G37*
G36*
X136941000Y-41437000D02*
G01*
X134839000Y-41437000D01*
X134839000Y-39335000D01*
X136941000Y-39335000D01*
X136941000Y-41437000D01*
G37*
G36*
X171048601Y-38100900D02*
G01*
X169446601Y-38100900D01*
X169446601Y-36498900D01*
X171048601Y-36498900D01*
X171048601Y-38100900D01*
G37*
G36*
X173021243Y-36529681D02*
G01*
X173167015Y-36590062D01*
X173167017Y-36590063D01*
X173298209Y-36677722D01*
X173409779Y-36789292D01*
X173497438Y-36920484D01*
X173497439Y-36920486D01*
X173557820Y-37066258D01*
X173588601Y-37221007D01*
X173588601Y-37378793D01*
X173557820Y-37533542D01*
X173497439Y-37679314D01*
X173497438Y-37679316D01*
X173409779Y-37810508D01*
X173298209Y-37922078D01*
X173167017Y-38009737D01*
X173167016Y-38009738D01*
X173167015Y-38009738D01*
X173021243Y-38070119D01*
X172866494Y-38100900D01*
X172708708Y-38100900D01*
X172553959Y-38070119D01*
X172408187Y-38009738D01*
X172408186Y-38009738D01*
X172408185Y-38009737D01*
X172276993Y-37922078D01*
X172165423Y-37810508D01*
X172077764Y-37679316D01*
X172077763Y-37679314D01*
X172017382Y-37533542D01*
X171986601Y-37378793D01*
X171986601Y-37221007D01*
X172017382Y-37066258D01*
X172077763Y-36920486D01*
X172077764Y-36920484D01*
X172165423Y-36789292D01*
X172276993Y-36677722D01*
X172408185Y-36590063D01*
X172408187Y-36590062D01*
X172553959Y-36529681D01*
X172708708Y-36498900D01*
X172866494Y-36498900D01*
X173021243Y-36529681D01*
G37*
G36*
X151632275Y-33542864D02*
G01*
X151783548Y-33588752D01*
X151785529Y-33589353D01*
X151926763Y-33664844D01*
X152050559Y-33766441D01*
X152152156Y-33890237D01*
X152227647Y-34031470D01*
X152227647Y-34031471D01*
X152227648Y-34031473D01*
X152274136Y-34184724D01*
X152285900Y-34304167D01*
X152285900Y-34860032D01*
X152274136Y-34979476D01*
X152227830Y-35132126D01*
X152227647Y-35132730D01*
X152152156Y-35273963D01*
X152050559Y-35397759D01*
X151926763Y-35499356D01*
X151785530Y-35574847D01*
X151785527Y-35574848D01*
X151632276Y-35621336D01*
X151472900Y-35637033D01*
X151313525Y-35621336D01*
X151160274Y-35574848D01*
X151160271Y-35574847D01*
X151019038Y-35499356D01*
X150895242Y-35397759D01*
X150793646Y-35273965D01*
X150793645Y-35273963D01*
X150718152Y-35132727D01*
X150671664Y-34979476D01*
X150659900Y-34860033D01*
X150659900Y-34304168D01*
X150671664Y-34184725D01*
X150718152Y-34031474D01*
X150718153Y-34031471D01*
X150793644Y-33890237D01*
X150895241Y-33766441D01*
X151019037Y-33664844D01*
X151160270Y-33589353D01*
X151162251Y-33588752D01*
X151313524Y-33542864D01*
X151472900Y-33527167D01*
X151632275Y-33542864D01*
G37*
G36*
X154172275Y-33542864D02*
G01*
X154323548Y-33588752D01*
X154325529Y-33589353D01*
X154466763Y-33664844D01*
X154590559Y-33766441D01*
X154692156Y-33890237D01*
X154767647Y-34031470D01*
X154767647Y-34031471D01*
X154767648Y-34031473D01*
X154814136Y-34184724D01*
X154825900Y-34304167D01*
X154825900Y-34860032D01*
X154814136Y-34979476D01*
X154767830Y-35132126D01*
X154767647Y-35132730D01*
X154692156Y-35273963D01*
X154590559Y-35397759D01*
X154466763Y-35499356D01*
X154325530Y-35574847D01*
X154325527Y-35574848D01*
X154172276Y-35621336D01*
X154012900Y-35637033D01*
X153853525Y-35621336D01*
X153700274Y-35574848D01*
X153700271Y-35574847D01*
X153559038Y-35499356D01*
X153435242Y-35397759D01*
X153333646Y-35273965D01*
X153333645Y-35273963D01*
X153258152Y-35132727D01*
X153211664Y-34979476D01*
X153199900Y-34860033D01*
X153199900Y-34304168D01*
X153211664Y-34184725D01*
X153258152Y-34031474D01*
X153258153Y-34031471D01*
X153333644Y-33890237D01*
X153435241Y-33766441D01*
X153559037Y-33664844D01*
X153700270Y-33589353D01*
X153702251Y-33588752D01*
X153853524Y-33542864D01*
X154012900Y-33527167D01*
X154172275Y-33542864D01*
G37*
G36*
X144012275Y-33542864D02*
G01*
X144163548Y-33588752D01*
X144165529Y-33589353D01*
X144306763Y-33664844D01*
X144430559Y-33766441D01*
X144532156Y-33890237D01*
X144607647Y-34031470D01*
X144607647Y-34031471D01*
X144607648Y-34031473D01*
X144654136Y-34184724D01*
X144665900Y-34304167D01*
X144665900Y-34860032D01*
X144654136Y-34979476D01*
X144607830Y-35132126D01*
X144607647Y-35132730D01*
X144532156Y-35273963D01*
X144430559Y-35397759D01*
X144306763Y-35499356D01*
X144165530Y-35574847D01*
X144165527Y-35574848D01*
X144012276Y-35621336D01*
X143852900Y-35637033D01*
X143693525Y-35621336D01*
X143540274Y-35574848D01*
X143540271Y-35574847D01*
X143399038Y-35499356D01*
X143275242Y-35397759D01*
X143173646Y-35273965D01*
X143173645Y-35273963D01*
X143098152Y-35132727D01*
X143051664Y-34979476D01*
X143039900Y-34860033D01*
X143039900Y-34304168D01*
X143051664Y-34184725D01*
X143098152Y-34031474D01*
X143098153Y-34031471D01*
X143173644Y-33890237D01*
X143275241Y-33766441D01*
X143399037Y-33664844D01*
X143540270Y-33589353D01*
X143542251Y-33588752D01*
X143693524Y-33542864D01*
X143852900Y-33527167D01*
X144012275Y-33542864D01*
G37*
G36*
X149092275Y-33542864D02*
G01*
X149243548Y-33588752D01*
X149245529Y-33589353D01*
X149386763Y-33664844D01*
X149510559Y-33766441D01*
X149612156Y-33890237D01*
X149687647Y-34031470D01*
X149687647Y-34031471D01*
X149687648Y-34031473D01*
X149734136Y-34184724D01*
X149745900Y-34304167D01*
X149745900Y-34860032D01*
X149734136Y-34979476D01*
X149687830Y-35132126D01*
X149687647Y-35132730D01*
X149612156Y-35273963D01*
X149510559Y-35397759D01*
X149386763Y-35499356D01*
X149245530Y-35574847D01*
X149245527Y-35574848D01*
X149092276Y-35621336D01*
X148932900Y-35637033D01*
X148773525Y-35621336D01*
X148620274Y-35574848D01*
X148620271Y-35574847D01*
X148479038Y-35499356D01*
X148355242Y-35397759D01*
X148253646Y-35273965D01*
X148253645Y-35273963D01*
X148178152Y-35132727D01*
X148131664Y-34979476D01*
X148119900Y-34860033D01*
X148119900Y-34304168D01*
X148131664Y-34184725D01*
X148178152Y-34031474D01*
X148178153Y-34031471D01*
X148253644Y-33890237D01*
X148355241Y-33766441D01*
X148479037Y-33664844D01*
X148620270Y-33589353D01*
X148622251Y-33588752D01*
X148773524Y-33542864D01*
X148932900Y-33527167D01*
X149092275Y-33542864D01*
G37*
G36*
X146552275Y-33542864D02*
G01*
X146703548Y-33588752D01*
X146705529Y-33589353D01*
X146846763Y-33664844D01*
X146970559Y-33766441D01*
X147072156Y-33890237D01*
X147147647Y-34031470D01*
X147147647Y-34031471D01*
X147147648Y-34031473D01*
X147194136Y-34184724D01*
X147205900Y-34304167D01*
X147205900Y-34860032D01*
X147194136Y-34979476D01*
X147147830Y-35132126D01*
X147147647Y-35132730D01*
X147072156Y-35273963D01*
X146970559Y-35397759D01*
X146846763Y-35499356D01*
X146705530Y-35574847D01*
X146705527Y-35574848D01*
X146552276Y-35621336D01*
X146392900Y-35637033D01*
X146233525Y-35621336D01*
X146080274Y-35574848D01*
X146080271Y-35574847D01*
X145939038Y-35499356D01*
X145815242Y-35397759D01*
X145713646Y-35273965D01*
X145713645Y-35273963D01*
X145638152Y-35132727D01*
X145591664Y-34979476D01*
X145579900Y-34860033D01*
X145579900Y-34304168D01*
X145591664Y-34184725D01*
X145638152Y-34031474D01*
X145638153Y-34031471D01*
X145713644Y-33890237D01*
X145815241Y-33766441D01*
X145939037Y-33664844D01*
X146080270Y-33589353D01*
X146082251Y-33588752D01*
X146233524Y-33542864D01*
X146392900Y-33527167D01*
X146552275Y-33542864D01*
G37*
G36*
X183873976Y-33542263D02*
G01*
X184000686Y-33580700D01*
X184027230Y-33588752D01*
X184168464Y-33664243D01*
X184292260Y-33765840D01*
X184393857Y-33889636D01*
X184469348Y-34030869D01*
X184469348Y-34030870D01*
X184469349Y-34030872D01*
X184515837Y-34184123D01*
X184527601Y-34303566D01*
X184527601Y-34859431D01*
X184515837Y-34978875D01*
X184469349Y-35132126D01*
X184469348Y-35132129D01*
X184393857Y-35273362D01*
X184292260Y-35397158D01*
X184168464Y-35498755D01*
X184027231Y-35574246D01*
X184027228Y-35574247D01*
X183873977Y-35620735D01*
X183714601Y-35636432D01*
X183555226Y-35620735D01*
X183401975Y-35574247D01*
X183401972Y-35574246D01*
X183260739Y-35498755D01*
X183136943Y-35397158D01*
X183035839Y-35273964D01*
X183035346Y-35273363D01*
X182959853Y-35132126D01*
X182913365Y-34978875D01*
X182901601Y-34859432D01*
X182901601Y-34303567D01*
X182913365Y-34184124D01*
X182959853Y-34030873D01*
X182959854Y-34030870D01*
X183035345Y-33889636D01*
X183136942Y-33765840D01*
X183260738Y-33664243D01*
X183401971Y-33588752D01*
X183428515Y-33580700D01*
X183555225Y-33542263D01*
X183714601Y-33526566D01*
X183873976Y-33542263D01*
G37*
G36*
X181333976Y-33542263D02*
G01*
X181460686Y-33580700D01*
X181487230Y-33588752D01*
X181628464Y-33664243D01*
X181752260Y-33765840D01*
X181853857Y-33889636D01*
X181929348Y-34030869D01*
X181929348Y-34030870D01*
X181929349Y-34030872D01*
X181975837Y-34184123D01*
X181987601Y-34303566D01*
X181987601Y-34859431D01*
X181975837Y-34978875D01*
X181929349Y-35132126D01*
X181929348Y-35132129D01*
X181853857Y-35273362D01*
X181752260Y-35397158D01*
X181628464Y-35498755D01*
X181487231Y-35574246D01*
X181487228Y-35574247D01*
X181333977Y-35620735D01*
X181174601Y-35636432D01*
X181015226Y-35620735D01*
X180861975Y-35574247D01*
X180861972Y-35574246D01*
X180720739Y-35498755D01*
X180596943Y-35397158D01*
X180495839Y-35273964D01*
X180495346Y-35273363D01*
X180419853Y-35132126D01*
X180373365Y-34978875D01*
X180361601Y-34859432D01*
X180361601Y-34303567D01*
X180373365Y-34184124D01*
X180419853Y-34030873D01*
X180419854Y-34030870D01*
X180495345Y-33889636D01*
X180596942Y-33765840D01*
X180720738Y-33664243D01*
X180861971Y-33588752D01*
X180888515Y-33580700D01*
X181015225Y-33542263D01*
X181174601Y-33526566D01*
X181333976Y-33542263D01*
G37*
G36*
X178793976Y-33542263D02*
G01*
X178920686Y-33580700D01*
X178947230Y-33588752D01*
X179088464Y-33664243D01*
X179212260Y-33765840D01*
X179313857Y-33889636D01*
X179389348Y-34030869D01*
X179389348Y-34030870D01*
X179389349Y-34030872D01*
X179435837Y-34184123D01*
X179447601Y-34303566D01*
X179447601Y-34859431D01*
X179435837Y-34978875D01*
X179389349Y-35132126D01*
X179389348Y-35132129D01*
X179313857Y-35273362D01*
X179212260Y-35397158D01*
X179088464Y-35498755D01*
X178947231Y-35574246D01*
X178947228Y-35574247D01*
X178793977Y-35620735D01*
X178634601Y-35636432D01*
X178475226Y-35620735D01*
X178321975Y-35574247D01*
X178321972Y-35574246D01*
X178180739Y-35498755D01*
X178056943Y-35397158D01*
X177955839Y-35273964D01*
X177955346Y-35273363D01*
X177879853Y-35132126D01*
X177833365Y-34978875D01*
X177821601Y-34859432D01*
X177821601Y-34303567D01*
X177833365Y-34184124D01*
X177879853Y-34030873D01*
X177879854Y-34030870D01*
X177955345Y-33889636D01*
X178056942Y-33765840D01*
X178180738Y-33664243D01*
X178321971Y-33588752D01*
X178348515Y-33580700D01*
X178475225Y-33542263D01*
X178634601Y-33526566D01*
X178793976Y-33542263D01*
G37*
G36*
X176253976Y-33542263D02*
G01*
X176380686Y-33580700D01*
X176407230Y-33588752D01*
X176548464Y-33664243D01*
X176672260Y-33765840D01*
X176773857Y-33889636D01*
X176849348Y-34030869D01*
X176849348Y-34030870D01*
X176849349Y-34030872D01*
X176895837Y-34184123D01*
X176907601Y-34303566D01*
X176907601Y-34859431D01*
X176895837Y-34978875D01*
X176849349Y-35132126D01*
X176849348Y-35132129D01*
X176773857Y-35273362D01*
X176672260Y-35397158D01*
X176548464Y-35498755D01*
X176407231Y-35574246D01*
X176407228Y-35574247D01*
X176253977Y-35620735D01*
X176094601Y-35636432D01*
X175935226Y-35620735D01*
X175781975Y-35574247D01*
X175781972Y-35574246D01*
X175640739Y-35498755D01*
X175516943Y-35397158D01*
X175415839Y-35273964D01*
X175415346Y-35273363D01*
X175339853Y-35132126D01*
X175293365Y-34978875D01*
X175281601Y-34859432D01*
X175281601Y-34303567D01*
X175293365Y-34184124D01*
X175339853Y-34030873D01*
X175339854Y-34030870D01*
X175415345Y-33889636D01*
X175516942Y-33765840D01*
X175640738Y-33664243D01*
X175781971Y-33588752D01*
X175808515Y-33580700D01*
X175935225Y-33542263D01*
X176094601Y-33526566D01*
X176253976Y-33542263D01*
G37*
G36*
X199364876Y-33542263D02*
G01*
X199491586Y-33580700D01*
X199518130Y-33588752D01*
X199659364Y-33664243D01*
X199783160Y-33765840D01*
X199884757Y-33889636D01*
X199960248Y-34030869D01*
X199960248Y-34030870D01*
X199960249Y-34030872D01*
X200006737Y-34184123D01*
X200018501Y-34303566D01*
X200018501Y-34859431D01*
X200006737Y-34978875D01*
X199960249Y-35132126D01*
X199960248Y-35132129D01*
X199884757Y-35273362D01*
X199783160Y-35397158D01*
X199659364Y-35498755D01*
X199518131Y-35574246D01*
X199518128Y-35574247D01*
X199364877Y-35620735D01*
X199205501Y-35636432D01*
X199046126Y-35620735D01*
X198892875Y-35574247D01*
X198892872Y-35574246D01*
X198751639Y-35498755D01*
X198627843Y-35397158D01*
X198526739Y-35273964D01*
X198526246Y-35273363D01*
X198450753Y-35132126D01*
X198404265Y-34978875D01*
X198392501Y-34859432D01*
X198392501Y-34303567D01*
X198404265Y-34184124D01*
X198450753Y-34030873D01*
X198450754Y-34030870D01*
X198526245Y-33889636D01*
X198627842Y-33765840D01*
X198751638Y-33664243D01*
X198892871Y-33588752D01*
X198919415Y-33580700D01*
X199046125Y-33542263D01*
X199205501Y-33526566D01*
X199364876Y-33542263D01*
G37*
G36*
X196824876Y-33542263D02*
G01*
X196951586Y-33580700D01*
X196978130Y-33588752D01*
X197119364Y-33664243D01*
X197243160Y-33765840D01*
X197344757Y-33889636D01*
X197420248Y-34030869D01*
X197420248Y-34030870D01*
X197420249Y-34030872D01*
X197466737Y-34184123D01*
X197478501Y-34303566D01*
X197478501Y-34859431D01*
X197466737Y-34978875D01*
X197420249Y-35132126D01*
X197420248Y-35132129D01*
X197344757Y-35273362D01*
X197243160Y-35397158D01*
X197119364Y-35498755D01*
X196978131Y-35574246D01*
X196978128Y-35574247D01*
X196824877Y-35620735D01*
X196665501Y-35636432D01*
X196506126Y-35620735D01*
X196352875Y-35574247D01*
X196352872Y-35574246D01*
X196211639Y-35498755D01*
X196087843Y-35397158D01*
X195986739Y-35273964D01*
X195986246Y-35273363D01*
X195910753Y-35132126D01*
X195864265Y-34978875D01*
X195852501Y-34859432D01*
X195852501Y-34303567D01*
X195864265Y-34184124D01*
X195910753Y-34030873D01*
X195910754Y-34030870D01*
X195986245Y-33889636D01*
X196087842Y-33765840D01*
X196211638Y-33664243D01*
X196352871Y-33588752D01*
X196379415Y-33580700D01*
X196506125Y-33542263D01*
X196665501Y-33526566D01*
X196824876Y-33542263D01*
G37*
G36*
X186413976Y-33542263D02*
G01*
X186540686Y-33580700D01*
X186567230Y-33588752D01*
X186708464Y-33664243D01*
X186832260Y-33765840D01*
X186933857Y-33889636D01*
X187009348Y-34030869D01*
X187009348Y-34030870D01*
X187009349Y-34030872D01*
X187055837Y-34184123D01*
X187067601Y-34303566D01*
X187067601Y-34859431D01*
X187055837Y-34978875D01*
X187009349Y-35132126D01*
X187009348Y-35132129D01*
X186933857Y-35273362D01*
X186832260Y-35397158D01*
X186708464Y-35498755D01*
X186567231Y-35574246D01*
X186567228Y-35574247D01*
X186413977Y-35620735D01*
X186254601Y-35636432D01*
X186095226Y-35620735D01*
X185941975Y-35574247D01*
X185941972Y-35574246D01*
X185800739Y-35498755D01*
X185676943Y-35397158D01*
X185575839Y-35273964D01*
X185575346Y-35273363D01*
X185499853Y-35132126D01*
X185453365Y-34978875D01*
X185441601Y-34859432D01*
X185441601Y-34303567D01*
X185453365Y-34184124D01*
X185499853Y-34030873D01*
X185499854Y-34030870D01*
X185575345Y-33889636D01*
X185676942Y-33765840D01*
X185800738Y-33664243D01*
X185941971Y-33588752D01*
X185968515Y-33580700D01*
X186095225Y-33542263D01*
X186254601Y-33526566D01*
X186413976Y-33542263D01*
G37*
G36*
X191744876Y-33542263D02*
G01*
X191871586Y-33580700D01*
X191898130Y-33588752D01*
X192039364Y-33664243D01*
X192163160Y-33765840D01*
X192264757Y-33889636D01*
X192340248Y-34030869D01*
X192340248Y-34030870D01*
X192340249Y-34030872D01*
X192386737Y-34184123D01*
X192398501Y-34303566D01*
X192398501Y-34859431D01*
X192386737Y-34978875D01*
X192340249Y-35132126D01*
X192340248Y-35132129D01*
X192264757Y-35273362D01*
X192163160Y-35397158D01*
X192039364Y-35498755D01*
X191898131Y-35574246D01*
X191898128Y-35574247D01*
X191744877Y-35620735D01*
X191585501Y-35636432D01*
X191426126Y-35620735D01*
X191272875Y-35574247D01*
X191272872Y-35574246D01*
X191131639Y-35498755D01*
X191007843Y-35397158D01*
X190906739Y-35273964D01*
X190906246Y-35273363D01*
X190830753Y-35132126D01*
X190784265Y-34978875D01*
X190772501Y-34859432D01*
X190772501Y-34303567D01*
X190784265Y-34184124D01*
X190830753Y-34030873D01*
X190830754Y-34030870D01*
X190906245Y-33889636D01*
X191007842Y-33765840D01*
X191131638Y-33664243D01*
X191272871Y-33588752D01*
X191299415Y-33580700D01*
X191426125Y-33542263D01*
X191585501Y-33526566D01*
X191744876Y-33542263D01*
G37*
G36*
X167109976Y-33542263D02*
G01*
X167236686Y-33580700D01*
X167263230Y-33588752D01*
X167404464Y-33664243D01*
X167528260Y-33765840D01*
X167629857Y-33889636D01*
X167705348Y-34030869D01*
X167705348Y-34030870D01*
X167705349Y-34030872D01*
X167751837Y-34184123D01*
X167763601Y-34303566D01*
X167763601Y-34859431D01*
X167751837Y-34978875D01*
X167705349Y-35132126D01*
X167705348Y-35132129D01*
X167629857Y-35273362D01*
X167528260Y-35397158D01*
X167404464Y-35498755D01*
X167263231Y-35574246D01*
X167263228Y-35574247D01*
X167109977Y-35620735D01*
X166950601Y-35636432D01*
X166791226Y-35620735D01*
X166637975Y-35574247D01*
X166637972Y-35574246D01*
X166496739Y-35498755D01*
X166372943Y-35397158D01*
X166271839Y-35273964D01*
X166271346Y-35273363D01*
X166195853Y-35132126D01*
X166149365Y-34978875D01*
X166137601Y-34859432D01*
X166137601Y-34303567D01*
X166149365Y-34184124D01*
X166195853Y-34030873D01*
X166195854Y-34030870D01*
X166271345Y-33889636D01*
X166372942Y-33765840D01*
X166496738Y-33664243D01*
X166637971Y-33588752D01*
X166664515Y-33580700D01*
X166791225Y-33542263D01*
X166950601Y-33526566D01*
X167109976Y-33542263D01*
G37*
G36*
X164569976Y-33542263D02*
G01*
X164696686Y-33580700D01*
X164723230Y-33588752D01*
X164864464Y-33664243D01*
X164988260Y-33765840D01*
X165089857Y-33889636D01*
X165165348Y-34030869D01*
X165165348Y-34030870D01*
X165165349Y-34030872D01*
X165211837Y-34184123D01*
X165223601Y-34303566D01*
X165223601Y-34859431D01*
X165211837Y-34978875D01*
X165165349Y-35132126D01*
X165165348Y-35132129D01*
X165089857Y-35273362D01*
X164988260Y-35397158D01*
X164864464Y-35498755D01*
X164723231Y-35574246D01*
X164723228Y-35574247D01*
X164569977Y-35620735D01*
X164410601Y-35636432D01*
X164251226Y-35620735D01*
X164097975Y-35574247D01*
X164097972Y-35574246D01*
X163956739Y-35498755D01*
X163832943Y-35397158D01*
X163731839Y-35273964D01*
X163731346Y-35273363D01*
X163655853Y-35132126D01*
X163609365Y-34978875D01*
X163597601Y-34859432D01*
X163597601Y-34303567D01*
X163609365Y-34184124D01*
X163655853Y-34030873D01*
X163655854Y-34030870D01*
X163731345Y-33889636D01*
X163832942Y-33765840D01*
X163956738Y-33664243D01*
X164097971Y-33588752D01*
X164124515Y-33580700D01*
X164251225Y-33542263D01*
X164410601Y-33526566D01*
X164569976Y-33542263D01*
G37*
G36*
X194284876Y-33542263D02*
G01*
X194411586Y-33580700D01*
X194438130Y-33588752D01*
X194579364Y-33664243D01*
X194703160Y-33765840D01*
X194804757Y-33889636D01*
X194880248Y-34030869D01*
X194880248Y-34030870D01*
X194880249Y-34030872D01*
X194926737Y-34184123D01*
X194938501Y-34303566D01*
X194938501Y-34859431D01*
X194926737Y-34978875D01*
X194880249Y-35132126D01*
X194880248Y-35132129D01*
X194804757Y-35273362D01*
X194703160Y-35397158D01*
X194579364Y-35498755D01*
X194438131Y-35574246D01*
X194438128Y-35574247D01*
X194284877Y-35620735D01*
X194125501Y-35636432D01*
X193966126Y-35620735D01*
X193812875Y-35574247D01*
X193812872Y-35574246D01*
X193671639Y-35498755D01*
X193547843Y-35397158D01*
X193446739Y-35273964D01*
X193446246Y-35273363D01*
X193370753Y-35132126D01*
X193324265Y-34978875D01*
X193312501Y-34859432D01*
X193312501Y-34303567D01*
X193324265Y-34184124D01*
X193370753Y-34030873D01*
X193370754Y-34030870D01*
X193446245Y-33889636D01*
X193547842Y-33765840D01*
X193671638Y-33664243D01*
X193812871Y-33588752D01*
X193839415Y-33580700D01*
X193966125Y-33542263D01*
X194125501Y-33526566D01*
X194284876Y-33542263D01*
G37*
G36*
X156949976Y-33542263D02*
G01*
X157076686Y-33580700D01*
X157103230Y-33588752D01*
X157244464Y-33664243D01*
X157368260Y-33765840D01*
X157469857Y-33889636D01*
X157545348Y-34030869D01*
X157545348Y-34030870D01*
X157545349Y-34030872D01*
X157591837Y-34184123D01*
X157603601Y-34303566D01*
X157603601Y-34859431D01*
X157591837Y-34978875D01*
X157545349Y-35132126D01*
X157545348Y-35132129D01*
X157469857Y-35273362D01*
X157368260Y-35397158D01*
X157244464Y-35498755D01*
X157103231Y-35574246D01*
X157103228Y-35574247D01*
X156949977Y-35620735D01*
X156790601Y-35636432D01*
X156631226Y-35620735D01*
X156477975Y-35574247D01*
X156477972Y-35574246D01*
X156336739Y-35498755D01*
X156212943Y-35397158D01*
X156111839Y-35273964D01*
X156111346Y-35273363D01*
X156035853Y-35132126D01*
X155989365Y-34978875D01*
X155977601Y-34859432D01*
X155977601Y-34303567D01*
X155989365Y-34184124D01*
X156035853Y-34030873D01*
X156035854Y-34030870D01*
X156111345Y-33889636D01*
X156212942Y-33765840D01*
X156336738Y-33664243D01*
X156477971Y-33588752D01*
X156504515Y-33580700D01*
X156631225Y-33542263D01*
X156790601Y-33526566D01*
X156949976Y-33542263D01*
G37*
G36*
X159489976Y-33542263D02*
G01*
X159616686Y-33580700D01*
X159643230Y-33588752D01*
X159784464Y-33664243D01*
X159908260Y-33765840D01*
X160009857Y-33889636D01*
X160085348Y-34030869D01*
X160085348Y-34030870D01*
X160085349Y-34030872D01*
X160131837Y-34184123D01*
X160143601Y-34303566D01*
X160143601Y-34859431D01*
X160131837Y-34978875D01*
X160085349Y-35132126D01*
X160085348Y-35132129D01*
X160009857Y-35273362D01*
X159908260Y-35397158D01*
X159784464Y-35498755D01*
X159643231Y-35574246D01*
X159643228Y-35574247D01*
X159489977Y-35620735D01*
X159330601Y-35636432D01*
X159171226Y-35620735D01*
X159017975Y-35574247D01*
X159017972Y-35574246D01*
X158876739Y-35498755D01*
X158752943Y-35397158D01*
X158651839Y-35273964D01*
X158651346Y-35273363D01*
X158575853Y-35132126D01*
X158529365Y-34978875D01*
X158517601Y-34859432D01*
X158517601Y-34303567D01*
X158529365Y-34184124D01*
X158575853Y-34030873D01*
X158575854Y-34030870D01*
X158651345Y-33889636D01*
X158752942Y-33765840D01*
X158876738Y-33664243D01*
X159017971Y-33588752D01*
X159044515Y-33580700D01*
X159171225Y-33542263D01*
X159330601Y-33526566D01*
X159489976Y-33542263D01*
G37*
G36*
X162029976Y-33542263D02*
G01*
X162156686Y-33580700D01*
X162183230Y-33588752D01*
X162324464Y-33664243D01*
X162448260Y-33765840D01*
X162549857Y-33889636D01*
X162625348Y-34030869D01*
X162625348Y-34030870D01*
X162625349Y-34030872D01*
X162671837Y-34184123D01*
X162683601Y-34303566D01*
X162683601Y-34859431D01*
X162671837Y-34978875D01*
X162625349Y-35132126D01*
X162625348Y-35132129D01*
X162549857Y-35273362D01*
X162448260Y-35397158D01*
X162324464Y-35498755D01*
X162183231Y-35574246D01*
X162183228Y-35574247D01*
X162029977Y-35620735D01*
X161870601Y-35636432D01*
X161711226Y-35620735D01*
X161557975Y-35574247D01*
X161557972Y-35574246D01*
X161416739Y-35498755D01*
X161292943Y-35397158D01*
X161191839Y-35273964D01*
X161191346Y-35273363D01*
X161115853Y-35132126D01*
X161069365Y-34978875D01*
X161057601Y-34859432D01*
X161057601Y-34303567D01*
X161069365Y-34184124D01*
X161115853Y-34030873D01*
X161115854Y-34030870D01*
X161191345Y-33889636D01*
X161292942Y-33765840D01*
X161416738Y-33664243D01*
X161557971Y-33588752D01*
X161584515Y-33580700D01*
X161711225Y-33542263D01*
X161870601Y-33526566D01*
X162029976Y-33542263D01*
G37*
G36*
X189204876Y-33542263D02*
G01*
X189331586Y-33580700D01*
X189358130Y-33588752D01*
X189499364Y-33664243D01*
X189623160Y-33765840D01*
X189724757Y-33889636D01*
X189800248Y-34030869D01*
X189800248Y-34030870D01*
X189800249Y-34030872D01*
X189846737Y-34184123D01*
X189858501Y-34303566D01*
X189858501Y-34859431D01*
X189846737Y-34978875D01*
X189800249Y-35132126D01*
X189800248Y-35132129D01*
X189724757Y-35273362D01*
X189623160Y-35397158D01*
X189499364Y-35498755D01*
X189358131Y-35574246D01*
X189358128Y-35574247D01*
X189204877Y-35620735D01*
X189045501Y-35636432D01*
X188886126Y-35620735D01*
X188732875Y-35574247D01*
X188732872Y-35574246D01*
X188591639Y-35498755D01*
X188467843Y-35397158D01*
X188366739Y-35273964D01*
X188366246Y-35273363D01*
X188290753Y-35132126D01*
X188244265Y-34978875D01*
X188232501Y-34859432D01*
X188232501Y-34303567D01*
X188244265Y-34184124D01*
X188290753Y-34030873D01*
X188290754Y-34030870D01*
X188366245Y-33889636D01*
X188467842Y-33765840D01*
X188591638Y-33664243D01*
X188732871Y-33588752D01*
X188759415Y-33580700D01*
X188886125Y-33542263D01*
X189045501Y-33526566D01*
X189204876Y-33542263D01*
G37*
G36*
X133268598Y-28801733D02*
G01*
X133732850Y-28994032D01*
X133732852Y-28994033D01*
X134150668Y-29273209D01*
X134505991Y-29628532D01*
X134772031Y-30026689D01*
X134785168Y-30046350D01*
X134977467Y-30510602D01*
X135075500Y-31003447D01*
X135075500Y-31505953D01*
X134977467Y-31998798D01*
X134855593Y-32293029D01*
X134785167Y-32463052D01*
X134505991Y-32880868D01*
X134150668Y-33236191D01*
X133732852Y-33515367D01*
X133732851Y-33515368D01*
X133732850Y-33515368D01*
X133268598Y-33707667D01*
X132775753Y-33805700D01*
X132273247Y-33805700D01*
X131780402Y-33707667D01*
X131316150Y-33515368D01*
X131316149Y-33515368D01*
X131316148Y-33515367D01*
X130898332Y-33236191D01*
X130543009Y-32880868D01*
X130263833Y-32463052D01*
X130193407Y-32293029D01*
X130071533Y-31998798D01*
X129973500Y-31505953D01*
X129973500Y-31003447D01*
X130071533Y-30510602D01*
X130263832Y-30046350D01*
X130276969Y-30026689D01*
X130543009Y-29628532D01*
X130898332Y-29273209D01*
X131316148Y-28994033D01*
X131316150Y-28994032D01*
X131780402Y-28801733D01*
X132273247Y-28703700D01*
X132775753Y-28703700D01*
X133268598Y-28801733D01*
G37*
G36*
X227375598Y-28801733D02*
G01*
X227839850Y-28994032D01*
X227839852Y-28994033D01*
X228257668Y-29273209D01*
X228612991Y-29628532D01*
X228879031Y-30026689D01*
X228892168Y-30046350D01*
X229084467Y-30510602D01*
X229182500Y-31003447D01*
X229182500Y-31505953D01*
X229084467Y-31998798D01*
X228962593Y-32293029D01*
X228892167Y-32463052D01*
X228612991Y-32880868D01*
X228257668Y-33236191D01*
X227839852Y-33515367D01*
X227839851Y-33515368D01*
X227839850Y-33515368D01*
X227375598Y-33707667D01*
X226882753Y-33805700D01*
X226380247Y-33805700D01*
X225887402Y-33707667D01*
X225423150Y-33515368D01*
X225423149Y-33515368D01*
X225423148Y-33515367D01*
X225005332Y-33236191D01*
X224650009Y-32880868D01*
X224370833Y-32463052D01*
X224300407Y-32293029D01*
X224178533Y-31998798D01*
X224080500Y-31505953D01*
X224080500Y-31003447D01*
X224178533Y-30510602D01*
X224370832Y-30046350D01*
X224383969Y-30026689D01*
X224650009Y-29628532D01*
X225005332Y-29273209D01*
X225423148Y-28994033D01*
X225423150Y-28994032D01*
X225887402Y-28801733D01*
X226380247Y-28703700D01*
X226882753Y-28703700D01*
X227375598Y-28801733D01*
G37*
G36*
X216875895Y-31216546D02*
G01*
X217048966Y-31288234D01*
X217048967Y-31288235D01*
X217204727Y-31392310D01*
X217337190Y-31524773D01*
X217389581Y-31603182D01*
X217441266Y-31680534D01*
X217512954Y-31853605D01*
X217549500Y-32037333D01*
X217549500Y-32224667D01*
X217512954Y-32408395D01*
X217441266Y-32581466D01*
X217441265Y-32581467D01*
X217337190Y-32737227D01*
X217204727Y-32869690D01*
X217135313Y-32916071D01*
X217048966Y-32973766D01*
X216875895Y-33045454D01*
X216692167Y-33082000D01*
X216504833Y-33082000D01*
X216321105Y-33045454D01*
X216148034Y-32973766D01*
X216061687Y-32916071D01*
X215992273Y-32869690D01*
X215859810Y-32737227D01*
X215755735Y-32581467D01*
X215755734Y-32581466D01*
X215684046Y-32408395D01*
X215647500Y-32224667D01*
X215647500Y-32037333D01*
X215684046Y-31853605D01*
X215755734Y-31680534D01*
X215807419Y-31603182D01*
X215859810Y-31524773D01*
X215992273Y-31392310D01*
X216148033Y-31288235D01*
X216148034Y-31288234D01*
X216321105Y-31216546D01*
X216504833Y-31180000D01*
X216692167Y-31180000D01*
X216875895Y-31216546D01*
G37*
G36*
X221955895Y-31216546D02*
G01*
X222128966Y-31288234D01*
X222128967Y-31288235D01*
X222284727Y-31392310D01*
X222417190Y-31524773D01*
X222469581Y-31603182D01*
X222521266Y-31680534D01*
X222592954Y-31853605D01*
X222629500Y-32037333D01*
X222629500Y-32224667D01*
X222592954Y-32408395D01*
X222521266Y-32581466D01*
X222521265Y-32581467D01*
X222417190Y-32737227D01*
X222284727Y-32869690D01*
X222215313Y-32916071D01*
X222128966Y-32973766D01*
X221955895Y-33045454D01*
X221772167Y-33082000D01*
X221584833Y-33082000D01*
X221401105Y-33045454D01*
X221228034Y-32973766D01*
X221141687Y-32916071D01*
X221072273Y-32869690D01*
X220939810Y-32737227D01*
X220835735Y-32581467D01*
X220835734Y-32581466D01*
X220764046Y-32408395D01*
X220727500Y-32224667D01*
X220727500Y-32037333D01*
X220764046Y-31853605D01*
X220835734Y-31680534D01*
X220887419Y-31603182D01*
X220939810Y-31524773D01*
X221072273Y-31392310D01*
X221228033Y-31288235D01*
X221228034Y-31288234D01*
X221401105Y-31216546D01*
X221584833Y-31180000D01*
X221772167Y-31180000D01*
X221955895Y-31216546D01*
G37*
G36*
X211795895Y-31216546D02*
G01*
X211968966Y-31288234D01*
X211968967Y-31288235D01*
X212124727Y-31392310D01*
X212257190Y-31524773D01*
X212309581Y-31603182D01*
X212361266Y-31680534D01*
X212432954Y-31853605D01*
X212469500Y-32037333D01*
X212469500Y-32224667D01*
X212432954Y-32408395D01*
X212361266Y-32581466D01*
X212361265Y-32581467D01*
X212257190Y-32737227D01*
X212124727Y-32869690D01*
X212055313Y-32916071D01*
X211968966Y-32973766D01*
X211795895Y-33045454D01*
X211612167Y-33082000D01*
X211424833Y-33082000D01*
X211241105Y-33045454D01*
X211068034Y-32973766D01*
X210981687Y-32916071D01*
X210912273Y-32869690D01*
X210779810Y-32737227D01*
X210675735Y-32581467D01*
X210675734Y-32581466D01*
X210604046Y-32408395D01*
X210567500Y-32224667D01*
X210567500Y-32037333D01*
X210604046Y-31853605D01*
X210675734Y-31680534D01*
X210727419Y-31603182D01*
X210779810Y-31524773D01*
X210912273Y-31392310D01*
X211068033Y-31288235D01*
X211068034Y-31288234D01*
X211241105Y-31216546D01*
X211424833Y-31180000D01*
X211612167Y-31180000D01*
X211795895Y-31216546D01*
G37*
G36*
X214335895Y-31216546D02*
G01*
X214508966Y-31288234D01*
X214508967Y-31288235D01*
X214664727Y-31392310D01*
X214797190Y-31524773D01*
X214849581Y-31603182D01*
X214901266Y-31680534D01*
X214972954Y-31853605D01*
X215009500Y-32037333D01*
X215009500Y-32224667D01*
X214972954Y-32408395D01*
X214901266Y-32581466D01*
X214901265Y-32581467D01*
X214797190Y-32737227D01*
X214664727Y-32869690D01*
X214595313Y-32916071D01*
X214508966Y-32973766D01*
X214335895Y-33045454D01*
X214152167Y-33082000D01*
X213964833Y-33082000D01*
X213781105Y-33045454D01*
X213608034Y-32973766D01*
X213521687Y-32916071D01*
X213452273Y-32869690D01*
X213319810Y-32737227D01*
X213215735Y-32581467D01*
X213215734Y-32581466D01*
X213144046Y-32408395D01*
X213107500Y-32224667D01*
X213107500Y-32037333D01*
X213144046Y-31853605D01*
X213215734Y-31680534D01*
X213267419Y-31603182D01*
X213319810Y-31524773D01*
X213452273Y-31392310D01*
X213608033Y-31288235D01*
X213608034Y-31288234D01*
X213781105Y-31216546D01*
X213964833Y-31180000D01*
X214152167Y-31180000D01*
X214335895Y-31216546D01*
G37*
G36*
X219415895Y-31216546D02*
G01*
X219588966Y-31288234D01*
X219588967Y-31288235D01*
X219744727Y-31392310D01*
X219877190Y-31524773D01*
X219929581Y-31603182D01*
X219981266Y-31680534D01*
X220052954Y-31853605D01*
X220089500Y-32037333D01*
X220089500Y-32224667D01*
X220052954Y-32408395D01*
X219981266Y-32581466D01*
X219981265Y-32581467D01*
X219877190Y-32737227D01*
X219744727Y-32869690D01*
X219675313Y-32916071D01*
X219588966Y-32973766D01*
X219415895Y-33045454D01*
X219232167Y-33082000D01*
X219044833Y-33082000D01*
X218861105Y-33045454D01*
X218688034Y-32973766D01*
X218601687Y-32916071D01*
X218532273Y-32869690D01*
X218399810Y-32737227D01*
X218295735Y-32581467D01*
X218295734Y-32581466D01*
X218224046Y-32408395D01*
X218187500Y-32224667D01*
X218187500Y-32037333D01*
X218224046Y-31853605D01*
X218295734Y-31680534D01*
X218347419Y-31603182D01*
X218399810Y-31524773D01*
X218532273Y-31392310D01*
X218688033Y-31288235D01*
X218688034Y-31288234D01*
X218861105Y-31216546D01*
X219044833Y-31180000D01*
X219232167Y-31180000D01*
X219415895Y-31216546D01*
G37*
G36*
X187883012Y-29393427D02*
G01*
X188032312Y-29423124D01*
X188196284Y-29491044D01*
X188343854Y-29589647D01*
X188469353Y-29715146D01*
X188567956Y-29862716D01*
X188635876Y-30026688D01*
X188670500Y-30200759D01*
X188670500Y-30378241D01*
X188635876Y-30552312D01*
X188567956Y-30716284D01*
X188469353Y-30863854D01*
X188343854Y-30989353D01*
X188196284Y-31087956D01*
X188032312Y-31155876D01*
X187883012Y-31185573D01*
X187858242Y-31190500D01*
X187680758Y-31190500D01*
X187655988Y-31185573D01*
X187506688Y-31155876D01*
X187342716Y-31087956D01*
X187195146Y-30989353D01*
X187069647Y-30863854D01*
X186971044Y-30716284D01*
X186903124Y-30552312D01*
X186868500Y-30378241D01*
X186868500Y-30200759D01*
X186903124Y-30026688D01*
X186971044Y-29862716D01*
X187069647Y-29715146D01*
X187195146Y-29589647D01*
X187342716Y-29491044D01*
X187506688Y-29423124D01*
X187655988Y-29393427D01*
X187680758Y-29388500D01*
X187858242Y-29388500D01*
X187883012Y-29393427D01*
G37*
G36*
X190423012Y-29393427D02*
G01*
X190572312Y-29423124D01*
X190736284Y-29491044D01*
X190883854Y-29589647D01*
X191009353Y-29715146D01*
X191107956Y-29862716D01*
X191175876Y-30026688D01*
X191210500Y-30200759D01*
X191210500Y-30378241D01*
X191175876Y-30552312D01*
X191107956Y-30716284D01*
X191009353Y-30863854D01*
X190883854Y-30989353D01*
X190736284Y-31087956D01*
X190572312Y-31155876D01*
X190423012Y-31185573D01*
X190398242Y-31190500D01*
X190220758Y-31190500D01*
X190195988Y-31185573D01*
X190046688Y-31155876D01*
X189882716Y-31087956D01*
X189735146Y-30989353D01*
X189609647Y-30863854D01*
X189511044Y-30716284D01*
X189443124Y-30552312D01*
X189408500Y-30378241D01*
X189408500Y-30200759D01*
X189443124Y-30026688D01*
X189511044Y-29862716D01*
X189609647Y-29715146D01*
X189735146Y-29589647D01*
X189882716Y-29491044D01*
X190046688Y-29423124D01*
X190195988Y-29393427D01*
X190220758Y-29388500D01*
X190398242Y-29388500D01*
X190423012Y-29393427D01*
G37*
G36*
X178510500Y-31190500D02*
G01*
X176708500Y-31190500D01*
X176708500Y-29388500D01*
X178510500Y-29388500D01*
X178510500Y-31190500D01*
G37*
G36*
X180263012Y-29393427D02*
G01*
X180412312Y-29423124D01*
X180576284Y-29491044D01*
X180723854Y-29589647D01*
X180849353Y-29715146D01*
X180947956Y-29862716D01*
X181015876Y-30026688D01*
X181050500Y-30200759D01*
X181050500Y-30378241D01*
X181015876Y-30552312D01*
X180947956Y-30716284D01*
X180849353Y-30863854D01*
X180723854Y-30989353D01*
X180576284Y-31087956D01*
X180412312Y-31155876D01*
X180263012Y-31185573D01*
X180238242Y-31190500D01*
X180060758Y-31190500D01*
X180035988Y-31185573D01*
X179886688Y-31155876D01*
X179722716Y-31087956D01*
X179575146Y-30989353D01*
X179449647Y-30863854D01*
X179351044Y-30716284D01*
X179283124Y-30552312D01*
X179248500Y-30378241D01*
X179248500Y-30200759D01*
X179283124Y-30026688D01*
X179351044Y-29862716D01*
X179449647Y-29715146D01*
X179575146Y-29589647D01*
X179722716Y-29491044D01*
X179886688Y-29423124D01*
X180035988Y-29393427D01*
X180060758Y-29388500D01*
X180238242Y-29388500D01*
X180263012Y-29393427D01*
G37*
G36*
X192963012Y-29393427D02*
G01*
X193112312Y-29423124D01*
X193276284Y-29491044D01*
X193423854Y-29589647D01*
X193549353Y-29715146D01*
X193647956Y-29862716D01*
X193715876Y-30026688D01*
X193750500Y-30200759D01*
X193750500Y-30378241D01*
X193715876Y-30552312D01*
X193647956Y-30716284D01*
X193549353Y-30863854D01*
X193423854Y-30989353D01*
X193276284Y-31087956D01*
X193112312Y-31155876D01*
X192963012Y-31185573D01*
X192938242Y-31190500D01*
X192760758Y-31190500D01*
X192735988Y-31185573D01*
X192586688Y-31155876D01*
X192422716Y-31087956D01*
X192275146Y-30989353D01*
X192149647Y-30863854D01*
X192051044Y-30716284D01*
X191983124Y-30552312D01*
X191948500Y-30378241D01*
X191948500Y-30200759D01*
X191983124Y-30026688D01*
X192051044Y-29862716D01*
X192149647Y-29715146D01*
X192275146Y-29589647D01*
X192422716Y-29491044D01*
X192586688Y-29423124D01*
X192735988Y-29393427D01*
X192760758Y-29388500D01*
X192938242Y-29388500D01*
X192963012Y-29393427D01*
G37*
G36*
X168706012Y-29393427D02*
G01*
X168855312Y-29423124D01*
X169019284Y-29491044D01*
X169166854Y-29589647D01*
X169292353Y-29715146D01*
X169390956Y-29862716D01*
X169458876Y-30026688D01*
X169493500Y-30200759D01*
X169493500Y-30378241D01*
X169458876Y-30552312D01*
X169390956Y-30716284D01*
X169292353Y-30863854D01*
X169166854Y-30989353D01*
X169019284Y-31087956D01*
X168855312Y-31155876D01*
X168706012Y-31185573D01*
X168681242Y-31190500D01*
X168503758Y-31190500D01*
X168478988Y-31185573D01*
X168329688Y-31155876D01*
X168165716Y-31087956D01*
X168018146Y-30989353D01*
X167892647Y-30863854D01*
X167794044Y-30716284D01*
X167726124Y-30552312D01*
X167691500Y-30378241D01*
X167691500Y-30200759D01*
X167726124Y-30026688D01*
X167794044Y-29862716D01*
X167892647Y-29715146D01*
X168018146Y-29589647D01*
X168165716Y-29491044D01*
X168329688Y-29423124D01*
X168478988Y-29393427D01*
X168503758Y-29388500D01*
X168681242Y-29388500D01*
X168706012Y-29393427D01*
G37*
G36*
X166166012Y-29393427D02*
G01*
X166315312Y-29423124D01*
X166479284Y-29491044D01*
X166626854Y-29589647D01*
X166752353Y-29715146D01*
X166850956Y-29862716D01*
X166918876Y-30026688D01*
X166953500Y-30200759D01*
X166953500Y-30378241D01*
X166918876Y-30552312D01*
X166850956Y-30716284D01*
X166752353Y-30863854D01*
X166626854Y-30989353D01*
X166479284Y-31087956D01*
X166315312Y-31155876D01*
X166166012Y-31185573D01*
X166141242Y-31190500D01*
X165963758Y-31190500D01*
X165938988Y-31185573D01*
X165789688Y-31155876D01*
X165625716Y-31087956D01*
X165478146Y-30989353D01*
X165352647Y-30863854D01*
X165254044Y-30716284D01*
X165186124Y-30552312D01*
X165151500Y-30378241D01*
X165151500Y-30200759D01*
X165186124Y-30026688D01*
X165254044Y-29862716D01*
X165352647Y-29715146D01*
X165478146Y-29589647D01*
X165625716Y-29491044D01*
X165789688Y-29423124D01*
X165938988Y-29393427D01*
X165963758Y-29388500D01*
X166141242Y-29388500D01*
X166166012Y-29393427D01*
G37*
G36*
X163626012Y-29393427D02*
G01*
X163775312Y-29423124D01*
X163939284Y-29491044D01*
X164086854Y-29589647D01*
X164212353Y-29715146D01*
X164310956Y-29862716D01*
X164378876Y-30026688D01*
X164413500Y-30200759D01*
X164413500Y-30378241D01*
X164378876Y-30552312D01*
X164310956Y-30716284D01*
X164212353Y-30863854D01*
X164086854Y-30989353D01*
X163939284Y-31087956D01*
X163775312Y-31155876D01*
X163626012Y-31185573D01*
X163601242Y-31190500D01*
X163423758Y-31190500D01*
X163398988Y-31185573D01*
X163249688Y-31155876D01*
X163085716Y-31087956D01*
X162938146Y-30989353D01*
X162812647Y-30863854D01*
X162714044Y-30716284D01*
X162646124Y-30552312D01*
X162611500Y-30378241D01*
X162611500Y-30200759D01*
X162646124Y-30026688D01*
X162714044Y-29862716D01*
X162812647Y-29715146D01*
X162938146Y-29589647D01*
X163085716Y-29491044D01*
X163249688Y-29423124D01*
X163398988Y-29393427D01*
X163423758Y-29388500D01*
X163601242Y-29388500D01*
X163626012Y-29393427D01*
G37*
G36*
X161086012Y-29393427D02*
G01*
X161235312Y-29423124D01*
X161399284Y-29491044D01*
X161546854Y-29589647D01*
X161672353Y-29715146D01*
X161770956Y-29862716D01*
X161838876Y-30026688D01*
X161873500Y-30200759D01*
X161873500Y-30378241D01*
X161838876Y-30552312D01*
X161770956Y-30716284D01*
X161672353Y-30863854D01*
X161546854Y-30989353D01*
X161399284Y-31087956D01*
X161235312Y-31155876D01*
X161086012Y-31185573D01*
X161061242Y-31190500D01*
X160883758Y-31190500D01*
X160858988Y-31185573D01*
X160709688Y-31155876D01*
X160545716Y-31087956D01*
X160398146Y-30989353D01*
X160272647Y-30863854D01*
X160174044Y-30716284D01*
X160106124Y-30552312D01*
X160071500Y-30378241D01*
X160071500Y-30200759D01*
X160106124Y-30026688D01*
X160174044Y-29862716D01*
X160272647Y-29715146D01*
X160398146Y-29589647D01*
X160545716Y-29491044D01*
X160709688Y-29423124D01*
X160858988Y-29393427D01*
X160883758Y-29388500D01*
X161061242Y-29388500D01*
X161086012Y-29393427D01*
G37*
G36*
X158546012Y-29393427D02*
G01*
X158695312Y-29423124D01*
X158859284Y-29491044D01*
X159006854Y-29589647D01*
X159132353Y-29715146D01*
X159230956Y-29862716D01*
X159298876Y-30026688D01*
X159333500Y-30200759D01*
X159333500Y-30378241D01*
X159298876Y-30552312D01*
X159230956Y-30716284D01*
X159132353Y-30863854D01*
X159006854Y-30989353D01*
X158859284Y-31087956D01*
X158695312Y-31155876D01*
X158546012Y-31185573D01*
X158521242Y-31190500D01*
X158343758Y-31190500D01*
X158318988Y-31185573D01*
X158169688Y-31155876D01*
X158005716Y-31087956D01*
X157858146Y-30989353D01*
X157732647Y-30863854D01*
X157634044Y-30716284D01*
X157566124Y-30552312D01*
X157531500Y-30378241D01*
X157531500Y-30200759D01*
X157566124Y-30026688D01*
X157634044Y-29862716D01*
X157732647Y-29715146D01*
X157858146Y-29589647D01*
X158005716Y-29491044D01*
X158169688Y-29423124D01*
X158318988Y-29393427D01*
X158343758Y-29388500D01*
X158521242Y-29388500D01*
X158546012Y-29393427D01*
G37*
G36*
X156006012Y-29393427D02*
G01*
X156155312Y-29423124D01*
X156319284Y-29491044D01*
X156466854Y-29589647D01*
X156592353Y-29715146D01*
X156690956Y-29862716D01*
X156758876Y-30026688D01*
X156793500Y-30200759D01*
X156793500Y-30378241D01*
X156758876Y-30552312D01*
X156690956Y-30716284D01*
X156592353Y-30863854D01*
X156466854Y-30989353D01*
X156319284Y-31087956D01*
X156155312Y-31155876D01*
X156006012Y-31185573D01*
X155981242Y-31190500D01*
X155803758Y-31190500D01*
X155778988Y-31185573D01*
X155629688Y-31155876D01*
X155465716Y-31087956D01*
X155318146Y-30989353D01*
X155192647Y-30863854D01*
X155094044Y-30716284D01*
X155026124Y-30552312D01*
X154991500Y-30378241D01*
X154991500Y-30200759D01*
X155026124Y-30026688D01*
X155094044Y-29862716D01*
X155192647Y-29715146D01*
X155318146Y-29589647D01*
X155465716Y-29491044D01*
X155629688Y-29423124D01*
X155778988Y-29393427D01*
X155803758Y-29388500D01*
X155981242Y-29388500D01*
X156006012Y-29393427D01*
G37*
G36*
X153466012Y-29393427D02*
G01*
X153615312Y-29423124D01*
X153779284Y-29491044D01*
X153926854Y-29589647D01*
X154052353Y-29715146D01*
X154150956Y-29862716D01*
X154218876Y-30026688D01*
X154253500Y-30200759D01*
X154253500Y-30378241D01*
X154218876Y-30552312D01*
X154150956Y-30716284D01*
X154052353Y-30863854D01*
X153926854Y-30989353D01*
X153779284Y-31087956D01*
X153615312Y-31155876D01*
X153466012Y-31185573D01*
X153441242Y-31190500D01*
X153263758Y-31190500D01*
X153238988Y-31185573D01*
X153089688Y-31155876D01*
X152925716Y-31087956D01*
X152778146Y-30989353D01*
X152652647Y-30863854D01*
X152554044Y-30716284D01*
X152486124Y-30552312D01*
X152451500Y-30378241D01*
X152451500Y-30200759D01*
X152486124Y-30026688D01*
X152554044Y-29862716D01*
X152652647Y-29715146D01*
X152778146Y-29589647D01*
X152925716Y-29491044D01*
X153089688Y-29423124D01*
X153238988Y-29393427D01*
X153263758Y-29388500D01*
X153441242Y-29388500D01*
X153466012Y-29393427D01*
G37*
G36*
X151713500Y-31190500D02*
G01*
X149911500Y-31190500D01*
X149911500Y-29388500D01*
X151713500Y-29388500D01*
X151713500Y-31190500D01*
G37*
G36*
X185343012Y-29393427D02*
G01*
X185492312Y-29423124D01*
X185656284Y-29491044D01*
X185803854Y-29589647D01*
X185929353Y-29715146D01*
X186027956Y-29862716D01*
X186095876Y-30026688D01*
X186130500Y-30200759D01*
X186130500Y-30378241D01*
X186095876Y-30552312D01*
X186027956Y-30716284D01*
X185929353Y-30863854D01*
X185803854Y-30989353D01*
X185656284Y-31087956D01*
X185492312Y-31155876D01*
X185343012Y-31185573D01*
X185318242Y-31190500D01*
X185140758Y-31190500D01*
X185115988Y-31185573D01*
X184966688Y-31155876D01*
X184802716Y-31087956D01*
X184655146Y-30989353D01*
X184529647Y-30863854D01*
X184431044Y-30716284D01*
X184363124Y-30552312D01*
X184328500Y-30378241D01*
X184328500Y-30200759D01*
X184363124Y-30026688D01*
X184431044Y-29862716D01*
X184529647Y-29715146D01*
X184655146Y-29589647D01*
X184802716Y-29491044D01*
X184966688Y-29423124D01*
X185115988Y-29393427D01*
X185140758Y-29388500D01*
X185318242Y-29388500D01*
X185343012Y-29393427D01*
G37*
G36*
X182803012Y-29393427D02*
G01*
X182952312Y-29423124D01*
X183116284Y-29491044D01*
X183263854Y-29589647D01*
X183389353Y-29715146D01*
X183487956Y-29862716D01*
X183555876Y-30026688D01*
X183590500Y-30200759D01*
X183590500Y-30378241D01*
X183555876Y-30552312D01*
X183487956Y-30716284D01*
X183389353Y-30863854D01*
X183263854Y-30989353D01*
X183116284Y-31087956D01*
X182952312Y-31155876D01*
X182803012Y-31185573D01*
X182778242Y-31190500D01*
X182600758Y-31190500D01*
X182575988Y-31185573D01*
X182426688Y-31155876D01*
X182262716Y-31087956D01*
X182115146Y-30989353D01*
X181989647Y-30863854D01*
X181891044Y-30716284D01*
X181823124Y-30552312D01*
X181788500Y-30378241D01*
X181788500Y-30200759D01*
X181823124Y-30026688D01*
X181891044Y-29862716D01*
X181989647Y-29715146D01*
X182115146Y-29589647D01*
X182262716Y-29491044D01*
X182426688Y-29423124D01*
X182575988Y-29393427D01*
X182600758Y-29388500D01*
X182778242Y-29388500D01*
X182803012Y-29393427D01*
G37*
M02*
