G04 #@! TF.GenerationSoftware,KiCad,Pcbnew,(5.1.5)-2*
G04 #@! TF.CreationDate,2020-04-10T10:41:52+07:00*
G04 #@! TF.ProjectId,KIT_7SegLED_74HC595,4b49545f-3753-4656-974c-45445f373448,rev?*
G04 #@! TF.SameCoordinates,Original*
G04 #@! TF.FileFunction,Paste,Top*
G04 #@! TF.FilePolarity,Positive*
%FSLAX46Y46*%
G04 Gerber Fmt 4.6, Leading zero omitted, Abs format (unit mm)*
G04 Created by KiCad (PCBNEW (5.1.5)-2) date 2020-04-10 10:41:52*
%MOMM*%
%LPD*%
G04 APERTURE LIST*
%ADD10C,0.100000*%
G04 APERTURE END LIST*
D10*
G36*
X161523329Y-53490523D02*
G01*
X161543957Y-53493583D01*
X161564185Y-53498650D01*
X161583820Y-53505676D01*
X161602672Y-53514592D01*
X161620559Y-53525313D01*
X161637309Y-53537735D01*
X161652760Y-53551740D01*
X161666765Y-53567191D01*
X161679187Y-53583941D01*
X161689908Y-53601828D01*
X161698824Y-53620680D01*
X161705850Y-53640315D01*
X161710917Y-53660543D01*
X161713977Y-53681171D01*
X161715000Y-53702000D01*
X161715000Y-54502000D01*
X161713977Y-54522829D01*
X161710917Y-54543457D01*
X161705850Y-54563685D01*
X161698824Y-54583320D01*
X161689908Y-54602172D01*
X161679187Y-54620059D01*
X161666765Y-54636809D01*
X161652760Y-54652260D01*
X161637309Y-54666265D01*
X161620559Y-54678687D01*
X161602672Y-54689408D01*
X161583820Y-54698324D01*
X161564185Y-54705350D01*
X161543957Y-54710417D01*
X161523329Y-54713477D01*
X161502500Y-54714500D01*
X161077500Y-54714500D01*
X161056671Y-54713477D01*
X161036043Y-54710417D01*
X161015815Y-54705350D01*
X160996180Y-54698324D01*
X160977328Y-54689408D01*
X160959441Y-54678687D01*
X160942691Y-54666265D01*
X160927240Y-54652260D01*
X160913235Y-54636809D01*
X160900813Y-54620059D01*
X160890092Y-54602172D01*
X160881176Y-54583320D01*
X160874150Y-54563685D01*
X160869083Y-54543457D01*
X160866023Y-54522829D01*
X160865000Y-54502000D01*
X160865000Y-53702000D01*
X160866023Y-53681171D01*
X160869083Y-53660543D01*
X160874150Y-53640315D01*
X160881176Y-53620680D01*
X160890092Y-53601828D01*
X160900813Y-53583941D01*
X160913235Y-53567191D01*
X160927240Y-53551740D01*
X160942691Y-53537735D01*
X160959441Y-53525313D01*
X160977328Y-53514592D01*
X160996180Y-53505676D01*
X161015815Y-53498650D01*
X161036043Y-53493583D01*
X161056671Y-53490523D01*
X161077500Y-53489500D01*
X161502500Y-53489500D01*
X161523329Y-53490523D01*
G37*
G36*
X161523329Y-55115523D02*
G01*
X161543957Y-55118583D01*
X161564185Y-55123650D01*
X161583820Y-55130676D01*
X161602672Y-55139592D01*
X161620559Y-55150313D01*
X161637309Y-55162735D01*
X161652760Y-55176740D01*
X161666765Y-55192191D01*
X161679187Y-55208941D01*
X161689908Y-55226828D01*
X161698824Y-55245680D01*
X161705850Y-55265315D01*
X161710917Y-55285543D01*
X161713977Y-55306171D01*
X161715000Y-55327000D01*
X161715000Y-56127000D01*
X161713977Y-56147829D01*
X161710917Y-56168457D01*
X161705850Y-56188685D01*
X161698824Y-56208320D01*
X161689908Y-56227172D01*
X161679187Y-56245059D01*
X161666765Y-56261809D01*
X161652760Y-56277260D01*
X161637309Y-56291265D01*
X161620559Y-56303687D01*
X161602672Y-56314408D01*
X161583820Y-56323324D01*
X161564185Y-56330350D01*
X161543957Y-56335417D01*
X161523329Y-56338477D01*
X161502500Y-56339500D01*
X161077500Y-56339500D01*
X161056671Y-56338477D01*
X161036043Y-56335417D01*
X161015815Y-56330350D01*
X160996180Y-56323324D01*
X160977328Y-56314408D01*
X160959441Y-56303687D01*
X160942691Y-56291265D01*
X160927240Y-56277260D01*
X160913235Y-56261809D01*
X160900813Y-56245059D01*
X160890092Y-56227172D01*
X160881176Y-56208320D01*
X160874150Y-56188685D01*
X160869083Y-56168457D01*
X160866023Y-56147829D01*
X160865000Y-56127000D01*
X160865000Y-55327000D01*
X160866023Y-55306171D01*
X160869083Y-55285543D01*
X160874150Y-55265315D01*
X160881176Y-55245680D01*
X160890092Y-55226828D01*
X160900813Y-55208941D01*
X160913235Y-55192191D01*
X160927240Y-55176740D01*
X160942691Y-55162735D01*
X160959441Y-55150313D01*
X160977328Y-55139592D01*
X160996180Y-55130676D01*
X161015815Y-55123650D01*
X161036043Y-55118583D01*
X161056671Y-55115523D01*
X161077500Y-55114500D01*
X161502500Y-55114500D01*
X161523329Y-55115523D01*
G37*
G36*
X181690929Y-55115823D02*
G01*
X181711557Y-55118883D01*
X181731785Y-55123950D01*
X181751420Y-55130976D01*
X181770272Y-55139892D01*
X181788159Y-55150613D01*
X181804909Y-55163035D01*
X181820360Y-55177040D01*
X181834365Y-55192491D01*
X181846787Y-55209241D01*
X181857508Y-55227128D01*
X181866424Y-55245980D01*
X181873450Y-55265615D01*
X181878517Y-55285843D01*
X181881577Y-55306471D01*
X181882600Y-55327300D01*
X181882600Y-56127300D01*
X181881577Y-56148129D01*
X181878517Y-56168757D01*
X181873450Y-56188985D01*
X181866424Y-56208620D01*
X181857508Y-56227472D01*
X181846787Y-56245359D01*
X181834365Y-56262109D01*
X181820360Y-56277560D01*
X181804909Y-56291565D01*
X181788159Y-56303987D01*
X181770272Y-56314708D01*
X181751420Y-56323624D01*
X181731785Y-56330650D01*
X181711557Y-56335717D01*
X181690929Y-56338777D01*
X181670100Y-56339800D01*
X181245100Y-56339800D01*
X181224271Y-56338777D01*
X181203643Y-56335717D01*
X181183415Y-56330650D01*
X181163780Y-56323624D01*
X181144928Y-56314708D01*
X181127041Y-56303987D01*
X181110291Y-56291565D01*
X181094840Y-56277560D01*
X181080835Y-56262109D01*
X181068413Y-56245359D01*
X181057692Y-56227472D01*
X181048776Y-56208620D01*
X181041750Y-56188985D01*
X181036683Y-56168757D01*
X181033623Y-56148129D01*
X181032600Y-56127300D01*
X181032600Y-55327300D01*
X181033623Y-55306471D01*
X181036683Y-55285843D01*
X181041750Y-55265615D01*
X181048776Y-55245980D01*
X181057692Y-55227128D01*
X181068413Y-55209241D01*
X181080835Y-55192491D01*
X181094840Y-55177040D01*
X181110291Y-55163035D01*
X181127041Y-55150613D01*
X181144928Y-55139892D01*
X181163780Y-55130976D01*
X181183415Y-55123950D01*
X181203643Y-55118883D01*
X181224271Y-55115823D01*
X181245100Y-55114800D01*
X181670100Y-55114800D01*
X181690929Y-55115823D01*
G37*
G36*
X181690929Y-53490823D02*
G01*
X181711557Y-53493883D01*
X181731785Y-53498950D01*
X181751420Y-53505976D01*
X181770272Y-53514892D01*
X181788159Y-53525613D01*
X181804909Y-53538035D01*
X181820360Y-53552040D01*
X181834365Y-53567491D01*
X181846787Y-53584241D01*
X181857508Y-53602128D01*
X181866424Y-53620980D01*
X181873450Y-53640615D01*
X181878517Y-53660843D01*
X181881577Y-53681471D01*
X181882600Y-53702300D01*
X181882600Y-54502300D01*
X181881577Y-54523129D01*
X181878517Y-54543757D01*
X181873450Y-54563985D01*
X181866424Y-54583620D01*
X181857508Y-54602472D01*
X181846787Y-54620359D01*
X181834365Y-54637109D01*
X181820360Y-54652560D01*
X181804909Y-54666565D01*
X181788159Y-54678987D01*
X181770272Y-54689708D01*
X181751420Y-54698624D01*
X181731785Y-54705650D01*
X181711557Y-54710717D01*
X181690929Y-54713777D01*
X181670100Y-54714800D01*
X181245100Y-54714800D01*
X181224271Y-54713777D01*
X181203643Y-54710717D01*
X181183415Y-54705650D01*
X181163780Y-54698624D01*
X181144928Y-54689708D01*
X181127041Y-54678987D01*
X181110291Y-54666565D01*
X181094840Y-54652560D01*
X181080835Y-54637109D01*
X181068413Y-54620359D01*
X181057692Y-54602472D01*
X181048776Y-54583620D01*
X181041750Y-54563985D01*
X181036683Y-54543757D01*
X181033623Y-54523129D01*
X181032600Y-54502300D01*
X181032600Y-53702300D01*
X181033623Y-53681471D01*
X181036683Y-53660843D01*
X181041750Y-53640615D01*
X181048776Y-53620980D01*
X181057692Y-53602128D01*
X181068413Y-53584241D01*
X181080835Y-53567491D01*
X181094840Y-53552040D01*
X181110291Y-53538035D01*
X181127041Y-53525613D01*
X181144928Y-53514892D01*
X181163780Y-53505976D01*
X181183415Y-53498950D01*
X181203643Y-53493883D01*
X181224271Y-53490823D01*
X181245100Y-53489800D01*
X181670100Y-53489800D01*
X181690929Y-53490823D01*
G37*
G36*
X164310142Y-53338574D02*
G01*
X164333803Y-53342084D01*
X164357007Y-53347896D01*
X164379529Y-53355954D01*
X164401153Y-53366182D01*
X164421670Y-53378479D01*
X164440883Y-53392729D01*
X164458607Y-53408793D01*
X164474671Y-53426517D01*
X164488921Y-53445730D01*
X164501218Y-53466247D01*
X164511446Y-53487871D01*
X164519504Y-53510393D01*
X164525316Y-53533597D01*
X164528826Y-53557258D01*
X164530000Y-53581150D01*
X164530000Y-54068650D01*
X164528826Y-54092542D01*
X164525316Y-54116203D01*
X164519504Y-54139407D01*
X164511446Y-54161929D01*
X164501218Y-54183553D01*
X164488921Y-54204070D01*
X164474671Y-54223283D01*
X164458607Y-54241007D01*
X164440883Y-54257071D01*
X164421670Y-54271321D01*
X164401153Y-54283618D01*
X164379529Y-54293846D01*
X164357007Y-54301904D01*
X164333803Y-54307716D01*
X164310142Y-54311226D01*
X164286250Y-54312400D01*
X163373750Y-54312400D01*
X163349858Y-54311226D01*
X163326197Y-54307716D01*
X163302993Y-54301904D01*
X163280471Y-54293846D01*
X163258847Y-54283618D01*
X163238330Y-54271321D01*
X163219117Y-54257071D01*
X163201393Y-54241007D01*
X163185329Y-54223283D01*
X163171079Y-54204070D01*
X163158782Y-54183553D01*
X163148554Y-54161929D01*
X163140496Y-54139407D01*
X163134684Y-54116203D01*
X163131174Y-54092542D01*
X163130000Y-54068650D01*
X163130000Y-53581150D01*
X163131174Y-53557258D01*
X163134684Y-53533597D01*
X163140496Y-53510393D01*
X163148554Y-53487871D01*
X163158782Y-53466247D01*
X163171079Y-53445730D01*
X163185329Y-53426517D01*
X163201393Y-53408793D01*
X163219117Y-53392729D01*
X163238330Y-53378479D01*
X163258847Y-53366182D01*
X163280471Y-53355954D01*
X163302993Y-53347896D01*
X163326197Y-53342084D01*
X163349858Y-53338574D01*
X163373750Y-53337400D01*
X164286250Y-53337400D01*
X164310142Y-53338574D01*
G37*
G36*
X164310142Y-55213574D02*
G01*
X164333803Y-55217084D01*
X164357007Y-55222896D01*
X164379529Y-55230954D01*
X164401153Y-55241182D01*
X164421670Y-55253479D01*
X164440883Y-55267729D01*
X164458607Y-55283793D01*
X164474671Y-55301517D01*
X164488921Y-55320730D01*
X164501218Y-55341247D01*
X164511446Y-55362871D01*
X164519504Y-55385393D01*
X164525316Y-55408597D01*
X164528826Y-55432258D01*
X164530000Y-55456150D01*
X164530000Y-55943650D01*
X164528826Y-55967542D01*
X164525316Y-55991203D01*
X164519504Y-56014407D01*
X164511446Y-56036929D01*
X164501218Y-56058553D01*
X164488921Y-56079070D01*
X164474671Y-56098283D01*
X164458607Y-56116007D01*
X164440883Y-56132071D01*
X164421670Y-56146321D01*
X164401153Y-56158618D01*
X164379529Y-56168846D01*
X164357007Y-56176904D01*
X164333803Y-56182716D01*
X164310142Y-56186226D01*
X164286250Y-56187400D01*
X163373750Y-56187400D01*
X163349858Y-56186226D01*
X163326197Y-56182716D01*
X163302993Y-56176904D01*
X163280471Y-56168846D01*
X163258847Y-56158618D01*
X163238330Y-56146321D01*
X163219117Y-56132071D01*
X163201393Y-56116007D01*
X163185329Y-56098283D01*
X163171079Y-56079070D01*
X163158782Y-56058553D01*
X163148554Y-56036929D01*
X163140496Y-56014407D01*
X163134684Y-55991203D01*
X163131174Y-55967542D01*
X163130000Y-55943650D01*
X163130000Y-55456150D01*
X163131174Y-55432258D01*
X163134684Y-55408597D01*
X163140496Y-55385393D01*
X163148554Y-55362871D01*
X163158782Y-55341247D01*
X163171079Y-55320730D01*
X163185329Y-55301517D01*
X163201393Y-55283793D01*
X163219117Y-55267729D01*
X163238330Y-55253479D01*
X163258847Y-55241182D01*
X163280471Y-55230954D01*
X163302993Y-55222896D01*
X163326197Y-55217084D01*
X163349858Y-55213574D01*
X163373750Y-55212400D01*
X164286250Y-55212400D01*
X164310142Y-55213574D01*
G37*
G36*
X179346942Y-55264374D02*
G01*
X179370603Y-55267884D01*
X179393807Y-55273696D01*
X179416329Y-55281754D01*
X179437953Y-55291982D01*
X179458470Y-55304279D01*
X179477683Y-55318529D01*
X179495407Y-55334593D01*
X179511471Y-55352317D01*
X179525721Y-55371530D01*
X179538018Y-55392047D01*
X179548246Y-55413671D01*
X179556304Y-55436193D01*
X179562116Y-55459397D01*
X179565626Y-55483058D01*
X179566800Y-55506950D01*
X179566800Y-55994450D01*
X179565626Y-56018342D01*
X179562116Y-56042003D01*
X179556304Y-56065207D01*
X179548246Y-56087729D01*
X179538018Y-56109353D01*
X179525721Y-56129870D01*
X179511471Y-56149083D01*
X179495407Y-56166807D01*
X179477683Y-56182871D01*
X179458470Y-56197121D01*
X179437953Y-56209418D01*
X179416329Y-56219646D01*
X179393807Y-56227704D01*
X179370603Y-56233516D01*
X179346942Y-56237026D01*
X179323050Y-56238200D01*
X178410550Y-56238200D01*
X178386658Y-56237026D01*
X178362997Y-56233516D01*
X178339793Y-56227704D01*
X178317271Y-56219646D01*
X178295647Y-56209418D01*
X178275130Y-56197121D01*
X178255917Y-56182871D01*
X178238193Y-56166807D01*
X178222129Y-56149083D01*
X178207879Y-56129870D01*
X178195582Y-56109353D01*
X178185354Y-56087729D01*
X178177296Y-56065207D01*
X178171484Y-56042003D01*
X178167974Y-56018342D01*
X178166800Y-55994450D01*
X178166800Y-55506950D01*
X178167974Y-55483058D01*
X178171484Y-55459397D01*
X178177296Y-55436193D01*
X178185354Y-55413671D01*
X178195582Y-55392047D01*
X178207879Y-55371530D01*
X178222129Y-55352317D01*
X178238193Y-55334593D01*
X178255917Y-55318529D01*
X178275130Y-55304279D01*
X178295647Y-55291982D01*
X178317271Y-55281754D01*
X178339793Y-55273696D01*
X178362997Y-55267884D01*
X178386658Y-55264374D01*
X178410550Y-55263200D01*
X179323050Y-55263200D01*
X179346942Y-55264374D01*
G37*
G36*
X179346942Y-53389374D02*
G01*
X179370603Y-53392884D01*
X179393807Y-53398696D01*
X179416329Y-53406754D01*
X179437953Y-53416982D01*
X179458470Y-53429279D01*
X179477683Y-53443529D01*
X179495407Y-53459593D01*
X179511471Y-53477317D01*
X179525721Y-53496530D01*
X179538018Y-53517047D01*
X179548246Y-53538671D01*
X179556304Y-53561193D01*
X179562116Y-53584397D01*
X179565626Y-53608058D01*
X179566800Y-53631950D01*
X179566800Y-54119450D01*
X179565626Y-54143342D01*
X179562116Y-54167003D01*
X179556304Y-54190207D01*
X179548246Y-54212729D01*
X179538018Y-54234353D01*
X179525721Y-54254870D01*
X179511471Y-54274083D01*
X179495407Y-54291807D01*
X179477683Y-54307871D01*
X179458470Y-54322121D01*
X179437953Y-54334418D01*
X179416329Y-54344646D01*
X179393807Y-54352704D01*
X179370603Y-54358516D01*
X179346942Y-54362026D01*
X179323050Y-54363200D01*
X178410550Y-54363200D01*
X178386658Y-54362026D01*
X178362997Y-54358516D01*
X178339793Y-54352704D01*
X178317271Y-54344646D01*
X178295647Y-54334418D01*
X178275130Y-54322121D01*
X178255917Y-54307871D01*
X178238193Y-54291807D01*
X178222129Y-54274083D01*
X178207879Y-54254870D01*
X178195582Y-54234353D01*
X178185354Y-54212729D01*
X178177296Y-54190207D01*
X178171484Y-54167003D01*
X178167974Y-54143342D01*
X178166800Y-54119450D01*
X178166800Y-53631950D01*
X178167974Y-53608058D01*
X178171484Y-53584397D01*
X178177296Y-53561193D01*
X178185354Y-53538671D01*
X178195582Y-53517047D01*
X178207879Y-53496530D01*
X178222129Y-53477317D01*
X178238193Y-53459593D01*
X178255917Y-53443529D01*
X178275130Y-53429279D01*
X178295647Y-53416982D01*
X178317271Y-53406754D01*
X178339793Y-53398696D01*
X178362997Y-53392884D01*
X178386658Y-53389374D01*
X178410550Y-53388200D01*
X179323050Y-53388200D01*
X179346942Y-53389374D01*
G37*
M02*
