G04 #@! TF.GenerationSoftware,KiCad,Pcbnew,(5.1.5)-2*
G04 #@! TF.CreationDate,2020-04-05T00:52:07+07:00*
G04 #@! TF.ProjectId,KIT_PIC16F1937,4b49545f-5049-4433-9136-46313933372e,rev?*
G04 #@! TF.SameCoordinates,Original*
G04 #@! TF.FileFunction,Soldermask,Bot*
G04 #@! TF.FilePolarity,Negative*
%FSLAX46Y46*%
G04 Gerber Fmt 4.6, Leading zero omitted, Abs format (unit mm)*
G04 Created by KiCad (PCBNEW (5.1.5)-2) date 2020-04-05 00:52:07*
%MOMM*%
%LPD*%
G04 APERTURE LIST*
%ADD10C,0.100000*%
G04 APERTURE END LIST*
D10*
G36*
X240139098Y-123150033D02*
G01*
X240603350Y-123342332D01*
X240603352Y-123342333D01*
X241021168Y-123621509D01*
X241376491Y-123976832D01*
X241645067Y-124378784D01*
X241655668Y-124394650D01*
X241847967Y-124858902D01*
X241946000Y-125351747D01*
X241946000Y-125854253D01*
X241847967Y-126347098D01*
X241726093Y-126641329D01*
X241655667Y-126811352D01*
X241376491Y-127229168D01*
X241021168Y-127584491D01*
X240603352Y-127863667D01*
X240603351Y-127863668D01*
X240603350Y-127863668D01*
X240139098Y-128055967D01*
X239646253Y-128154000D01*
X239143747Y-128154000D01*
X238650902Y-128055967D01*
X238186650Y-127863668D01*
X238186649Y-127863668D01*
X238186648Y-127863667D01*
X237768832Y-127584491D01*
X237413509Y-127229168D01*
X237134333Y-126811352D01*
X237063907Y-126641329D01*
X236942033Y-126347098D01*
X236844000Y-125854253D01*
X236844000Y-125351747D01*
X236942033Y-124858902D01*
X237134332Y-124394650D01*
X237144933Y-124378784D01*
X237413509Y-123976832D01*
X237768832Y-123621509D01*
X238186648Y-123342333D01*
X238186650Y-123342332D01*
X238650902Y-123150033D01*
X239143747Y-123052000D01*
X239646253Y-123052000D01*
X240139098Y-123150033D01*
G37*
G36*
X146032098Y-123150033D02*
G01*
X146496350Y-123342332D01*
X146496352Y-123342333D01*
X146914168Y-123621509D01*
X147269491Y-123976832D01*
X147538067Y-124378784D01*
X147548668Y-124394650D01*
X147740967Y-124858902D01*
X147839000Y-125351747D01*
X147839000Y-125854253D01*
X147740967Y-126347098D01*
X147619093Y-126641329D01*
X147548667Y-126811352D01*
X147269491Y-127229168D01*
X146914168Y-127584491D01*
X146496352Y-127863667D01*
X146496351Y-127863668D01*
X146496350Y-127863668D01*
X146032098Y-128055967D01*
X145539253Y-128154000D01*
X145036747Y-128154000D01*
X144543902Y-128055967D01*
X144079650Y-127863668D01*
X144079649Y-127863668D01*
X144079648Y-127863667D01*
X143661832Y-127584491D01*
X143306509Y-127229168D01*
X143027333Y-126811352D01*
X142956907Y-126641329D01*
X142835033Y-126347098D01*
X142737000Y-125854253D01*
X142737000Y-125351747D01*
X142835033Y-124858902D01*
X143027332Y-124394650D01*
X143037933Y-124378784D01*
X143306509Y-123976832D01*
X143661832Y-123621509D01*
X144079648Y-123342333D01*
X144079650Y-123342332D01*
X144543902Y-123150033D01*
X145036747Y-123052000D01*
X145539253Y-123052000D01*
X146032098Y-123150033D01*
G37*
G36*
X189597512Y-125595927D02*
G01*
X189746812Y-125625624D01*
X189910784Y-125693544D01*
X190058354Y-125792147D01*
X190183853Y-125917646D01*
X190282456Y-126065216D01*
X190350376Y-126229188D01*
X190385000Y-126403259D01*
X190385000Y-126580741D01*
X190350376Y-126754812D01*
X190282456Y-126918784D01*
X190183853Y-127066354D01*
X190058354Y-127191853D01*
X189910784Y-127290456D01*
X189746812Y-127358376D01*
X189597512Y-127388073D01*
X189572742Y-127393000D01*
X189395258Y-127393000D01*
X189370488Y-127388073D01*
X189221188Y-127358376D01*
X189057216Y-127290456D01*
X188909646Y-127191853D01*
X188784147Y-127066354D01*
X188685544Y-126918784D01*
X188617624Y-126754812D01*
X188583000Y-126580741D01*
X188583000Y-126403259D01*
X188617624Y-126229188D01*
X188685544Y-126065216D01*
X188784147Y-125917646D01*
X188909646Y-125792147D01*
X189057216Y-125693544D01*
X189221188Y-125625624D01*
X189370488Y-125595927D01*
X189395258Y-125591000D01*
X189572742Y-125591000D01*
X189597512Y-125595927D01*
G37*
G36*
X182765000Y-127393000D02*
G01*
X180963000Y-127393000D01*
X180963000Y-125591000D01*
X182765000Y-125591000D01*
X182765000Y-127393000D01*
G37*
G36*
X205625000Y-127393000D02*
G01*
X203823000Y-127393000D01*
X203823000Y-125591000D01*
X205625000Y-125591000D01*
X205625000Y-127393000D01*
G37*
G36*
X178828000Y-127393000D02*
G01*
X177026000Y-127393000D01*
X177026000Y-125591000D01*
X178828000Y-125591000D01*
X178828000Y-127393000D01*
G37*
G36*
X175500512Y-125595927D02*
G01*
X175649812Y-125625624D01*
X175813784Y-125693544D01*
X175961354Y-125792147D01*
X176086853Y-125917646D01*
X176185456Y-126065216D01*
X176253376Y-126229188D01*
X176288000Y-126403259D01*
X176288000Y-126580741D01*
X176253376Y-126754812D01*
X176185456Y-126918784D01*
X176086853Y-127066354D01*
X175961354Y-127191853D01*
X175813784Y-127290456D01*
X175649812Y-127358376D01*
X175500512Y-127388073D01*
X175475742Y-127393000D01*
X175298258Y-127393000D01*
X175273488Y-127388073D01*
X175124188Y-127358376D01*
X174960216Y-127290456D01*
X174812646Y-127191853D01*
X174687147Y-127066354D01*
X174588544Y-126918784D01*
X174520624Y-126754812D01*
X174486000Y-126580741D01*
X174486000Y-126403259D01*
X174520624Y-126229188D01*
X174588544Y-126065216D01*
X174687147Y-125917646D01*
X174812646Y-125792147D01*
X174960216Y-125693544D01*
X175124188Y-125625624D01*
X175273488Y-125595927D01*
X175298258Y-125591000D01*
X175475742Y-125591000D01*
X175500512Y-125595927D01*
G37*
G36*
X172960512Y-125595927D02*
G01*
X173109812Y-125625624D01*
X173273784Y-125693544D01*
X173421354Y-125792147D01*
X173546853Y-125917646D01*
X173645456Y-126065216D01*
X173713376Y-126229188D01*
X173748000Y-126403259D01*
X173748000Y-126580741D01*
X173713376Y-126754812D01*
X173645456Y-126918784D01*
X173546853Y-127066354D01*
X173421354Y-127191853D01*
X173273784Y-127290456D01*
X173109812Y-127358376D01*
X172960512Y-127388073D01*
X172935742Y-127393000D01*
X172758258Y-127393000D01*
X172733488Y-127388073D01*
X172584188Y-127358376D01*
X172420216Y-127290456D01*
X172272646Y-127191853D01*
X172147147Y-127066354D01*
X172048544Y-126918784D01*
X171980624Y-126754812D01*
X171946000Y-126580741D01*
X171946000Y-126403259D01*
X171980624Y-126229188D01*
X172048544Y-126065216D01*
X172147147Y-125917646D01*
X172272646Y-125792147D01*
X172420216Y-125693544D01*
X172584188Y-125625624D01*
X172733488Y-125595927D01*
X172758258Y-125591000D01*
X172935742Y-125591000D01*
X172960512Y-125595927D01*
G37*
G36*
X170420512Y-125595927D02*
G01*
X170569812Y-125625624D01*
X170733784Y-125693544D01*
X170881354Y-125792147D01*
X171006853Y-125917646D01*
X171105456Y-126065216D01*
X171173376Y-126229188D01*
X171208000Y-126403259D01*
X171208000Y-126580741D01*
X171173376Y-126754812D01*
X171105456Y-126918784D01*
X171006853Y-127066354D01*
X170881354Y-127191853D01*
X170733784Y-127290456D01*
X170569812Y-127358376D01*
X170420512Y-127388073D01*
X170395742Y-127393000D01*
X170218258Y-127393000D01*
X170193488Y-127388073D01*
X170044188Y-127358376D01*
X169880216Y-127290456D01*
X169732646Y-127191853D01*
X169607147Y-127066354D01*
X169508544Y-126918784D01*
X169440624Y-126754812D01*
X169406000Y-126580741D01*
X169406000Y-126403259D01*
X169440624Y-126229188D01*
X169508544Y-126065216D01*
X169607147Y-125917646D01*
X169732646Y-125792147D01*
X169880216Y-125693544D01*
X170044188Y-125625624D01*
X170193488Y-125595927D01*
X170218258Y-125591000D01*
X170395742Y-125591000D01*
X170420512Y-125595927D01*
G37*
G36*
X167880512Y-125595927D02*
G01*
X168029812Y-125625624D01*
X168193784Y-125693544D01*
X168341354Y-125792147D01*
X168466853Y-125917646D01*
X168565456Y-126065216D01*
X168633376Y-126229188D01*
X168668000Y-126403259D01*
X168668000Y-126580741D01*
X168633376Y-126754812D01*
X168565456Y-126918784D01*
X168466853Y-127066354D01*
X168341354Y-127191853D01*
X168193784Y-127290456D01*
X168029812Y-127358376D01*
X167880512Y-127388073D01*
X167855742Y-127393000D01*
X167678258Y-127393000D01*
X167653488Y-127388073D01*
X167504188Y-127358376D01*
X167340216Y-127290456D01*
X167192646Y-127191853D01*
X167067147Y-127066354D01*
X166968544Y-126918784D01*
X166900624Y-126754812D01*
X166866000Y-126580741D01*
X166866000Y-126403259D01*
X166900624Y-126229188D01*
X166968544Y-126065216D01*
X167067147Y-125917646D01*
X167192646Y-125792147D01*
X167340216Y-125693544D01*
X167504188Y-125625624D01*
X167653488Y-125595927D01*
X167678258Y-125591000D01*
X167855742Y-125591000D01*
X167880512Y-125595927D01*
G37*
G36*
X165340512Y-125595927D02*
G01*
X165489812Y-125625624D01*
X165653784Y-125693544D01*
X165801354Y-125792147D01*
X165926853Y-125917646D01*
X166025456Y-126065216D01*
X166093376Y-126229188D01*
X166128000Y-126403259D01*
X166128000Y-126580741D01*
X166093376Y-126754812D01*
X166025456Y-126918784D01*
X165926853Y-127066354D01*
X165801354Y-127191853D01*
X165653784Y-127290456D01*
X165489812Y-127358376D01*
X165340512Y-127388073D01*
X165315742Y-127393000D01*
X165138258Y-127393000D01*
X165113488Y-127388073D01*
X164964188Y-127358376D01*
X164800216Y-127290456D01*
X164652646Y-127191853D01*
X164527147Y-127066354D01*
X164428544Y-126918784D01*
X164360624Y-126754812D01*
X164326000Y-126580741D01*
X164326000Y-126403259D01*
X164360624Y-126229188D01*
X164428544Y-126065216D01*
X164527147Y-125917646D01*
X164652646Y-125792147D01*
X164800216Y-125693544D01*
X164964188Y-125625624D01*
X165113488Y-125595927D01*
X165138258Y-125591000D01*
X165315742Y-125591000D01*
X165340512Y-125595927D01*
G37*
G36*
X162800512Y-125595927D02*
G01*
X162949812Y-125625624D01*
X163113784Y-125693544D01*
X163261354Y-125792147D01*
X163386853Y-125917646D01*
X163485456Y-126065216D01*
X163553376Y-126229188D01*
X163588000Y-126403259D01*
X163588000Y-126580741D01*
X163553376Y-126754812D01*
X163485456Y-126918784D01*
X163386853Y-127066354D01*
X163261354Y-127191853D01*
X163113784Y-127290456D01*
X162949812Y-127358376D01*
X162800512Y-127388073D01*
X162775742Y-127393000D01*
X162598258Y-127393000D01*
X162573488Y-127388073D01*
X162424188Y-127358376D01*
X162260216Y-127290456D01*
X162112646Y-127191853D01*
X161987147Y-127066354D01*
X161888544Y-126918784D01*
X161820624Y-126754812D01*
X161786000Y-126580741D01*
X161786000Y-126403259D01*
X161820624Y-126229188D01*
X161888544Y-126065216D01*
X161987147Y-125917646D01*
X162112646Y-125792147D01*
X162260216Y-125693544D01*
X162424188Y-125625624D01*
X162573488Y-125595927D01*
X162598258Y-125591000D01*
X162775742Y-125591000D01*
X162800512Y-125595927D01*
G37*
G36*
X160260512Y-125595927D02*
G01*
X160409812Y-125625624D01*
X160573784Y-125693544D01*
X160721354Y-125792147D01*
X160846853Y-125917646D01*
X160945456Y-126065216D01*
X161013376Y-126229188D01*
X161048000Y-126403259D01*
X161048000Y-126580741D01*
X161013376Y-126754812D01*
X160945456Y-126918784D01*
X160846853Y-127066354D01*
X160721354Y-127191853D01*
X160573784Y-127290456D01*
X160409812Y-127358376D01*
X160260512Y-127388073D01*
X160235742Y-127393000D01*
X160058258Y-127393000D01*
X160033488Y-127388073D01*
X159884188Y-127358376D01*
X159720216Y-127290456D01*
X159572646Y-127191853D01*
X159447147Y-127066354D01*
X159348544Y-126918784D01*
X159280624Y-126754812D01*
X159246000Y-126580741D01*
X159246000Y-126403259D01*
X159280624Y-126229188D01*
X159348544Y-126065216D01*
X159447147Y-125917646D01*
X159572646Y-125792147D01*
X159720216Y-125693544D01*
X159884188Y-125625624D01*
X160033488Y-125595927D01*
X160058258Y-125591000D01*
X160235742Y-125591000D01*
X160260512Y-125595927D01*
G37*
G36*
X184517512Y-125595927D02*
G01*
X184666812Y-125625624D01*
X184830784Y-125693544D01*
X184978354Y-125792147D01*
X185103853Y-125917646D01*
X185202456Y-126065216D01*
X185270376Y-126229188D01*
X185305000Y-126403259D01*
X185305000Y-126580741D01*
X185270376Y-126754812D01*
X185202456Y-126918784D01*
X185103853Y-127066354D01*
X184978354Y-127191853D01*
X184830784Y-127290456D01*
X184666812Y-127358376D01*
X184517512Y-127388073D01*
X184492742Y-127393000D01*
X184315258Y-127393000D01*
X184290488Y-127388073D01*
X184141188Y-127358376D01*
X183977216Y-127290456D01*
X183829646Y-127191853D01*
X183704147Y-127066354D01*
X183605544Y-126918784D01*
X183537624Y-126754812D01*
X183503000Y-126580741D01*
X183503000Y-126403259D01*
X183537624Y-126229188D01*
X183605544Y-126065216D01*
X183704147Y-125917646D01*
X183829646Y-125792147D01*
X183977216Y-125693544D01*
X184141188Y-125625624D01*
X184290488Y-125595927D01*
X184315258Y-125591000D01*
X184492742Y-125591000D01*
X184517512Y-125595927D01*
G37*
G36*
X157720512Y-125595927D02*
G01*
X157869812Y-125625624D01*
X158033784Y-125693544D01*
X158181354Y-125792147D01*
X158306853Y-125917646D01*
X158405456Y-126065216D01*
X158473376Y-126229188D01*
X158508000Y-126403259D01*
X158508000Y-126580741D01*
X158473376Y-126754812D01*
X158405456Y-126918784D01*
X158306853Y-127066354D01*
X158181354Y-127191853D01*
X158033784Y-127290456D01*
X157869812Y-127358376D01*
X157720512Y-127388073D01*
X157695742Y-127393000D01*
X157518258Y-127393000D01*
X157493488Y-127388073D01*
X157344188Y-127358376D01*
X157180216Y-127290456D01*
X157032646Y-127191853D01*
X156907147Y-127066354D01*
X156808544Y-126918784D01*
X156740624Y-126754812D01*
X156706000Y-126580741D01*
X156706000Y-126403259D01*
X156740624Y-126229188D01*
X156808544Y-126065216D01*
X156907147Y-125917646D01*
X157032646Y-125792147D01*
X157180216Y-125693544D01*
X157344188Y-125625624D01*
X157493488Y-125595927D01*
X157518258Y-125591000D01*
X157695742Y-125591000D01*
X157720512Y-125595927D01*
G37*
G36*
X155968000Y-127393000D02*
G01*
X154166000Y-127393000D01*
X154166000Y-125591000D01*
X155968000Y-125591000D01*
X155968000Y-127393000D01*
G37*
G36*
X187057512Y-125595927D02*
G01*
X187206812Y-125625624D01*
X187370784Y-125693544D01*
X187518354Y-125792147D01*
X187643853Y-125917646D01*
X187742456Y-126065216D01*
X187810376Y-126229188D01*
X187845000Y-126403259D01*
X187845000Y-126580741D01*
X187810376Y-126754812D01*
X187742456Y-126918784D01*
X187643853Y-127066354D01*
X187518354Y-127191853D01*
X187370784Y-127290456D01*
X187206812Y-127358376D01*
X187057512Y-127388073D01*
X187032742Y-127393000D01*
X186855258Y-127393000D01*
X186830488Y-127388073D01*
X186681188Y-127358376D01*
X186517216Y-127290456D01*
X186369646Y-127191853D01*
X186244147Y-127066354D01*
X186145544Y-126918784D01*
X186077624Y-126754812D01*
X186043000Y-126580741D01*
X186043000Y-126403259D01*
X186077624Y-126229188D01*
X186145544Y-126065216D01*
X186244147Y-125917646D01*
X186369646Y-125792147D01*
X186517216Y-125693544D01*
X186681188Y-125625624D01*
X186830488Y-125595927D01*
X186855258Y-125591000D01*
X187032742Y-125591000D01*
X187057512Y-125595927D01*
G37*
G36*
X199757512Y-125595927D02*
G01*
X199906812Y-125625624D01*
X200070784Y-125693544D01*
X200218354Y-125792147D01*
X200343853Y-125917646D01*
X200442456Y-126065216D01*
X200510376Y-126229188D01*
X200545000Y-126403259D01*
X200545000Y-126580741D01*
X200510376Y-126754812D01*
X200442456Y-126918784D01*
X200343853Y-127066354D01*
X200218354Y-127191853D01*
X200070784Y-127290456D01*
X199906812Y-127358376D01*
X199757512Y-127388073D01*
X199732742Y-127393000D01*
X199555258Y-127393000D01*
X199530488Y-127388073D01*
X199381188Y-127358376D01*
X199217216Y-127290456D01*
X199069646Y-127191853D01*
X198944147Y-127066354D01*
X198845544Y-126918784D01*
X198777624Y-126754812D01*
X198743000Y-126580741D01*
X198743000Y-126403259D01*
X198777624Y-126229188D01*
X198845544Y-126065216D01*
X198944147Y-125917646D01*
X199069646Y-125792147D01*
X199217216Y-125693544D01*
X199381188Y-125625624D01*
X199530488Y-125595927D01*
X199555258Y-125591000D01*
X199732742Y-125591000D01*
X199757512Y-125595927D01*
G37*
G36*
X197217512Y-125595927D02*
G01*
X197366812Y-125625624D01*
X197530784Y-125693544D01*
X197678354Y-125792147D01*
X197803853Y-125917646D01*
X197902456Y-126065216D01*
X197970376Y-126229188D01*
X198005000Y-126403259D01*
X198005000Y-126580741D01*
X197970376Y-126754812D01*
X197902456Y-126918784D01*
X197803853Y-127066354D01*
X197678354Y-127191853D01*
X197530784Y-127290456D01*
X197366812Y-127358376D01*
X197217512Y-127388073D01*
X197192742Y-127393000D01*
X197015258Y-127393000D01*
X196990488Y-127388073D01*
X196841188Y-127358376D01*
X196677216Y-127290456D01*
X196529646Y-127191853D01*
X196404147Y-127066354D01*
X196305544Y-126918784D01*
X196237624Y-126754812D01*
X196203000Y-126580741D01*
X196203000Y-126403259D01*
X196237624Y-126229188D01*
X196305544Y-126065216D01*
X196404147Y-125917646D01*
X196529646Y-125792147D01*
X196677216Y-125693544D01*
X196841188Y-125625624D01*
X196990488Y-125595927D01*
X197015258Y-125591000D01*
X197192742Y-125591000D01*
X197217512Y-125595927D01*
G37*
G36*
X194677512Y-125595927D02*
G01*
X194826812Y-125625624D01*
X194990784Y-125693544D01*
X195138354Y-125792147D01*
X195263853Y-125917646D01*
X195362456Y-126065216D01*
X195430376Y-126229188D01*
X195465000Y-126403259D01*
X195465000Y-126580741D01*
X195430376Y-126754812D01*
X195362456Y-126918784D01*
X195263853Y-127066354D01*
X195138354Y-127191853D01*
X194990784Y-127290456D01*
X194826812Y-127358376D01*
X194677512Y-127388073D01*
X194652742Y-127393000D01*
X194475258Y-127393000D01*
X194450488Y-127388073D01*
X194301188Y-127358376D01*
X194137216Y-127290456D01*
X193989646Y-127191853D01*
X193864147Y-127066354D01*
X193765544Y-126918784D01*
X193697624Y-126754812D01*
X193663000Y-126580741D01*
X193663000Y-126403259D01*
X193697624Y-126229188D01*
X193765544Y-126065216D01*
X193864147Y-125917646D01*
X193989646Y-125792147D01*
X194137216Y-125693544D01*
X194301188Y-125625624D01*
X194450488Y-125595927D01*
X194475258Y-125591000D01*
X194652742Y-125591000D01*
X194677512Y-125595927D01*
G37*
G36*
X192137512Y-125595927D02*
G01*
X192286812Y-125625624D01*
X192450784Y-125693544D01*
X192598354Y-125792147D01*
X192723853Y-125917646D01*
X192822456Y-126065216D01*
X192890376Y-126229188D01*
X192925000Y-126403259D01*
X192925000Y-126580741D01*
X192890376Y-126754812D01*
X192822456Y-126918784D01*
X192723853Y-127066354D01*
X192598354Y-127191853D01*
X192450784Y-127290456D01*
X192286812Y-127358376D01*
X192137512Y-127388073D01*
X192112742Y-127393000D01*
X191935258Y-127393000D01*
X191910488Y-127388073D01*
X191761188Y-127358376D01*
X191597216Y-127290456D01*
X191449646Y-127191853D01*
X191324147Y-127066354D01*
X191225544Y-126918784D01*
X191157624Y-126754812D01*
X191123000Y-126580741D01*
X191123000Y-126403259D01*
X191157624Y-126229188D01*
X191225544Y-126065216D01*
X191324147Y-125917646D01*
X191449646Y-125792147D01*
X191597216Y-125693544D01*
X191761188Y-125625624D01*
X191910488Y-125595927D01*
X191935258Y-125591000D01*
X192112742Y-125591000D01*
X192137512Y-125595927D01*
G37*
G36*
X202297512Y-125595927D02*
G01*
X202446812Y-125625624D01*
X202610784Y-125693544D01*
X202758354Y-125792147D01*
X202883853Y-125917646D01*
X202982456Y-126065216D01*
X203050376Y-126229188D01*
X203085000Y-126403259D01*
X203085000Y-126580741D01*
X203050376Y-126754812D01*
X202982456Y-126918784D01*
X202883853Y-127066354D01*
X202758354Y-127191853D01*
X202610784Y-127290456D01*
X202446812Y-127358376D01*
X202297512Y-127388073D01*
X202272742Y-127393000D01*
X202095258Y-127393000D01*
X202070488Y-127388073D01*
X201921188Y-127358376D01*
X201757216Y-127290456D01*
X201609646Y-127191853D01*
X201484147Y-127066354D01*
X201385544Y-126918784D01*
X201317624Y-126754812D01*
X201283000Y-126580741D01*
X201283000Y-126403259D01*
X201317624Y-126229188D01*
X201385544Y-126065216D01*
X201484147Y-125917646D01*
X201609646Y-125792147D01*
X201757216Y-125693544D01*
X201921188Y-125625624D01*
X202070488Y-125595927D01*
X202095258Y-125591000D01*
X202272742Y-125591000D01*
X202297512Y-125595927D01*
G37*
G36*
X213817468Y-125371565D02*
G01*
X213856138Y-125383296D01*
X213891777Y-125402346D01*
X213923017Y-125427983D01*
X213948654Y-125459223D01*
X213967704Y-125494862D01*
X213979435Y-125533532D01*
X213984000Y-125579888D01*
X213984000Y-126231112D01*
X213979435Y-126277468D01*
X213967704Y-126316138D01*
X213948654Y-126351777D01*
X213923017Y-126383017D01*
X213891777Y-126408654D01*
X213856138Y-126427704D01*
X213817468Y-126439435D01*
X213771112Y-126444000D01*
X212694888Y-126444000D01*
X212648532Y-126439435D01*
X212609862Y-126427704D01*
X212574223Y-126408654D01*
X212542983Y-126383017D01*
X212517346Y-126351777D01*
X212498296Y-126316138D01*
X212486565Y-126277468D01*
X212482000Y-126231112D01*
X212482000Y-125579888D01*
X212486565Y-125533532D01*
X212498296Y-125494862D01*
X212517346Y-125459223D01*
X212542983Y-125427983D01*
X212574223Y-125402346D01*
X212609862Y-125383296D01*
X212648532Y-125371565D01*
X212694888Y-125367000D01*
X213771112Y-125367000D01*
X213817468Y-125371565D01*
G37*
G36*
X227787468Y-125371565D02*
G01*
X227826138Y-125383296D01*
X227861777Y-125402346D01*
X227893017Y-125427983D01*
X227918654Y-125459223D01*
X227937704Y-125494862D01*
X227949435Y-125533532D01*
X227954000Y-125579888D01*
X227954000Y-126231112D01*
X227949435Y-126277468D01*
X227937704Y-126316138D01*
X227918654Y-126351777D01*
X227893017Y-126383017D01*
X227861777Y-126408654D01*
X227826138Y-126427704D01*
X227787468Y-126439435D01*
X227741112Y-126444000D01*
X226664888Y-126444000D01*
X226618532Y-126439435D01*
X226579862Y-126427704D01*
X226544223Y-126408654D01*
X226512983Y-126383017D01*
X226487346Y-126351777D01*
X226468296Y-126316138D01*
X226456565Y-126277468D01*
X226452000Y-126231112D01*
X226452000Y-125579888D01*
X226456565Y-125533532D01*
X226468296Y-125494862D01*
X226487346Y-125459223D01*
X226512983Y-125427983D01*
X226544223Y-125402346D01*
X226579862Y-125383296D01*
X226618532Y-125371565D01*
X226664888Y-125367000D01*
X227741112Y-125367000D01*
X227787468Y-125371565D01*
G37*
G36*
X216992468Y-125371565D02*
G01*
X217031138Y-125383296D01*
X217066777Y-125402346D01*
X217098017Y-125427983D01*
X217123654Y-125459223D01*
X217142704Y-125494862D01*
X217154435Y-125533532D01*
X217159000Y-125579888D01*
X217159000Y-126231112D01*
X217154435Y-126277468D01*
X217142704Y-126316138D01*
X217123654Y-126351777D01*
X217098017Y-126383017D01*
X217066777Y-126408654D01*
X217031138Y-126427704D01*
X216992468Y-126439435D01*
X216946112Y-126444000D01*
X215869888Y-126444000D01*
X215823532Y-126439435D01*
X215784862Y-126427704D01*
X215749223Y-126408654D01*
X215717983Y-126383017D01*
X215692346Y-126351777D01*
X215673296Y-126316138D01*
X215661565Y-126277468D01*
X215657000Y-126231112D01*
X215657000Y-125579888D01*
X215661565Y-125533532D01*
X215673296Y-125494862D01*
X215692346Y-125459223D01*
X215717983Y-125427983D01*
X215749223Y-125402346D01*
X215784862Y-125383296D01*
X215823532Y-125371565D01*
X215869888Y-125367000D01*
X216946112Y-125367000D01*
X216992468Y-125371565D01*
G37*
G36*
X230454468Y-125323065D02*
G01*
X230493138Y-125334796D01*
X230528777Y-125353846D01*
X230560017Y-125379483D01*
X230585654Y-125410723D01*
X230604704Y-125446362D01*
X230616435Y-125485032D01*
X230621000Y-125531388D01*
X230621000Y-126182612D01*
X230616435Y-126228968D01*
X230604704Y-126267638D01*
X230585654Y-126303277D01*
X230560017Y-126334517D01*
X230528777Y-126360154D01*
X230493138Y-126379204D01*
X230454468Y-126390935D01*
X230408112Y-126395500D01*
X229331888Y-126395500D01*
X229285532Y-126390935D01*
X229246862Y-126379204D01*
X229211223Y-126360154D01*
X229179983Y-126334517D01*
X229154346Y-126303277D01*
X229135296Y-126267638D01*
X229123565Y-126228968D01*
X229119000Y-126182612D01*
X229119000Y-125531388D01*
X229123565Y-125485032D01*
X229135296Y-125446362D01*
X229154346Y-125410723D01*
X229179983Y-125379483D01*
X229211223Y-125353846D01*
X229246862Y-125334796D01*
X229285532Y-125323065D01*
X229331888Y-125318500D01*
X230408112Y-125318500D01*
X230454468Y-125323065D01*
G37*
G36*
X202297512Y-123055927D02*
G01*
X202446812Y-123085624D01*
X202610784Y-123153544D01*
X202758354Y-123252147D01*
X202883853Y-123377646D01*
X202982456Y-123525216D01*
X203050376Y-123689188D01*
X203085000Y-123863259D01*
X203085000Y-124040741D01*
X203050376Y-124214812D01*
X202982456Y-124378784D01*
X202883853Y-124526354D01*
X202758354Y-124651853D01*
X202610784Y-124750456D01*
X202446812Y-124818376D01*
X202297512Y-124848073D01*
X202272742Y-124853000D01*
X202095258Y-124853000D01*
X202070488Y-124848073D01*
X201921188Y-124818376D01*
X201757216Y-124750456D01*
X201609646Y-124651853D01*
X201484147Y-124526354D01*
X201385544Y-124378784D01*
X201317624Y-124214812D01*
X201283000Y-124040741D01*
X201283000Y-123863259D01*
X201317624Y-123689188D01*
X201385544Y-123525216D01*
X201484147Y-123377646D01*
X201609646Y-123252147D01*
X201757216Y-123153544D01*
X201921188Y-123085624D01*
X202070488Y-123055927D01*
X202095258Y-123051000D01*
X202272742Y-123051000D01*
X202297512Y-123055927D01*
G37*
G36*
X187057512Y-123055927D02*
G01*
X187206812Y-123085624D01*
X187370784Y-123153544D01*
X187518354Y-123252147D01*
X187643853Y-123377646D01*
X187742456Y-123525216D01*
X187810376Y-123689188D01*
X187845000Y-123863259D01*
X187845000Y-124040741D01*
X187810376Y-124214812D01*
X187742456Y-124378784D01*
X187643853Y-124526354D01*
X187518354Y-124651853D01*
X187370784Y-124750456D01*
X187206812Y-124818376D01*
X187057512Y-124848073D01*
X187032742Y-124853000D01*
X186855258Y-124853000D01*
X186830488Y-124848073D01*
X186681188Y-124818376D01*
X186517216Y-124750456D01*
X186369646Y-124651853D01*
X186244147Y-124526354D01*
X186145544Y-124378784D01*
X186077624Y-124214812D01*
X186043000Y-124040741D01*
X186043000Y-123863259D01*
X186077624Y-123689188D01*
X186145544Y-123525216D01*
X186244147Y-123377646D01*
X186369646Y-123252147D01*
X186517216Y-123153544D01*
X186681188Y-123085624D01*
X186830488Y-123055927D01*
X186855258Y-123051000D01*
X187032742Y-123051000D01*
X187057512Y-123055927D01*
G37*
G36*
X157720512Y-123055927D02*
G01*
X157869812Y-123085624D01*
X158033784Y-123153544D01*
X158181354Y-123252147D01*
X158306853Y-123377646D01*
X158405456Y-123525216D01*
X158473376Y-123689188D01*
X158508000Y-123863259D01*
X158508000Y-124040741D01*
X158473376Y-124214812D01*
X158405456Y-124378784D01*
X158306853Y-124526354D01*
X158181354Y-124651853D01*
X158033784Y-124750456D01*
X157869812Y-124818376D01*
X157720512Y-124848073D01*
X157695742Y-124853000D01*
X157518258Y-124853000D01*
X157493488Y-124848073D01*
X157344188Y-124818376D01*
X157180216Y-124750456D01*
X157032646Y-124651853D01*
X156907147Y-124526354D01*
X156808544Y-124378784D01*
X156740624Y-124214812D01*
X156706000Y-124040741D01*
X156706000Y-123863259D01*
X156740624Y-123689188D01*
X156808544Y-123525216D01*
X156907147Y-123377646D01*
X157032646Y-123252147D01*
X157180216Y-123153544D01*
X157344188Y-123085624D01*
X157493488Y-123055927D01*
X157518258Y-123051000D01*
X157695742Y-123051000D01*
X157720512Y-123055927D01*
G37*
G36*
X184517512Y-123055927D02*
G01*
X184666812Y-123085624D01*
X184830784Y-123153544D01*
X184978354Y-123252147D01*
X185103853Y-123377646D01*
X185202456Y-123525216D01*
X185270376Y-123689188D01*
X185305000Y-123863259D01*
X185305000Y-124040741D01*
X185270376Y-124214812D01*
X185202456Y-124378784D01*
X185103853Y-124526354D01*
X184978354Y-124651853D01*
X184830784Y-124750456D01*
X184666812Y-124818376D01*
X184517512Y-124848073D01*
X184492742Y-124853000D01*
X184315258Y-124853000D01*
X184290488Y-124848073D01*
X184141188Y-124818376D01*
X183977216Y-124750456D01*
X183829646Y-124651853D01*
X183704147Y-124526354D01*
X183605544Y-124378784D01*
X183537624Y-124214812D01*
X183503000Y-124040741D01*
X183503000Y-123863259D01*
X183537624Y-123689188D01*
X183605544Y-123525216D01*
X183704147Y-123377646D01*
X183829646Y-123252147D01*
X183977216Y-123153544D01*
X184141188Y-123085624D01*
X184290488Y-123055927D01*
X184315258Y-123051000D01*
X184492742Y-123051000D01*
X184517512Y-123055927D01*
G37*
G36*
X181977512Y-123055927D02*
G01*
X182126812Y-123085624D01*
X182290784Y-123153544D01*
X182438354Y-123252147D01*
X182563853Y-123377646D01*
X182662456Y-123525216D01*
X182730376Y-123689188D01*
X182765000Y-123863259D01*
X182765000Y-124040741D01*
X182730376Y-124214812D01*
X182662456Y-124378784D01*
X182563853Y-124526354D01*
X182438354Y-124651853D01*
X182290784Y-124750456D01*
X182126812Y-124818376D01*
X181977512Y-124848073D01*
X181952742Y-124853000D01*
X181775258Y-124853000D01*
X181750488Y-124848073D01*
X181601188Y-124818376D01*
X181437216Y-124750456D01*
X181289646Y-124651853D01*
X181164147Y-124526354D01*
X181065544Y-124378784D01*
X180997624Y-124214812D01*
X180963000Y-124040741D01*
X180963000Y-123863259D01*
X180997624Y-123689188D01*
X181065544Y-123525216D01*
X181164147Y-123377646D01*
X181289646Y-123252147D01*
X181437216Y-123153544D01*
X181601188Y-123085624D01*
X181750488Y-123055927D01*
X181775258Y-123051000D01*
X181952742Y-123051000D01*
X181977512Y-123055927D01*
G37*
G36*
X189597512Y-123055927D02*
G01*
X189746812Y-123085624D01*
X189910784Y-123153544D01*
X190058354Y-123252147D01*
X190183853Y-123377646D01*
X190282456Y-123525216D01*
X190350376Y-123689188D01*
X190385000Y-123863259D01*
X190385000Y-124040741D01*
X190350376Y-124214812D01*
X190282456Y-124378784D01*
X190183853Y-124526354D01*
X190058354Y-124651853D01*
X189910784Y-124750456D01*
X189746812Y-124818376D01*
X189597512Y-124848073D01*
X189572742Y-124853000D01*
X189395258Y-124853000D01*
X189370488Y-124848073D01*
X189221188Y-124818376D01*
X189057216Y-124750456D01*
X188909646Y-124651853D01*
X188784147Y-124526354D01*
X188685544Y-124378784D01*
X188617624Y-124214812D01*
X188583000Y-124040741D01*
X188583000Y-123863259D01*
X188617624Y-123689188D01*
X188685544Y-123525216D01*
X188784147Y-123377646D01*
X188909646Y-123252147D01*
X189057216Y-123153544D01*
X189221188Y-123085624D01*
X189370488Y-123055927D01*
X189395258Y-123051000D01*
X189572742Y-123051000D01*
X189597512Y-123055927D01*
G37*
G36*
X162800512Y-123055927D02*
G01*
X162949812Y-123085624D01*
X163113784Y-123153544D01*
X163261354Y-123252147D01*
X163386853Y-123377646D01*
X163485456Y-123525216D01*
X163553376Y-123689188D01*
X163588000Y-123863259D01*
X163588000Y-124040741D01*
X163553376Y-124214812D01*
X163485456Y-124378784D01*
X163386853Y-124526354D01*
X163261354Y-124651853D01*
X163113784Y-124750456D01*
X162949812Y-124818376D01*
X162800512Y-124848073D01*
X162775742Y-124853000D01*
X162598258Y-124853000D01*
X162573488Y-124848073D01*
X162424188Y-124818376D01*
X162260216Y-124750456D01*
X162112646Y-124651853D01*
X161987147Y-124526354D01*
X161888544Y-124378784D01*
X161820624Y-124214812D01*
X161786000Y-124040741D01*
X161786000Y-123863259D01*
X161820624Y-123689188D01*
X161888544Y-123525216D01*
X161987147Y-123377646D01*
X162112646Y-123252147D01*
X162260216Y-123153544D01*
X162424188Y-123085624D01*
X162573488Y-123055927D01*
X162598258Y-123051000D01*
X162775742Y-123051000D01*
X162800512Y-123055927D01*
G37*
G36*
X165340512Y-123055927D02*
G01*
X165489812Y-123085624D01*
X165653784Y-123153544D01*
X165801354Y-123252147D01*
X165926853Y-123377646D01*
X166025456Y-123525216D01*
X166093376Y-123689188D01*
X166128000Y-123863259D01*
X166128000Y-124040741D01*
X166093376Y-124214812D01*
X166025456Y-124378784D01*
X165926853Y-124526354D01*
X165801354Y-124651853D01*
X165653784Y-124750456D01*
X165489812Y-124818376D01*
X165340512Y-124848073D01*
X165315742Y-124853000D01*
X165138258Y-124853000D01*
X165113488Y-124848073D01*
X164964188Y-124818376D01*
X164800216Y-124750456D01*
X164652646Y-124651853D01*
X164527147Y-124526354D01*
X164428544Y-124378784D01*
X164360624Y-124214812D01*
X164326000Y-124040741D01*
X164326000Y-123863259D01*
X164360624Y-123689188D01*
X164428544Y-123525216D01*
X164527147Y-123377646D01*
X164652646Y-123252147D01*
X164800216Y-123153544D01*
X164964188Y-123085624D01*
X165113488Y-123055927D01*
X165138258Y-123051000D01*
X165315742Y-123051000D01*
X165340512Y-123055927D01*
G37*
G36*
X167880512Y-123055927D02*
G01*
X168029812Y-123085624D01*
X168193784Y-123153544D01*
X168341354Y-123252147D01*
X168466853Y-123377646D01*
X168565456Y-123525216D01*
X168633376Y-123689188D01*
X168668000Y-123863259D01*
X168668000Y-124040741D01*
X168633376Y-124214812D01*
X168565456Y-124378784D01*
X168466853Y-124526354D01*
X168341354Y-124651853D01*
X168193784Y-124750456D01*
X168029812Y-124818376D01*
X167880512Y-124848073D01*
X167855742Y-124853000D01*
X167678258Y-124853000D01*
X167653488Y-124848073D01*
X167504188Y-124818376D01*
X167340216Y-124750456D01*
X167192646Y-124651853D01*
X167067147Y-124526354D01*
X166968544Y-124378784D01*
X166900624Y-124214812D01*
X166866000Y-124040741D01*
X166866000Y-123863259D01*
X166900624Y-123689188D01*
X166968544Y-123525216D01*
X167067147Y-123377646D01*
X167192646Y-123252147D01*
X167340216Y-123153544D01*
X167504188Y-123085624D01*
X167653488Y-123055927D01*
X167678258Y-123051000D01*
X167855742Y-123051000D01*
X167880512Y-123055927D01*
G37*
G36*
X155180512Y-123055927D02*
G01*
X155329812Y-123085624D01*
X155493784Y-123153544D01*
X155641354Y-123252147D01*
X155766853Y-123377646D01*
X155865456Y-123525216D01*
X155933376Y-123689188D01*
X155968000Y-123863259D01*
X155968000Y-124040741D01*
X155933376Y-124214812D01*
X155865456Y-124378784D01*
X155766853Y-124526354D01*
X155641354Y-124651853D01*
X155493784Y-124750456D01*
X155329812Y-124818376D01*
X155180512Y-124848073D01*
X155155742Y-124853000D01*
X154978258Y-124853000D01*
X154953488Y-124848073D01*
X154804188Y-124818376D01*
X154640216Y-124750456D01*
X154492646Y-124651853D01*
X154367147Y-124526354D01*
X154268544Y-124378784D01*
X154200624Y-124214812D01*
X154166000Y-124040741D01*
X154166000Y-123863259D01*
X154200624Y-123689188D01*
X154268544Y-123525216D01*
X154367147Y-123377646D01*
X154492646Y-123252147D01*
X154640216Y-123153544D01*
X154804188Y-123085624D01*
X154953488Y-123055927D01*
X154978258Y-123051000D01*
X155155742Y-123051000D01*
X155180512Y-123055927D01*
G37*
G36*
X172960512Y-123055927D02*
G01*
X173109812Y-123085624D01*
X173273784Y-123153544D01*
X173421354Y-123252147D01*
X173546853Y-123377646D01*
X173645456Y-123525216D01*
X173713376Y-123689188D01*
X173748000Y-123863259D01*
X173748000Y-124040741D01*
X173713376Y-124214812D01*
X173645456Y-124378784D01*
X173546853Y-124526354D01*
X173421354Y-124651853D01*
X173273784Y-124750456D01*
X173109812Y-124818376D01*
X172960512Y-124848073D01*
X172935742Y-124853000D01*
X172758258Y-124853000D01*
X172733488Y-124848073D01*
X172584188Y-124818376D01*
X172420216Y-124750456D01*
X172272646Y-124651853D01*
X172147147Y-124526354D01*
X172048544Y-124378784D01*
X171980624Y-124214812D01*
X171946000Y-124040741D01*
X171946000Y-123863259D01*
X171980624Y-123689188D01*
X172048544Y-123525216D01*
X172147147Y-123377646D01*
X172272646Y-123252147D01*
X172420216Y-123153544D01*
X172584188Y-123085624D01*
X172733488Y-123055927D01*
X172758258Y-123051000D01*
X172935742Y-123051000D01*
X172960512Y-123055927D01*
G37*
G36*
X175500512Y-123055927D02*
G01*
X175649812Y-123085624D01*
X175813784Y-123153544D01*
X175961354Y-123252147D01*
X176086853Y-123377646D01*
X176185456Y-123525216D01*
X176253376Y-123689188D01*
X176288000Y-123863259D01*
X176288000Y-124040741D01*
X176253376Y-124214812D01*
X176185456Y-124378784D01*
X176086853Y-124526354D01*
X175961354Y-124651853D01*
X175813784Y-124750456D01*
X175649812Y-124818376D01*
X175500512Y-124848073D01*
X175475742Y-124853000D01*
X175298258Y-124853000D01*
X175273488Y-124848073D01*
X175124188Y-124818376D01*
X174960216Y-124750456D01*
X174812646Y-124651853D01*
X174687147Y-124526354D01*
X174588544Y-124378784D01*
X174520624Y-124214812D01*
X174486000Y-124040741D01*
X174486000Y-123863259D01*
X174520624Y-123689188D01*
X174588544Y-123525216D01*
X174687147Y-123377646D01*
X174812646Y-123252147D01*
X174960216Y-123153544D01*
X175124188Y-123085624D01*
X175273488Y-123055927D01*
X175298258Y-123051000D01*
X175475742Y-123051000D01*
X175500512Y-123055927D01*
G37*
G36*
X178040512Y-123055927D02*
G01*
X178189812Y-123085624D01*
X178353784Y-123153544D01*
X178501354Y-123252147D01*
X178626853Y-123377646D01*
X178725456Y-123525216D01*
X178793376Y-123689188D01*
X178828000Y-123863259D01*
X178828000Y-124040741D01*
X178793376Y-124214812D01*
X178725456Y-124378784D01*
X178626853Y-124526354D01*
X178501354Y-124651853D01*
X178353784Y-124750456D01*
X178189812Y-124818376D01*
X178040512Y-124848073D01*
X178015742Y-124853000D01*
X177838258Y-124853000D01*
X177813488Y-124848073D01*
X177664188Y-124818376D01*
X177500216Y-124750456D01*
X177352646Y-124651853D01*
X177227147Y-124526354D01*
X177128544Y-124378784D01*
X177060624Y-124214812D01*
X177026000Y-124040741D01*
X177026000Y-123863259D01*
X177060624Y-123689188D01*
X177128544Y-123525216D01*
X177227147Y-123377646D01*
X177352646Y-123252147D01*
X177500216Y-123153544D01*
X177664188Y-123085624D01*
X177813488Y-123055927D01*
X177838258Y-123051000D01*
X178015742Y-123051000D01*
X178040512Y-123055927D01*
G37*
G36*
X204837512Y-123055927D02*
G01*
X204986812Y-123085624D01*
X205150784Y-123153544D01*
X205298354Y-123252147D01*
X205423853Y-123377646D01*
X205522456Y-123525216D01*
X205590376Y-123689188D01*
X205625000Y-123863259D01*
X205625000Y-124040741D01*
X205590376Y-124214812D01*
X205522456Y-124378784D01*
X205423853Y-124526354D01*
X205298354Y-124651853D01*
X205150784Y-124750456D01*
X204986812Y-124818376D01*
X204837512Y-124848073D01*
X204812742Y-124853000D01*
X204635258Y-124853000D01*
X204610488Y-124848073D01*
X204461188Y-124818376D01*
X204297216Y-124750456D01*
X204149646Y-124651853D01*
X204024147Y-124526354D01*
X203925544Y-124378784D01*
X203857624Y-124214812D01*
X203823000Y-124040741D01*
X203823000Y-123863259D01*
X203857624Y-123689188D01*
X203925544Y-123525216D01*
X204024147Y-123377646D01*
X204149646Y-123252147D01*
X204297216Y-123153544D01*
X204461188Y-123085624D01*
X204610488Y-123055927D01*
X204635258Y-123051000D01*
X204812742Y-123051000D01*
X204837512Y-123055927D01*
G37*
G36*
X199757512Y-123055927D02*
G01*
X199906812Y-123085624D01*
X200070784Y-123153544D01*
X200218354Y-123252147D01*
X200343853Y-123377646D01*
X200442456Y-123525216D01*
X200510376Y-123689188D01*
X200545000Y-123863259D01*
X200545000Y-124040741D01*
X200510376Y-124214812D01*
X200442456Y-124378784D01*
X200343853Y-124526354D01*
X200218354Y-124651853D01*
X200070784Y-124750456D01*
X199906812Y-124818376D01*
X199757512Y-124848073D01*
X199732742Y-124853000D01*
X199555258Y-124853000D01*
X199530488Y-124848073D01*
X199381188Y-124818376D01*
X199217216Y-124750456D01*
X199069646Y-124651853D01*
X198944147Y-124526354D01*
X198845544Y-124378784D01*
X198777624Y-124214812D01*
X198743000Y-124040741D01*
X198743000Y-123863259D01*
X198777624Y-123689188D01*
X198845544Y-123525216D01*
X198944147Y-123377646D01*
X199069646Y-123252147D01*
X199217216Y-123153544D01*
X199381188Y-123085624D01*
X199530488Y-123055927D01*
X199555258Y-123051000D01*
X199732742Y-123051000D01*
X199757512Y-123055927D01*
G37*
G36*
X197217512Y-123055927D02*
G01*
X197366812Y-123085624D01*
X197530784Y-123153544D01*
X197678354Y-123252147D01*
X197803853Y-123377646D01*
X197902456Y-123525216D01*
X197970376Y-123689188D01*
X198005000Y-123863259D01*
X198005000Y-124040741D01*
X197970376Y-124214812D01*
X197902456Y-124378784D01*
X197803853Y-124526354D01*
X197678354Y-124651853D01*
X197530784Y-124750456D01*
X197366812Y-124818376D01*
X197217512Y-124848073D01*
X197192742Y-124853000D01*
X197015258Y-124853000D01*
X196990488Y-124848073D01*
X196841188Y-124818376D01*
X196677216Y-124750456D01*
X196529646Y-124651853D01*
X196404147Y-124526354D01*
X196305544Y-124378784D01*
X196237624Y-124214812D01*
X196203000Y-124040741D01*
X196203000Y-123863259D01*
X196237624Y-123689188D01*
X196305544Y-123525216D01*
X196404147Y-123377646D01*
X196529646Y-123252147D01*
X196677216Y-123153544D01*
X196841188Y-123085624D01*
X196990488Y-123055927D01*
X197015258Y-123051000D01*
X197192742Y-123051000D01*
X197217512Y-123055927D01*
G37*
G36*
X194677512Y-123055927D02*
G01*
X194826812Y-123085624D01*
X194990784Y-123153544D01*
X195138354Y-123252147D01*
X195263853Y-123377646D01*
X195362456Y-123525216D01*
X195430376Y-123689188D01*
X195465000Y-123863259D01*
X195465000Y-124040741D01*
X195430376Y-124214812D01*
X195362456Y-124378784D01*
X195263853Y-124526354D01*
X195138354Y-124651853D01*
X194990784Y-124750456D01*
X194826812Y-124818376D01*
X194677512Y-124848073D01*
X194652742Y-124853000D01*
X194475258Y-124853000D01*
X194450488Y-124848073D01*
X194301188Y-124818376D01*
X194137216Y-124750456D01*
X193989646Y-124651853D01*
X193864147Y-124526354D01*
X193765544Y-124378784D01*
X193697624Y-124214812D01*
X193663000Y-124040741D01*
X193663000Y-123863259D01*
X193697624Y-123689188D01*
X193765544Y-123525216D01*
X193864147Y-123377646D01*
X193989646Y-123252147D01*
X194137216Y-123153544D01*
X194301188Y-123085624D01*
X194450488Y-123055927D01*
X194475258Y-123051000D01*
X194652742Y-123051000D01*
X194677512Y-123055927D01*
G37*
G36*
X192137512Y-123055927D02*
G01*
X192286812Y-123085624D01*
X192450784Y-123153544D01*
X192598354Y-123252147D01*
X192723853Y-123377646D01*
X192822456Y-123525216D01*
X192890376Y-123689188D01*
X192925000Y-123863259D01*
X192925000Y-124040741D01*
X192890376Y-124214812D01*
X192822456Y-124378784D01*
X192723853Y-124526354D01*
X192598354Y-124651853D01*
X192450784Y-124750456D01*
X192286812Y-124818376D01*
X192137512Y-124848073D01*
X192112742Y-124853000D01*
X191935258Y-124853000D01*
X191910488Y-124848073D01*
X191761188Y-124818376D01*
X191597216Y-124750456D01*
X191449646Y-124651853D01*
X191324147Y-124526354D01*
X191225544Y-124378784D01*
X191157624Y-124214812D01*
X191123000Y-124040741D01*
X191123000Y-123863259D01*
X191157624Y-123689188D01*
X191225544Y-123525216D01*
X191324147Y-123377646D01*
X191449646Y-123252147D01*
X191597216Y-123153544D01*
X191761188Y-123085624D01*
X191910488Y-123055927D01*
X191935258Y-123051000D01*
X192112742Y-123051000D01*
X192137512Y-123055927D01*
G37*
G36*
X170420512Y-123055927D02*
G01*
X170569812Y-123085624D01*
X170733784Y-123153544D01*
X170881354Y-123252147D01*
X171006853Y-123377646D01*
X171105456Y-123525216D01*
X171173376Y-123689188D01*
X171208000Y-123863259D01*
X171208000Y-124040741D01*
X171173376Y-124214812D01*
X171105456Y-124378784D01*
X171006853Y-124526354D01*
X170881354Y-124651853D01*
X170733784Y-124750456D01*
X170569812Y-124818376D01*
X170420512Y-124848073D01*
X170395742Y-124853000D01*
X170218258Y-124853000D01*
X170193488Y-124848073D01*
X170044188Y-124818376D01*
X169880216Y-124750456D01*
X169732646Y-124651853D01*
X169607147Y-124526354D01*
X169508544Y-124378784D01*
X169440624Y-124214812D01*
X169406000Y-124040741D01*
X169406000Y-123863259D01*
X169440624Y-123689188D01*
X169508544Y-123525216D01*
X169607147Y-123377646D01*
X169732646Y-123252147D01*
X169880216Y-123153544D01*
X170044188Y-123085624D01*
X170193488Y-123055927D01*
X170218258Y-123051000D01*
X170395742Y-123051000D01*
X170420512Y-123055927D01*
G37*
G36*
X160260512Y-123055927D02*
G01*
X160409812Y-123085624D01*
X160573784Y-123153544D01*
X160721354Y-123252147D01*
X160846853Y-123377646D01*
X160945456Y-123525216D01*
X161013376Y-123689188D01*
X161048000Y-123863259D01*
X161048000Y-124040741D01*
X161013376Y-124214812D01*
X160945456Y-124378784D01*
X160846853Y-124526354D01*
X160721354Y-124651853D01*
X160573784Y-124750456D01*
X160409812Y-124818376D01*
X160260512Y-124848073D01*
X160235742Y-124853000D01*
X160058258Y-124853000D01*
X160033488Y-124848073D01*
X159884188Y-124818376D01*
X159720216Y-124750456D01*
X159572646Y-124651853D01*
X159447147Y-124526354D01*
X159348544Y-124378784D01*
X159280624Y-124214812D01*
X159246000Y-124040741D01*
X159246000Y-123863259D01*
X159280624Y-123689188D01*
X159348544Y-123525216D01*
X159447147Y-123377646D01*
X159572646Y-123252147D01*
X159720216Y-123153544D01*
X159884188Y-123085624D01*
X160033488Y-123055927D01*
X160058258Y-123051000D01*
X160235742Y-123051000D01*
X160260512Y-123055927D01*
G37*
G36*
X216992468Y-123496565D02*
G01*
X217031138Y-123508296D01*
X217066777Y-123527346D01*
X217098017Y-123552983D01*
X217123654Y-123584223D01*
X217142704Y-123619862D01*
X217154435Y-123658532D01*
X217159000Y-123704888D01*
X217159000Y-124356112D01*
X217154435Y-124402468D01*
X217142704Y-124441138D01*
X217123654Y-124476777D01*
X217098017Y-124508017D01*
X217066777Y-124533654D01*
X217031138Y-124552704D01*
X216992468Y-124564435D01*
X216946112Y-124569000D01*
X215869888Y-124569000D01*
X215823532Y-124564435D01*
X215784862Y-124552704D01*
X215749223Y-124533654D01*
X215717983Y-124508017D01*
X215692346Y-124476777D01*
X215673296Y-124441138D01*
X215661565Y-124402468D01*
X215657000Y-124356112D01*
X215657000Y-123704888D01*
X215661565Y-123658532D01*
X215673296Y-123619862D01*
X215692346Y-123584223D01*
X215717983Y-123552983D01*
X215749223Y-123527346D01*
X215784862Y-123508296D01*
X215823532Y-123496565D01*
X215869888Y-123492000D01*
X216946112Y-123492000D01*
X216992468Y-123496565D01*
G37*
G36*
X213817468Y-123496565D02*
G01*
X213856138Y-123508296D01*
X213891777Y-123527346D01*
X213923017Y-123552983D01*
X213948654Y-123584223D01*
X213967704Y-123619862D01*
X213979435Y-123658532D01*
X213984000Y-123704888D01*
X213984000Y-124356112D01*
X213979435Y-124402468D01*
X213967704Y-124441138D01*
X213948654Y-124476777D01*
X213923017Y-124508017D01*
X213891777Y-124533654D01*
X213856138Y-124552704D01*
X213817468Y-124564435D01*
X213771112Y-124569000D01*
X212694888Y-124569000D01*
X212648532Y-124564435D01*
X212609862Y-124552704D01*
X212574223Y-124533654D01*
X212542983Y-124508017D01*
X212517346Y-124476777D01*
X212498296Y-124441138D01*
X212486565Y-124402468D01*
X212482000Y-124356112D01*
X212482000Y-123704888D01*
X212486565Y-123658532D01*
X212498296Y-123619862D01*
X212517346Y-123584223D01*
X212542983Y-123552983D01*
X212574223Y-123527346D01*
X212609862Y-123508296D01*
X212648532Y-123496565D01*
X212694888Y-123492000D01*
X213771112Y-123492000D01*
X213817468Y-123496565D01*
G37*
G36*
X227787468Y-123496565D02*
G01*
X227826138Y-123508296D01*
X227861777Y-123527346D01*
X227893017Y-123552983D01*
X227918654Y-123584223D01*
X227937704Y-123619862D01*
X227949435Y-123658532D01*
X227954000Y-123704888D01*
X227954000Y-124356112D01*
X227949435Y-124402468D01*
X227937704Y-124441138D01*
X227918654Y-124476777D01*
X227893017Y-124508017D01*
X227861777Y-124533654D01*
X227826138Y-124552704D01*
X227787468Y-124564435D01*
X227741112Y-124569000D01*
X226664888Y-124569000D01*
X226618532Y-124564435D01*
X226579862Y-124552704D01*
X226544223Y-124533654D01*
X226512983Y-124508017D01*
X226487346Y-124476777D01*
X226468296Y-124441138D01*
X226456565Y-124402468D01*
X226452000Y-124356112D01*
X226452000Y-123704888D01*
X226456565Y-123658532D01*
X226468296Y-123619862D01*
X226487346Y-123584223D01*
X226512983Y-123552983D01*
X226544223Y-123527346D01*
X226579862Y-123508296D01*
X226618532Y-123496565D01*
X226664888Y-123492000D01*
X227741112Y-123492000D01*
X227787468Y-123496565D01*
G37*
G36*
X230454468Y-123448065D02*
G01*
X230493138Y-123459796D01*
X230528777Y-123478846D01*
X230560017Y-123504483D01*
X230585654Y-123535723D01*
X230604704Y-123571362D01*
X230616435Y-123610032D01*
X230621000Y-123656388D01*
X230621000Y-124307612D01*
X230616435Y-124353968D01*
X230604704Y-124392638D01*
X230585654Y-124428277D01*
X230560017Y-124459517D01*
X230528777Y-124485154D01*
X230493138Y-124504204D01*
X230454468Y-124515935D01*
X230408112Y-124520500D01*
X229331888Y-124520500D01*
X229285532Y-124515935D01*
X229246862Y-124504204D01*
X229211223Y-124485154D01*
X229179983Y-124459517D01*
X229154346Y-124428277D01*
X229135296Y-124392638D01*
X229123565Y-124353968D01*
X229119000Y-124307612D01*
X229119000Y-123656388D01*
X229123565Y-123610032D01*
X229135296Y-123571362D01*
X229154346Y-123535723D01*
X229179983Y-123504483D01*
X229211223Y-123478846D01*
X229246862Y-123459796D01*
X229285532Y-123448065D01*
X229331888Y-123443500D01*
X230408112Y-123443500D01*
X230454468Y-123448065D01*
G37*
G36*
X153301000Y-121424000D02*
G01*
X151499000Y-121424000D01*
X151499000Y-119622000D01*
X153301000Y-119622000D01*
X153301000Y-121424000D01*
G37*
G36*
X150571968Y-119853565D02*
G01*
X150610638Y-119865296D01*
X150646277Y-119884346D01*
X150677517Y-119909983D01*
X150703154Y-119941223D01*
X150722204Y-119976862D01*
X150733935Y-120015532D01*
X150738500Y-120061888D01*
X150738500Y-121138112D01*
X150733935Y-121184468D01*
X150722204Y-121223138D01*
X150703154Y-121258777D01*
X150677517Y-121290017D01*
X150646277Y-121315654D01*
X150610638Y-121334704D01*
X150571968Y-121346435D01*
X150525612Y-121351000D01*
X149874388Y-121351000D01*
X149828032Y-121346435D01*
X149789362Y-121334704D01*
X149753723Y-121315654D01*
X149722483Y-121290017D01*
X149696846Y-121258777D01*
X149677796Y-121223138D01*
X149666065Y-121184468D01*
X149661500Y-121138112D01*
X149661500Y-120061888D01*
X149666065Y-120015532D01*
X149677796Y-119976862D01*
X149696846Y-119941223D01*
X149722483Y-119909983D01*
X149753723Y-119884346D01*
X149789362Y-119865296D01*
X149828032Y-119853565D01*
X149874388Y-119849000D01*
X150525612Y-119849000D01*
X150571968Y-119853565D01*
G37*
G36*
X148696968Y-119853565D02*
G01*
X148735638Y-119865296D01*
X148771277Y-119884346D01*
X148802517Y-119909983D01*
X148828154Y-119941223D01*
X148847204Y-119976862D01*
X148858935Y-120015532D01*
X148863500Y-120061888D01*
X148863500Y-121138112D01*
X148858935Y-121184468D01*
X148847204Y-121223138D01*
X148828154Y-121258777D01*
X148802517Y-121290017D01*
X148771277Y-121315654D01*
X148735638Y-121334704D01*
X148696968Y-121346435D01*
X148650612Y-121351000D01*
X147999388Y-121351000D01*
X147953032Y-121346435D01*
X147914362Y-121334704D01*
X147878723Y-121315654D01*
X147847483Y-121290017D01*
X147821846Y-121258777D01*
X147802796Y-121223138D01*
X147791065Y-121184468D01*
X147786500Y-121138112D01*
X147786500Y-120061888D01*
X147791065Y-120015532D01*
X147802796Y-119976862D01*
X147821846Y-119941223D01*
X147847483Y-119909983D01*
X147878723Y-119884346D01*
X147914362Y-119865296D01*
X147953032Y-119853565D01*
X147999388Y-119849000D01*
X148650612Y-119849000D01*
X148696968Y-119853565D01*
G37*
G36*
X173786238Y-113404471D02*
G01*
X173786244Y-113404476D01*
X174989727Y-114607959D01*
X174989732Y-114607965D01*
X175483294Y-115101527D01*
X175483300Y-115101532D01*
X176121098Y-115739330D01*
X176121103Y-115739336D01*
X176614665Y-116232898D01*
X176614671Y-116232903D01*
X177252469Y-116870701D01*
X177252474Y-116870707D01*
X177746036Y-117364269D01*
X177746042Y-117364274D01*
X178949525Y-118567757D01*
X178949530Y-118567763D01*
X179426827Y-119045060D01*
X178294042Y-120177845D01*
X177744627Y-119628430D01*
X177744622Y-119628424D01*
X176685375Y-118569177D01*
X176685369Y-118569172D01*
X176047571Y-117931374D01*
X176047566Y-117931368D01*
X175554004Y-117437806D01*
X175553998Y-117437801D01*
X174916200Y-116800003D01*
X174916195Y-116799997D01*
X174422633Y-116306435D01*
X174422627Y-116306430D01*
X173784829Y-115668632D01*
X173784824Y-115668626D01*
X172725577Y-114609379D01*
X172725571Y-114609374D01*
X172176155Y-114059958D01*
X173308940Y-112927173D01*
X173786238Y-113404471D01*
G37*
G36*
X187487845Y-114059958D02*
G01*
X186938424Y-114609379D01*
X186372738Y-115175064D01*
X185879177Y-115668626D01*
X182978626Y-118569177D01*
X182412940Y-119134862D01*
X181919379Y-119628424D01*
X181369958Y-120177845D01*
X180237173Y-119045060D01*
X180698206Y-118584027D01*
X180714471Y-118567763D01*
X180714480Y-118567752D01*
X181917954Y-117364278D01*
X181917965Y-117364269D01*
X181934230Y-117348005D01*
X181934229Y-117348004D01*
X182395262Y-116886971D01*
X182395263Y-116886972D01*
X182411527Y-116870707D01*
X182411536Y-116870696D01*
X183049325Y-116232907D01*
X183049336Y-116232898D01*
X183065601Y-116216634D01*
X183065600Y-116216633D01*
X183526633Y-115755600D01*
X183526634Y-115755601D01*
X183542898Y-115739336D01*
X183542907Y-115739325D01*
X184180696Y-115101536D01*
X184180707Y-115101527D01*
X184196972Y-115085263D01*
X184196971Y-115085262D01*
X184658004Y-114624229D01*
X184658005Y-114624230D01*
X184674269Y-114607965D01*
X184674278Y-114607954D01*
X185877752Y-113404480D01*
X185877763Y-113404471D01*
X185894027Y-113388206D01*
X186355060Y-112927173D01*
X187487845Y-114059958D01*
G37*
G36*
X213854512Y-118102927D02*
G01*
X214003812Y-118132624D01*
X214167784Y-118200544D01*
X214315354Y-118299147D01*
X214440853Y-118424646D01*
X214539456Y-118572216D01*
X214607376Y-118736188D01*
X214642000Y-118910259D01*
X214642000Y-119087741D01*
X214607376Y-119261812D01*
X214539456Y-119425784D01*
X214440853Y-119573354D01*
X214315354Y-119698853D01*
X214167784Y-119797456D01*
X214003812Y-119865376D01*
X213858010Y-119894377D01*
X213829742Y-119900000D01*
X213652258Y-119900000D01*
X213623990Y-119894377D01*
X213478188Y-119865376D01*
X213314216Y-119797456D01*
X213166646Y-119698853D01*
X213041147Y-119573354D01*
X212942544Y-119425784D01*
X212874624Y-119261812D01*
X212840000Y-119087741D01*
X212840000Y-118910259D01*
X212874624Y-118736188D01*
X212942544Y-118572216D01*
X213041147Y-118424646D01*
X213166646Y-118299147D01*
X213314216Y-118200544D01*
X213478188Y-118132624D01*
X213627488Y-118102927D01*
X213652258Y-118098000D01*
X213829742Y-118098000D01*
X213854512Y-118102927D01*
G37*
G36*
X211314512Y-118102927D02*
G01*
X211463812Y-118132624D01*
X211627784Y-118200544D01*
X211775354Y-118299147D01*
X211900853Y-118424646D01*
X211999456Y-118572216D01*
X212067376Y-118736188D01*
X212102000Y-118910259D01*
X212102000Y-119087741D01*
X212067376Y-119261812D01*
X211999456Y-119425784D01*
X211900853Y-119573354D01*
X211775354Y-119698853D01*
X211627784Y-119797456D01*
X211463812Y-119865376D01*
X211318010Y-119894377D01*
X211289742Y-119900000D01*
X211112258Y-119900000D01*
X211083990Y-119894377D01*
X210938188Y-119865376D01*
X210774216Y-119797456D01*
X210626646Y-119698853D01*
X210501147Y-119573354D01*
X210402544Y-119425784D01*
X210334624Y-119261812D01*
X210300000Y-119087741D01*
X210300000Y-118910259D01*
X210334624Y-118736188D01*
X210402544Y-118572216D01*
X210501147Y-118424646D01*
X210626646Y-118299147D01*
X210774216Y-118200544D01*
X210938188Y-118132624D01*
X211087488Y-118102927D01*
X211112258Y-118098000D01*
X211289742Y-118098000D01*
X211314512Y-118102927D01*
G37*
G36*
X221347512Y-117975927D02*
G01*
X221496812Y-118005624D01*
X221660784Y-118073544D01*
X221808354Y-118172147D01*
X221933853Y-118297646D01*
X222032456Y-118445216D01*
X222100376Y-118609188D01*
X222121553Y-118715654D01*
X222134642Y-118781456D01*
X222135000Y-118783259D01*
X222135000Y-118960741D01*
X222100376Y-119134812D01*
X222032456Y-119298784D01*
X221933853Y-119446354D01*
X221808354Y-119571853D01*
X221660784Y-119670456D01*
X221496812Y-119738376D01*
X221347512Y-119768073D01*
X221322742Y-119773000D01*
X221145258Y-119773000D01*
X221120488Y-119768073D01*
X220971188Y-119738376D01*
X220807216Y-119670456D01*
X220659646Y-119571853D01*
X220534147Y-119446354D01*
X220435544Y-119298784D01*
X220367624Y-119134812D01*
X220333000Y-118960741D01*
X220333000Y-118783259D01*
X220333359Y-118781456D01*
X220346447Y-118715654D01*
X220367624Y-118609188D01*
X220435544Y-118445216D01*
X220534147Y-118297646D01*
X220659646Y-118172147D01*
X220807216Y-118073544D01*
X220971188Y-118005624D01*
X221120488Y-117975927D01*
X221145258Y-117971000D01*
X221322742Y-117971000D01*
X221347512Y-117975927D01*
G37*
G36*
X236587512Y-117975927D02*
G01*
X236736812Y-118005624D01*
X236900784Y-118073544D01*
X237048354Y-118172147D01*
X237173853Y-118297646D01*
X237272456Y-118445216D01*
X237340376Y-118609188D01*
X237361553Y-118715654D01*
X237374642Y-118781456D01*
X237375000Y-118783259D01*
X237375000Y-118960741D01*
X237340376Y-119134812D01*
X237272456Y-119298784D01*
X237173853Y-119446354D01*
X237048354Y-119571853D01*
X236900784Y-119670456D01*
X236736812Y-119738376D01*
X236587512Y-119768073D01*
X236562742Y-119773000D01*
X236385258Y-119773000D01*
X236360488Y-119768073D01*
X236211188Y-119738376D01*
X236047216Y-119670456D01*
X235899646Y-119571853D01*
X235774147Y-119446354D01*
X235675544Y-119298784D01*
X235607624Y-119134812D01*
X235573000Y-118960741D01*
X235573000Y-118783259D01*
X235573359Y-118781456D01*
X235586447Y-118715654D01*
X235607624Y-118609188D01*
X235675544Y-118445216D01*
X235774147Y-118297646D01*
X235899646Y-118172147D01*
X236047216Y-118073544D01*
X236211188Y-118005624D01*
X236360488Y-117975927D01*
X236385258Y-117971000D01*
X236562742Y-117971000D01*
X236587512Y-117975927D01*
G37*
G36*
X234047512Y-117975927D02*
G01*
X234196812Y-118005624D01*
X234360784Y-118073544D01*
X234508354Y-118172147D01*
X234633853Y-118297646D01*
X234732456Y-118445216D01*
X234800376Y-118609188D01*
X234821553Y-118715654D01*
X234834642Y-118781456D01*
X234835000Y-118783259D01*
X234835000Y-118960741D01*
X234800376Y-119134812D01*
X234732456Y-119298784D01*
X234633853Y-119446354D01*
X234508354Y-119571853D01*
X234360784Y-119670456D01*
X234196812Y-119738376D01*
X234047512Y-119768073D01*
X234022742Y-119773000D01*
X233845258Y-119773000D01*
X233820488Y-119768073D01*
X233671188Y-119738376D01*
X233507216Y-119670456D01*
X233359646Y-119571853D01*
X233234147Y-119446354D01*
X233135544Y-119298784D01*
X233067624Y-119134812D01*
X233033000Y-118960741D01*
X233033000Y-118783259D01*
X233033359Y-118781456D01*
X233046447Y-118715654D01*
X233067624Y-118609188D01*
X233135544Y-118445216D01*
X233234147Y-118297646D01*
X233359646Y-118172147D01*
X233507216Y-118073544D01*
X233671188Y-118005624D01*
X233820488Y-117975927D01*
X233845258Y-117971000D01*
X234022742Y-117971000D01*
X234047512Y-117975927D01*
G37*
G36*
X231507512Y-117975927D02*
G01*
X231656812Y-118005624D01*
X231820784Y-118073544D01*
X231968354Y-118172147D01*
X232093853Y-118297646D01*
X232192456Y-118445216D01*
X232260376Y-118609188D01*
X232281553Y-118715654D01*
X232294642Y-118781456D01*
X232295000Y-118783259D01*
X232295000Y-118960741D01*
X232260376Y-119134812D01*
X232192456Y-119298784D01*
X232093853Y-119446354D01*
X231968354Y-119571853D01*
X231820784Y-119670456D01*
X231656812Y-119738376D01*
X231507512Y-119768073D01*
X231482742Y-119773000D01*
X231305258Y-119773000D01*
X231280488Y-119768073D01*
X231131188Y-119738376D01*
X230967216Y-119670456D01*
X230819646Y-119571853D01*
X230694147Y-119446354D01*
X230595544Y-119298784D01*
X230527624Y-119134812D01*
X230493000Y-118960741D01*
X230493000Y-118783259D01*
X230493359Y-118781456D01*
X230506447Y-118715654D01*
X230527624Y-118609188D01*
X230595544Y-118445216D01*
X230694147Y-118297646D01*
X230819646Y-118172147D01*
X230967216Y-118073544D01*
X231131188Y-118005624D01*
X231280488Y-117975927D01*
X231305258Y-117971000D01*
X231482742Y-117971000D01*
X231507512Y-117975927D01*
G37*
G36*
X218807512Y-117975927D02*
G01*
X218956812Y-118005624D01*
X219120784Y-118073544D01*
X219268354Y-118172147D01*
X219393853Y-118297646D01*
X219492456Y-118445216D01*
X219560376Y-118609188D01*
X219581553Y-118715654D01*
X219594642Y-118781456D01*
X219595000Y-118783259D01*
X219595000Y-118960741D01*
X219560376Y-119134812D01*
X219492456Y-119298784D01*
X219393853Y-119446354D01*
X219268354Y-119571853D01*
X219120784Y-119670456D01*
X218956812Y-119738376D01*
X218807512Y-119768073D01*
X218782742Y-119773000D01*
X218605258Y-119773000D01*
X218580488Y-119768073D01*
X218431188Y-119738376D01*
X218267216Y-119670456D01*
X218119646Y-119571853D01*
X217994147Y-119446354D01*
X217895544Y-119298784D01*
X217827624Y-119134812D01*
X217793000Y-118960741D01*
X217793000Y-118783259D01*
X217793359Y-118781456D01*
X217806447Y-118715654D01*
X217827624Y-118609188D01*
X217895544Y-118445216D01*
X217994147Y-118297646D01*
X218119646Y-118172147D01*
X218267216Y-118073544D01*
X218431188Y-118005624D01*
X218580488Y-117975927D01*
X218605258Y-117971000D01*
X218782742Y-117971000D01*
X218807512Y-117975927D01*
G37*
G36*
X223887512Y-117975927D02*
G01*
X224036812Y-118005624D01*
X224200784Y-118073544D01*
X224348354Y-118172147D01*
X224473853Y-118297646D01*
X224572456Y-118445216D01*
X224640376Y-118609188D01*
X224661553Y-118715654D01*
X224674642Y-118781456D01*
X224675000Y-118783259D01*
X224675000Y-118960741D01*
X224640376Y-119134812D01*
X224572456Y-119298784D01*
X224473853Y-119446354D01*
X224348354Y-119571853D01*
X224200784Y-119670456D01*
X224036812Y-119738376D01*
X223887512Y-119768073D01*
X223862742Y-119773000D01*
X223685258Y-119773000D01*
X223660488Y-119768073D01*
X223511188Y-119738376D01*
X223347216Y-119670456D01*
X223199646Y-119571853D01*
X223074147Y-119446354D01*
X222975544Y-119298784D01*
X222907624Y-119134812D01*
X222873000Y-118960741D01*
X222873000Y-118783259D01*
X222873359Y-118781456D01*
X222886447Y-118715654D01*
X222907624Y-118609188D01*
X222975544Y-118445216D01*
X223074147Y-118297646D01*
X223199646Y-118172147D01*
X223347216Y-118073544D01*
X223511188Y-118005624D01*
X223660488Y-117975927D01*
X223685258Y-117971000D01*
X223862742Y-117971000D01*
X223887512Y-117975927D01*
G37*
G36*
X226427512Y-117975927D02*
G01*
X226576812Y-118005624D01*
X226740784Y-118073544D01*
X226888354Y-118172147D01*
X227013853Y-118297646D01*
X227112456Y-118445216D01*
X227180376Y-118609188D01*
X227201553Y-118715654D01*
X227214642Y-118781456D01*
X227215000Y-118783259D01*
X227215000Y-118960741D01*
X227180376Y-119134812D01*
X227112456Y-119298784D01*
X227013853Y-119446354D01*
X226888354Y-119571853D01*
X226740784Y-119670456D01*
X226576812Y-119738376D01*
X226427512Y-119768073D01*
X226402742Y-119773000D01*
X226225258Y-119773000D01*
X226200488Y-119768073D01*
X226051188Y-119738376D01*
X225887216Y-119670456D01*
X225739646Y-119571853D01*
X225614147Y-119446354D01*
X225515544Y-119298784D01*
X225447624Y-119134812D01*
X225413000Y-118960741D01*
X225413000Y-118783259D01*
X225413359Y-118781456D01*
X225426447Y-118715654D01*
X225447624Y-118609188D01*
X225515544Y-118445216D01*
X225614147Y-118297646D01*
X225739646Y-118172147D01*
X225887216Y-118073544D01*
X226051188Y-118005624D01*
X226200488Y-117975927D01*
X226225258Y-117971000D01*
X226402742Y-117971000D01*
X226427512Y-117975927D01*
G37*
G36*
X228967512Y-117975927D02*
G01*
X229116812Y-118005624D01*
X229280784Y-118073544D01*
X229428354Y-118172147D01*
X229553853Y-118297646D01*
X229652456Y-118445216D01*
X229720376Y-118609188D01*
X229741553Y-118715654D01*
X229754642Y-118781456D01*
X229755000Y-118783259D01*
X229755000Y-118960741D01*
X229720376Y-119134812D01*
X229652456Y-119298784D01*
X229553853Y-119446354D01*
X229428354Y-119571853D01*
X229280784Y-119670456D01*
X229116812Y-119738376D01*
X228967512Y-119768073D01*
X228942742Y-119773000D01*
X228765258Y-119773000D01*
X228740488Y-119768073D01*
X228591188Y-119738376D01*
X228427216Y-119670456D01*
X228279646Y-119571853D01*
X228154147Y-119446354D01*
X228055544Y-119298784D01*
X227987624Y-119134812D01*
X227953000Y-118960741D01*
X227953000Y-118783259D01*
X227953359Y-118781456D01*
X227966447Y-118715654D01*
X227987624Y-118609188D01*
X228055544Y-118445216D01*
X228154147Y-118297646D01*
X228279646Y-118172147D01*
X228427216Y-118073544D01*
X228591188Y-118005624D01*
X228740488Y-117975927D01*
X228765258Y-117971000D01*
X228942742Y-117971000D01*
X228967512Y-117975927D01*
G37*
G36*
X239127512Y-117975927D02*
G01*
X239276812Y-118005624D01*
X239440784Y-118073544D01*
X239588354Y-118172147D01*
X239713853Y-118297646D01*
X239812456Y-118445216D01*
X239880376Y-118609188D01*
X239901553Y-118715654D01*
X239914642Y-118781456D01*
X239915000Y-118783259D01*
X239915000Y-118960741D01*
X239880376Y-119134812D01*
X239812456Y-119298784D01*
X239713853Y-119446354D01*
X239588354Y-119571853D01*
X239440784Y-119670456D01*
X239276812Y-119738376D01*
X239127512Y-119768073D01*
X239102742Y-119773000D01*
X238925258Y-119773000D01*
X238900488Y-119768073D01*
X238751188Y-119738376D01*
X238587216Y-119670456D01*
X238439646Y-119571853D01*
X238314147Y-119446354D01*
X238215544Y-119298784D01*
X238147624Y-119134812D01*
X238113000Y-118960741D01*
X238113000Y-118783259D01*
X238113359Y-118781456D01*
X238126447Y-118715654D01*
X238147624Y-118609188D01*
X238215544Y-118445216D01*
X238314147Y-118297646D01*
X238439646Y-118172147D01*
X238587216Y-118073544D01*
X238751188Y-118005624D01*
X238900488Y-117975927D01*
X238925258Y-117971000D01*
X239102742Y-117971000D01*
X239127512Y-117975927D01*
G37*
G36*
X217055000Y-119773000D02*
G01*
X215253000Y-119773000D01*
X215253000Y-117971000D01*
X217055000Y-117971000D01*
X217055000Y-119773000D01*
G37*
G36*
X152513512Y-117086927D02*
G01*
X152662812Y-117116624D01*
X152826784Y-117184544D01*
X152974354Y-117283147D01*
X153099853Y-117408646D01*
X153198456Y-117556216D01*
X153266376Y-117720188D01*
X153296073Y-117869488D01*
X153301000Y-117894258D01*
X153301000Y-118071742D01*
X153296073Y-118096512D01*
X153266376Y-118245812D01*
X153198456Y-118409784D01*
X153099853Y-118557354D01*
X152974354Y-118682853D01*
X152826784Y-118781456D01*
X152662812Y-118849376D01*
X152513512Y-118879073D01*
X152488742Y-118884000D01*
X152311258Y-118884000D01*
X152286488Y-118879073D01*
X152137188Y-118849376D01*
X151973216Y-118781456D01*
X151825646Y-118682853D01*
X151700147Y-118557354D01*
X151601544Y-118409784D01*
X151533624Y-118245812D01*
X151503927Y-118096512D01*
X151499000Y-118071742D01*
X151499000Y-117894258D01*
X151503927Y-117869488D01*
X151533624Y-117720188D01*
X151601544Y-117556216D01*
X151700147Y-117408646D01*
X151825646Y-117283147D01*
X151973216Y-117184544D01*
X152137188Y-117116624D01*
X152286488Y-117086927D01*
X152311258Y-117082000D01*
X152488742Y-117082000D01*
X152513512Y-117086927D01*
G37*
G36*
X148634468Y-117253565D02*
G01*
X148673138Y-117265296D01*
X148708777Y-117284346D01*
X148740017Y-117309983D01*
X148765654Y-117341223D01*
X148784704Y-117376862D01*
X148796435Y-117415532D01*
X148801000Y-117461888D01*
X148801000Y-118538112D01*
X148796435Y-118584468D01*
X148784704Y-118623138D01*
X148765654Y-118658777D01*
X148740017Y-118690017D01*
X148708777Y-118715654D01*
X148673138Y-118734704D01*
X148634468Y-118746435D01*
X148588112Y-118751000D01*
X147936888Y-118751000D01*
X147890532Y-118746435D01*
X147851862Y-118734704D01*
X147816223Y-118715654D01*
X147784983Y-118690017D01*
X147759346Y-118658777D01*
X147740296Y-118623138D01*
X147728565Y-118584468D01*
X147724000Y-118538112D01*
X147724000Y-117461888D01*
X147728565Y-117415532D01*
X147740296Y-117376862D01*
X147759346Y-117341223D01*
X147784983Y-117309983D01*
X147816223Y-117284346D01*
X147851862Y-117265296D01*
X147890532Y-117253565D01*
X147936888Y-117249000D01*
X148588112Y-117249000D01*
X148634468Y-117253565D01*
G37*
G36*
X150509468Y-117253565D02*
G01*
X150548138Y-117265296D01*
X150583777Y-117284346D01*
X150615017Y-117309983D01*
X150640654Y-117341223D01*
X150659704Y-117376862D01*
X150671435Y-117415532D01*
X150676000Y-117461888D01*
X150676000Y-118538112D01*
X150671435Y-118584468D01*
X150659704Y-118623138D01*
X150640654Y-118658777D01*
X150615017Y-118690017D01*
X150583777Y-118715654D01*
X150548138Y-118734704D01*
X150509468Y-118746435D01*
X150463112Y-118751000D01*
X149811888Y-118751000D01*
X149765532Y-118746435D01*
X149726862Y-118734704D01*
X149691223Y-118715654D01*
X149659983Y-118690017D01*
X149634346Y-118658777D01*
X149615296Y-118623138D01*
X149603565Y-118584468D01*
X149599000Y-118538112D01*
X149599000Y-117461888D01*
X149603565Y-117415532D01*
X149615296Y-117376862D01*
X149634346Y-117341223D01*
X149659983Y-117309983D01*
X149691223Y-117284346D01*
X149726862Y-117265296D01*
X149765532Y-117253565D01*
X149811888Y-117249000D01*
X150463112Y-117249000D01*
X150509468Y-117253565D01*
G37*
G36*
X213854512Y-115562927D02*
G01*
X214003812Y-115592624D01*
X214167784Y-115660544D01*
X214315354Y-115759147D01*
X214440853Y-115884646D01*
X214539456Y-116032216D01*
X214607376Y-116196188D01*
X214642000Y-116370259D01*
X214642000Y-116547741D01*
X214607376Y-116721812D01*
X214539456Y-116885784D01*
X214440853Y-117033354D01*
X214315354Y-117158853D01*
X214167784Y-117257456D01*
X214003812Y-117325376D01*
X213854512Y-117355073D01*
X213829742Y-117360000D01*
X213652258Y-117360000D01*
X213627488Y-117355073D01*
X213478188Y-117325376D01*
X213314216Y-117257456D01*
X213166646Y-117158853D01*
X213041147Y-117033354D01*
X212942544Y-116885784D01*
X212874624Y-116721812D01*
X212840000Y-116547741D01*
X212840000Y-116370259D01*
X212874624Y-116196188D01*
X212942544Y-116032216D01*
X213041147Y-115884646D01*
X213166646Y-115759147D01*
X213314216Y-115660544D01*
X213478188Y-115592624D01*
X213627488Y-115562927D01*
X213652258Y-115558000D01*
X213829742Y-115558000D01*
X213854512Y-115562927D01*
G37*
G36*
X212102000Y-117360000D02*
G01*
X210300000Y-117360000D01*
X210300000Y-115558000D01*
X212102000Y-115558000D01*
X212102000Y-117360000D01*
G37*
G36*
X231554513Y-115435927D02*
G01*
X231703813Y-115465624D01*
X231867785Y-115533544D01*
X232015355Y-115632147D01*
X232140854Y-115757646D01*
X232239457Y-115905216D01*
X232307377Y-116069188D01*
X232327868Y-116172208D01*
X232341643Y-116241456D01*
X232342001Y-116243259D01*
X232342001Y-116420741D01*
X232307377Y-116594812D01*
X232239457Y-116758784D01*
X232140854Y-116906354D01*
X232015355Y-117031853D01*
X231867785Y-117130456D01*
X231703813Y-117198376D01*
X231554513Y-117228073D01*
X231529743Y-117233000D01*
X231352259Y-117233000D01*
X231327489Y-117228073D01*
X231178189Y-117198376D01*
X231014217Y-117130456D01*
X230866647Y-117031853D01*
X230741148Y-116906354D01*
X230642545Y-116758784D01*
X230574625Y-116594812D01*
X230540001Y-116420741D01*
X230540001Y-116243259D01*
X230540360Y-116241456D01*
X230554134Y-116172208D01*
X230574625Y-116069188D01*
X230642545Y-115905216D01*
X230741148Y-115757646D01*
X230866647Y-115632147D01*
X231014217Y-115533544D01*
X231178189Y-115465624D01*
X231327489Y-115435927D01*
X231352259Y-115431000D01*
X231529743Y-115431000D01*
X231554513Y-115435927D01*
G37*
G36*
X217102001Y-117233000D02*
G01*
X215300001Y-117233000D01*
X215300001Y-115431000D01*
X217102001Y-115431000D01*
X217102001Y-117233000D01*
G37*
G36*
X236634513Y-115435927D02*
G01*
X236783813Y-115465624D01*
X236947785Y-115533544D01*
X237095355Y-115632147D01*
X237220854Y-115757646D01*
X237319457Y-115905216D01*
X237387377Y-116069188D01*
X237407868Y-116172208D01*
X237421643Y-116241456D01*
X237422001Y-116243259D01*
X237422001Y-116420741D01*
X237387377Y-116594812D01*
X237319457Y-116758784D01*
X237220854Y-116906354D01*
X237095355Y-117031853D01*
X236947785Y-117130456D01*
X236783813Y-117198376D01*
X236634513Y-117228073D01*
X236609743Y-117233000D01*
X236432259Y-117233000D01*
X236407489Y-117228073D01*
X236258189Y-117198376D01*
X236094217Y-117130456D01*
X235946647Y-117031853D01*
X235821148Y-116906354D01*
X235722545Y-116758784D01*
X235654625Y-116594812D01*
X235620001Y-116420741D01*
X235620001Y-116243259D01*
X235620360Y-116241456D01*
X235634134Y-116172208D01*
X235654625Y-116069188D01*
X235722545Y-115905216D01*
X235821148Y-115757646D01*
X235946647Y-115632147D01*
X236094217Y-115533544D01*
X236258189Y-115465624D01*
X236407489Y-115435927D01*
X236432259Y-115431000D01*
X236609743Y-115431000D01*
X236634513Y-115435927D01*
G37*
G36*
X218854513Y-115435927D02*
G01*
X219003813Y-115465624D01*
X219167785Y-115533544D01*
X219315355Y-115632147D01*
X219440854Y-115757646D01*
X219539457Y-115905216D01*
X219607377Y-116069188D01*
X219627868Y-116172208D01*
X219641643Y-116241456D01*
X219642001Y-116243259D01*
X219642001Y-116420741D01*
X219607377Y-116594812D01*
X219539457Y-116758784D01*
X219440854Y-116906354D01*
X219315355Y-117031853D01*
X219167785Y-117130456D01*
X219003813Y-117198376D01*
X218854513Y-117228073D01*
X218829743Y-117233000D01*
X218652259Y-117233000D01*
X218627489Y-117228073D01*
X218478189Y-117198376D01*
X218314217Y-117130456D01*
X218166647Y-117031853D01*
X218041148Y-116906354D01*
X217942545Y-116758784D01*
X217874625Y-116594812D01*
X217840001Y-116420741D01*
X217840001Y-116243259D01*
X217840360Y-116241456D01*
X217854134Y-116172208D01*
X217874625Y-116069188D01*
X217942545Y-115905216D01*
X218041148Y-115757646D01*
X218166647Y-115632147D01*
X218314217Y-115533544D01*
X218478189Y-115465624D01*
X218627489Y-115435927D01*
X218652259Y-115431000D01*
X218829743Y-115431000D01*
X218854513Y-115435927D01*
G37*
G36*
X239174513Y-115435927D02*
G01*
X239323813Y-115465624D01*
X239487785Y-115533544D01*
X239635355Y-115632147D01*
X239760854Y-115757646D01*
X239859457Y-115905216D01*
X239927377Y-116069188D01*
X239947868Y-116172208D01*
X239961643Y-116241456D01*
X239962001Y-116243259D01*
X239962001Y-116420741D01*
X239927377Y-116594812D01*
X239859457Y-116758784D01*
X239760854Y-116906354D01*
X239635355Y-117031853D01*
X239487785Y-117130456D01*
X239323813Y-117198376D01*
X239174513Y-117228073D01*
X239149743Y-117233000D01*
X238972259Y-117233000D01*
X238947489Y-117228073D01*
X238798189Y-117198376D01*
X238634217Y-117130456D01*
X238486647Y-117031853D01*
X238361148Y-116906354D01*
X238262545Y-116758784D01*
X238194625Y-116594812D01*
X238160001Y-116420741D01*
X238160001Y-116243259D01*
X238160360Y-116241456D01*
X238174134Y-116172208D01*
X238194625Y-116069188D01*
X238262545Y-115905216D01*
X238361148Y-115757646D01*
X238486647Y-115632147D01*
X238634217Y-115533544D01*
X238798189Y-115465624D01*
X238947489Y-115435927D01*
X238972259Y-115431000D01*
X239149743Y-115431000D01*
X239174513Y-115435927D01*
G37*
G36*
X221394513Y-115435927D02*
G01*
X221543813Y-115465624D01*
X221707785Y-115533544D01*
X221855355Y-115632147D01*
X221980854Y-115757646D01*
X222079457Y-115905216D01*
X222147377Y-116069188D01*
X222167868Y-116172208D01*
X222181643Y-116241456D01*
X222182001Y-116243259D01*
X222182001Y-116420741D01*
X222147377Y-116594812D01*
X222079457Y-116758784D01*
X221980854Y-116906354D01*
X221855355Y-117031853D01*
X221707785Y-117130456D01*
X221543813Y-117198376D01*
X221394513Y-117228073D01*
X221369743Y-117233000D01*
X221192259Y-117233000D01*
X221167489Y-117228073D01*
X221018189Y-117198376D01*
X220854217Y-117130456D01*
X220706647Y-117031853D01*
X220581148Y-116906354D01*
X220482545Y-116758784D01*
X220414625Y-116594812D01*
X220380001Y-116420741D01*
X220380001Y-116243259D01*
X220380360Y-116241456D01*
X220394134Y-116172208D01*
X220414625Y-116069188D01*
X220482545Y-115905216D01*
X220581148Y-115757646D01*
X220706647Y-115632147D01*
X220854217Y-115533544D01*
X221018189Y-115465624D01*
X221167489Y-115435927D01*
X221192259Y-115431000D01*
X221369743Y-115431000D01*
X221394513Y-115435927D01*
G37*
G36*
X223934513Y-115435927D02*
G01*
X224083813Y-115465624D01*
X224247785Y-115533544D01*
X224395355Y-115632147D01*
X224520854Y-115757646D01*
X224619457Y-115905216D01*
X224687377Y-116069188D01*
X224707868Y-116172208D01*
X224721643Y-116241456D01*
X224722001Y-116243259D01*
X224722001Y-116420741D01*
X224687377Y-116594812D01*
X224619457Y-116758784D01*
X224520854Y-116906354D01*
X224395355Y-117031853D01*
X224247785Y-117130456D01*
X224083813Y-117198376D01*
X223934513Y-117228073D01*
X223909743Y-117233000D01*
X223732259Y-117233000D01*
X223707489Y-117228073D01*
X223558189Y-117198376D01*
X223394217Y-117130456D01*
X223246647Y-117031853D01*
X223121148Y-116906354D01*
X223022545Y-116758784D01*
X222954625Y-116594812D01*
X222920001Y-116420741D01*
X222920001Y-116243259D01*
X222920360Y-116241456D01*
X222934134Y-116172208D01*
X222954625Y-116069188D01*
X223022545Y-115905216D01*
X223121148Y-115757646D01*
X223246647Y-115632147D01*
X223394217Y-115533544D01*
X223558189Y-115465624D01*
X223707489Y-115435927D01*
X223732259Y-115431000D01*
X223909743Y-115431000D01*
X223934513Y-115435927D01*
G37*
G36*
X229014513Y-115435927D02*
G01*
X229163813Y-115465624D01*
X229327785Y-115533544D01*
X229475355Y-115632147D01*
X229600854Y-115757646D01*
X229699457Y-115905216D01*
X229767377Y-116069188D01*
X229787868Y-116172208D01*
X229801643Y-116241456D01*
X229802001Y-116243259D01*
X229802001Y-116420741D01*
X229767377Y-116594812D01*
X229699457Y-116758784D01*
X229600854Y-116906354D01*
X229475355Y-117031853D01*
X229327785Y-117130456D01*
X229163813Y-117198376D01*
X229014513Y-117228073D01*
X228989743Y-117233000D01*
X228812259Y-117233000D01*
X228787489Y-117228073D01*
X228638189Y-117198376D01*
X228474217Y-117130456D01*
X228326647Y-117031853D01*
X228201148Y-116906354D01*
X228102545Y-116758784D01*
X228034625Y-116594812D01*
X228000001Y-116420741D01*
X228000001Y-116243259D01*
X228000360Y-116241456D01*
X228014134Y-116172208D01*
X228034625Y-116069188D01*
X228102545Y-115905216D01*
X228201148Y-115757646D01*
X228326647Y-115632147D01*
X228474217Y-115533544D01*
X228638189Y-115465624D01*
X228787489Y-115435927D01*
X228812259Y-115431000D01*
X228989743Y-115431000D01*
X229014513Y-115435927D01*
G37*
G36*
X234094513Y-115435927D02*
G01*
X234243813Y-115465624D01*
X234407785Y-115533544D01*
X234555355Y-115632147D01*
X234680854Y-115757646D01*
X234779457Y-115905216D01*
X234847377Y-116069188D01*
X234867868Y-116172208D01*
X234881643Y-116241456D01*
X234882001Y-116243259D01*
X234882001Y-116420741D01*
X234847377Y-116594812D01*
X234779457Y-116758784D01*
X234680854Y-116906354D01*
X234555355Y-117031853D01*
X234407785Y-117130456D01*
X234243813Y-117198376D01*
X234094513Y-117228073D01*
X234069743Y-117233000D01*
X233892259Y-117233000D01*
X233867489Y-117228073D01*
X233718189Y-117198376D01*
X233554217Y-117130456D01*
X233406647Y-117031853D01*
X233281148Y-116906354D01*
X233182545Y-116758784D01*
X233114625Y-116594812D01*
X233080001Y-116420741D01*
X233080001Y-116243259D01*
X233080360Y-116241456D01*
X233094134Y-116172208D01*
X233114625Y-116069188D01*
X233182545Y-115905216D01*
X233281148Y-115757646D01*
X233406647Y-115632147D01*
X233554217Y-115533544D01*
X233718189Y-115465624D01*
X233867489Y-115435927D01*
X233892259Y-115431000D01*
X234069743Y-115431000D01*
X234094513Y-115435927D01*
G37*
G36*
X226474513Y-115435927D02*
G01*
X226623813Y-115465624D01*
X226787785Y-115533544D01*
X226935355Y-115632147D01*
X227060854Y-115757646D01*
X227159457Y-115905216D01*
X227227377Y-116069188D01*
X227247868Y-116172208D01*
X227261643Y-116241456D01*
X227262001Y-116243259D01*
X227262001Y-116420741D01*
X227227377Y-116594812D01*
X227159457Y-116758784D01*
X227060854Y-116906354D01*
X226935355Y-117031853D01*
X226787785Y-117130456D01*
X226623813Y-117198376D01*
X226474513Y-117228073D01*
X226449743Y-117233000D01*
X226272259Y-117233000D01*
X226247489Y-117228073D01*
X226098189Y-117198376D01*
X225934217Y-117130456D01*
X225786647Y-117031853D01*
X225661148Y-116906354D01*
X225562545Y-116758784D01*
X225494625Y-116594812D01*
X225460001Y-116420741D01*
X225460001Y-116243259D01*
X225460360Y-116241456D01*
X225474134Y-116172208D01*
X225494625Y-116069188D01*
X225562545Y-115905216D01*
X225661148Y-115757646D01*
X225786647Y-115632147D01*
X225934217Y-115533544D01*
X226098189Y-115465624D01*
X226247489Y-115435927D01*
X226272259Y-115431000D01*
X226449743Y-115431000D01*
X226474513Y-115435927D01*
G37*
G36*
X147108552Y-114080331D02*
G01*
X147190627Y-114114328D01*
X147190629Y-114114329D01*
X147227813Y-114139175D01*
X147264495Y-114163685D01*
X147327315Y-114226505D01*
X147376672Y-114300373D01*
X147410669Y-114382448D01*
X147428000Y-114469579D01*
X147428000Y-114558421D01*
X147410669Y-114645552D01*
X147376672Y-114727627D01*
X147327315Y-114801495D01*
X147311762Y-114817048D01*
X147296217Y-114835990D01*
X147284666Y-114857601D01*
X147277553Y-114881050D01*
X147275151Y-114905436D01*
X147277553Y-114929822D01*
X147284666Y-114953271D01*
X147296217Y-114974882D01*
X147311762Y-114993824D01*
X147330704Y-115009369D01*
X147352315Y-115020920D01*
X147375764Y-115028033D01*
X147400150Y-115030435D01*
X147424536Y-115028033D01*
X147447985Y-115020920D01*
X147451614Y-115019204D01*
X147453600Y-115018602D01*
X147453601Y-115018601D01*
X147497901Y-115005163D01*
X147599879Y-114974228D01*
X147713882Y-114963000D01*
X148340118Y-114963000D01*
X148454121Y-114974228D01*
X148569965Y-115009369D01*
X148592537Y-115016216D01*
X148600402Y-115018602D01*
X148735204Y-115090655D01*
X148735207Y-115090657D01*
X148735208Y-115090658D01*
X148820568Y-115160712D01*
X148853369Y-115187631D01*
X148950345Y-115305796D01*
X149022398Y-115440598D01*
X149066772Y-115586879D01*
X149081754Y-115739000D01*
X149066772Y-115891121D01*
X149022398Y-116037402D01*
X148950345Y-116172204D01*
X148950343Y-116172207D01*
X148950342Y-116172208D01*
X148853369Y-116290369D01*
X148756024Y-116370259D01*
X148735204Y-116387345D01*
X148600402Y-116459398D01*
X148454121Y-116503772D01*
X148340118Y-116515000D01*
X147713882Y-116515000D01*
X147599879Y-116503772D01*
X147453598Y-116459398D01*
X147318796Y-116387345D01*
X147297977Y-116370259D01*
X147200631Y-116290369D01*
X147103658Y-116172208D01*
X147103657Y-116172207D01*
X147103655Y-116172204D01*
X147031602Y-116037402D01*
X146987228Y-115891121D01*
X146972246Y-115739000D01*
X146987228Y-115586879D01*
X147031602Y-115440598D01*
X147103655Y-115305796D01*
X147200633Y-115187628D01*
X147233430Y-115160712D01*
X147250757Y-115143385D01*
X147264370Y-115123011D01*
X147273748Y-115100372D01*
X147278528Y-115076339D01*
X147278528Y-115051835D01*
X147273748Y-115027801D01*
X147264370Y-115005163D01*
X147250756Y-114984788D01*
X147233429Y-114967461D01*
X147213055Y-114953848D01*
X147190416Y-114944470D01*
X147166383Y-114939690D01*
X147141879Y-114939690D01*
X147117845Y-114944470D01*
X147109351Y-114947510D01*
X147021421Y-114965000D01*
X146932579Y-114965000D01*
X146845448Y-114947669D01*
X146763373Y-114913672D01*
X146763372Y-114913672D01*
X146763371Y-114913671D01*
X146714551Y-114881050D01*
X146689505Y-114864315D01*
X146626685Y-114801495D01*
X146577328Y-114727627D01*
X146543331Y-114645552D01*
X146526000Y-114558421D01*
X146526000Y-114469579D01*
X146543331Y-114382448D01*
X146577328Y-114300373D01*
X146626685Y-114226505D01*
X146689505Y-114163685D01*
X146726187Y-114139175D01*
X146763371Y-114114329D01*
X146763373Y-114114328D01*
X146845448Y-114080331D01*
X146932579Y-114063000D01*
X147021421Y-114063000D01*
X147108552Y-114080331D01*
G37*
G36*
X144674715Y-115272058D02*
G01*
X144770753Y-115301191D01*
X144785935Y-115305796D01*
X144792722Y-115307855D01*
X144901468Y-115365981D01*
X144996790Y-115444210D01*
X145075019Y-115539532D01*
X145133145Y-115648278D01*
X145168942Y-115766285D01*
X145181028Y-115889000D01*
X145168942Y-116011715D01*
X145133145Y-116129722D01*
X145075019Y-116238468D01*
X144996790Y-116333790D01*
X144901468Y-116412019D01*
X144792722Y-116470145D01*
X144674715Y-116505942D01*
X144582746Y-116515000D01*
X143871254Y-116515000D01*
X143779285Y-116505942D01*
X143661278Y-116470145D01*
X143552532Y-116412019D01*
X143457210Y-116333790D01*
X143378981Y-116238468D01*
X143320855Y-116129722D01*
X143285058Y-116011715D01*
X143272972Y-115889000D01*
X143285058Y-115766285D01*
X143320855Y-115648278D01*
X143378981Y-115539532D01*
X143457210Y-115444210D01*
X143552532Y-115365981D01*
X143661278Y-115307855D01*
X143668066Y-115305796D01*
X143683247Y-115301191D01*
X143779285Y-115272058D01*
X143871254Y-115263000D01*
X144582746Y-115263000D01*
X144674715Y-115272058D01*
G37*
G36*
X152513512Y-114546927D02*
G01*
X152662812Y-114576624D01*
X152826784Y-114644544D01*
X152974354Y-114743147D01*
X153099853Y-114868646D01*
X153198456Y-115016216D01*
X153266376Y-115180188D01*
X153291360Y-115305796D01*
X153301000Y-115354258D01*
X153301000Y-115531742D01*
X153299451Y-115539531D01*
X153266376Y-115705812D01*
X153198456Y-115869784D01*
X153099853Y-116017354D01*
X152974354Y-116142853D01*
X152826784Y-116241456D01*
X152662812Y-116309376D01*
X152513512Y-116339073D01*
X152488742Y-116344000D01*
X152311258Y-116344000D01*
X152286488Y-116339073D01*
X152137188Y-116309376D01*
X151973216Y-116241456D01*
X151825646Y-116142853D01*
X151700147Y-116017354D01*
X151601544Y-115869784D01*
X151533624Y-115705812D01*
X151500549Y-115539531D01*
X151499000Y-115531742D01*
X151499000Y-115354258D01*
X151508640Y-115305796D01*
X151533624Y-115180188D01*
X151601544Y-115016216D01*
X151700147Y-114868646D01*
X151825646Y-114743147D01*
X151973216Y-114644544D01*
X152137188Y-114576624D01*
X152286488Y-114546927D01*
X152311258Y-114542000D01*
X152488742Y-114542000D01*
X152513512Y-114546927D01*
G37*
G36*
X223934513Y-112895927D02*
G01*
X224083813Y-112925624D01*
X224247785Y-112993544D01*
X224395355Y-113092147D01*
X224520854Y-113217646D01*
X224619457Y-113365216D01*
X224687377Y-113529188D01*
X224717074Y-113678488D01*
X224721643Y-113701456D01*
X224722001Y-113703259D01*
X224722001Y-113880741D01*
X224687377Y-114054812D01*
X224619457Y-114218784D01*
X224520854Y-114366354D01*
X224395355Y-114491853D01*
X224247785Y-114590456D01*
X224083813Y-114658376D01*
X223934513Y-114688073D01*
X223909743Y-114693000D01*
X223732259Y-114693000D01*
X223707489Y-114688073D01*
X223558189Y-114658376D01*
X223394217Y-114590456D01*
X223246647Y-114491853D01*
X223121148Y-114366354D01*
X223022545Y-114218784D01*
X222954625Y-114054812D01*
X222920001Y-113880741D01*
X222920001Y-113703259D01*
X222920360Y-113701456D01*
X222924928Y-113678488D01*
X222954625Y-113529188D01*
X223022545Y-113365216D01*
X223121148Y-113217646D01*
X223246647Y-113092147D01*
X223394217Y-112993544D01*
X223558189Y-112925624D01*
X223707489Y-112895927D01*
X223732259Y-112891000D01*
X223909743Y-112891000D01*
X223934513Y-112895927D01*
G37*
G36*
X216314513Y-112895927D02*
G01*
X216463813Y-112925624D01*
X216627785Y-112993544D01*
X216775355Y-113092147D01*
X216900854Y-113217646D01*
X216999457Y-113365216D01*
X217067377Y-113529188D01*
X217097074Y-113678488D01*
X217101643Y-113701456D01*
X217102001Y-113703259D01*
X217102001Y-113880741D01*
X217067377Y-114054812D01*
X216999457Y-114218784D01*
X216900854Y-114366354D01*
X216775355Y-114491853D01*
X216627785Y-114590456D01*
X216463813Y-114658376D01*
X216314513Y-114688073D01*
X216289743Y-114693000D01*
X216112259Y-114693000D01*
X216087489Y-114688073D01*
X215938189Y-114658376D01*
X215774217Y-114590456D01*
X215626647Y-114491853D01*
X215501148Y-114366354D01*
X215402545Y-114218784D01*
X215334625Y-114054812D01*
X215300001Y-113880741D01*
X215300001Y-113703259D01*
X215300360Y-113701456D01*
X215304928Y-113678488D01*
X215334625Y-113529188D01*
X215402545Y-113365216D01*
X215501148Y-113217646D01*
X215626647Y-113092147D01*
X215774217Y-112993544D01*
X215938189Y-112925624D01*
X216087489Y-112895927D01*
X216112259Y-112891000D01*
X216289743Y-112891000D01*
X216314513Y-112895927D01*
G37*
G36*
X218854513Y-112895927D02*
G01*
X219003813Y-112925624D01*
X219167785Y-112993544D01*
X219315355Y-113092147D01*
X219440854Y-113217646D01*
X219539457Y-113365216D01*
X219607377Y-113529188D01*
X219637074Y-113678488D01*
X219641643Y-113701456D01*
X219642001Y-113703259D01*
X219642001Y-113880741D01*
X219607377Y-114054812D01*
X219539457Y-114218784D01*
X219440854Y-114366354D01*
X219315355Y-114491853D01*
X219167785Y-114590456D01*
X219003813Y-114658376D01*
X218854513Y-114688073D01*
X218829743Y-114693000D01*
X218652259Y-114693000D01*
X218627489Y-114688073D01*
X218478189Y-114658376D01*
X218314217Y-114590456D01*
X218166647Y-114491853D01*
X218041148Y-114366354D01*
X217942545Y-114218784D01*
X217874625Y-114054812D01*
X217840001Y-113880741D01*
X217840001Y-113703259D01*
X217840360Y-113701456D01*
X217844928Y-113678488D01*
X217874625Y-113529188D01*
X217942545Y-113365216D01*
X218041148Y-113217646D01*
X218166647Y-113092147D01*
X218314217Y-112993544D01*
X218478189Y-112925624D01*
X218627489Y-112895927D01*
X218652259Y-112891000D01*
X218829743Y-112891000D01*
X218854513Y-112895927D01*
G37*
G36*
X221394513Y-112895927D02*
G01*
X221543813Y-112925624D01*
X221707785Y-112993544D01*
X221855355Y-113092147D01*
X221980854Y-113217646D01*
X222079457Y-113365216D01*
X222147377Y-113529188D01*
X222177074Y-113678488D01*
X222181643Y-113701456D01*
X222182001Y-113703259D01*
X222182001Y-113880741D01*
X222147377Y-114054812D01*
X222079457Y-114218784D01*
X221980854Y-114366354D01*
X221855355Y-114491853D01*
X221707785Y-114590456D01*
X221543813Y-114658376D01*
X221394513Y-114688073D01*
X221369743Y-114693000D01*
X221192259Y-114693000D01*
X221167489Y-114688073D01*
X221018189Y-114658376D01*
X220854217Y-114590456D01*
X220706647Y-114491853D01*
X220581148Y-114366354D01*
X220482545Y-114218784D01*
X220414625Y-114054812D01*
X220380001Y-113880741D01*
X220380001Y-113703259D01*
X220380360Y-113701456D01*
X220384928Y-113678488D01*
X220414625Y-113529188D01*
X220482545Y-113365216D01*
X220581148Y-113217646D01*
X220706647Y-113092147D01*
X220854217Y-112993544D01*
X221018189Y-112925624D01*
X221167489Y-112895927D01*
X221192259Y-112891000D01*
X221369743Y-112891000D01*
X221394513Y-112895927D01*
G37*
G36*
X239174513Y-112895927D02*
G01*
X239323813Y-112925624D01*
X239487785Y-112993544D01*
X239635355Y-113092147D01*
X239760854Y-113217646D01*
X239859457Y-113365216D01*
X239927377Y-113529188D01*
X239957074Y-113678488D01*
X239961643Y-113701456D01*
X239962001Y-113703259D01*
X239962001Y-113880741D01*
X239927377Y-114054812D01*
X239859457Y-114218784D01*
X239760854Y-114366354D01*
X239635355Y-114491853D01*
X239487785Y-114590456D01*
X239323813Y-114658376D01*
X239174513Y-114688073D01*
X239149743Y-114693000D01*
X238972259Y-114693000D01*
X238947489Y-114688073D01*
X238798189Y-114658376D01*
X238634217Y-114590456D01*
X238486647Y-114491853D01*
X238361148Y-114366354D01*
X238262545Y-114218784D01*
X238194625Y-114054812D01*
X238160001Y-113880741D01*
X238160001Y-113703259D01*
X238160360Y-113701456D01*
X238164928Y-113678488D01*
X238194625Y-113529188D01*
X238262545Y-113365216D01*
X238361148Y-113217646D01*
X238486647Y-113092147D01*
X238634217Y-112993544D01*
X238798189Y-112925624D01*
X238947489Y-112895927D01*
X238972259Y-112891000D01*
X239149743Y-112891000D01*
X239174513Y-112895927D01*
G37*
G36*
X236634513Y-112895927D02*
G01*
X236783813Y-112925624D01*
X236947785Y-112993544D01*
X237095355Y-113092147D01*
X237220854Y-113217646D01*
X237319457Y-113365216D01*
X237387377Y-113529188D01*
X237417074Y-113678488D01*
X237421643Y-113701456D01*
X237422001Y-113703259D01*
X237422001Y-113880741D01*
X237387377Y-114054812D01*
X237319457Y-114218784D01*
X237220854Y-114366354D01*
X237095355Y-114491853D01*
X236947785Y-114590456D01*
X236783813Y-114658376D01*
X236634513Y-114688073D01*
X236609743Y-114693000D01*
X236432259Y-114693000D01*
X236407489Y-114688073D01*
X236258189Y-114658376D01*
X236094217Y-114590456D01*
X235946647Y-114491853D01*
X235821148Y-114366354D01*
X235722545Y-114218784D01*
X235654625Y-114054812D01*
X235620001Y-113880741D01*
X235620001Y-113703259D01*
X235620360Y-113701456D01*
X235624928Y-113678488D01*
X235654625Y-113529188D01*
X235722545Y-113365216D01*
X235821148Y-113217646D01*
X235946647Y-113092147D01*
X236094217Y-112993544D01*
X236258189Y-112925624D01*
X236407489Y-112895927D01*
X236432259Y-112891000D01*
X236609743Y-112891000D01*
X236634513Y-112895927D01*
G37*
G36*
X231554513Y-112895927D02*
G01*
X231703813Y-112925624D01*
X231867785Y-112993544D01*
X232015355Y-113092147D01*
X232140854Y-113217646D01*
X232239457Y-113365216D01*
X232307377Y-113529188D01*
X232337074Y-113678488D01*
X232341643Y-113701456D01*
X232342001Y-113703259D01*
X232342001Y-113880741D01*
X232307377Y-114054812D01*
X232239457Y-114218784D01*
X232140854Y-114366354D01*
X232015355Y-114491853D01*
X231867785Y-114590456D01*
X231703813Y-114658376D01*
X231554513Y-114688073D01*
X231529743Y-114693000D01*
X231352259Y-114693000D01*
X231327489Y-114688073D01*
X231178189Y-114658376D01*
X231014217Y-114590456D01*
X230866647Y-114491853D01*
X230741148Y-114366354D01*
X230642545Y-114218784D01*
X230574625Y-114054812D01*
X230540001Y-113880741D01*
X230540001Y-113703259D01*
X230540360Y-113701456D01*
X230544928Y-113678488D01*
X230574625Y-113529188D01*
X230642545Y-113365216D01*
X230741148Y-113217646D01*
X230866647Y-113092147D01*
X231014217Y-112993544D01*
X231178189Y-112925624D01*
X231327489Y-112895927D01*
X231352259Y-112891000D01*
X231529743Y-112891000D01*
X231554513Y-112895927D01*
G37*
G36*
X229014513Y-112895927D02*
G01*
X229163813Y-112925624D01*
X229327785Y-112993544D01*
X229475355Y-113092147D01*
X229600854Y-113217646D01*
X229699457Y-113365216D01*
X229767377Y-113529188D01*
X229797074Y-113678488D01*
X229801643Y-113701456D01*
X229802001Y-113703259D01*
X229802001Y-113880741D01*
X229767377Y-114054812D01*
X229699457Y-114218784D01*
X229600854Y-114366354D01*
X229475355Y-114491853D01*
X229327785Y-114590456D01*
X229163813Y-114658376D01*
X229014513Y-114688073D01*
X228989743Y-114693000D01*
X228812259Y-114693000D01*
X228787489Y-114688073D01*
X228638189Y-114658376D01*
X228474217Y-114590456D01*
X228326647Y-114491853D01*
X228201148Y-114366354D01*
X228102545Y-114218784D01*
X228034625Y-114054812D01*
X228000001Y-113880741D01*
X228000001Y-113703259D01*
X228000360Y-113701456D01*
X228004928Y-113678488D01*
X228034625Y-113529188D01*
X228102545Y-113365216D01*
X228201148Y-113217646D01*
X228326647Y-113092147D01*
X228474217Y-112993544D01*
X228638189Y-112925624D01*
X228787489Y-112895927D01*
X228812259Y-112891000D01*
X228989743Y-112891000D01*
X229014513Y-112895927D01*
G37*
G36*
X226474513Y-112895927D02*
G01*
X226623813Y-112925624D01*
X226787785Y-112993544D01*
X226935355Y-113092147D01*
X227060854Y-113217646D01*
X227159457Y-113365216D01*
X227227377Y-113529188D01*
X227257074Y-113678488D01*
X227261643Y-113701456D01*
X227262001Y-113703259D01*
X227262001Y-113880741D01*
X227227377Y-114054812D01*
X227159457Y-114218784D01*
X227060854Y-114366354D01*
X226935355Y-114491853D01*
X226787785Y-114590456D01*
X226623813Y-114658376D01*
X226474513Y-114688073D01*
X226449743Y-114693000D01*
X226272259Y-114693000D01*
X226247489Y-114688073D01*
X226098189Y-114658376D01*
X225934217Y-114590456D01*
X225786647Y-114491853D01*
X225661148Y-114366354D01*
X225562545Y-114218784D01*
X225494625Y-114054812D01*
X225460001Y-113880741D01*
X225460001Y-113703259D01*
X225460360Y-113701456D01*
X225464928Y-113678488D01*
X225494625Y-113529188D01*
X225562545Y-113365216D01*
X225661148Y-113217646D01*
X225786647Y-113092147D01*
X225934217Y-112993544D01*
X226098189Y-112925624D01*
X226247489Y-112895927D01*
X226272259Y-112891000D01*
X226449743Y-112891000D01*
X226474513Y-112895927D01*
G37*
G36*
X234094513Y-112895927D02*
G01*
X234243813Y-112925624D01*
X234407785Y-112993544D01*
X234555355Y-113092147D01*
X234680854Y-113217646D01*
X234779457Y-113365216D01*
X234847377Y-113529188D01*
X234877074Y-113678488D01*
X234881643Y-113701456D01*
X234882001Y-113703259D01*
X234882001Y-113880741D01*
X234847377Y-114054812D01*
X234779457Y-114218784D01*
X234680854Y-114366354D01*
X234555355Y-114491853D01*
X234407785Y-114590456D01*
X234243813Y-114658376D01*
X234094513Y-114688073D01*
X234069743Y-114693000D01*
X233892259Y-114693000D01*
X233867489Y-114688073D01*
X233718189Y-114658376D01*
X233554217Y-114590456D01*
X233406647Y-114491853D01*
X233281148Y-114366354D01*
X233182545Y-114218784D01*
X233114625Y-114054812D01*
X233080001Y-113880741D01*
X233080001Y-113703259D01*
X233080360Y-113701456D01*
X233084928Y-113678488D01*
X233114625Y-113529188D01*
X233182545Y-113365216D01*
X233281148Y-113217646D01*
X233406647Y-113092147D01*
X233554217Y-112993544D01*
X233718189Y-112925624D01*
X233867489Y-112895927D01*
X233892259Y-112891000D01*
X234069743Y-112891000D01*
X234094513Y-112895927D01*
G37*
G36*
X152513512Y-112006927D02*
G01*
X152662812Y-112036624D01*
X152826784Y-112104544D01*
X152974354Y-112203147D01*
X153099853Y-112328646D01*
X153198456Y-112476216D01*
X153266376Y-112640188D01*
X153296073Y-112789488D01*
X153301000Y-112814258D01*
X153301000Y-112991742D01*
X153296073Y-113016512D01*
X153266376Y-113165812D01*
X153198456Y-113329784D01*
X153099853Y-113477354D01*
X152974354Y-113602853D01*
X152826784Y-113701456D01*
X152662812Y-113769376D01*
X152513512Y-113799073D01*
X152488742Y-113804000D01*
X152311258Y-113804000D01*
X152286488Y-113799073D01*
X152137188Y-113769376D01*
X151973216Y-113701456D01*
X151825646Y-113602853D01*
X151700147Y-113477354D01*
X151601544Y-113329784D01*
X151533624Y-113165812D01*
X151503927Y-113016512D01*
X151499000Y-112991742D01*
X151499000Y-112814258D01*
X151503927Y-112789488D01*
X151533624Y-112640188D01*
X151601544Y-112476216D01*
X151700147Y-112328646D01*
X151825646Y-112203147D01*
X151973216Y-112104544D01*
X152137188Y-112036624D01*
X152286488Y-112006927D01*
X152311258Y-112002000D01*
X152488742Y-112002000D01*
X152513512Y-112006927D01*
G37*
G36*
X148778000Y-113590000D02*
G01*
X147376000Y-113590000D01*
X147376000Y-110438000D01*
X148778000Y-110438000D01*
X148778000Y-113590000D01*
G37*
G36*
X229014513Y-110355927D02*
G01*
X229163813Y-110385624D01*
X229327785Y-110453544D01*
X229475355Y-110552147D01*
X229600854Y-110677646D01*
X229699457Y-110825216D01*
X229767377Y-110989188D01*
X229787031Y-111088000D01*
X229801643Y-111161456D01*
X229802001Y-111163259D01*
X229802001Y-111340741D01*
X229767377Y-111514812D01*
X229699457Y-111678784D01*
X229600854Y-111826354D01*
X229475355Y-111951853D01*
X229327785Y-112050456D01*
X229163813Y-112118376D01*
X229014513Y-112148073D01*
X228989743Y-112153000D01*
X228812259Y-112153000D01*
X228787489Y-112148073D01*
X228638189Y-112118376D01*
X228474217Y-112050456D01*
X228326647Y-111951853D01*
X228201148Y-111826354D01*
X228102545Y-111678784D01*
X228034625Y-111514812D01*
X228000001Y-111340741D01*
X228000001Y-111163259D01*
X228000360Y-111161456D01*
X228014971Y-111088000D01*
X228034625Y-110989188D01*
X228102545Y-110825216D01*
X228201148Y-110677646D01*
X228326647Y-110552147D01*
X228474217Y-110453544D01*
X228638189Y-110385624D01*
X228787489Y-110355927D01*
X228812259Y-110351000D01*
X228989743Y-110351000D01*
X229014513Y-110355927D01*
G37*
G36*
X239174513Y-110355927D02*
G01*
X239323813Y-110385624D01*
X239487785Y-110453544D01*
X239635355Y-110552147D01*
X239760854Y-110677646D01*
X239859457Y-110825216D01*
X239927377Y-110989188D01*
X239947031Y-111088000D01*
X239961643Y-111161456D01*
X239962001Y-111163259D01*
X239962001Y-111340741D01*
X239927377Y-111514812D01*
X239859457Y-111678784D01*
X239760854Y-111826354D01*
X239635355Y-111951853D01*
X239487785Y-112050456D01*
X239323813Y-112118376D01*
X239174513Y-112148073D01*
X239149743Y-112153000D01*
X238972259Y-112153000D01*
X238947489Y-112148073D01*
X238798189Y-112118376D01*
X238634217Y-112050456D01*
X238486647Y-111951853D01*
X238361148Y-111826354D01*
X238262545Y-111678784D01*
X238194625Y-111514812D01*
X238160001Y-111340741D01*
X238160001Y-111163259D01*
X238160360Y-111161456D01*
X238174971Y-111088000D01*
X238194625Y-110989188D01*
X238262545Y-110825216D01*
X238361148Y-110677646D01*
X238486647Y-110552147D01*
X238634217Y-110453544D01*
X238798189Y-110385624D01*
X238947489Y-110355927D01*
X238972259Y-110351000D01*
X239149743Y-110351000D01*
X239174513Y-110355927D01*
G37*
G36*
X236634513Y-110355927D02*
G01*
X236783813Y-110385624D01*
X236947785Y-110453544D01*
X237095355Y-110552147D01*
X237220854Y-110677646D01*
X237319457Y-110825216D01*
X237387377Y-110989188D01*
X237407031Y-111088000D01*
X237421643Y-111161456D01*
X237422001Y-111163259D01*
X237422001Y-111340741D01*
X237387377Y-111514812D01*
X237319457Y-111678784D01*
X237220854Y-111826354D01*
X237095355Y-111951853D01*
X236947785Y-112050456D01*
X236783813Y-112118376D01*
X236634513Y-112148073D01*
X236609743Y-112153000D01*
X236432259Y-112153000D01*
X236407489Y-112148073D01*
X236258189Y-112118376D01*
X236094217Y-112050456D01*
X235946647Y-111951853D01*
X235821148Y-111826354D01*
X235722545Y-111678784D01*
X235654625Y-111514812D01*
X235620001Y-111340741D01*
X235620001Y-111163259D01*
X235620360Y-111161456D01*
X235634971Y-111088000D01*
X235654625Y-110989188D01*
X235722545Y-110825216D01*
X235821148Y-110677646D01*
X235946647Y-110552147D01*
X236094217Y-110453544D01*
X236258189Y-110385624D01*
X236407489Y-110355927D01*
X236432259Y-110351000D01*
X236609743Y-110351000D01*
X236634513Y-110355927D01*
G37*
G36*
X231554513Y-110355927D02*
G01*
X231703813Y-110385624D01*
X231867785Y-110453544D01*
X232015355Y-110552147D01*
X232140854Y-110677646D01*
X232239457Y-110825216D01*
X232307377Y-110989188D01*
X232327031Y-111088000D01*
X232341643Y-111161456D01*
X232342001Y-111163259D01*
X232342001Y-111340741D01*
X232307377Y-111514812D01*
X232239457Y-111678784D01*
X232140854Y-111826354D01*
X232015355Y-111951853D01*
X231867785Y-112050456D01*
X231703813Y-112118376D01*
X231554513Y-112148073D01*
X231529743Y-112153000D01*
X231352259Y-112153000D01*
X231327489Y-112148073D01*
X231178189Y-112118376D01*
X231014217Y-112050456D01*
X230866647Y-111951853D01*
X230741148Y-111826354D01*
X230642545Y-111678784D01*
X230574625Y-111514812D01*
X230540001Y-111340741D01*
X230540001Y-111163259D01*
X230540360Y-111161456D01*
X230554971Y-111088000D01*
X230574625Y-110989188D01*
X230642545Y-110825216D01*
X230741148Y-110677646D01*
X230866647Y-110552147D01*
X231014217Y-110453544D01*
X231178189Y-110385624D01*
X231327489Y-110355927D01*
X231352259Y-110351000D01*
X231529743Y-110351000D01*
X231554513Y-110355927D01*
G37*
G36*
X211314512Y-110355927D02*
G01*
X211463812Y-110385624D01*
X211627784Y-110453544D01*
X211775354Y-110552147D01*
X211900853Y-110677646D01*
X211999456Y-110825216D01*
X212067376Y-110989188D01*
X212087030Y-111088000D01*
X212101642Y-111161456D01*
X212102000Y-111163259D01*
X212102000Y-111340741D01*
X212067376Y-111514812D01*
X211999456Y-111678784D01*
X211900853Y-111826354D01*
X211775354Y-111951853D01*
X211627784Y-112050456D01*
X211463812Y-112118376D01*
X211314512Y-112148073D01*
X211289742Y-112153000D01*
X211112258Y-112153000D01*
X211087488Y-112148073D01*
X210938188Y-112118376D01*
X210774216Y-112050456D01*
X210626646Y-111951853D01*
X210501147Y-111826354D01*
X210402544Y-111678784D01*
X210334624Y-111514812D01*
X210300000Y-111340741D01*
X210300000Y-111163259D01*
X210300359Y-111161456D01*
X210314970Y-111088000D01*
X210334624Y-110989188D01*
X210402544Y-110825216D01*
X210501147Y-110677646D01*
X210626646Y-110552147D01*
X210774216Y-110453544D01*
X210938188Y-110385624D01*
X211087488Y-110355927D01*
X211112258Y-110351000D01*
X211289742Y-110351000D01*
X211314512Y-110355927D01*
G37*
G36*
X213854512Y-110355927D02*
G01*
X214003812Y-110385624D01*
X214167784Y-110453544D01*
X214315354Y-110552147D01*
X214440853Y-110677646D01*
X214539456Y-110825216D01*
X214607376Y-110989188D01*
X214627030Y-111088000D01*
X214641642Y-111161456D01*
X214642000Y-111163259D01*
X214642000Y-111340741D01*
X214607376Y-111514812D01*
X214539456Y-111678784D01*
X214440853Y-111826354D01*
X214315354Y-111951853D01*
X214167784Y-112050456D01*
X214003812Y-112118376D01*
X213854512Y-112148073D01*
X213829742Y-112153000D01*
X213652258Y-112153000D01*
X213627488Y-112148073D01*
X213478188Y-112118376D01*
X213314216Y-112050456D01*
X213166646Y-111951853D01*
X213041147Y-111826354D01*
X212942544Y-111678784D01*
X212874624Y-111514812D01*
X212840000Y-111340741D01*
X212840000Y-111163259D01*
X212840359Y-111161456D01*
X212854970Y-111088000D01*
X212874624Y-110989188D01*
X212942544Y-110825216D01*
X213041147Y-110677646D01*
X213166646Y-110552147D01*
X213314216Y-110453544D01*
X213478188Y-110385624D01*
X213627488Y-110355927D01*
X213652258Y-110351000D01*
X213829742Y-110351000D01*
X213854512Y-110355927D01*
G37*
G36*
X218854513Y-110355927D02*
G01*
X219003813Y-110385624D01*
X219167785Y-110453544D01*
X219315355Y-110552147D01*
X219440854Y-110677646D01*
X219539457Y-110825216D01*
X219607377Y-110989188D01*
X219627031Y-111088000D01*
X219641643Y-111161456D01*
X219642001Y-111163259D01*
X219642001Y-111340741D01*
X219607377Y-111514812D01*
X219539457Y-111678784D01*
X219440854Y-111826354D01*
X219315355Y-111951853D01*
X219167785Y-112050456D01*
X219003813Y-112118376D01*
X218854513Y-112148073D01*
X218829743Y-112153000D01*
X218652259Y-112153000D01*
X218627489Y-112148073D01*
X218478189Y-112118376D01*
X218314217Y-112050456D01*
X218166647Y-111951853D01*
X218041148Y-111826354D01*
X217942545Y-111678784D01*
X217874625Y-111514812D01*
X217840001Y-111340741D01*
X217840001Y-111163259D01*
X217840360Y-111161456D01*
X217854971Y-111088000D01*
X217874625Y-110989188D01*
X217942545Y-110825216D01*
X218041148Y-110677646D01*
X218166647Y-110552147D01*
X218314217Y-110453544D01*
X218478189Y-110385624D01*
X218627489Y-110355927D01*
X218652259Y-110351000D01*
X218829743Y-110351000D01*
X218854513Y-110355927D01*
G37*
G36*
X221394513Y-110355927D02*
G01*
X221543813Y-110385624D01*
X221707785Y-110453544D01*
X221855355Y-110552147D01*
X221980854Y-110677646D01*
X222079457Y-110825216D01*
X222147377Y-110989188D01*
X222167031Y-111088000D01*
X222181643Y-111161456D01*
X222182001Y-111163259D01*
X222182001Y-111340741D01*
X222147377Y-111514812D01*
X222079457Y-111678784D01*
X221980854Y-111826354D01*
X221855355Y-111951853D01*
X221707785Y-112050456D01*
X221543813Y-112118376D01*
X221394513Y-112148073D01*
X221369743Y-112153000D01*
X221192259Y-112153000D01*
X221167489Y-112148073D01*
X221018189Y-112118376D01*
X220854217Y-112050456D01*
X220706647Y-111951853D01*
X220581148Y-111826354D01*
X220482545Y-111678784D01*
X220414625Y-111514812D01*
X220380001Y-111340741D01*
X220380001Y-111163259D01*
X220380360Y-111161456D01*
X220394971Y-111088000D01*
X220414625Y-110989188D01*
X220482545Y-110825216D01*
X220581148Y-110677646D01*
X220706647Y-110552147D01*
X220854217Y-110453544D01*
X221018189Y-110385624D01*
X221167489Y-110355927D01*
X221192259Y-110351000D01*
X221369743Y-110351000D01*
X221394513Y-110355927D01*
G37*
G36*
X223934513Y-110355927D02*
G01*
X224083813Y-110385624D01*
X224247785Y-110453544D01*
X224395355Y-110552147D01*
X224520854Y-110677646D01*
X224619457Y-110825216D01*
X224687377Y-110989188D01*
X224707031Y-111088000D01*
X224721643Y-111161456D01*
X224722001Y-111163259D01*
X224722001Y-111340741D01*
X224687377Y-111514812D01*
X224619457Y-111678784D01*
X224520854Y-111826354D01*
X224395355Y-111951853D01*
X224247785Y-112050456D01*
X224083813Y-112118376D01*
X223934513Y-112148073D01*
X223909743Y-112153000D01*
X223732259Y-112153000D01*
X223707489Y-112148073D01*
X223558189Y-112118376D01*
X223394217Y-112050456D01*
X223246647Y-111951853D01*
X223121148Y-111826354D01*
X223022545Y-111678784D01*
X222954625Y-111514812D01*
X222920001Y-111340741D01*
X222920001Y-111163259D01*
X222920360Y-111161456D01*
X222934971Y-111088000D01*
X222954625Y-110989188D01*
X223022545Y-110825216D01*
X223121148Y-110677646D01*
X223246647Y-110552147D01*
X223394217Y-110453544D01*
X223558189Y-110385624D01*
X223707489Y-110355927D01*
X223732259Y-110351000D01*
X223909743Y-110351000D01*
X223934513Y-110355927D01*
G37*
G36*
X226474513Y-110355927D02*
G01*
X226623813Y-110385624D01*
X226787785Y-110453544D01*
X226935355Y-110552147D01*
X227060854Y-110677646D01*
X227159457Y-110825216D01*
X227227377Y-110989188D01*
X227247031Y-111088000D01*
X227261643Y-111161456D01*
X227262001Y-111163259D01*
X227262001Y-111340741D01*
X227227377Y-111514812D01*
X227159457Y-111678784D01*
X227060854Y-111826354D01*
X226935355Y-111951853D01*
X226787785Y-112050456D01*
X226623813Y-112118376D01*
X226474513Y-112148073D01*
X226449743Y-112153000D01*
X226272259Y-112153000D01*
X226247489Y-112148073D01*
X226098189Y-112118376D01*
X225934217Y-112050456D01*
X225786647Y-111951853D01*
X225661148Y-111826354D01*
X225562545Y-111678784D01*
X225494625Y-111514812D01*
X225460001Y-111340741D01*
X225460001Y-111163259D01*
X225460360Y-111161456D01*
X225474971Y-111088000D01*
X225494625Y-110989188D01*
X225562545Y-110825216D01*
X225661148Y-110677646D01*
X225786647Y-110552147D01*
X225934217Y-110453544D01*
X226098189Y-110385624D01*
X226247489Y-110355927D01*
X226272259Y-110351000D01*
X226449743Y-110351000D01*
X226474513Y-110355927D01*
G37*
G36*
X234094513Y-110355927D02*
G01*
X234243813Y-110385624D01*
X234407785Y-110453544D01*
X234555355Y-110552147D01*
X234680854Y-110677646D01*
X234779457Y-110825216D01*
X234847377Y-110989188D01*
X234867031Y-111088000D01*
X234881643Y-111161456D01*
X234882001Y-111163259D01*
X234882001Y-111340741D01*
X234847377Y-111514812D01*
X234779457Y-111678784D01*
X234680854Y-111826354D01*
X234555355Y-111951853D01*
X234407785Y-112050456D01*
X234243813Y-112118376D01*
X234094513Y-112148073D01*
X234069743Y-112153000D01*
X233892259Y-112153000D01*
X233867489Y-112148073D01*
X233718189Y-112118376D01*
X233554217Y-112050456D01*
X233406647Y-111951853D01*
X233281148Y-111826354D01*
X233182545Y-111678784D01*
X233114625Y-111514812D01*
X233080001Y-111340741D01*
X233080001Y-111163259D01*
X233080360Y-111161456D01*
X233094971Y-111088000D01*
X233114625Y-110989188D01*
X233182545Y-110825216D01*
X233281148Y-110677646D01*
X233406647Y-110552147D01*
X233554217Y-110453544D01*
X233718189Y-110385624D01*
X233867489Y-110355927D01*
X233892259Y-110351000D01*
X234069743Y-110351000D01*
X234094513Y-110355927D01*
G37*
G36*
X217102001Y-112153000D02*
G01*
X215300001Y-112153000D01*
X215300001Y-110351000D01*
X217102001Y-110351000D01*
X217102001Y-112153000D01*
G37*
G36*
X181919374Y-105415571D02*
G01*
X181919379Y-105415577D01*
X182978626Y-106474824D01*
X182978632Y-106474829D01*
X183616430Y-107112627D01*
X183616435Y-107112633D01*
X184109997Y-107606195D01*
X184110003Y-107606200D01*
X184747801Y-108243998D01*
X184747806Y-108244004D01*
X185241368Y-108737566D01*
X185241374Y-108737571D01*
X185879172Y-109375369D01*
X185879177Y-109375375D01*
X186938424Y-110434622D01*
X186938430Y-110434627D01*
X187487845Y-110984042D01*
X186355060Y-112116827D01*
X185877763Y-111639530D01*
X185877757Y-111639525D01*
X184674274Y-110436042D01*
X184674269Y-110436036D01*
X184180707Y-109942474D01*
X184180701Y-109942469D01*
X183542903Y-109304671D01*
X183542898Y-109304665D01*
X183049336Y-108811103D01*
X183049330Y-108811098D01*
X182411532Y-108173300D01*
X182411527Y-108173294D01*
X181917965Y-107679732D01*
X181917959Y-107679727D01*
X180714476Y-106476244D01*
X180714471Y-106476238D01*
X180237173Y-105998940D01*
X181369958Y-104866155D01*
X181919374Y-105415571D01*
G37*
G36*
X179426827Y-105998940D02*
G01*
X178949530Y-106476238D01*
X173786238Y-111639530D01*
X173308940Y-112116827D01*
X172176155Y-110984042D01*
X172725566Y-110434631D01*
X172725577Y-110434622D01*
X172741841Y-110418357D01*
X173768559Y-109391639D01*
X173784824Y-109375375D01*
X173784833Y-109375364D01*
X174422622Y-108737575D01*
X174422633Y-108737566D01*
X174438898Y-108721302D01*
X174438897Y-108721301D01*
X174899930Y-108260268D01*
X174899931Y-108260269D01*
X174916195Y-108244004D01*
X174916204Y-108243993D01*
X175553993Y-107606204D01*
X175554004Y-107606195D01*
X175570269Y-107589931D01*
X175570268Y-107589930D01*
X176031301Y-107128897D01*
X176031302Y-107128898D01*
X176047566Y-107112633D01*
X176047575Y-107112622D01*
X176685364Y-106474833D01*
X176685375Y-106474824D01*
X176701639Y-106458559D01*
X177728357Y-105431841D01*
X177744622Y-105415577D01*
X177744631Y-105415566D01*
X178294042Y-104866155D01*
X179426827Y-105998940D01*
G37*
G36*
X152513512Y-109466927D02*
G01*
X152662812Y-109496624D01*
X152826784Y-109564544D01*
X152974354Y-109663147D01*
X153099853Y-109788646D01*
X153198456Y-109936216D01*
X153266376Y-110100188D01*
X153296073Y-110249488D01*
X153301000Y-110274258D01*
X153301000Y-110451742D01*
X153296073Y-110476512D01*
X153266376Y-110625812D01*
X153198456Y-110789784D01*
X153099853Y-110937354D01*
X152974354Y-111062853D01*
X152826784Y-111161456D01*
X152662812Y-111229376D01*
X152513512Y-111259073D01*
X152488742Y-111264000D01*
X152311258Y-111264000D01*
X152286488Y-111259073D01*
X152137188Y-111229376D01*
X151973216Y-111161456D01*
X151825646Y-111062853D01*
X151700147Y-110937354D01*
X151601544Y-110789784D01*
X151533624Y-110625812D01*
X151503927Y-110476512D01*
X151499000Y-110451742D01*
X151499000Y-110274258D01*
X151503927Y-110249488D01*
X151533624Y-110100188D01*
X151601544Y-109936216D01*
X151700147Y-109788646D01*
X151825646Y-109663147D01*
X151973216Y-109564544D01*
X152137188Y-109496624D01*
X152286488Y-109466927D01*
X152311258Y-109462000D01*
X152488742Y-109462000D01*
X152513512Y-109466927D01*
G37*
G36*
X148454121Y-107524228D02*
G01*
X148600402Y-107568602D01*
X148735204Y-107640655D01*
X148735207Y-107640657D01*
X148735208Y-107640658D01*
X148853369Y-107737631D01*
X148895963Y-107789531D01*
X148950345Y-107855796D01*
X149022398Y-107990598D01*
X149066772Y-108136879D01*
X149081754Y-108289000D01*
X149066772Y-108441121D01*
X149022398Y-108587402D01*
X148950345Y-108722204D01*
X148950343Y-108722207D01*
X148950342Y-108722208D01*
X148853369Y-108840369D01*
X148761116Y-108916080D01*
X148735204Y-108937345D01*
X148600402Y-109009398D01*
X148454121Y-109053772D01*
X148340118Y-109065000D01*
X147713882Y-109065000D01*
X147599879Y-109053772D01*
X147447664Y-109007598D01*
X147436439Y-109002948D01*
X147412405Y-108998167D01*
X147387901Y-108998167D01*
X147363868Y-109002946D01*
X147341229Y-109012323D01*
X147320854Y-109025936D01*
X147303527Y-109043263D01*
X147289912Y-109063637D01*
X147280534Y-109086275D01*
X147275753Y-109110309D01*
X147275753Y-109134813D01*
X147280532Y-109158846D01*
X147289909Y-109181485D01*
X147303522Y-109201860D01*
X147311762Y-109210952D01*
X147327315Y-109226505D01*
X147376672Y-109300373D01*
X147410669Y-109382448D01*
X147428000Y-109469579D01*
X147428000Y-109558421D01*
X147410669Y-109645552D01*
X147403380Y-109663148D01*
X147376671Y-109727629D01*
X147327314Y-109801496D01*
X147264496Y-109864314D01*
X147190629Y-109913671D01*
X147190628Y-109913672D01*
X147190627Y-109913672D01*
X147108552Y-109947669D01*
X147021421Y-109965000D01*
X146932579Y-109965000D01*
X146845448Y-109947669D01*
X146763373Y-109913672D01*
X146763372Y-109913672D01*
X146763371Y-109913671D01*
X146689504Y-109864314D01*
X146626686Y-109801496D01*
X146577329Y-109727629D01*
X146550620Y-109663148D01*
X146543331Y-109645552D01*
X146526000Y-109558421D01*
X146526000Y-109469579D01*
X146543331Y-109382448D01*
X146577328Y-109300373D01*
X146626685Y-109226505D01*
X146689505Y-109163685D01*
X146732715Y-109134813D01*
X146763371Y-109114329D01*
X146773076Y-109110309D01*
X146845448Y-109080331D01*
X146932579Y-109063000D01*
X147021421Y-109063000D01*
X147110946Y-109080807D01*
X147129743Y-109086510D01*
X147154129Y-109088912D01*
X147178515Y-109086511D01*
X147201964Y-109079398D01*
X147223575Y-109067847D01*
X147242517Y-109052302D01*
X147258063Y-109033361D01*
X147269614Y-109011750D01*
X147276728Y-108988301D01*
X147279130Y-108963915D01*
X147276729Y-108939529D01*
X147269616Y-108916080D01*
X147258065Y-108894469D01*
X147242520Y-108875527D01*
X147233430Y-108867288D01*
X147200633Y-108840372D01*
X147131342Y-108755941D01*
X147103658Y-108722208D01*
X147103657Y-108722207D01*
X147103655Y-108722204D01*
X147031602Y-108587402D01*
X146987228Y-108441121D01*
X146972246Y-108289000D01*
X146987228Y-108136879D01*
X147031602Y-107990598D01*
X147103655Y-107855796D01*
X147158038Y-107789531D01*
X147200631Y-107737631D01*
X147318792Y-107640658D01*
X147318793Y-107640657D01*
X147318796Y-107640655D01*
X147453598Y-107568602D01*
X147599879Y-107524228D01*
X147713882Y-107513000D01*
X148340118Y-107513000D01*
X148454121Y-107524228D01*
G37*
G36*
X231554513Y-107815927D02*
G01*
X231703813Y-107845624D01*
X231867785Y-107913544D01*
X232015355Y-108012147D01*
X232140854Y-108137646D01*
X232239457Y-108285216D01*
X232307377Y-108449188D01*
X232342001Y-108623259D01*
X232342001Y-108800741D01*
X232307377Y-108974812D01*
X232239457Y-109138784D01*
X232140854Y-109286354D01*
X232015355Y-109411853D01*
X231867785Y-109510456D01*
X231703813Y-109578376D01*
X231554513Y-109608073D01*
X231529743Y-109613000D01*
X231352259Y-109613000D01*
X231327489Y-109608073D01*
X231178189Y-109578376D01*
X231014217Y-109510456D01*
X230866647Y-109411853D01*
X230741148Y-109286354D01*
X230642545Y-109138784D01*
X230574625Y-108974812D01*
X230540001Y-108800741D01*
X230540001Y-108623259D01*
X230574625Y-108449188D01*
X230642545Y-108285216D01*
X230741148Y-108137646D01*
X230866647Y-108012147D01*
X231014217Y-107913544D01*
X231178189Y-107845624D01*
X231327489Y-107815927D01*
X231352259Y-107811000D01*
X231529743Y-107811000D01*
X231554513Y-107815927D01*
G37*
G36*
X239174513Y-107815927D02*
G01*
X239323813Y-107845624D01*
X239487785Y-107913544D01*
X239635355Y-108012147D01*
X239760854Y-108137646D01*
X239859457Y-108285216D01*
X239927377Y-108449188D01*
X239962001Y-108623259D01*
X239962001Y-108800741D01*
X239927377Y-108974812D01*
X239859457Y-109138784D01*
X239760854Y-109286354D01*
X239635355Y-109411853D01*
X239487785Y-109510456D01*
X239323813Y-109578376D01*
X239174513Y-109608073D01*
X239149743Y-109613000D01*
X238972259Y-109613000D01*
X238947489Y-109608073D01*
X238798189Y-109578376D01*
X238634217Y-109510456D01*
X238486647Y-109411853D01*
X238361148Y-109286354D01*
X238262545Y-109138784D01*
X238194625Y-108974812D01*
X238160001Y-108800741D01*
X238160001Y-108623259D01*
X238194625Y-108449188D01*
X238262545Y-108285216D01*
X238361148Y-108137646D01*
X238486647Y-108012147D01*
X238634217Y-107913544D01*
X238798189Y-107845624D01*
X238947489Y-107815927D01*
X238972259Y-107811000D01*
X239149743Y-107811000D01*
X239174513Y-107815927D01*
G37*
G36*
X236634513Y-107815927D02*
G01*
X236783813Y-107845624D01*
X236947785Y-107913544D01*
X237095355Y-108012147D01*
X237220854Y-108137646D01*
X237319457Y-108285216D01*
X237387377Y-108449188D01*
X237422001Y-108623259D01*
X237422001Y-108800741D01*
X237387377Y-108974812D01*
X237319457Y-109138784D01*
X237220854Y-109286354D01*
X237095355Y-109411853D01*
X236947785Y-109510456D01*
X236783813Y-109578376D01*
X236634513Y-109608073D01*
X236609743Y-109613000D01*
X236432259Y-109613000D01*
X236407489Y-109608073D01*
X236258189Y-109578376D01*
X236094217Y-109510456D01*
X235946647Y-109411853D01*
X235821148Y-109286354D01*
X235722545Y-109138784D01*
X235654625Y-108974812D01*
X235620001Y-108800741D01*
X235620001Y-108623259D01*
X235654625Y-108449188D01*
X235722545Y-108285216D01*
X235821148Y-108137646D01*
X235946647Y-108012147D01*
X236094217Y-107913544D01*
X236258189Y-107845624D01*
X236407489Y-107815927D01*
X236432259Y-107811000D01*
X236609743Y-107811000D01*
X236634513Y-107815927D01*
G37*
G36*
X234094513Y-107815927D02*
G01*
X234243813Y-107845624D01*
X234407785Y-107913544D01*
X234555355Y-108012147D01*
X234680854Y-108137646D01*
X234779457Y-108285216D01*
X234847377Y-108449188D01*
X234882001Y-108623259D01*
X234882001Y-108800741D01*
X234847377Y-108974812D01*
X234779457Y-109138784D01*
X234680854Y-109286354D01*
X234555355Y-109411853D01*
X234407785Y-109510456D01*
X234243813Y-109578376D01*
X234094513Y-109608073D01*
X234069743Y-109613000D01*
X233892259Y-109613000D01*
X233867489Y-109608073D01*
X233718189Y-109578376D01*
X233554217Y-109510456D01*
X233406647Y-109411853D01*
X233281148Y-109286354D01*
X233182545Y-109138784D01*
X233114625Y-108974812D01*
X233080001Y-108800741D01*
X233080001Y-108623259D01*
X233114625Y-108449188D01*
X233182545Y-108285216D01*
X233281148Y-108137646D01*
X233406647Y-108012147D01*
X233554217Y-107913544D01*
X233718189Y-107845624D01*
X233867489Y-107815927D01*
X233892259Y-107811000D01*
X234069743Y-107811000D01*
X234094513Y-107815927D01*
G37*
G36*
X229014513Y-107815927D02*
G01*
X229163813Y-107845624D01*
X229327785Y-107913544D01*
X229475355Y-108012147D01*
X229600854Y-108137646D01*
X229699457Y-108285216D01*
X229767377Y-108449188D01*
X229802001Y-108623259D01*
X229802001Y-108800741D01*
X229767377Y-108974812D01*
X229699457Y-109138784D01*
X229600854Y-109286354D01*
X229475355Y-109411853D01*
X229327785Y-109510456D01*
X229163813Y-109578376D01*
X229014513Y-109608073D01*
X228989743Y-109613000D01*
X228812259Y-109613000D01*
X228787489Y-109608073D01*
X228638189Y-109578376D01*
X228474217Y-109510456D01*
X228326647Y-109411853D01*
X228201148Y-109286354D01*
X228102545Y-109138784D01*
X228034625Y-108974812D01*
X228000001Y-108800741D01*
X228000001Y-108623259D01*
X228034625Y-108449188D01*
X228102545Y-108285216D01*
X228201148Y-108137646D01*
X228326647Y-108012147D01*
X228474217Y-107913544D01*
X228638189Y-107845624D01*
X228787489Y-107815927D01*
X228812259Y-107811000D01*
X228989743Y-107811000D01*
X229014513Y-107815927D01*
G37*
G36*
X223934513Y-107815927D02*
G01*
X224083813Y-107845624D01*
X224247785Y-107913544D01*
X224395355Y-108012147D01*
X224520854Y-108137646D01*
X224619457Y-108285216D01*
X224687377Y-108449188D01*
X224722001Y-108623259D01*
X224722001Y-108800741D01*
X224687377Y-108974812D01*
X224619457Y-109138784D01*
X224520854Y-109286354D01*
X224395355Y-109411853D01*
X224247785Y-109510456D01*
X224083813Y-109578376D01*
X223934513Y-109608073D01*
X223909743Y-109613000D01*
X223732259Y-109613000D01*
X223707489Y-109608073D01*
X223558189Y-109578376D01*
X223394217Y-109510456D01*
X223246647Y-109411853D01*
X223121148Y-109286354D01*
X223022545Y-109138784D01*
X222954625Y-108974812D01*
X222920001Y-108800741D01*
X222920001Y-108623259D01*
X222954625Y-108449188D01*
X223022545Y-108285216D01*
X223121148Y-108137646D01*
X223246647Y-108012147D01*
X223394217Y-107913544D01*
X223558189Y-107845624D01*
X223707489Y-107815927D01*
X223732259Y-107811000D01*
X223909743Y-107811000D01*
X223934513Y-107815927D01*
G37*
G36*
X212102000Y-109613000D02*
G01*
X210300000Y-109613000D01*
X210300000Y-107811000D01*
X212102000Y-107811000D01*
X212102000Y-109613000D01*
G37*
G36*
X221394513Y-107815927D02*
G01*
X221543813Y-107845624D01*
X221707785Y-107913544D01*
X221855355Y-108012147D01*
X221980854Y-108137646D01*
X222079457Y-108285216D01*
X222147377Y-108449188D01*
X222182001Y-108623259D01*
X222182001Y-108800741D01*
X222147377Y-108974812D01*
X222079457Y-109138784D01*
X221980854Y-109286354D01*
X221855355Y-109411853D01*
X221707785Y-109510456D01*
X221543813Y-109578376D01*
X221394513Y-109608073D01*
X221369743Y-109613000D01*
X221192259Y-109613000D01*
X221167489Y-109608073D01*
X221018189Y-109578376D01*
X220854217Y-109510456D01*
X220706647Y-109411853D01*
X220581148Y-109286354D01*
X220482545Y-109138784D01*
X220414625Y-108974812D01*
X220380001Y-108800741D01*
X220380001Y-108623259D01*
X220414625Y-108449188D01*
X220482545Y-108285216D01*
X220581148Y-108137646D01*
X220706647Y-108012147D01*
X220854217Y-107913544D01*
X221018189Y-107845624D01*
X221167489Y-107815927D01*
X221192259Y-107811000D01*
X221369743Y-107811000D01*
X221394513Y-107815927D01*
G37*
G36*
X216314513Y-107815927D02*
G01*
X216463813Y-107845624D01*
X216627785Y-107913544D01*
X216775355Y-108012147D01*
X216900854Y-108137646D01*
X216999457Y-108285216D01*
X217067377Y-108449188D01*
X217102001Y-108623259D01*
X217102001Y-108800741D01*
X217067377Y-108974812D01*
X216999457Y-109138784D01*
X216900854Y-109286354D01*
X216775355Y-109411853D01*
X216627785Y-109510456D01*
X216463813Y-109578376D01*
X216314513Y-109608073D01*
X216289743Y-109613000D01*
X216112259Y-109613000D01*
X216087489Y-109608073D01*
X215938189Y-109578376D01*
X215774217Y-109510456D01*
X215626647Y-109411853D01*
X215501148Y-109286354D01*
X215402545Y-109138784D01*
X215334625Y-108974812D01*
X215300001Y-108800741D01*
X215300001Y-108623259D01*
X215334625Y-108449188D01*
X215402545Y-108285216D01*
X215501148Y-108137646D01*
X215626647Y-108012147D01*
X215774217Y-107913544D01*
X215938189Y-107845624D01*
X216087489Y-107815927D01*
X216112259Y-107811000D01*
X216289743Y-107811000D01*
X216314513Y-107815927D01*
G37*
G36*
X213854512Y-107815927D02*
G01*
X214003812Y-107845624D01*
X214167784Y-107913544D01*
X214315354Y-108012147D01*
X214440853Y-108137646D01*
X214539456Y-108285216D01*
X214607376Y-108449188D01*
X214642000Y-108623259D01*
X214642000Y-108800741D01*
X214607376Y-108974812D01*
X214539456Y-109138784D01*
X214440853Y-109286354D01*
X214315354Y-109411853D01*
X214167784Y-109510456D01*
X214003812Y-109578376D01*
X213854512Y-109608073D01*
X213829742Y-109613000D01*
X213652258Y-109613000D01*
X213627488Y-109608073D01*
X213478188Y-109578376D01*
X213314216Y-109510456D01*
X213166646Y-109411853D01*
X213041147Y-109286354D01*
X212942544Y-109138784D01*
X212874624Y-108974812D01*
X212840000Y-108800741D01*
X212840000Y-108623259D01*
X212874624Y-108449188D01*
X212942544Y-108285216D01*
X213041147Y-108137646D01*
X213166646Y-108012147D01*
X213314216Y-107913544D01*
X213478188Y-107845624D01*
X213627488Y-107815927D01*
X213652258Y-107811000D01*
X213829742Y-107811000D01*
X213854512Y-107815927D01*
G37*
G36*
X226474513Y-107815927D02*
G01*
X226623813Y-107845624D01*
X226787785Y-107913544D01*
X226935355Y-108012147D01*
X227060854Y-108137646D01*
X227159457Y-108285216D01*
X227227377Y-108449188D01*
X227262001Y-108623259D01*
X227262001Y-108800741D01*
X227227377Y-108974812D01*
X227159457Y-109138784D01*
X227060854Y-109286354D01*
X226935355Y-109411853D01*
X226787785Y-109510456D01*
X226623813Y-109578376D01*
X226474513Y-109608073D01*
X226449743Y-109613000D01*
X226272259Y-109613000D01*
X226247489Y-109608073D01*
X226098189Y-109578376D01*
X225934217Y-109510456D01*
X225786647Y-109411853D01*
X225661148Y-109286354D01*
X225562545Y-109138784D01*
X225494625Y-108974812D01*
X225460001Y-108800741D01*
X225460001Y-108623259D01*
X225494625Y-108449188D01*
X225562545Y-108285216D01*
X225661148Y-108137646D01*
X225786647Y-108012147D01*
X225934217Y-107913544D01*
X226098189Y-107845624D01*
X226247489Y-107815927D01*
X226272259Y-107811000D01*
X226449743Y-107811000D01*
X226474513Y-107815927D01*
G37*
G36*
X218854513Y-107815927D02*
G01*
X219003813Y-107845624D01*
X219167785Y-107913544D01*
X219315355Y-108012147D01*
X219440854Y-108137646D01*
X219539457Y-108285216D01*
X219607377Y-108449188D01*
X219642001Y-108623259D01*
X219642001Y-108800741D01*
X219607377Y-108974812D01*
X219539457Y-109138784D01*
X219440854Y-109286354D01*
X219315355Y-109411853D01*
X219167785Y-109510456D01*
X219003813Y-109578376D01*
X218854513Y-109608073D01*
X218829743Y-109613000D01*
X218652259Y-109613000D01*
X218627489Y-109608073D01*
X218478189Y-109578376D01*
X218314217Y-109510456D01*
X218166647Y-109411853D01*
X218041148Y-109286354D01*
X217942545Y-109138784D01*
X217874625Y-108974812D01*
X217840001Y-108800741D01*
X217840001Y-108623259D01*
X217874625Y-108449188D01*
X217942545Y-108285216D01*
X218041148Y-108137646D01*
X218166647Y-108012147D01*
X218314217Y-107913544D01*
X218478189Y-107845624D01*
X218627489Y-107815927D01*
X218652259Y-107811000D01*
X218829743Y-107811000D01*
X218854513Y-107815927D01*
G37*
G36*
X144674715Y-107522058D02*
G01*
X144792722Y-107557855D01*
X144901468Y-107615981D01*
X144996790Y-107694210D01*
X145075019Y-107789532D01*
X145133145Y-107898278D01*
X145168942Y-108016285D01*
X145181028Y-108139000D01*
X145168942Y-108261715D01*
X145133145Y-108379722D01*
X145075019Y-108488468D01*
X144996790Y-108583790D01*
X144901468Y-108662019D01*
X144792722Y-108720145D01*
X144792719Y-108720146D01*
X144785921Y-108722208D01*
X144674715Y-108755942D01*
X144582746Y-108765000D01*
X143871254Y-108765000D01*
X143779285Y-108755942D01*
X143668079Y-108722208D01*
X143661281Y-108720146D01*
X143661278Y-108720145D01*
X143552532Y-108662019D01*
X143457210Y-108583790D01*
X143378981Y-108488468D01*
X143320855Y-108379722D01*
X143285058Y-108261715D01*
X143272972Y-108139000D01*
X143285058Y-108016285D01*
X143320855Y-107898278D01*
X143378981Y-107789532D01*
X143457210Y-107694210D01*
X143552532Y-107615981D01*
X143661278Y-107557855D01*
X143779285Y-107522058D01*
X143871254Y-107513000D01*
X144582746Y-107513000D01*
X144674715Y-107522058D01*
G37*
G36*
X232951000Y-103598326D02*
G01*
X232953402Y-103622712D01*
X232960515Y-103646161D01*
X232972066Y-103667772D01*
X232996700Y-103694951D01*
X233015016Y-103709983D01*
X233040654Y-103741223D01*
X233059704Y-103776862D01*
X233071435Y-103815532D01*
X233076000Y-103861888D01*
X233076000Y-104938112D01*
X233071435Y-104984468D01*
X233059704Y-105023138D01*
X233040654Y-105058777D01*
X233015017Y-105090017D01*
X232983777Y-105115654D01*
X232948138Y-105134704D01*
X232909468Y-105146435D01*
X232863112Y-105151000D01*
X232211888Y-105151000D01*
X232165532Y-105146435D01*
X232126862Y-105134704D01*
X232091223Y-105115654D01*
X232059983Y-105090017D01*
X232034346Y-105058777D01*
X232015296Y-105023138D01*
X232003565Y-104984468D01*
X231999000Y-104938112D01*
X231999000Y-103861888D01*
X232003565Y-103815532D01*
X232015296Y-103776862D01*
X232034346Y-103741223D01*
X232059983Y-103709983D01*
X232098495Y-103678378D01*
X232103303Y-103675165D01*
X232120629Y-103657837D01*
X232134242Y-103637462D01*
X232143619Y-103614823D01*
X232149000Y-103578542D01*
X232149000Y-101649000D01*
X232951000Y-101649000D01*
X232951000Y-103598326D01*
G37*
G36*
X216451000Y-103578542D02*
G01*
X216453402Y-103602928D01*
X216460515Y-103626377D01*
X216472066Y-103647988D01*
X216487611Y-103666930D01*
X216499755Y-103675936D01*
X216499262Y-103676537D01*
X216540017Y-103709983D01*
X216565654Y-103741223D01*
X216584704Y-103776862D01*
X216596435Y-103815532D01*
X216601000Y-103861888D01*
X216601000Y-104938112D01*
X216596435Y-104984468D01*
X216584704Y-105023138D01*
X216565654Y-105058777D01*
X216540017Y-105090017D01*
X216508777Y-105115654D01*
X216473138Y-105134704D01*
X216434468Y-105146435D01*
X216388112Y-105151000D01*
X215736888Y-105151000D01*
X215690532Y-105146435D01*
X215651862Y-105134704D01*
X215616223Y-105115654D01*
X215584983Y-105090017D01*
X215559346Y-105058777D01*
X215540296Y-105023138D01*
X215528565Y-104984468D01*
X215524000Y-104938112D01*
X215524000Y-103861888D01*
X215528565Y-103815532D01*
X215540296Y-103776862D01*
X215559346Y-103741223D01*
X215584984Y-103709983D01*
X215603300Y-103694951D01*
X215620627Y-103677624D01*
X215634240Y-103657250D01*
X215643618Y-103634611D01*
X215649000Y-103598326D01*
X215649000Y-101649000D01*
X216451000Y-101649000D01*
X216451000Y-103578542D01*
G37*
G36*
X218351000Y-103598326D02*
G01*
X218353402Y-103622712D01*
X218360515Y-103646161D01*
X218372066Y-103667772D01*
X218396700Y-103694951D01*
X218415016Y-103709983D01*
X218440654Y-103741223D01*
X218459704Y-103776862D01*
X218471435Y-103815532D01*
X218476000Y-103861888D01*
X218476000Y-104938112D01*
X218471435Y-104984468D01*
X218459704Y-105023138D01*
X218440654Y-105058777D01*
X218415017Y-105090017D01*
X218383777Y-105115654D01*
X218348138Y-105134704D01*
X218309468Y-105146435D01*
X218263112Y-105151000D01*
X217611888Y-105151000D01*
X217565532Y-105146435D01*
X217526862Y-105134704D01*
X217491223Y-105115654D01*
X217459983Y-105090017D01*
X217434346Y-105058777D01*
X217415296Y-105023138D01*
X217403565Y-104984468D01*
X217399000Y-104938112D01*
X217399000Y-103861888D01*
X217403565Y-103815532D01*
X217415296Y-103776862D01*
X217434346Y-103741223D01*
X217459983Y-103709983D01*
X217498495Y-103678378D01*
X217503303Y-103675165D01*
X217520629Y-103657837D01*
X217534242Y-103637462D01*
X217543619Y-103614823D01*
X217549000Y-103578542D01*
X217549000Y-101649000D01*
X218351000Y-101649000D01*
X218351000Y-103598326D01*
G37*
G36*
X231051000Y-103578542D02*
G01*
X231053402Y-103602928D01*
X231060515Y-103626377D01*
X231072066Y-103647988D01*
X231087611Y-103666930D01*
X231099755Y-103675936D01*
X231099262Y-103676537D01*
X231140017Y-103709983D01*
X231165654Y-103741223D01*
X231184704Y-103776862D01*
X231196435Y-103815532D01*
X231201000Y-103861888D01*
X231201000Y-104938112D01*
X231196435Y-104984468D01*
X231184704Y-105023138D01*
X231165654Y-105058777D01*
X231140017Y-105090017D01*
X231108777Y-105115654D01*
X231073138Y-105134704D01*
X231034468Y-105146435D01*
X230988112Y-105151000D01*
X230336888Y-105151000D01*
X230290532Y-105146435D01*
X230251862Y-105134704D01*
X230216223Y-105115654D01*
X230184983Y-105090017D01*
X230159346Y-105058777D01*
X230140296Y-105023138D01*
X230128565Y-104984468D01*
X230124000Y-104938112D01*
X230124000Y-103861888D01*
X230128565Y-103815532D01*
X230140296Y-103776862D01*
X230159346Y-103741223D01*
X230184984Y-103709983D01*
X230203300Y-103694951D01*
X230220627Y-103677624D01*
X230234240Y-103657250D01*
X230243618Y-103634611D01*
X230249000Y-103598326D01*
X230249000Y-101649000D01*
X231051000Y-101649000D01*
X231051000Y-103578542D01*
G37*
G36*
X223851000Y-103440731D02*
G01*
X223853402Y-103465117D01*
X223860515Y-103488566D01*
X223872066Y-103510177D01*
X223887611Y-103529119D01*
X223917071Y-103550968D01*
X223917776Y-103551345D01*
X223949017Y-103576983D01*
X223974654Y-103608223D01*
X223993704Y-103643862D01*
X224005435Y-103682532D01*
X224010000Y-103728888D01*
X224010000Y-104805112D01*
X224005435Y-104851468D01*
X223993704Y-104890138D01*
X223974654Y-104925777D01*
X223949017Y-104957017D01*
X223917777Y-104982654D01*
X223882138Y-105001704D01*
X223843468Y-105013435D01*
X223797112Y-105018000D01*
X223145888Y-105018000D01*
X223099532Y-105013435D01*
X223060862Y-105001704D01*
X223025223Y-104982654D01*
X222993983Y-104957017D01*
X222968346Y-104925777D01*
X222949296Y-104890138D01*
X222937565Y-104851468D01*
X222933000Y-104805112D01*
X222933000Y-103728888D01*
X222937565Y-103682532D01*
X222949296Y-103643862D01*
X222968346Y-103608223D01*
X222993984Y-103576982D01*
X223003300Y-103569337D01*
X223020627Y-103552010D01*
X223034241Y-103531636D01*
X223043618Y-103508997D01*
X223049000Y-103472712D01*
X223049000Y-101649000D01*
X223851000Y-101649000D01*
X223851000Y-103440731D01*
G37*
G36*
X225751000Y-103457940D02*
G01*
X225753402Y-103482326D01*
X225760515Y-103505775D01*
X225772066Y-103527386D01*
X225787611Y-103546328D01*
X225796701Y-103554566D01*
X225824017Y-103576983D01*
X225849654Y-103608223D01*
X225868704Y-103643862D01*
X225880435Y-103682532D01*
X225885000Y-103728888D01*
X225885000Y-104805112D01*
X225880435Y-104851468D01*
X225868704Y-104890138D01*
X225849654Y-104925777D01*
X225824017Y-104957017D01*
X225792777Y-104982654D01*
X225757138Y-105001704D01*
X225718468Y-105013435D01*
X225672112Y-105018000D01*
X225020888Y-105018000D01*
X224974532Y-105013435D01*
X224935862Y-105001704D01*
X224900223Y-104982654D01*
X224868983Y-104957017D01*
X224843346Y-104925777D01*
X224824296Y-104890138D01*
X224812565Y-104851468D01*
X224808000Y-104805112D01*
X224808000Y-103728888D01*
X224812565Y-103682532D01*
X224824296Y-103643862D01*
X224843346Y-103608223D01*
X224868984Y-103576983D01*
X224903300Y-103548820D01*
X224920627Y-103531493D01*
X224934240Y-103511119D01*
X224943618Y-103488480D01*
X224949000Y-103452195D01*
X224949000Y-101649000D01*
X225751000Y-101649000D01*
X225751000Y-103457940D01*
G37*
G36*
X235701000Y-104701000D02*
G01*
X233899000Y-104701000D01*
X233899000Y-102899000D01*
X235701000Y-102899000D01*
X235701000Y-104701000D01*
G37*
G36*
X221501000Y-104701000D02*
G01*
X219699000Y-104701000D01*
X219699000Y-102899000D01*
X221501000Y-102899000D01*
X221501000Y-104701000D01*
G37*
G36*
X228701000Y-104701000D02*
G01*
X226899000Y-104701000D01*
X226899000Y-102899000D01*
X228701000Y-102899000D01*
X228701000Y-104701000D01*
G37*
G36*
X234907971Y-100442825D02*
G01*
X235062812Y-100473624D01*
X235226784Y-100541544D01*
X235374354Y-100640147D01*
X235499853Y-100765646D01*
X235598456Y-100913216D01*
X235666376Y-101077188D01*
X235701000Y-101251259D01*
X235701000Y-101428741D01*
X235666376Y-101602812D01*
X235598456Y-101766784D01*
X235499853Y-101914354D01*
X235374354Y-102039853D01*
X235226784Y-102138456D01*
X235062812Y-102206376D01*
X234913512Y-102236073D01*
X234888742Y-102241000D01*
X234711258Y-102241000D01*
X234686488Y-102236073D01*
X234537188Y-102206376D01*
X234373216Y-102138456D01*
X234225646Y-102039853D01*
X234100147Y-101914354D01*
X234001544Y-101766784D01*
X233933624Y-101602812D01*
X233899000Y-101428741D01*
X233899000Y-101251259D01*
X233933624Y-101077188D01*
X234001544Y-100913216D01*
X234100147Y-100765646D01*
X234225646Y-100640147D01*
X234373216Y-100541544D01*
X234537188Y-100473624D01*
X234692029Y-100442825D01*
X234711258Y-100439000D01*
X234888742Y-100439000D01*
X234907971Y-100442825D01*
G37*
G36*
X220707971Y-100442825D02*
G01*
X220862812Y-100473624D01*
X221026784Y-100541544D01*
X221174354Y-100640147D01*
X221299853Y-100765646D01*
X221398456Y-100913216D01*
X221466376Y-101077188D01*
X221501000Y-101251259D01*
X221501000Y-101428741D01*
X221466376Y-101602812D01*
X221398456Y-101766784D01*
X221299853Y-101914354D01*
X221174354Y-102039853D01*
X221026784Y-102138456D01*
X220862812Y-102206376D01*
X220713512Y-102236073D01*
X220688742Y-102241000D01*
X220511258Y-102241000D01*
X220486488Y-102236073D01*
X220337188Y-102206376D01*
X220173216Y-102138456D01*
X220025646Y-102039853D01*
X219900147Y-101914354D01*
X219801544Y-101766784D01*
X219733624Y-101602812D01*
X219699000Y-101428741D01*
X219699000Y-101251259D01*
X219733624Y-101077188D01*
X219801544Y-100913216D01*
X219900147Y-100765646D01*
X220025646Y-100640147D01*
X220173216Y-100541544D01*
X220337188Y-100473624D01*
X220492029Y-100442825D01*
X220511258Y-100439000D01*
X220688742Y-100439000D01*
X220707971Y-100442825D01*
G37*
G36*
X227907971Y-100442825D02*
G01*
X228062812Y-100473624D01*
X228226784Y-100541544D01*
X228374354Y-100640147D01*
X228499853Y-100765646D01*
X228598456Y-100913216D01*
X228666376Y-101077188D01*
X228701000Y-101251259D01*
X228701000Y-101428741D01*
X228666376Y-101602812D01*
X228598456Y-101766784D01*
X228499853Y-101914354D01*
X228374354Y-102039853D01*
X228226784Y-102138456D01*
X228062812Y-102206376D01*
X227913512Y-102236073D01*
X227888742Y-102241000D01*
X227711258Y-102241000D01*
X227686488Y-102236073D01*
X227537188Y-102206376D01*
X227373216Y-102138456D01*
X227225646Y-102039853D01*
X227100147Y-101914354D01*
X227001544Y-101766784D01*
X226933624Y-101602812D01*
X226899000Y-101428741D01*
X226899000Y-101251259D01*
X226933624Y-101077188D01*
X227001544Y-100913216D01*
X227100147Y-100765646D01*
X227225646Y-100640147D01*
X227373216Y-100541544D01*
X227537188Y-100473624D01*
X227692029Y-100442825D01*
X227711258Y-100439000D01*
X227888742Y-100439000D01*
X227907971Y-100442825D01*
G37*
G36*
X210797512Y-100322927D02*
G01*
X210946812Y-100352624D01*
X211110784Y-100420544D01*
X211258354Y-100519147D01*
X211383853Y-100644646D01*
X211482456Y-100792216D01*
X211550376Y-100956188D01*
X211585000Y-101130259D01*
X211585000Y-101307741D01*
X211550376Y-101481812D01*
X211482456Y-101645784D01*
X211383853Y-101793354D01*
X211258354Y-101918853D01*
X211110784Y-102017456D01*
X210946812Y-102085376D01*
X210797512Y-102115073D01*
X210772742Y-102120000D01*
X210595258Y-102120000D01*
X210570488Y-102115073D01*
X210421188Y-102085376D01*
X210257216Y-102017456D01*
X210109646Y-101918853D01*
X209984147Y-101793354D01*
X209885544Y-101645784D01*
X209817624Y-101481812D01*
X209783000Y-101307741D01*
X209783000Y-101130259D01*
X209817624Y-100956188D01*
X209885544Y-100792216D01*
X209984147Y-100644646D01*
X210109646Y-100519147D01*
X210257216Y-100420544D01*
X210421188Y-100352624D01*
X210570488Y-100322927D01*
X210595258Y-100318000D01*
X210772742Y-100318000D01*
X210797512Y-100322927D01*
G37*
G36*
X213337512Y-100322927D02*
G01*
X213486812Y-100352624D01*
X213650784Y-100420544D01*
X213798354Y-100519147D01*
X213923853Y-100644646D01*
X214022456Y-100792216D01*
X214090376Y-100956188D01*
X214125000Y-101130259D01*
X214125000Y-101307741D01*
X214090376Y-101481812D01*
X214022456Y-101645784D01*
X213923853Y-101793354D01*
X213798354Y-101918853D01*
X213650784Y-102017456D01*
X213486812Y-102085376D01*
X213337512Y-102115073D01*
X213312742Y-102120000D01*
X213135258Y-102120000D01*
X213110488Y-102115073D01*
X212961188Y-102085376D01*
X212797216Y-102017456D01*
X212649646Y-101918853D01*
X212524147Y-101793354D01*
X212425544Y-101645784D01*
X212357624Y-101481812D01*
X212323000Y-101307741D01*
X212323000Y-101130259D01*
X212357624Y-100956188D01*
X212425544Y-100792216D01*
X212524147Y-100644646D01*
X212649646Y-100519147D01*
X212797216Y-100420544D01*
X212961188Y-100352624D01*
X213110488Y-100322927D01*
X213135258Y-100318000D01*
X213312742Y-100318000D01*
X213337512Y-100322927D01*
G37*
G36*
X166220512Y-100322927D02*
G01*
X166369812Y-100352624D01*
X166533784Y-100420544D01*
X166681354Y-100519147D01*
X166806853Y-100644646D01*
X166905456Y-100792216D01*
X166973376Y-100956188D01*
X167008000Y-101130259D01*
X167008000Y-101307741D01*
X166973376Y-101481812D01*
X166905456Y-101645784D01*
X166806853Y-101793354D01*
X166681354Y-101918853D01*
X166533784Y-102017456D01*
X166369812Y-102085376D01*
X166220512Y-102115073D01*
X166195742Y-102120000D01*
X166018258Y-102120000D01*
X165993488Y-102115073D01*
X165844188Y-102085376D01*
X165680216Y-102017456D01*
X165532646Y-101918853D01*
X165407147Y-101793354D01*
X165308544Y-101645784D01*
X165240624Y-101481812D01*
X165206000Y-101307741D01*
X165206000Y-101130259D01*
X165240624Y-100956188D01*
X165308544Y-100792216D01*
X165407147Y-100644646D01*
X165532646Y-100519147D01*
X165680216Y-100420544D01*
X165844188Y-100352624D01*
X165993488Y-100322927D01*
X166018258Y-100318000D01*
X166195742Y-100318000D01*
X166220512Y-100322927D01*
G37*
G36*
X171300512Y-100322927D02*
G01*
X171449812Y-100352624D01*
X171613784Y-100420544D01*
X171761354Y-100519147D01*
X171886853Y-100644646D01*
X171985456Y-100792216D01*
X172053376Y-100956188D01*
X172088000Y-101130259D01*
X172088000Y-101307741D01*
X172053376Y-101481812D01*
X171985456Y-101645784D01*
X171886853Y-101793354D01*
X171761354Y-101918853D01*
X171613784Y-102017456D01*
X171449812Y-102085376D01*
X171300512Y-102115073D01*
X171275742Y-102120000D01*
X171098258Y-102120000D01*
X171073488Y-102115073D01*
X170924188Y-102085376D01*
X170760216Y-102017456D01*
X170612646Y-101918853D01*
X170487147Y-101793354D01*
X170388544Y-101645784D01*
X170320624Y-101481812D01*
X170286000Y-101307741D01*
X170286000Y-101130259D01*
X170320624Y-100956188D01*
X170388544Y-100792216D01*
X170487147Y-100644646D01*
X170612646Y-100519147D01*
X170760216Y-100420544D01*
X170924188Y-100352624D01*
X171073488Y-100322927D01*
X171098258Y-100318000D01*
X171275742Y-100318000D01*
X171300512Y-100322927D01*
G37*
G36*
X193017512Y-100322927D02*
G01*
X193166812Y-100352624D01*
X193330784Y-100420544D01*
X193478354Y-100519147D01*
X193603853Y-100644646D01*
X193702456Y-100792216D01*
X193770376Y-100956188D01*
X193805000Y-101130259D01*
X193805000Y-101307741D01*
X193770376Y-101481812D01*
X193702456Y-101645784D01*
X193603853Y-101793354D01*
X193478354Y-101918853D01*
X193330784Y-102017456D01*
X193166812Y-102085376D01*
X193017512Y-102115073D01*
X192992742Y-102120000D01*
X192815258Y-102120000D01*
X192790488Y-102115073D01*
X192641188Y-102085376D01*
X192477216Y-102017456D01*
X192329646Y-101918853D01*
X192204147Y-101793354D01*
X192105544Y-101645784D01*
X192037624Y-101481812D01*
X192003000Y-101307741D01*
X192003000Y-101130259D01*
X192037624Y-100956188D01*
X192105544Y-100792216D01*
X192204147Y-100644646D01*
X192329646Y-100519147D01*
X192477216Y-100420544D01*
X192641188Y-100352624D01*
X192790488Y-100322927D01*
X192815258Y-100318000D01*
X192992742Y-100318000D01*
X193017512Y-100322927D01*
G37*
G36*
X173840512Y-100322927D02*
G01*
X173989812Y-100352624D01*
X174153784Y-100420544D01*
X174301354Y-100519147D01*
X174426853Y-100644646D01*
X174525456Y-100792216D01*
X174593376Y-100956188D01*
X174628000Y-101130259D01*
X174628000Y-101307741D01*
X174593376Y-101481812D01*
X174525456Y-101645784D01*
X174426853Y-101793354D01*
X174301354Y-101918853D01*
X174153784Y-102017456D01*
X173989812Y-102085376D01*
X173840512Y-102115073D01*
X173815742Y-102120000D01*
X173638258Y-102120000D01*
X173613488Y-102115073D01*
X173464188Y-102085376D01*
X173300216Y-102017456D01*
X173152646Y-101918853D01*
X173027147Y-101793354D01*
X172928544Y-101645784D01*
X172860624Y-101481812D01*
X172826000Y-101307741D01*
X172826000Y-101130259D01*
X172860624Y-100956188D01*
X172928544Y-100792216D01*
X173027147Y-100644646D01*
X173152646Y-100519147D01*
X173300216Y-100420544D01*
X173464188Y-100352624D01*
X173613488Y-100322927D01*
X173638258Y-100318000D01*
X173815742Y-100318000D01*
X173840512Y-100322927D01*
G37*
G36*
X176380512Y-100322927D02*
G01*
X176529812Y-100352624D01*
X176693784Y-100420544D01*
X176841354Y-100519147D01*
X176966853Y-100644646D01*
X177065456Y-100792216D01*
X177133376Y-100956188D01*
X177168000Y-101130259D01*
X177168000Y-101307741D01*
X177133376Y-101481812D01*
X177065456Y-101645784D01*
X176966853Y-101793354D01*
X176841354Y-101918853D01*
X176693784Y-102017456D01*
X176529812Y-102085376D01*
X176380512Y-102115073D01*
X176355742Y-102120000D01*
X176178258Y-102120000D01*
X176153488Y-102115073D01*
X176004188Y-102085376D01*
X175840216Y-102017456D01*
X175692646Y-101918853D01*
X175567147Y-101793354D01*
X175468544Y-101645784D01*
X175400624Y-101481812D01*
X175366000Y-101307741D01*
X175366000Y-101130259D01*
X175400624Y-100956188D01*
X175468544Y-100792216D01*
X175567147Y-100644646D01*
X175692646Y-100519147D01*
X175840216Y-100420544D01*
X176004188Y-100352624D01*
X176153488Y-100322927D01*
X176178258Y-100318000D01*
X176355742Y-100318000D01*
X176380512Y-100322927D01*
G37*
G36*
X178920512Y-100322927D02*
G01*
X179069812Y-100352624D01*
X179233784Y-100420544D01*
X179381354Y-100519147D01*
X179506853Y-100644646D01*
X179605456Y-100792216D01*
X179673376Y-100956188D01*
X179708000Y-101130259D01*
X179708000Y-101307741D01*
X179673376Y-101481812D01*
X179605456Y-101645784D01*
X179506853Y-101793354D01*
X179381354Y-101918853D01*
X179233784Y-102017456D01*
X179069812Y-102085376D01*
X178920512Y-102115073D01*
X178895742Y-102120000D01*
X178718258Y-102120000D01*
X178693488Y-102115073D01*
X178544188Y-102085376D01*
X178380216Y-102017456D01*
X178232646Y-101918853D01*
X178107147Y-101793354D01*
X178008544Y-101645784D01*
X177940624Y-101481812D01*
X177906000Y-101307741D01*
X177906000Y-101130259D01*
X177940624Y-100956188D01*
X178008544Y-100792216D01*
X178107147Y-100644646D01*
X178232646Y-100519147D01*
X178380216Y-100420544D01*
X178544188Y-100352624D01*
X178693488Y-100322927D01*
X178718258Y-100318000D01*
X178895742Y-100318000D01*
X178920512Y-100322927D01*
G37*
G36*
X168760512Y-100322927D02*
G01*
X168909812Y-100352624D01*
X169073784Y-100420544D01*
X169221354Y-100519147D01*
X169346853Y-100644646D01*
X169445456Y-100792216D01*
X169513376Y-100956188D01*
X169548000Y-101130259D01*
X169548000Y-101307741D01*
X169513376Y-101481812D01*
X169445456Y-101645784D01*
X169346853Y-101793354D01*
X169221354Y-101918853D01*
X169073784Y-102017456D01*
X168909812Y-102085376D01*
X168760512Y-102115073D01*
X168735742Y-102120000D01*
X168558258Y-102120000D01*
X168533488Y-102115073D01*
X168384188Y-102085376D01*
X168220216Y-102017456D01*
X168072646Y-101918853D01*
X167947147Y-101793354D01*
X167848544Y-101645784D01*
X167780624Y-101481812D01*
X167746000Y-101307741D01*
X167746000Y-101130259D01*
X167780624Y-100956188D01*
X167848544Y-100792216D01*
X167947147Y-100644646D01*
X168072646Y-100519147D01*
X168220216Y-100420544D01*
X168384188Y-100352624D01*
X168533488Y-100322927D01*
X168558258Y-100318000D01*
X168735742Y-100318000D01*
X168760512Y-100322927D01*
G37*
G36*
X184000512Y-100322927D02*
G01*
X184149812Y-100352624D01*
X184313784Y-100420544D01*
X184461354Y-100519147D01*
X184586853Y-100644646D01*
X184685456Y-100792216D01*
X184753376Y-100956188D01*
X184788000Y-101130259D01*
X184788000Y-101307741D01*
X184753376Y-101481812D01*
X184685456Y-101645784D01*
X184586853Y-101793354D01*
X184461354Y-101918853D01*
X184313784Y-102017456D01*
X184149812Y-102085376D01*
X184000512Y-102115073D01*
X183975742Y-102120000D01*
X183798258Y-102120000D01*
X183773488Y-102115073D01*
X183624188Y-102085376D01*
X183460216Y-102017456D01*
X183312646Y-101918853D01*
X183187147Y-101793354D01*
X183088544Y-101645784D01*
X183020624Y-101481812D01*
X182986000Y-101307741D01*
X182986000Y-101130259D01*
X183020624Y-100956188D01*
X183088544Y-100792216D01*
X183187147Y-100644646D01*
X183312646Y-100519147D01*
X183460216Y-100420544D01*
X183624188Y-100352624D01*
X183773488Y-100322927D01*
X183798258Y-100318000D01*
X183975742Y-100318000D01*
X184000512Y-100322927D01*
G37*
G36*
X186540512Y-100322927D02*
G01*
X186689812Y-100352624D01*
X186853784Y-100420544D01*
X187001354Y-100519147D01*
X187126853Y-100644646D01*
X187225456Y-100792216D01*
X187293376Y-100956188D01*
X187328000Y-101130259D01*
X187328000Y-101307741D01*
X187293376Y-101481812D01*
X187225456Y-101645784D01*
X187126853Y-101793354D01*
X187001354Y-101918853D01*
X186853784Y-102017456D01*
X186689812Y-102085376D01*
X186540512Y-102115073D01*
X186515742Y-102120000D01*
X186338258Y-102120000D01*
X186313488Y-102115073D01*
X186164188Y-102085376D01*
X186000216Y-102017456D01*
X185852646Y-101918853D01*
X185727147Y-101793354D01*
X185628544Y-101645784D01*
X185560624Y-101481812D01*
X185526000Y-101307741D01*
X185526000Y-101130259D01*
X185560624Y-100956188D01*
X185628544Y-100792216D01*
X185727147Y-100644646D01*
X185852646Y-100519147D01*
X186000216Y-100420544D01*
X186164188Y-100352624D01*
X186313488Y-100322927D01*
X186338258Y-100318000D01*
X186515742Y-100318000D01*
X186540512Y-100322927D01*
G37*
G36*
X195557512Y-100322927D02*
G01*
X195706812Y-100352624D01*
X195870784Y-100420544D01*
X196018354Y-100519147D01*
X196143853Y-100644646D01*
X196242456Y-100792216D01*
X196310376Y-100956188D01*
X196345000Y-101130259D01*
X196345000Y-101307741D01*
X196310376Y-101481812D01*
X196242456Y-101645784D01*
X196143853Y-101793354D01*
X196018354Y-101918853D01*
X195870784Y-102017456D01*
X195706812Y-102085376D01*
X195557512Y-102115073D01*
X195532742Y-102120000D01*
X195355258Y-102120000D01*
X195330488Y-102115073D01*
X195181188Y-102085376D01*
X195017216Y-102017456D01*
X194869646Y-101918853D01*
X194744147Y-101793354D01*
X194645544Y-101645784D01*
X194577624Y-101481812D01*
X194543000Y-101307741D01*
X194543000Y-101130259D01*
X194577624Y-100956188D01*
X194645544Y-100792216D01*
X194744147Y-100644646D01*
X194869646Y-100519147D01*
X195017216Y-100420544D01*
X195181188Y-100352624D01*
X195330488Y-100322927D01*
X195355258Y-100318000D01*
X195532742Y-100318000D01*
X195557512Y-100322927D01*
G37*
G36*
X203177512Y-100322927D02*
G01*
X203326812Y-100352624D01*
X203490784Y-100420544D01*
X203638354Y-100519147D01*
X203763853Y-100644646D01*
X203862456Y-100792216D01*
X203930376Y-100956188D01*
X203965000Y-101130259D01*
X203965000Y-101307741D01*
X203930376Y-101481812D01*
X203862456Y-101645784D01*
X203763853Y-101793354D01*
X203638354Y-101918853D01*
X203490784Y-102017456D01*
X203326812Y-102085376D01*
X203177512Y-102115073D01*
X203152742Y-102120000D01*
X202975258Y-102120000D01*
X202950488Y-102115073D01*
X202801188Y-102085376D01*
X202637216Y-102017456D01*
X202489646Y-101918853D01*
X202364147Y-101793354D01*
X202265544Y-101645784D01*
X202197624Y-101481812D01*
X202163000Y-101307741D01*
X202163000Y-101130259D01*
X202197624Y-100956188D01*
X202265544Y-100792216D01*
X202364147Y-100644646D01*
X202489646Y-100519147D01*
X202637216Y-100420544D01*
X202801188Y-100352624D01*
X202950488Y-100322927D01*
X202975258Y-100318000D01*
X203152742Y-100318000D01*
X203177512Y-100322927D01*
G37*
G36*
X205717512Y-100322927D02*
G01*
X205866812Y-100352624D01*
X206030784Y-100420544D01*
X206178354Y-100519147D01*
X206303853Y-100644646D01*
X206402456Y-100792216D01*
X206470376Y-100956188D01*
X206505000Y-101130259D01*
X206505000Y-101307741D01*
X206470376Y-101481812D01*
X206402456Y-101645784D01*
X206303853Y-101793354D01*
X206178354Y-101918853D01*
X206030784Y-102017456D01*
X205866812Y-102085376D01*
X205717512Y-102115073D01*
X205692742Y-102120000D01*
X205515258Y-102120000D01*
X205490488Y-102115073D01*
X205341188Y-102085376D01*
X205177216Y-102017456D01*
X205029646Y-101918853D01*
X204904147Y-101793354D01*
X204805544Y-101645784D01*
X204737624Y-101481812D01*
X204703000Y-101307741D01*
X204703000Y-101130259D01*
X204737624Y-100956188D01*
X204805544Y-100792216D01*
X204904147Y-100644646D01*
X205029646Y-100519147D01*
X205177216Y-100420544D01*
X205341188Y-100352624D01*
X205490488Y-100322927D01*
X205515258Y-100318000D01*
X205692742Y-100318000D01*
X205717512Y-100322927D01*
G37*
G36*
X208257512Y-100322927D02*
G01*
X208406812Y-100352624D01*
X208570784Y-100420544D01*
X208718354Y-100519147D01*
X208843853Y-100644646D01*
X208942456Y-100792216D01*
X209010376Y-100956188D01*
X209045000Y-101130259D01*
X209045000Y-101307741D01*
X209010376Y-101481812D01*
X208942456Y-101645784D01*
X208843853Y-101793354D01*
X208718354Y-101918853D01*
X208570784Y-102017456D01*
X208406812Y-102085376D01*
X208257512Y-102115073D01*
X208232742Y-102120000D01*
X208055258Y-102120000D01*
X208030488Y-102115073D01*
X207881188Y-102085376D01*
X207717216Y-102017456D01*
X207569646Y-101918853D01*
X207444147Y-101793354D01*
X207345544Y-101645784D01*
X207277624Y-101481812D01*
X207243000Y-101307741D01*
X207243000Y-101130259D01*
X207277624Y-100956188D01*
X207345544Y-100792216D01*
X207444147Y-100644646D01*
X207569646Y-100519147D01*
X207717216Y-100420544D01*
X207881188Y-100352624D01*
X208030488Y-100322927D01*
X208055258Y-100318000D01*
X208232742Y-100318000D01*
X208257512Y-100322927D01*
G37*
G36*
X181460512Y-100322927D02*
G01*
X181609812Y-100352624D01*
X181773784Y-100420544D01*
X181921354Y-100519147D01*
X182046853Y-100644646D01*
X182145456Y-100792216D01*
X182213376Y-100956188D01*
X182248000Y-101130259D01*
X182248000Y-101307741D01*
X182213376Y-101481812D01*
X182145456Y-101645784D01*
X182046853Y-101793354D01*
X181921354Y-101918853D01*
X181773784Y-102017456D01*
X181609812Y-102085376D01*
X181460512Y-102115073D01*
X181435742Y-102120000D01*
X181258258Y-102120000D01*
X181233488Y-102115073D01*
X181084188Y-102085376D01*
X180920216Y-102017456D01*
X180772646Y-101918853D01*
X180647147Y-101793354D01*
X180548544Y-101645784D01*
X180480624Y-101481812D01*
X180446000Y-101307741D01*
X180446000Y-101130259D01*
X180480624Y-100956188D01*
X180548544Y-100792216D01*
X180647147Y-100644646D01*
X180772646Y-100519147D01*
X180920216Y-100420544D01*
X181084188Y-100352624D01*
X181233488Y-100322927D01*
X181258258Y-100318000D01*
X181435742Y-100318000D01*
X181460512Y-100322927D01*
G37*
G36*
X191265000Y-102120000D02*
G01*
X189463000Y-102120000D01*
X189463000Y-100318000D01*
X191265000Y-100318000D01*
X191265000Y-102120000D01*
G37*
G36*
X164468000Y-102120000D02*
G01*
X162666000Y-102120000D01*
X162666000Y-100318000D01*
X164468000Y-100318000D01*
X164468000Y-102120000D01*
G37*
G36*
X160260512Y-100322927D02*
G01*
X160409812Y-100352624D01*
X160573784Y-100420544D01*
X160721354Y-100519147D01*
X160846853Y-100644646D01*
X160945456Y-100792216D01*
X161013376Y-100956188D01*
X161048000Y-101130259D01*
X161048000Y-101307741D01*
X161013376Y-101481812D01*
X160945456Y-101645784D01*
X160846853Y-101793354D01*
X160721354Y-101918853D01*
X160573784Y-102017456D01*
X160409812Y-102085376D01*
X160260512Y-102115073D01*
X160235742Y-102120000D01*
X160058258Y-102120000D01*
X160033488Y-102115073D01*
X159884188Y-102085376D01*
X159720216Y-102017456D01*
X159572646Y-101918853D01*
X159447147Y-101793354D01*
X159348544Y-101645784D01*
X159280624Y-101481812D01*
X159246000Y-101307741D01*
X159246000Y-101130259D01*
X159280624Y-100956188D01*
X159348544Y-100792216D01*
X159447147Y-100644646D01*
X159572646Y-100519147D01*
X159720216Y-100420544D01*
X159884188Y-100352624D01*
X160033488Y-100322927D01*
X160058258Y-100318000D01*
X160235742Y-100318000D01*
X160260512Y-100322927D01*
G37*
G36*
X157720512Y-100322927D02*
G01*
X157869812Y-100352624D01*
X158033784Y-100420544D01*
X158181354Y-100519147D01*
X158306853Y-100644646D01*
X158405456Y-100792216D01*
X158473376Y-100956188D01*
X158508000Y-101130259D01*
X158508000Y-101307741D01*
X158473376Y-101481812D01*
X158405456Y-101645784D01*
X158306853Y-101793354D01*
X158181354Y-101918853D01*
X158033784Y-102017456D01*
X157869812Y-102085376D01*
X157720512Y-102115073D01*
X157695742Y-102120000D01*
X157518258Y-102120000D01*
X157493488Y-102115073D01*
X157344188Y-102085376D01*
X157180216Y-102017456D01*
X157032646Y-101918853D01*
X156907147Y-101793354D01*
X156808544Y-101645784D01*
X156740624Y-101481812D01*
X156706000Y-101307741D01*
X156706000Y-101130259D01*
X156740624Y-100956188D01*
X156808544Y-100792216D01*
X156907147Y-100644646D01*
X157032646Y-100519147D01*
X157180216Y-100420544D01*
X157344188Y-100352624D01*
X157493488Y-100322927D01*
X157518258Y-100318000D01*
X157695742Y-100318000D01*
X157720512Y-100322927D01*
G37*
G36*
X155968000Y-102120000D02*
G01*
X154166000Y-102120000D01*
X154166000Y-100318000D01*
X155968000Y-100318000D01*
X155968000Y-102120000D01*
G37*
G36*
X200637512Y-100322927D02*
G01*
X200786812Y-100352624D01*
X200950784Y-100420544D01*
X201098354Y-100519147D01*
X201223853Y-100644646D01*
X201322456Y-100792216D01*
X201390376Y-100956188D01*
X201425000Y-101130259D01*
X201425000Y-101307741D01*
X201390376Y-101481812D01*
X201322456Y-101645784D01*
X201223853Y-101793354D01*
X201098354Y-101918853D01*
X200950784Y-102017456D01*
X200786812Y-102085376D01*
X200637512Y-102115073D01*
X200612742Y-102120000D01*
X200435258Y-102120000D01*
X200410488Y-102115073D01*
X200261188Y-102085376D01*
X200097216Y-102017456D01*
X199949646Y-101918853D01*
X199824147Y-101793354D01*
X199725544Y-101645784D01*
X199657624Y-101481812D01*
X199623000Y-101307741D01*
X199623000Y-101130259D01*
X199657624Y-100956188D01*
X199725544Y-100792216D01*
X199824147Y-100644646D01*
X199949646Y-100519147D01*
X200097216Y-100420544D01*
X200261188Y-100352624D01*
X200410488Y-100322927D01*
X200435258Y-100318000D01*
X200612742Y-100318000D01*
X200637512Y-100322927D01*
G37*
G36*
X198097512Y-100322927D02*
G01*
X198246812Y-100352624D01*
X198410784Y-100420544D01*
X198558354Y-100519147D01*
X198683853Y-100644646D01*
X198782456Y-100792216D01*
X198850376Y-100956188D01*
X198885000Y-101130259D01*
X198885000Y-101307741D01*
X198850376Y-101481812D01*
X198782456Y-101645784D01*
X198683853Y-101793354D01*
X198558354Y-101918853D01*
X198410784Y-102017456D01*
X198246812Y-102085376D01*
X198097512Y-102115073D01*
X198072742Y-102120000D01*
X197895258Y-102120000D01*
X197870488Y-102115073D01*
X197721188Y-102085376D01*
X197557216Y-102017456D01*
X197409646Y-101918853D01*
X197284147Y-101793354D01*
X197185544Y-101645784D01*
X197117624Y-101481812D01*
X197083000Y-101307741D01*
X197083000Y-101130259D01*
X197117624Y-100956188D01*
X197185544Y-100792216D01*
X197284147Y-100644646D01*
X197409646Y-100519147D01*
X197557216Y-100420544D01*
X197721188Y-100352624D01*
X197870488Y-100322927D01*
X197895258Y-100318000D01*
X198072742Y-100318000D01*
X198097512Y-100322927D01*
G37*
G36*
X146032098Y-97115033D02*
G01*
X146496350Y-97307332D01*
X146496352Y-97307333D01*
X146914168Y-97586509D01*
X147269491Y-97941832D01*
X147404575Y-98144000D01*
X147548668Y-98359650D01*
X147740967Y-98823902D01*
X147839000Y-99316747D01*
X147839000Y-99819253D01*
X147740967Y-100312098D01*
X147603221Y-100644646D01*
X147548667Y-100776352D01*
X147269491Y-101194168D01*
X146914168Y-101549491D01*
X146496352Y-101828667D01*
X146496351Y-101828668D01*
X146496350Y-101828668D01*
X146032098Y-102020967D01*
X145539253Y-102119000D01*
X145036747Y-102119000D01*
X144543902Y-102020967D01*
X144079650Y-101828668D01*
X144079649Y-101828668D01*
X144079648Y-101828667D01*
X143661832Y-101549491D01*
X143306509Y-101194168D01*
X143027333Y-100776352D01*
X142972779Y-100644646D01*
X142835033Y-100312098D01*
X142737000Y-99819253D01*
X142737000Y-99316747D01*
X142835033Y-98823902D01*
X143027332Y-98359650D01*
X143171425Y-98144000D01*
X143306509Y-97941832D01*
X143661832Y-97586509D01*
X144079648Y-97307333D01*
X144079650Y-97307332D01*
X144543902Y-97115033D01*
X145036747Y-97017000D01*
X145539253Y-97017000D01*
X146032098Y-97115033D01*
G37*
G36*
X240139098Y-97115033D02*
G01*
X240603350Y-97307332D01*
X240603352Y-97307333D01*
X241021168Y-97586509D01*
X241376491Y-97941832D01*
X241511575Y-98144000D01*
X241655668Y-98359650D01*
X241847967Y-98823902D01*
X241946000Y-99316747D01*
X241946000Y-99819253D01*
X241847967Y-100312098D01*
X241710221Y-100644646D01*
X241655667Y-100776352D01*
X241376491Y-101194168D01*
X241021168Y-101549491D01*
X240603352Y-101828667D01*
X240603351Y-101828668D01*
X240603350Y-101828668D01*
X240139098Y-102020967D01*
X239646253Y-102119000D01*
X239143747Y-102119000D01*
X238650902Y-102020967D01*
X238186650Y-101828668D01*
X238186649Y-101828668D01*
X238186648Y-101828667D01*
X237768832Y-101549491D01*
X237413509Y-101194168D01*
X237134333Y-100776352D01*
X237079779Y-100644646D01*
X236942033Y-100312098D01*
X236844000Y-99819253D01*
X236844000Y-99316747D01*
X236942033Y-98823902D01*
X237134332Y-98359650D01*
X237278425Y-98144000D01*
X237413509Y-97941832D01*
X237768832Y-97586509D01*
X238186648Y-97307333D01*
X238186650Y-97307332D01*
X238650902Y-97115033D01*
X239143747Y-97017000D01*
X239646253Y-97017000D01*
X240139098Y-97115033D01*
G37*
G36*
X217401000Y-100351000D02*
G01*
X216599000Y-100351000D01*
X216599000Y-98249000D01*
X217401000Y-98249000D01*
X217401000Y-100351000D01*
G37*
G36*
X224801000Y-100351000D02*
G01*
X223999000Y-100351000D01*
X223999000Y-98249000D01*
X224801000Y-98249000D01*
X224801000Y-100351000D01*
G37*
G36*
X232001000Y-100351000D02*
G01*
X231199000Y-100351000D01*
X231199000Y-98249000D01*
X232001000Y-98249000D01*
X232001000Y-100351000D01*
G37*
G36*
X221501000Y-99701000D02*
G01*
X219699000Y-99701000D01*
X219699000Y-97899000D01*
X221501000Y-97899000D01*
X221501000Y-99701000D01*
G37*
G36*
X235701000Y-99701000D02*
G01*
X233899000Y-99701000D01*
X233899000Y-97899000D01*
X235701000Y-97899000D01*
X235701000Y-99701000D01*
G37*
G36*
X228701000Y-99701000D02*
G01*
X226899000Y-99701000D01*
X226899000Y-97899000D01*
X228701000Y-97899000D01*
X228701000Y-99701000D01*
G37*
G36*
X157720512Y-97782927D02*
G01*
X157869812Y-97812624D01*
X158033784Y-97880544D01*
X158181354Y-97979147D01*
X158306853Y-98104646D01*
X158405456Y-98252216D01*
X158473376Y-98416188D01*
X158508000Y-98590259D01*
X158508000Y-98767741D01*
X158473376Y-98941812D01*
X158405456Y-99105784D01*
X158306853Y-99253354D01*
X158181354Y-99378853D01*
X158033784Y-99477456D01*
X157869812Y-99545376D01*
X157720512Y-99575073D01*
X157695742Y-99580000D01*
X157518258Y-99580000D01*
X157493488Y-99575073D01*
X157344188Y-99545376D01*
X157180216Y-99477456D01*
X157032646Y-99378853D01*
X156907147Y-99253354D01*
X156808544Y-99105784D01*
X156740624Y-98941812D01*
X156706000Y-98767741D01*
X156706000Y-98590259D01*
X156740624Y-98416188D01*
X156808544Y-98252216D01*
X156907147Y-98104646D01*
X157032646Y-97979147D01*
X157180216Y-97880544D01*
X157344188Y-97812624D01*
X157493488Y-97782927D01*
X157518258Y-97778000D01*
X157695742Y-97778000D01*
X157720512Y-97782927D01*
G37*
G36*
X155180512Y-97782927D02*
G01*
X155329812Y-97812624D01*
X155493784Y-97880544D01*
X155641354Y-97979147D01*
X155766853Y-98104646D01*
X155865456Y-98252216D01*
X155933376Y-98416188D01*
X155968000Y-98590259D01*
X155968000Y-98767741D01*
X155933376Y-98941812D01*
X155865456Y-99105784D01*
X155766853Y-99253354D01*
X155641354Y-99378853D01*
X155493784Y-99477456D01*
X155329812Y-99545376D01*
X155180512Y-99575073D01*
X155155742Y-99580000D01*
X154978258Y-99580000D01*
X154953488Y-99575073D01*
X154804188Y-99545376D01*
X154640216Y-99477456D01*
X154492646Y-99378853D01*
X154367147Y-99253354D01*
X154268544Y-99105784D01*
X154200624Y-98941812D01*
X154166000Y-98767741D01*
X154166000Y-98590259D01*
X154200624Y-98416188D01*
X154268544Y-98252216D01*
X154367147Y-98104646D01*
X154492646Y-97979147D01*
X154640216Y-97880544D01*
X154804188Y-97812624D01*
X154953488Y-97782927D01*
X154978258Y-97778000D01*
X155155742Y-97778000D01*
X155180512Y-97782927D01*
G37*
G36*
X213337512Y-97782927D02*
G01*
X213486812Y-97812624D01*
X213650784Y-97880544D01*
X213798354Y-97979147D01*
X213923853Y-98104646D01*
X214022456Y-98252216D01*
X214090376Y-98416188D01*
X214125000Y-98590259D01*
X214125000Y-98767741D01*
X214090376Y-98941812D01*
X214022456Y-99105784D01*
X213923853Y-99253354D01*
X213798354Y-99378853D01*
X213650784Y-99477456D01*
X213486812Y-99545376D01*
X213337512Y-99575073D01*
X213312742Y-99580000D01*
X213135258Y-99580000D01*
X213110488Y-99575073D01*
X212961188Y-99545376D01*
X212797216Y-99477456D01*
X212649646Y-99378853D01*
X212524147Y-99253354D01*
X212425544Y-99105784D01*
X212357624Y-98941812D01*
X212323000Y-98767741D01*
X212323000Y-98590259D01*
X212357624Y-98416188D01*
X212425544Y-98252216D01*
X212524147Y-98104646D01*
X212649646Y-97979147D01*
X212797216Y-97880544D01*
X212961188Y-97812624D01*
X213110488Y-97782927D01*
X213135258Y-97778000D01*
X213312742Y-97778000D01*
X213337512Y-97782927D01*
G37*
G36*
X210797512Y-97782927D02*
G01*
X210946812Y-97812624D01*
X211110784Y-97880544D01*
X211258354Y-97979147D01*
X211383853Y-98104646D01*
X211482456Y-98252216D01*
X211550376Y-98416188D01*
X211585000Y-98590259D01*
X211585000Y-98767741D01*
X211550376Y-98941812D01*
X211482456Y-99105784D01*
X211383853Y-99253354D01*
X211258354Y-99378853D01*
X211110784Y-99477456D01*
X210946812Y-99545376D01*
X210797512Y-99575073D01*
X210772742Y-99580000D01*
X210595258Y-99580000D01*
X210570488Y-99575073D01*
X210421188Y-99545376D01*
X210257216Y-99477456D01*
X210109646Y-99378853D01*
X209984147Y-99253354D01*
X209885544Y-99105784D01*
X209817624Y-98941812D01*
X209783000Y-98767741D01*
X209783000Y-98590259D01*
X209817624Y-98416188D01*
X209885544Y-98252216D01*
X209984147Y-98104646D01*
X210109646Y-97979147D01*
X210257216Y-97880544D01*
X210421188Y-97812624D01*
X210570488Y-97782927D01*
X210595258Y-97778000D01*
X210772742Y-97778000D01*
X210797512Y-97782927D01*
G37*
G36*
X208257512Y-97782927D02*
G01*
X208406812Y-97812624D01*
X208570784Y-97880544D01*
X208718354Y-97979147D01*
X208843853Y-98104646D01*
X208942456Y-98252216D01*
X209010376Y-98416188D01*
X209045000Y-98590259D01*
X209045000Y-98767741D01*
X209010376Y-98941812D01*
X208942456Y-99105784D01*
X208843853Y-99253354D01*
X208718354Y-99378853D01*
X208570784Y-99477456D01*
X208406812Y-99545376D01*
X208257512Y-99575073D01*
X208232742Y-99580000D01*
X208055258Y-99580000D01*
X208030488Y-99575073D01*
X207881188Y-99545376D01*
X207717216Y-99477456D01*
X207569646Y-99378853D01*
X207444147Y-99253354D01*
X207345544Y-99105784D01*
X207277624Y-98941812D01*
X207243000Y-98767741D01*
X207243000Y-98590259D01*
X207277624Y-98416188D01*
X207345544Y-98252216D01*
X207444147Y-98104646D01*
X207569646Y-97979147D01*
X207717216Y-97880544D01*
X207881188Y-97812624D01*
X208030488Y-97782927D01*
X208055258Y-97778000D01*
X208232742Y-97778000D01*
X208257512Y-97782927D01*
G37*
G36*
X205717512Y-97782927D02*
G01*
X205866812Y-97812624D01*
X206030784Y-97880544D01*
X206178354Y-97979147D01*
X206303853Y-98104646D01*
X206402456Y-98252216D01*
X206470376Y-98416188D01*
X206505000Y-98590259D01*
X206505000Y-98767741D01*
X206470376Y-98941812D01*
X206402456Y-99105784D01*
X206303853Y-99253354D01*
X206178354Y-99378853D01*
X206030784Y-99477456D01*
X205866812Y-99545376D01*
X205717512Y-99575073D01*
X205692742Y-99580000D01*
X205515258Y-99580000D01*
X205490488Y-99575073D01*
X205341188Y-99545376D01*
X205177216Y-99477456D01*
X205029646Y-99378853D01*
X204904147Y-99253354D01*
X204805544Y-99105784D01*
X204737624Y-98941812D01*
X204703000Y-98767741D01*
X204703000Y-98590259D01*
X204737624Y-98416188D01*
X204805544Y-98252216D01*
X204904147Y-98104646D01*
X205029646Y-97979147D01*
X205177216Y-97880544D01*
X205341188Y-97812624D01*
X205490488Y-97782927D01*
X205515258Y-97778000D01*
X205692742Y-97778000D01*
X205717512Y-97782927D01*
G37*
G36*
X203177512Y-97782927D02*
G01*
X203326812Y-97812624D01*
X203490784Y-97880544D01*
X203638354Y-97979147D01*
X203763853Y-98104646D01*
X203862456Y-98252216D01*
X203930376Y-98416188D01*
X203965000Y-98590259D01*
X203965000Y-98767741D01*
X203930376Y-98941812D01*
X203862456Y-99105784D01*
X203763853Y-99253354D01*
X203638354Y-99378853D01*
X203490784Y-99477456D01*
X203326812Y-99545376D01*
X203177512Y-99575073D01*
X203152742Y-99580000D01*
X202975258Y-99580000D01*
X202950488Y-99575073D01*
X202801188Y-99545376D01*
X202637216Y-99477456D01*
X202489646Y-99378853D01*
X202364147Y-99253354D01*
X202265544Y-99105784D01*
X202197624Y-98941812D01*
X202163000Y-98767741D01*
X202163000Y-98590259D01*
X202197624Y-98416188D01*
X202265544Y-98252216D01*
X202364147Y-98104646D01*
X202489646Y-97979147D01*
X202637216Y-97880544D01*
X202801188Y-97812624D01*
X202950488Y-97782927D01*
X202975258Y-97778000D01*
X203152742Y-97778000D01*
X203177512Y-97782927D01*
G37*
G36*
X200637512Y-97782927D02*
G01*
X200786812Y-97812624D01*
X200950784Y-97880544D01*
X201098354Y-97979147D01*
X201223853Y-98104646D01*
X201322456Y-98252216D01*
X201390376Y-98416188D01*
X201425000Y-98590259D01*
X201425000Y-98767741D01*
X201390376Y-98941812D01*
X201322456Y-99105784D01*
X201223853Y-99253354D01*
X201098354Y-99378853D01*
X200950784Y-99477456D01*
X200786812Y-99545376D01*
X200637512Y-99575073D01*
X200612742Y-99580000D01*
X200435258Y-99580000D01*
X200410488Y-99575073D01*
X200261188Y-99545376D01*
X200097216Y-99477456D01*
X199949646Y-99378853D01*
X199824147Y-99253354D01*
X199725544Y-99105784D01*
X199657624Y-98941812D01*
X199623000Y-98767741D01*
X199623000Y-98590259D01*
X199657624Y-98416188D01*
X199725544Y-98252216D01*
X199824147Y-98104646D01*
X199949646Y-97979147D01*
X200097216Y-97880544D01*
X200261188Y-97812624D01*
X200410488Y-97782927D01*
X200435258Y-97778000D01*
X200612742Y-97778000D01*
X200637512Y-97782927D01*
G37*
G36*
X198097512Y-97782927D02*
G01*
X198246812Y-97812624D01*
X198410784Y-97880544D01*
X198558354Y-97979147D01*
X198683853Y-98104646D01*
X198782456Y-98252216D01*
X198850376Y-98416188D01*
X198885000Y-98590259D01*
X198885000Y-98767741D01*
X198850376Y-98941812D01*
X198782456Y-99105784D01*
X198683853Y-99253354D01*
X198558354Y-99378853D01*
X198410784Y-99477456D01*
X198246812Y-99545376D01*
X198097512Y-99575073D01*
X198072742Y-99580000D01*
X197895258Y-99580000D01*
X197870488Y-99575073D01*
X197721188Y-99545376D01*
X197557216Y-99477456D01*
X197409646Y-99378853D01*
X197284147Y-99253354D01*
X197185544Y-99105784D01*
X197117624Y-98941812D01*
X197083000Y-98767741D01*
X197083000Y-98590259D01*
X197117624Y-98416188D01*
X197185544Y-98252216D01*
X197284147Y-98104646D01*
X197409646Y-97979147D01*
X197557216Y-97880544D01*
X197721188Y-97812624D01*
X197870488Y-97782927D01*
X197895258Y-97778000D01*
X198072742Y-97778000D01*
X198097512Y-97782927D01*
G37*
G36*
X160260512Y-97782927D02*
G01*
X160409812Y-97812624D01*
X160573784Y-97880544D01*
X160721354Y-97979147D01*
X160846853Y-98104646D01*
X160945456Y-98252216D01*
X161013376Y-98416188D01*
X161048000Y-98590259D01*
X161048000Y-98767741D01*
X161013376Y-98941812D01*
X160945456Y-99105784D01*
X160846853Y-99253354D01*
X160721354Y-99378853D01*
X160573784Y-99477456D01*
X160409812Y-99545376D01*
X160260512Y-99575073D01*
X160235742Y-99580000D01*
X160058258Y-99580000D01*
X160033488Y-99575073D01*
X159884188Y-99545376D01*
X159720216Y-99477456D01*
X159572646Y-99378853D01*
X159447147Y-99253354D01*
X159348544Y-99105784D01*
X159280624Y-98941812D01*
X159246000Y-98767741D01*
X159246000Y-98590259D01*
X159280624Y-98416188D01*
X159348544Y-98252216D01*
X159447147Y-98104646D01*
X159572646Y-97979147D01*
X159720216Y-97880544D01*
X159884188Y-97812624D01*
X160033488Y-97782927D01*
X160058258Y-97778000D01*
X160235742Y-97778000D01*
X160260512Y-97782927D01*
G37*
G36*
X193017512Y-97782927D02*
G01*
X193166812Y-97812624D01*
X193330784Y-97880544D01*
X193478354Y-97979147D01*
X193603853Y-98104646D01*
X193702456Y-98252216D01*
X193770376Y-98416188D01*
X193805000Y-98590259D01*
X193805000Y-98767741D01*
X193770376Y-98941812D01*
X193702456Y-99105784D01*
X193603853Y-99253354D01*
X193478354Y-99378853D01*
X193330784Y-99477456D01*
X193166812Y-99545376D01*
X193017512Y-99575073D01*
X192992742Y-99580000D01*
X192815258Y-99580000D01*
X192790488Y-99575073D01*
X192641188Y-99545376D01*
X192477216Y-99477456D01*
X192329646Y-99378853D01*
X192204147Y-99253354D01*
X192105544Y-99105784D01*
X192037624Y-98941812D01*
X192003000Y-98767741D01*
X192003000Y-98590259D01*
X192037624Y-98416188D01*
X192105544Y-98252216D01*
X192204147Y-98104646D01*
X192329646Y-97979147D01*
X192477216Y-97880544D01*
X192641188Y-97812624D01*
X192790488Y-97782927D01*
X192815258Y-97778000D01*
X192992742Y-97778000D01*
X193017512Y-97782927D01*
G37*
G36*
X190477512Y-97782927D02*
G01*
X190626812Y-97812624D01*
X190790784Y-97880544D01*
X190938354Y-97979147D01*
X191063853Y-98104646D01*
X191162456Y-98252216D01*
X191230376Y-98416188D01*
X191265000Y-98590259D01*
X191265000Y-98767741D01*
X191230376Y-98941812D01*
X191162456Y-99105784D01*
X191063853Y-99253354D01*
X190938354Y-99378853D01*
X190790784Y-99477456D01*
X190626812Y-99545376D01*
X190477512Y-99575073D01*
X190452742Y-99580000D01*
X190275258Y-99580000D01*
X190250488Y-99575073D01*
X190101188Y-99545376D01*
X189937216Y-99477456D01*
X189789646Y-99378853D01*
X189664147Y-99253354D01*
X189565544Y-99105784D01*
X189497624Y-98941812D01*
X189463000Y-98767741D01*
X189463000Y-98590259D01*
X189497624Y-98416188D01*
X189565544Y-98252216D01*
X189664147Y-98104646D01*
X189789646Y-97979147D01*
X189937216Y-97880544D01*
X190101188Y-97812624D01*
X190250488Y-97782927D01*
X190275258Y-97778000D01*
X190452742Y-97778000D01*
X190477512Y-97782927D01*
G37*
G36*
X186540512Y-97782927D02*
G01*
X186689812Y-97812624D01*
X186853784Y-97880544D01*
X187001354Y-97979147D01*
X187126853Y-98104646D01*
X187225456Y-98252216D01*
X187293376Y-98416188D01*
X187328000Y-98590259D01*
X187328000Y-98767741D01*
X187293376Y-98941812D01*
X187225456Y-99105784D01*
X187126853Y-99253354D01*
X187001354Y-99378853D01*
X186853784Y-99477456D01*
X186689812Y-99545376D01*
X186540512Y-99575073D01*
X186515742Y-99580000D01*
X186338258Y-99580000D01*
X186313488Y-99575073D01*
X186164188Y-99545376D01*
X186000216Y-99477456D01*
X185852646Y-99378853D01*
X185727147Y-99253354D01*
X185628544Y-99105784D01*
X185560624Y-98941812D01*
X185526000Y-98767741D01*
X185526000Y-98590259D01*
X185560624Y-98416188D01*
X185628544Y-98252216D01*
X185727147Y-98104646D01*
X185852646Y-97979147D01*
X186000216Y-97880544D01*
X186164188Y-97812624D01*
X186313488Y-97782927D01*
X186338258Y-97778000D01*
X186515742Y-97778000D01*
X186540512Y-97782927D01*
G37*
G36*
X184000512Y-97782927D02*
G01*
X184149812Y-97812624D01*
X184313784Y-97880544D01*
X184461354Y-97979147D01*
X184586853Y-98104646D01*
X184685456Y-98252216D01*
X184753376Y-98416188D01*
X184788000Y-98590259D01*
X184788000Y-98767741D01*
X184753376Y-98941812D01*
X184685456Y-99105784D01*
X184586853Y-99253354D01*
X184461354Y-99378853D01*
X184313784Y-99477456D01*
X184149812Y-99545376D01*
X184000512Y-99575073D01*
X183975742Y-99580000D01*
X183798258Y-99580000D01*
X183773488Y-99575073D01*
X183624188Y-99545376D01*
X183460216Y-99477456D01*
X183312646Y-99378853D01*
X183187147Y-99253354D01*
X183088544Y-99105784D01*
X183020624Y-98941812D01*
X182986000Y-98767741D01*
X182986000Y-98590259D01*
X183020624Y-98416188D01*
X183088544Y-98252216D01*
X183187147Y-98104646D01*
X183312646Y-97979147D01*
X183460216Y-97880544D01*
X183624188Y-97812624D01*
X183773488Y-97782927D01*
X183798258Y-97778000D01*
X183975742Y-97778000D01*
X184000512Y-97782927D01*
G37*
G36*
X181460512Y-97782927D02*
G01*
X181609812Y-97812624D01*
X181773784Y-97880544D01*
X181921354Y-97979147D01*
X182046853Y-98104646D01*
X182145456Y-98252216D01*
X182213376Y-98416188D01*
X182248000Y-98590259D01*
X182248000Y-98767741D01*
X182213376Y-98941812D01*
X182145456Y-99105784D01*
X182046853Y-99253354D01*
X181921354Y-99378853D01*
X181773784Y-99477456D01*
X181609812Y-99545376D01*
X181460512Y-99575073D01*
X181435742Y-99580000D01*
X181258258Y-99580000D01*
X181233488Y-99575073D01*
X181084188Y-99545376D01*
X180920216Y-99477456D01*
X180772646Y-99378853D01*
X180647147Y-99253354D01*
X180548544Y-99105784D01*
X180480624Y-98941812D01*
X180446000Y-98767741D01*
X180446000Y-98590259D01*
X180480624Y-98416188D01*
X180548544Y-98252216D01*
X180647147Y-98104646D01*
X180772646Y-97979147D01*
X180920216Y-97880544D01*
X181084188Y-97812624D01*
X181233488Y-97782927D01*
X181258258Y-97778000D01*
X181435742Y-97778000D01*
X181460512Y-97782927D01*
G37*
G36*
X178920512Y-97782927D02*
G01*
X179069812Y-97812624D01*
X179233784Y-97880544D01*
X179381354Y-97979147D01*
X179506853Y-98104646D01*
X179605456Y-98252216D01*
X179673376Y-98416188D01*
X179708000Y-98590259D01*
X179708000Y-98767741D01*
X179673376Y-98941812D01*
X179605456Y-99105784D01*
X179506853Y-99253354D01*
X179381354Y-99378853D01*
X179233784Y-99477456D01*
X179069812Y-99545376D01*
X178920512Y-99575073D01*
X178895742Y-99580000D01*
X178718258Y-99580000D01*
X178693488Y-99575073D01*
X178544188Y-99545376D01*
X178380216Y-99477456D01*
X178232646Y-99378853D01*
X178107147Y-99253354D01*
X178008544Y-99105784D01*
X177940624Y-98941812D01*
X177906000Y-98767741D01*
X177906000Y-98590259D01*
X177940624Y-98416188D01*
X178008544Y-98252216D01*
X178107147Y-98104646D01*
X178232646Y-97979147D01*
X178380216Y-97880544D01*
X178544188Y-97812624D01*
X178693488Y-97782927D01*
X178718258Y-97778000D01*
X178895742Y-97778000D01*
X178920512Y-97782927D01*
G37*
G36*
X176380512Y-97782927D02*
G01*
X176529812Y-97812624D01*
X176693784Y-97880544D01*
X176841354Y-97979147D01*
X176966853Y-98104646D01*
X177065456Y-98252216D01*
X177133376Y-98416188D01*
X177168000Y-98590259D01*
X177168000Y-98767741D01*
X177133376Y-98941812D01*
X177065456Y-99105784D01*
X176966853Y-99253354D01*
X176841354Y-99378853D01*
X176693784Y-99477456D01*
X176529812Y-99545376D01*
X176380512Y-99575073D01*
X176355742Y-99580000D01*
X176178258Y-99580000D01*
X176153488Y-99575073D01*
X176004188Y-99545376D01*
X175840216Y-99477456D01*
X175692646Y-99378853D01*
X175567147Y-99253354D01*
X175468544Y-99105784D01*
X175400624Y-98941812D01*
X175366000Y-98767741D01*
X175366000Y-98590259D01*
X175400624Y-98416188D01*
X175468544Y-98252216D01*
X175567147Y-98104646D01*
X175692646Y-97979147D01*
X175840216Y-97880544D01*
X176004188Y-97812624D01*
X176153488Y-97782927D01*
X176178258Y-97778000D01*
X176355742Y-97778000D01*
X176380512Y-97782927D01*
G37*
G36*
X173840512Y-97782927D02*
G01*
X173989812Y-97812624D01*
X174153784Y-97880544D01*
X174301354Y-97979147D01*
X174426853Y-98104646D01*
X174525456Y-98252216D01*
X174593376Y-98416188D01*
X174628000Y-98590259D01*
X174628000Y-98767741D01*
X174593376Y-98941812D01*
X174525456Y-99105784D01*
X174426853Y-99253354D01*
X174301354Y-99378853D01*
X174153784Y-99477456D01*
X173989812Y-99545376D01*
X173840512Y-99575073D01*
X173815742Y-99580000D01*
X173638258Y-99580000D01*
X173613488Y-99575073D01*
X173464188Y-99545376D01*
X173300216Y-99477456D01*
X173152646Y-99378853D01*
X173027147Y-99253354D01*
X172928544Y-99105784D01*
X172860624Y-98941812D01*
X172826000Y-98767741D01*
X172826000Y-98590259D01*
X172860624Y-98416188D01*
X172928544Y-98252216D01*
X173027147Y-98104646D01*
X173152646Y-97979147D01*
X173300216Y-97880544D01*
X173464188Y-97812624D01*
X173613488Y-97782927D01*
X173638258Y-97778000D01*
X173815742Y-97778000D01*
X173840512Y-97782927D01*
G37*
G36*
X171300512Y-97782927D02*
G01*
X171449812Y-97812624D01*
X171613784Y-97880544D01*
X171761354Y-97979147D01*
X171886853Y-98104646D01*
X171985456Y-98252216D01*
X172053376Y-98416188D01*
X172088000Y-98590259D01*
X172088000Y-98767741D01*
X172053376Y-98941812D01*
X171985456Y-99105784D01*
X171886853Y-99253354D01*
X171761354Y-99378853D01*
X171613784Y-99477456D01*
X171449812Y-99545376D01*
X171300512Y-99575073D01*
X171275742Y-99580000D01*
X171098258Y-99580000D01*
X171073488Y-99575073D01*
X170924188Y-99545376D01*
X170760216Y-99477456D01*
X170612646Y-99378853D01*
X170487147Y-99253354D01*
X170388544Y-99105784D01*
X170320624Y-98941812D01*
X170286000Y-98767741D01*
X170286000Y-98590259D01*
X170320624Y-98416188D01*
X170388544Y-98252216D01*
X170487147Y-98104646D01*
X170612646Y-97979147D01*
X170760216Y-97880544D01*
X170924188Y-97812624D01*
X171073488Y-97782927D01*
X171098258Y-97778000D01*
X171275742Y-97778000D01*
X171300512Y-97782927D01*
G37*
G36*
X169548000Y-99580000D02*
G01*
X167746000Y-99580000D01*
X167746000Y-97778000D01*
X169548000Y-97778000D01*
X169548000Y-99580000D01*
G37*
G36*
X166220512Y-97782927D02*
G01*
X166369812Y-97812624D01*
X166533784Y-97880544D01*
X166681354Y-97979147D01*
X166806853Y-98104646D01*
X166905456Y-98252216D01*
X166973376Y-98416188D01*
X167008000Y-98590259D01*
X167008000Y-98767741D01*
X166973376Y-98941812D01*
X166905456Y-99105784D01*
X166806853Y-99253354D01*
X166681354Y-99378853D01*
X166533784Y-99477456D01*
X166369812Y-99545376D01*
X166220512Y-99575073D01*
X166195742Y-99580000D01*
X166018258Y-99580000D01*
X165993488Y-99575073D01*
X165844188Y-99545376D01*
X165680216Y-99477456D01*
X165532646Y-99378853D01*
X165407147Y-99253354D01*
X165308544Y-99105784D01*
X165240624Y-98941812D01*
X165206000Y-98767741D01*
X165206000Y-98590259D01*
X165240624Y-98416188D01*
X165308544Y-98252216D01*
X165407147Y-98104646D01*
X165532646Y-97979147D01*
X165680216Y-97880544D01*
X165844188Y-97812624D01*
X165993488Y-97782927D01*
X166018258Y-97778000D01*
X166195742Y-97778000D01*
X166220512Y-97782927D01*
G37*
G36*
X163680512Y-97782927D02*
G01*
X163829812Y-97812624D01*
X163993784Y-97880544D01*
X164141354Y-97979147D01*
X164266853Y-98104646D01*
X164365456Y-98252216D01*
X164433376Y-98416188D01*
X164468000Y-98590259D01*
X164468000Y-98767741D01*
X164433376Y-98941812D01*
X164365456Y-99105784D01*
X164266853Y-99253354D01*
X164141354Y-99378853D01*
X163993784Y-99477456D01*
X163829812Y-99545376D01*
X163680512Y-99575073D01*
X163655742Y-99580000D01*
X163478258Y-99580000D01*
X163453488Y-99575073D01*
X163304188Y-99545376D01*
X163140216Y-99477456D01*
X162992646Y-99378853D01*
X162867147Y-99253354D01*
X162768544Y-99105784D01*
X162700624Y-98941812D01*
X162666000Y-98767741D01*
X162666000Y-98590259D01*
X162700624Y-98416188D01*
X162768544Y-98252216D01*
X162867147Y-98104646D01*
X162992646Y-97979147D01*
X163140216Y-97880544D01*
X163304188Y-97812624D01*
X163453488Y-97782927D01*
X163478258Y-97778000D01*
X163655742Y-97778000D01*
X163680512Y-97782927D01*
G37*
G36*
X196345000Y-99580000D02*
G01*
X194543000Y-99580000D01*
X194543000Y-97778000D01*
X196345000Y-97778000D01*
X196345000Y-99580000D01*
G37*
M02*
