G04 #@! TF.GenerationSoftware,KiCad,Pcbnew,(5.1.5)-2*
G04 #@! TF.CreationDate,2020-04-05T00:52:07+07:00*
G04 #@! TF.ProjectId,KIT_PIC16F1937,4b49545f-5049-4433-9136-46313933372e,rev?*
G04 #@! TF.SameCoordinates,Original*
G04 #@! TF.FileFunction,Copper,L2,Bot*
G04 #@! TF.FilePolarity,Positive*
%FSLAX46Y46*%
G04 Gerber Fmt 4.6, Leading zero omitted, Abs format (unit mm)*
G04 Created by KiCad (PCBNEW (5.1.5)-2) date 2020-04-05 00:52:07*
%MOMM*%
%LPD*%
G04 APERTURE LIST*
%ADD10C,0.100000*%
%ADD11C,5.000000*%
%ADD12C,0.800000*%
%ADD13R,1.700000X1.700000*%
%ADD14O,1.700000X1.700000*%
%ADD15R,0.700000X2.000000*%
%ADD16R,1.300000X0.450000*%
%ADD17O,2.000000X1.450000*%
%ADD18O,1.800000X1.150000*%
%ADD19C,1.400000*%
%ADD20C,0.400000*%
%ADD21C,1.200000*%
%ADD22C,0.800000*%
%ADD23C,0.254000*%
G04 APERTURE END LIST*
G04 #@! TA.AperFunction,SMDPad,CuDef*
D10*
G36*
X187415720Y-114059958D02*
G01*
X187026812Y-114448866D01*
X185966152Y-113388206D01*
X186355060Y-112999298D01*
X187415720Y-114059958D01*
G37*
G04 #@! TD.AperFunction*
G04 #@! TA.AperFunction,SMDPad,CuDef*
G36*
X186850034Y-114625643D02*
G01*
X186461126Y-115014551D01*
X185400466Y-113953891D01*
X185789374Y-113564983D01*
X186850034Y-114625643D01*
G37*
G04 #@! TD.AperFunction*
G04 #@! TA.AperFunction,SMDPad,CuDef*
G36*
X186284349Y-115191328D02*
G01*
X185895441Y-115580236D01*
X184834781Y-114519576D01*
X185223689Y-114130668D01*
X186284349Y-115191328D01*
G37*
G04 #@! TD.AperFunction*
G04 #@! TA.AperFunction,SMDPad,CuDef*
G36*
X185718664Y-115757014D02*
G01*
X185329756Y-116145922D01*
X184269096Y-115085262D01*
X184658004Y-114696354D01*
X185718664Y-115757014D01*
G37*
G04 #@! TD.AperFunction*
G04 #@! TA.AperFunction,SMDPad,CuDef*
G36*
X185152978Y-116322699D02*
G01*
X184764070Y-116711607D01*
X183703410Y-115650947D01*
X184092318Y-115262039D01*
X185152978Y-116322699D01*
G37*
G04 #@! TD.AperFunction*
G04 #@! TA.AperFunction,SMDPad,CuDef*
G36*
X184587293Y-116888385D02*
G01*
X184198385Y-117277293D01*
X183137725Y-116216633D01*
X183526633Y-115827725D01*
X184587293Y-116888385D01*
G37*
G04 #@! TD.AperFunction*
G04 #@! TA.AperFunction,SMDPad,CuDef*
G36*
X184021607Y-117454070D02*
G01*
X183632699Y-117842978D01*
X182572039Y-116782318D01*
X182960947Y-116393410D01*
X184021607Y-117454070D01*
G37*
G04 #@! TD.AperFunction*
G04 #@! TA.AperFunction,SMDPad,CuDef*
G36*
X183455922Y-118019756D02*
G01*
X183067014Y-118408664D01*
X182006354Y-117348004D01*
X182395262Y-116959096D01*
X183455922Y-118019756D01*
G37*
G04 #@! TD.AperFunction*
G04 #@! TA.AperFunction,SMDPad,CuDef*
G36*
X182890236Y-118585441D02*
G01*
X182501328Y-118974349D01*
X181440668Y-117913689D01*
X181829576Y-117524781D01*
X182890236Y-118585441D01*
G37*
G04 #@! TD.AperFunction*
G04 #@! TA.AperFunction,SMDPad,CuDef*
G36*
X182324551Y-119151126D02*
G01*
X181935643Y-119540034D01*
X180874983Y-118479374D01*
X181263891Y-118090466D01*
X182324551Y-119151126D01*
G37*
G04 #@! TD.AperFunction*
G04 #@! TA.AperFunction,SMDPad,CuDef*
G36*
X181758866Y-119716812D02*
G01*
X181369958Y-120105720D01*
X180309298Y-119045060D01*
X180698206Y-118656152D01*
X181758866Y-119716812D01*
G37*
G04 #@! TD.AperFunction*
G04 #@! TA.AperFunction,SMDPad,CuDef*
G36*
X178294042Y-120105720D02*
G01*
X177905134Y-119716812D01*
X178965794Y-118656152D01*
X179354702Y-119045060D01*
X178294042Y-120105720D01*
G37*
G04 #@! TD.AperFunction*
G04 #@! TA.AperFunction,SMDPad,CuDef*
G36*
X177728357Y-119540034D02*
G01*
X177339449Y-119151126D01*
X178400109Y-118090466D01*
X178789017Y-118479374D01*
X177728357Y-119540034D01*
G37*
G04 #@! TD.AperFunction*
G04 #@! TA.AperFunction,SMDPad,CuDef*
G36*
X177162672Y-118974349D02*
G01*
X176773764Y-118585441D01*
X177834424Y-117524781D01*
X178223332Y-117913689D01*
X177162672Y-118974349D01*
G37*
G04 #@! TD.AperFunction*
G04 #@! TA.AperFunction,SMDPad,CuDef*
G36*
X176596986Y-118408664D02*
G01*
X176208078Y-118019756D01*
X177268738Y-116959096D01*
X177657646Y-117348004D01*
X176596986Y-118408664D01*
G37*
G04 #@! TD.AperFunction*
G04 #@! TA.AperFunction,SMDPad,CuDef*
G36*
X176031301Y-117842978D02*
G01*
X175642393Y-117454070D01*
X176703053Y-116393410D01*
X177091961Y-116782318D01*
X176031301Y-117842978D01*
G37*
G04 #@! TD.AperFunction*
G04 #@! TA.AperFunction,SMDPad,CuDef*
G36*
X175465615Y-117277293D02*
G01*
X175076707Y-116888385D01*
X176137367Y-115827725D01*
X176526275Y-116216633D01*
X175465615Y-117277293D01*
G37*
G04 #@! TD.AperFunction*
G04 #@! TA.AperFunction,SMDPad,CuDef*
G36*
X174899930Y-116711607D02*
G01*
X174511022Y-116322699D01*
X175571682Y-115262039D01*
X175960590Y-115650947D01*
X174899930Y-116711607D01*
G37*
G04 #@! TD.AperFunction*
G04 #@! TA.AperFunction,SMDPad,CuDef*
G36*
X174334244Y-116145922D02*
G01*
X173945336Y-115757014D01*
X175005996Y-114696354D01*
X175394904Y-115085262D01*
X174334244Y-116145922D01*
G37*
G04 #@! TD.AperFunction*
G04 #@! TA.AperFunction,SMDPad,CuDef*
G36*
X173768559Y-115580236D02*
G01*
X173379651Y-115191328D01*
X174440311Y-114130668D01*
X174829219Y-114519576D01*
X173768559Y-115580236D01*
G37*
G04 #@! TD.AperFunction*
G04 #@! TA.AperFunction,SMDPad,CuDef*
G36*
X173202874Y-115014551D02*
G01*
X172813966Y-114625643D01*
X173874626Y-113564983D01*
X174263534Y-113953891D01*
X173202874Y-115014551D01*
G37*
G04 #@! TD.AperFunction*
G04 #@! TA.AperFunction,SMDPad,CuDef*
G36*
X172637188Y-114448866D02*
G01*
X172248280Y-114059958D01*
X173308940Y-112999298D01*
X173697848Y-113388206D01*
X172637188Y-114448866D01*
G37*
G04 #@! TD.AperFunction*
G04 #@! TA.AperFunction,SMDPad,CuDef*
G36*
X173697848Y-111655794D02*
G01*
X173308940Y-112044702D01*
X172248280Y-110984042D01*
X172637188Y-110595134D01*
X173697848Y-111655794D01*
G37*
G04 #@! TD.AperFunction*
G04 #@! TA.AperFunction,SMDPad,CuDef*
G36*
X174263534Y-111090109D02*
G01*
X173874626Y-111479017D01*
X172813966Y-110418357D01*
X173202874Y-110029449D01*
X174263534Y-111090109D01*
G37*
G04 #@! TD.AperFunction*
G04 #@! TA.AperFunction,SMDPad,CuDef*
G36*
X174829219Y-110524424D02*
G01*
X174440311Y-110913332D01*
X173379651Y-109852672D01*
X173768559Y-109463764D01*
X174829219Y-110524424D01*
G37*
G04 #@! TD.AperFunction*
G04 #@! TA.AperFunction,SMDPad,CuDef*
G36*
X175394904Y-109958738D02*
G01*
X175005996Y-110347646D01*
X173945336Y-109286986D01*
X174334244Y-108898078D01*
X175394904Y-109958738D01*
G37*
G04 #@! TD.AperFunction*
G04 #@! TA.AperFunction,SMDPad,CuDef*
G36*
X175960590Y-109393053D02*
G01*
X175571682Y-109781961D01*
X174511022Y-108721301D01*
X174899930Y-108332393D01*
X175960590Y-109393053D01*
G37*
G04 #@! TD.AperFunction*
G04 #@! TA.AperFunction,SMDPad,CuDef*
G36*
X176526275Y-108827367D02*
G01*
X176137367Y-109216275D01*
X175076707Y-108155615D01*
X175465615Y-107766707D01*
X176526275Y-108827367D01*
G37*
G04 #@! TD.AperFunction*
G04 #@! TA.AperFunction,SMDPad,CuDef*
G36*
X177091961Y-108261682D02*
G01*
X176703053Y-108650590D01*
X175642393Y-107589930D01*
X176031301Y-107201022D01*
X177091961Y-108261682D01*
G37*
G04 #@! TD.AperFunction*
G04 #@! TA.AperFunction,SMDPad,CuDef*
G36*
X177657646Y-107695996D02*
G01*
X177268738Y-108084904D01*
X176208078Y-107024244D01*
X176596986Y-106635336D01*
X177657646Y-107695996D01*
G37*
G04 #@! TD.AperFunction*
G04 #@! TA.AperFunction,SMDPad,CuDef*
G36*
X178223332Y-107130311D02*
G01*
X177834424Y-107519219D01*
X176773764Y-106458559D01*
X177162672Y-106069651D01*
X178223332Y-107130311D01*
G37*
G04 #@! TD.AperFunction*
G04 #@! TA.AperFunction,SMDPad,CuDef*
G36*
X178789017Y-106564626D02*
G01*
X178400109Y-106953534D01*
X177339449Y-105892874D01*
X177728357Y-105503966D01*
X178789017Y-106564626D01*
G37*
G04 #@! TD.AperFunction*
G04 #@! TA.AperFunction,SMDPad,CuDef*
G36*
X179354702Y-105998940D02*
G01*
X178965794Y-106387848D01*
X177905134Y-105327188D01*
X178294042Y-104938280D01*
X179354702Y-105998940D01*
G37*
G04 #@! TD.AperFunction*
G04 #@! TA.AperFunction,SMDPad,CuDef*
G36*
X180698206Y-106387848D02*
G01*
X180309298Y-105998940D01*
X181369958Y-104938280D01*
X181758866Y-105327188D01*
X180698206Y-106387848D01*
G37*
G04 #@! TD.AperFunction*
G04 #@! TA.AperFunction,SMDPad,CuDef*
G36*
X181263891Y-106953534D02*
G01*
X180874983Y-106564626D01*
X181935643Y-105503966D01*
X182324551Y-105892874D01*
X181263891Y-106953534D01*
G37*
G04 #@! TD.AperFunction*
G04 #@! TA.AperFunction,SMDPad,CuDef*
G36*
X181829576Y-107519219D02*
G01*
X181440668Y-107130311D01*
X182501328Y-106069651D01*
X182890236Y-106458559D01*
X181829576Y-107519219D01*
G37*
G04 #@! TD.AperFunction*
G04 #@! TA.AperFunction,SMDPad,CuDef*
G36*
X182395262Y-108084904D02*
G01*
X182006354Y-107695996D01*
X183067014Y-106635336D01*
X183455922Y-107024244D01*
X182395262Y-108084904D01*
G37*
G04 #@! TD.AperFunction*
G04 #@! TA.AperFunction,SMDPad,CuDef*
G36*
X182960947Y-108650590D02*
G01*
X182572039Y-108261682D01*
X183632699Y-107201022D01*
X184021607Y-107589930D01*
X182960947Y-108650590D01*
G37*
G04 #@! TD.AperFunction*
G04 #@! TA.AperFunction,SMDPad,CuDef*
G36*
X183526633Y-109216275D02*
G01*
X183137725Y-108827367D01*
X184198385Y-107766707D01*
X184587293Y-108155615D01*
X183526633Y-109216275D01*
G37*
G04 #@! TD.AperFunction*
G04 #@! TA.AperFunction,SMDPad,CuDef*
G36*
X184092318Y-109781961D02*
G01*
X183703410Y-109393053D01*
X184764070Y-108332393D01*
X185152978Y-108721301D01*
X184092318Y-109781961D01*
G37*
G04 #@! TD.AperFunction*
G04 #@! TA.AperFunction,SMDPad,CuDef*
G36*
X184658004Y-110347646D02*
G01*
X184269096Y-109958738D01*
X185329756Y-108898078D01*
X185718664Y-109286986D01*
X184658004Y-110347646D01*
G37*
G04 #@! TD.AperFunction*
G04 #@! TA.AperFunction,SMDPad,CuDef*
G36*
X185223689Y-110913332D02*
G01*
X184834781Y-110524424D01*
X185895441Y-109463764D01*
X186284349Y-109852672D01*
X185223689Y-110913332D01*
G37*
G04 #@! TD.AperFunction*
G04 #@! TA.AperFunction,SMDPad,CuDef*
G36*
X185789374Y-111479017D02*
G01*
X185400466Y-111090109D01*
X186461126Y-110029449D01*
X186850034Y-110418357D01*
X185789374Y-111479017D01*
G37*
G04 #@! TD.AperFunction*
G04 #@! TA.AperFunction,SMDPad,CuDef*
G36*
X186355060Y-112044702D02*
G01*
X185966152Y-111655794D01*
X187026812Y-110595134D01*
X187415720Y-110984042D01*
X186355060Y-112044702D01*
G37*
G04 #@! TD.AperFunction*
G04 #@! TA.AperFunction,SMDPad,CuDef*
G36*
X148592642Y-119901174D02*
G01*
X148616303Y-119904684D01*
X148639507Y-119910496D01*
X148662029Y-119918554D01*
X148683653Y-119928782D01*
X148704170Y-119941079D01*
X148723383Y-119955329D01*
X148741107Y-119971393D01*
X148757171Y-119989117D01*
X148771421Y-120008330D01*
X148783718Y-120028847D01*
X148793946Y-120050471D01*
X148802004Y-120072993D01*
X148807816Y-120096197D01*
X148811326Y-120119858D01*
X148812500Y-120143750D01*
X148812500Y-121056250D01*
X148811326Y-121080142D01*
X148807816Y-121103803D01*
X148802004Y-121127007D01*
X148793946Y-121149529D01*
X148783718Y-121171153D01*
X148771421Y-121191670D01*
X148757171Y-121210883D01*
X148741107Y-121228607D01*
X148723383Y-121244671D01*
X148704170Y-121258921D01*
X148683653Y-121271218D01*
X148662029Y-121281446D01*
X148639507Y-121289504D01*
X148616303Y-121295316D01*
X148592642Y-121298826D01*
X148568750Y-121300000D01*
X148081250Y-121300000D01*
X148057358Y-121298826D01*
X148033697Y-121295316D01*
X148010493Y-121289504D01*
X147987971Y-121281446D01*
X147966347Y-121271218D01*
X147945830Y-121258921D01*
X147926617Y-121244671D01*
X147908893Y-121228607D01*
X147892829Y-121210883D01*
X147878579Y-121191670D01*
X147866282Y-121171153D01*
X147856054Y-121149529D01*
X147847996Y-121127007D01*
X147842184Y-121103803D01*
X147838674Y-121080142D01*
X147837500Y-121056250D01*
X147837500Y-120143750D01*
X147838674Y-120119858D01*
X147842184Y-120096197D01*
X147847996Y-120072993D01*
X147856054Y-120050471D01*
X147866282Y-120028847D01*
X147878579Y-120008330D01*
X147892829Y-119989117D01*
X147908893Y-119971393D01*
X147926617Y-119955329D01*
X147945830Y-119941079D01*
X147966347Y-119928782D01*
X147987971Y-119918554D01*
X148010493Y-119910496D01*
X148033697Y-119904684D01*
X148057358Y-119901174D01*
X148081250Y-119900000D01*
X148568750Y-119900000D01*
X148592642Y-119901174D01*
G37*
G04 #@! TD.AperFunction*
G04 #@! TA.AperFunction,SMDPad,CuDef*
G36*
X150467642Y-119901174D02*
G01*
X150491303Y-119904684D01*
X150514507Y-119910496D01*
X150537029Y-119918554D01*
X150558653Y-119928782D01*
X150579170Y-119941079D01*
X150598383Y-119955329D01*
X150616107Y-119971393D01*
X150632171Y-119989117D01*
X150646421Y-120008330D01*
X150658718Y-120028847D01*
X150668946Y-120050471D01*
X150677004Y-120072993D01*
X150682816Y-120096197D01*
X150686326Y-120119858D01*
X150687500Y-120143750D01*
X150687500Y-121056250D01*
X150686326Y-121080142D01*
X150682816Y-121103803D01*
X150677004Y-121127007D01*
X150668946Y-121149529D01*
X150658718Y-121171153D01*
X150646421Y-121191670D01*
X150632171Y-121210883D01*
X150616107Y-121228607D01*
X150598383Y-121244671D01*
X150579170Y-121258921D01*
X150558653Y-121271218D01*
X150537029Y-121281446D01*
X150514507Y-121289504D01*
X150491303Y-121295316D01*
X150467642Y-121298826D01*
X150443750Y-121300000D01*
X149956250Y-121300000D01*
X149932358Y-121298826D01*
X149908697Y-121295316D01*
X149885493Y-121289504D01*
X149862971Y-121281446D01*
X149841347Y-121271218D01*
X149820830Y-121258921D01*
X149801617Y-121244671D01*
X149783893Y-121228607D01*
X149767829Y-121210883D01*
X149753579Y-121191670D01*
X149741282Y-121171153D01*
X149731054Y-121149529D01*
X149722996Y-121127007D01*
X149717184Y-121103803D01*
X149713674Y-121080142D01*
X149712500Y-121056250D01*
X149712500Y-120143750D01*
X149713674Y-120119858D01*
X149717184Y-120096197D01*
X149722996Y-120072993D01*
X149731054Y-120050471D01*
X149741282Y-120028847D01*
X149753579Y-120008330D01*
X149767829Y-119989117D01*
X149783893Y-119971393D01*
X149801617Y-119955329D01*
X149820830Y-119941079D01*
X149841347Y-119928782D01*
X149862971Y-119918554D01*
X149885493Y-119910496D01*
X149908697Y-119904684D01*
X149932358Y-119901174D01*
X149956250Y-119900000D01*
X150443750Y-119900000D01*
X150467642Y-119901174D01*
G37*
G04 #@! TD.AperFunction*
G04 #@! TA.AperFunction,SMDPad,CuDef*
G36*
X150405142Y-117301174D02*
G01*
X150428803Y-117304684D01*
X150452007Y-117310496D01*
X150474529Y-117318554D01*
X150496153Y-117328782D01*
X150516670Y-117341079D01*
X150535883Y-117355329D01*
X150553607Y-117371393D01*
X150569671Y-117389117D01*
X150583921Y-117408330D01*
X150596218Y-117428847D01*
X150606446Y-117450471D01*
X150614504Y-117472993D01*
X150620316Y-117496197D01*
X150623826Y-117519858D01*
X150625000Y-117543750D01*
X150625000Y-118456250D01*
X150623826Y-118480142D01*
X150620316Y-118503803D01*
X150614504Y-118527007D01*
X150606446Y-118549529D01*
X150596218Y-118571153D01*
X150583921Y-118591670D01*
X150569671Y-118610883D01*
X150553607Y-118628607D01*
X150535883Y-118644671D01*
X150516670Y-118658921D01*
X150496153Y-118671218D01*
X150474529Y-118681446D01*
X150452007Y-118689504D01*
X150428803Y-118695316D01*
X150405142Y-118698826D01*
X150381250Y-118700000D01*
X149893750Y-118700000D01*
X149869858Y-118698826D01*
X149846197Y-118695316D01*
X149822993Y-118689504D01*
X149800471Y-118681446D01*
X149778847Y-118671218D01*
X149758330Y-118658921D01*
X149739117Y-118644671D01*
X149721393Y-118628607D01*
X149705329Y-118610883D01*
X149691079Y-118591670D01*
X149678782Y-118571153D01*
X149668554Y-118549529D01*
X149660496Y-118527007D01*
X149654684Y-118503803D01*
X149651174Y-118480142D01*
X149650000Y-118456250D01*
X149650000Y-117543750D01*
X149651174Y-117519858D01*
X149654684Y-117496197D01*
X149660496Y-117472993D01*
X149668554Y-117450471D01*
X149678782Y-117428847D01*
X149691079Y-117408330D01*
X149705329Y-117389117D01*
X149721393Y-117371393D01*
X149739117Y-117355329D01*
X149758330Y-117341079D01*
X149778847Y-117328782D01*
X149800471Y-117318554D01*
X149822993Y-117310496D01*
X149846197Y-117304684D01*
X149869858Y-117301174D01*
X149893750Y-117300000D01*
X150381250Y-117300000D01*
X150405142Y-117301174D01*
G37*
G04 #@! TD.AperFunction*
G04 #@! TA.AperFunction,SMDPad,CuDef*
G36*
X148530142Y-117301174D02*
G01*
X148553803Y-117304684D01*
X148577007Y-117310496D01*
X148599529Y-117318554D01*
X148621153Y-117328782D01*
X148641670Y-117341079D01*
X148660883Y-117355329D01*
X148678607Y-117371393D01*
X148694671Y-117389117D01*
X148708921Y-117408330D01*
X148721218Y-117428847D01*
X148731446Y-117450471D01*
X148739504Y-117472993D01*
X148745316Y-117496197D01*
X148748826Y-117519858D01*
X148750000Y-117543750D01*
X148750000Y-118456250D01*
X148748826Y-118480142D01*
X148745316Y-118503803D01*
X148739504Y-118527007D01*
X148731446Y-118549529D01*
X148721218Y-118571153D01*
X148708921Y-118591670D01*
X148694671Y-118610883D01*
X148678607Y-118628607D01*
X148660883Y-118644671D01*
X148641670Y-118658921D01*
X148621153Y-118671218D01*
X148599529Y-118681446D01*
X148577007Y-118689504D01*
X148553803Y-118695316D01*
X148530142Y-118698826D01*
X148506250Y-118700000D01*
X148018750Y-118700000D01*
X147994858Y-118698826D01*
X147971197Y-118695316D01*
X147947993Y-118689504D01*
X147925471Y-118681446D01*
X147903847Y-118671218D01*
X147883330Y-118658921D01*
X147864117Y-118644671D01*
X147846393Y-118628607D01*
X147830329Y-118610883D01*
X147816079Y-118591670D01*
X147803782Y-118571153D01*
X147793554Y-118549529D01*
X147785496Y-118527007D01*
X147779684Y-118503803D01*
X147776174Y-118480142D01*
X147775000Y-118456250D01*
X147775000Y-117543750D01*
X147776174Y-117519858D01*
X147779684Y-117496197D01*
X147785496Y-117472993D01*
X147793554Y-117450471D01*
X147803782Y-117428847D01*
X147816079Y-117408330D01*
X147830329Y-117389117D01*
X147846393Y-117371393D01*
X147864117Y-117355329D01*
X147883330Y-117341079D01*
X147903847Y-117328782D01*
X147925471Y-117318554D01*
X147947993Y-117310496D01*
X147971197Y-117304684D01*
X147994858Y-117301174D01*
X148018750Y-117300000D01*
X148506250Y-117300000D01*
X148530142Y-117301174D01*
G37*
G04 #@! TD.AperFunction*
D11*
X145288000Y-99568000D03*
D12*
X147163000Y-99568000D03*
X146613825Y-100893825D03*
X145288000Y-101443000D03*
X143962175Y-100893825D03*
X143413000Y-99568000D03*
X143962175Y-98242175D03*
X145288000Y-97693000D03*
X146613825Y-98242175D03*
X146613825Y-124277175D03*
X145288000Y-123728000D03*
X143962175Y-124277175D03*
X143413000Y-125603000D03*
X143962175Y-126928825D03*
X145288000Y-127478000D03*
X146613825Y-126928825D03*
X147163000Y-125603000D03*
D11*
X145288000Y-125603000D03*
X239395000Y-99568000D03*
D12*
X241270000Y-99568000D03*
X240720825Y-100893825D03*
X239395000Y-101443000D03*
X238069175Y-100893825D03*
X237520000Y-99568000D03*
X238069175Y-98242175D03*
X239395000Y-97693000D03*
X240720825Y-98242175D03*
X240720825Y-124277175D03*
X239395000Y-123728000D03*
X238069175Y-124277175D03*
X237520000Y-125603000D03*
X238069175Y-126928825D03*
X239395000Y-127478000D03*
X240720825Y-126928825D03*
X241270000Y-125603000D03*
D11*
X239395000Y-125603000D03*
D13*
X195444000Y-98679000D03*
D14*
X195444000Y-101219000D03*
X197984000Y-98679000D03*
X197984000Y-101219000D03*
X200524000Y-98679000D03*
X200524000Y-101219000D03*
X203064000Y-98679000D03*
X203064000Y-101219000D03*
X205604000Y-98679000D03*
X205604000Y-101219000D03*
X208144000Y-98679000D03*
X208144000Y-101219000D03*
X210684000Y-98679000D03*
X210684000Y-101219000D03*
X213224000Y-98679000D03*
X213224000Y-101219000D03*
X186944000Y-123952000D03*
X186944000Y-126492000D03*
X189484000Y-123952000D03*
X189484000Y-126492000D03*
X192024000Y-123952000D03*
X192024000Y-126492000D03*
X194564000Y-123952000D03*
X194564000Y-126492000D03*
X197104000Y-123952000D03*
X197104000Y-126492000D03*
X199644000Y-123952000D03*
X199644000Y-126492000D03*
X202184000Y-123952000D03*
X202184000Y-126492000D03*
X204724000Y-123952000D03*
D13*
X204724000Y-126492000D03*
D14*
X186427000Y-101219000D03*
X186427000Y-98679000D03*
X183887000Y-101219000D03*
X183887000Y-98679000D03*
X181347000Y-101219000D03*
X181347000Y-98679000D03*
X178807000Y-101219000D03*
X178807000Y-98679000D03*
X176267000Y-101219000D03*
X176267000Y-98679000D03*
X173727000Y-101219000D03*
X173727000Y-98679000D03*
X171187000Y-101219000D03*
X171187000Y-98679000D03*
X168647000Y-101219000D03*
D13*
X168647000Y-98679000D03*
X177927000Y-126492000D03*
D14*
X177927000Y-123952000D03*
X175387000Y-126492000D03*
X175387000Y-123952000D03*
X172847000Y-126492000D03*
X172847000Y-123952000D03*
X170307000Y-126492000D03*
X170307000Y-123952000D03*
X167767000Y-126492000D03*
X167767000Y-123952000D03*
X165227000Y-126492000D03*
X165227000Y-123952000D03*
X162687000Y-126492000D03*
X162687000Y-123952000D03*
X160147000Y-126492000D03*
X160147000Y-123952000D03*
D13*
X152400000Y-120523000D03*
D14*
X152400000Y-117983000D03*
X152400000Y-115443000D03*
X152400000Y-112903000D03*
X152400000Y-110363000D03*
D13*
X181864000Y-126492000D03*
D14*
X181864000Y-123952000D03*
X184404000Y-126492000D03*
X184404000Y-123952000D03*
X166107000Y-98679000D03*
X166107000Y-101219000D03*
X163567000Y-98679000D03*
D13*
X163567000Y-101219000D03*
X190364000Y-101219000D03*
D14*
X190364000Y-98679000D03*
X192904000Y-101219000D03*
X192904000Y-98679000D03*
X157607000Y-123952000D03*
X157607000Y-126492000D03*
X155067000Y-123952000D03*
D13*
X155067000Y-126492000D03*
X155067000Y-101219000D03*
D14*
X155067000Y-98679000D03*
X157607000Y-101219000D03*
X157607000Y-98679000D03*
X160147000Y-101219000D03*
X160147000Y-98679000D03*
G04 #@! TA.AperFunction,SMDPad,CuDef*
D10*
G36*
X216888142Y-123544174D02*
G01*
X216911803Y-123547684D01*
X216935007Y-123553496D01*
X216957529Y-123561554D01*
X216979153Y-123571782D01*
X216999670Y-123584079D01*
X217018883Y-123598329D01*
X217036607Y-123614393D01*
X217052671Y-123632117D01*
X217066921Y-123651330D01*
X217079218Y-123671847D01*
X217089446Y-123693471D01*
X217097504Y-123715993D01*
X217103316Y-123739197D01*
X217106826Y-123762858D01*
X217108000Y-123786750D01*
X217108000Y-124274250D01*
X217106826Y-124298142D01*
X217103316Y-124321803D01*
X217097504Y-124345007D01*
X217089446Y-124367529D01*
X217079218Y-124389153D01*
X217066921Y-124409670D01*
X217052671Y-124428883D01*
X217036607Y-124446607D01*
X217018883Y-124462671D01*
X216999670Y-124476921D01*
X216979153Y-124489218D01*
X216957529Y-124499446D01*
X216935007Y-124507504D01*
X216911803Y-124513316D01*
X216888142Y-124516826D01*
X216864250Y-124518000D01*
X215951750Y-124518000D01*
X215927858Y-124516826D01*
X215904197Y-124513316D01*
X215880993Y-124507504D01*
X215858471Y-124499446D01*
X215836847Y-124489218D01*
X215816330Y-124476921D01*
X215797117Y-124462671D01*
X215779393Y-124446607D01*
X215763329Y-124428883D01*
X215749079Y-124409670D01*
X215736782Y-124389153D01*
X215726554Y-124367529D01*
X215718496Y-124345007D01*
X215712684Y-124321803D01*
X215709174Y-124298142D01*
X215708000Y-124274250D01*
X215708000Y-123786750D01*
X215709174Y-123762858D01*
X215712684Y-123739197D01*
X215718496Y-123715993D01*
X215726554Y-123693471D01*
X215736782Y-123671847D01*
X215749079Y-123651330D01*
X215763329Y-123632117D01*
X215779393Y-123614393D01*
X215797117Y-123598329D01*
X215816330Y-123584079D01*
X215836847Y-123571782D01*
X215858471Y-123561554D01*
X215880993Y-123553496D01*
X215904197Y-123547684D01*
X215927858Y-123544174D01*
X215951750Y-123543000D01*
X216864250Y-123543000D01*
X216888142Y-123544174D01*
G37*
G04 #@! TD.AperFunction*
G04 #@! TA.AperFunction,SMDPad,CuDef*
G36*
X216888142Y-125419174D02*
G01*
X216911803Y-125422684D01*
X216935007Y-125428496D01*
X216957529Y-125436554D01*
X216979153Y-125446782D01*
X216999670Y-125459079D01*
X217018883Y-125473329D01*
X217036607Y-125489393D01*
X217052671Y-125507117D01*
X217066921Y-125526330D01*
X217079218Y-125546847D01*
X217089446Y-125568471D01*
X217097504Y-125590993D01*
X217103316Y-125614197D01*
X217106826Y-125637858D01*
X217108000Y-125661750D01*
X217108000Y-126149250D01*
X217106826Y-126173142D01*
X217103316Y-126196803D01*
X217097504Y-126220007D01*
X217089446Y-126242529D01*
X217079218Y-126264153D01*
X217066921Y-126284670D01*
X217052671Y-126303883D01*
X217036607Y-126321607D01*
X217018883Y-126337671D01*
X216999670Y-126351921D01*
X216979153Y-126364218D01*
X216957529Y-126374446D01*
X216935007Y-126382504D01*
X216911803Y-126388316D01*
X216888142Y-126391826D01*
X216864250Y-126393000D01*
X215951750Y-126393000D01*
X215927858Y-126391826D01*
X215904197Y-126388316D01*
X215880993Y-126382504D01*
X215858471Y-126374446D01*
X215836847Y-126364218D01*
X215816330Y-126351921D01*
X215797117Y-126337671D01*
X215779393Y-126321607D01*
X215763329Y-126303883D01*
X215749079Y-126284670D01*
X215736782Y-126264153D01*
X215726554Y-126242529D01*
X215718496Y-126220007D01*
X215712684Y-126196803D01*
X215709174Y-126173142D01*
X215708000Y-126149250D01*
X215708000Y-125661750D01*
X215709174Y-125637858D01*
X215712684Y-125614197D01*
X215718496Y-125590993D01*
X215726554Y-125568471D01*
X215736782Y-125546847D01*
X215749079Y-125526330D01*
X215763329Y-125507117D01*
X215779393Y-125489393D01*
X215797117Y-125473329D01*
X215816330Y-125459079D01*
X215836847Y-125446782D01*
X215858471Y-125436554D01*
X215880993Y-125428496D01*
X215904197Y-125422684D01*
X215927858Y-125419174D01*
X215951750Y-125418000D01*
X216864250Y-125418000D01*
X216888142Y-125419174D01*
G37*
G04 #@! TD.AperFunction*
G04 #@! TA.AperFunction,SMDPad,CuDef*
G36*
X213713142Y-125419174D02*
G01*
X213736803Y-125422684D01*
X213760007Y-125428496D01*
X213782529Y-125436554D01*
X213804153Y-125446782D01*
X213824670Y-125459079D01*
X213843883Y-125473329D01*
X213861607Y-125489393D01*
X213877671Y-125507117D01*
X213891921Y-125526330D01*
X213904218Y-125546847D01*
X213914446Y-125568471D01*
X213922504Y-125590993D01*
X213928316Y-125614197D01*
X213931826Y-125637858D01*
X213933000Y-125661750D01*
X213933000Y-126149250D01*
X213931826Y-126173142D01*
X213928316Y-126196803D01*
X213922504Y-126220007D01*
X213914446Y-126242529D01*
X213904218Y-126264153D01*
X213891921Y-126284670D01*
X213877671Y-126303883D01*
X213861607Y-126321607D01*
X213843883Y-126337671D01*
X213824670Y-126351921D01*
X213804153Y-126364218D01*
X213782529Y-126374446D01*
X213760007Y-126382504D01*
X213736803Y-126388316D01*
X213713142Y-126391826D01*
X213689250Y-126393000D01*
X212776750Y-126393000D01*
X212752858Y-126391826D01*
X212729197Y-126388316D01*
X212705993Y-126382504D01*
X212683471Y-126374446D01*
X212661847Y-126364218D01*
X212641330Y-126351921D01*
X212622117Y-126337671D01*
X212604393Y-126321607D01*
X212588329Y-126303883D01*
X212574079Y-126284670D01*
X212561782Y-126264153D01*
X212551554Y-126242529D01*
X212543496Y-126220007D01*
X212537684Y-126196803D01*
X212534174Y-126173142D01*
X212533000Y-126149250D01*
X212533000Y-125661750D01*
X212534174Y-125637858D01*
X212537684Y-125614197D01*
X212543496Y-125590993D01*
X212551554Y-125568471D01*
X212561782Y-125546847D01*
X212574079Y-125526330D01*
X212588329Y-125507117D01*
X212604393Y-125489393D01*
X212622117Y-125473329D01*
X212641330Y-125459079D01*
X212661847Y-125446782D01*
X212683471Y-125436554D01*
X212705993Y-125428496D01*
X212729197Y-125422684D01*
X212752858Y-125419174D01*
X212776750Y-125418000D01*
X213689250Y-125418000D01*
X213713142Y-125419174D01*
G37*
G04 #@! TD.AperFunction*
G04 #@! TA.AperFunction,SMDPad,CuDef*
G36*
X213713142Y-123544174D02*
G01*
X213736803Y-123547684D01*
X213760007Y-123553496D01*
X213782529Y-123561554D01*
X213804153Y-123571782D01*
X213824670Y-123584079D01*
X213843883Y-123598329D01*
X213861607Y-123614393D01*
X213877671Y-123632117D01*
X213891921Y-123651330D01*
X213904218Y-123671847D01*
X213914446Y-123693471D01*
X213922504Y-123715993D01*
X213928316Y-123739197D01*
X213931826Y-123762858D01*
X213933000Y-123786750D01*
X213933000Y-124274250D01*
X213931826Y-124298142D01*
X213928316Y-124321803D01*
X213922504Y-124345007D01*
X213914446Y-124367529D01*
X213904218Y-124389153D01*
X213891921Y-124409670D01*
X213877671Y-124428883D01*
X213861607Y-124446607D01*
X213843883Y-124462671D01*
X213824670Y-124476921D01*
X213804153Y-124489218D01*
X213782529Y-124499446D01*
X213760007Y-124507504D01*
X213736803Y-124513316D01*
X213713142Y-124516826D01*
X213689250Y-124518000D01*
X212776750Y-124518000D01*
X212752858Y-124516826D01*
X212729197Y-124513316D01*
X212705993Y-124507504D01*
X212683471Y-124499446D01*
X212661847Y-124489218D01*
X212641330Y-124476921D01*
X212622117Y-124462671D01*
X212604393Y-124446607D01*
X212588329Y-124428883D01*
X212574079Y-124409670D01*
X212561782Y-124389153D01*
X212551554Y-124367529D01*
X212543496Y-124345007D01*
X212537684Y-124321803D01*
X212534174Y-124298142D01*
X212533000Y-124274250D01*
X212533000Y-123786750D01*
X212534174Y-123762858D01*
X212537684Y-123739197D01*
X212543496Y-123715993D01*
X212551554Y-123693471D01*
X212561782Y-123671847D01*
X212574079Y-123651330D01*
X212588329Y-123632117D01*
X212604393Y-123614393D01*
X212622117Y-123598329D01*
X212641330Y-123584079D01*
X212661847Y-123571782D01*
X212683471Y-123561554D01*
X212705993Y-123553496D01*
X212729197Y-123547684D01*
X212752858Y-123544174D01*
X212776750Y-123543000D01*
X213689250Y-123543000D01*
X213713142Y-123544174D01*
G37*
G04 #@! TD.AperFunction*
G04 #@! TA.AperFunction,SMDPad,CuDef*
G36*
X230350142Y-123495674D02*
G01*
X230373803Y-123499184D01*
X230397007Y-123504996D01*
X230419529Y-123513054D01*
X230441153Y-123523282D01*
X230461670Y-123535579D01*
X230480883Y-123549829D01*
X230498607Y-123565893D01*
X230514671Y-123583617D01*
X230528921Y-123602830D01*
X230541218Y-123623347D01*
X230551446Y-123644971D01*
X230559504Y-123667493D01*
X230565316Y-123690697D01*
X230568826Y-123714358D01*
X230570000Y-123738250D01*
X230570000Y-124225750D01*
X230568826Y-124249642D01*
X230565316Y-124273303D01*
X230559504Y-124296507D01*
X230551446Y-124319029D01*
X230541218Y-124340653D01*
X230528921Y-124361170D01*
X230514671Y-124380383D01*
X230498607Y-124398107D01*
X230480883Y-124414171D01*
X230461670Y-124428421D01*
X230441153Y-124440718D01*
X230419529Y-124450946D01*
X230397007Y-124459004D01*
X230373803Y-124464816D01*
X230350142Y-124468326D01*
X230326250Y-124469500D01*
X229413750Y-124469500D01*
X229389858Y-124468326D01*
X229366197Y-124464816D01*
X229342993Y-124459004D01*
X229320471Y-124450946D01*
X229298847Y-124440718D01*
X229278330Y-124428421D01*
X229259117Y-124414171D01*
X229241393Y-124398107D01*
X229225329Y-124380383D01*
X229211079Y-124361170D01*
X229198782Y-124340653D01*
X229188554Y-124319029D01*
X229180496Y-124296507D01*
X229174684Y-124273303D01*
X229171174Y-124249642D01*
X229170000Y-124225750D01*
X229170000Y-123738250D01*
X229171174Y-123714358D01*
X229174684Y-123690697D01*
X229180496Y-123667493D01*
X229188554Y-123644971D01*
X229198782Y-123623347D01*
X229211079Y-123602830D01*
X229225329Y-123583617D01*
X229241393Y-123565893D01*
X229259117Y-123549829D01*
X229278330Y-123535579D01*
X229298847Y-123523282D01*
X229320471Y-123513054D01*
X229342993Y-123504996D01*
X229366197Y-123499184D01*
X229389858Y-123495674D01*
X229413750Y-123494500D01*
X230326250Y-123494500D01*
X230350142Y-123495674D01*
G37*
G04 #@! TD.AperFunction*
G04 #@! TA.AperFunction,SMDPad,CuDef*
G36*
X230350142Y-125370674D02*
G01*
X230373803Y-125374184D01*
X230397007Y-125379996D01*
X230419529Y-125388054D01*
X230441153Y-125398282D01*
X230461670Y-125410579D01*
X230480883Y-125424829D01*
X230498607Y-125440893D01*
X230514671Y-125458617D01*
X230528921Y-125477830D01*
X230541218Y-125498347D01*
X230551446Y-125519971D01*
X230559504Y-125542493D01*
X230565316Y-125565697D01*
X230568826Y-125589358D01*
X230570000Y-125613250D01*
X230570000Y-126100750D01*
X230568826Y-126124642D01*
X230565316Y-126148303D01*
X230559504Y-126171507D01*
X230551446Y-126194029D01*
X230541218Y-126215653D01*
X230528921Y-126236170D01*
X230514671Y-126255383D01*
X230498607Y-126273107D01*
X230480883Y-126289171D01*
X230461670Y-126303421D01*
X230441153Y-126315718D01*
X230419529Y-126325946D01*
X230397007Y-126334004D01*
X230373803Y-126339816D01*
X230350142Y-126343326D01*
X230326250Y-126344500D01*
X229413750Y-126344500D01*
X229389858Y-126343326D01*
X229366197Y-126339816D01*
X229342993Y-126334004D01*
X229320471Y-126325946D01*
X229298847Y-126315718D01*
X229278330Y-126303421D01*
X229259117Y-126289171D01*
X229241393Y-126273107D01*
X229225329Y-126255383D01*
X229211079Y-126236170D01*
X229198782Y-126215653D01*
X229188554Y-126194029D01*
X229180496Y-126171507D01*
X229174684Y-126148303D01*
X229171174Y-126124642D01*
X229170000Y-126100750D01*
X229170000Y-125613250D01*
X229171174Y-125589358D01*
X229174684Y-125565697D01*
X229180496Y-125542493D01*
X229188554Y-125519971D01*
X229198782Y-125498347D01*
X229211079Y-125477830D01*
X229225329Y-125458617D01*
X229241393Y-125440893D01*
X229259117Y-125424829D01*
X229278330Y-125410579D01*
X229298847Y-125398282D01*
X229320471Y-125388054D01*
X229342993Y-125379996D01*
X229366197Y-125374184D01*
X229389858Y-125370674D01*
X229413750Y-125369500D01*
X230326250Y-125369500D01*
X230350142Y-125370674D01*
G37*
G04 #@! TD.AperFunction*
G04 #@! TA.AperFunction,SMDPad,CuDef*
G36*
X227683142Y-125419174D02*
G01*
X227706803Y-125422684D01*
X227730007Y-125428496D01*
X227752529Y-125436554D01*
X227774153Y-125446782D01*
X227794670Y-125459079D01*
X227813883Y-125473329D01*
X227831607Y-125489393D01*
X227847671Y-125507117D01*
X227861921Y-125526330D01*
X227874218Y-125546847D01*
X227884446Y-125568471D01*
X227892504Y-125590993D01*
X227898316Y-125614197D01*
X227901826Y-125637858D01*
X227903000Y-125661750D01*
X227903000Y-126149250D01*
X227901826Y-126173142D01*
X227898316Y-126196803D01*
X227892504Y-126220007D01*
X227884446Y-126242529D01*
X227874218Y-126264153D01*
X227861921Y-126284670D01*
X227847671Y-126303883D01*
X227831607Y-126321607D01*
X227813883Y-126337671D01*
X227794670Y-126351921D01*
X227774153Y-126364218D01*
X227752529Y-126374446D01*
X227730007Y-126382504D01*
X227706803Y-126388316D01*
X227683142Y-126391826D01*
X227659250Y-126393000D01*
X226746750Y-126393000D01*
X226722858Y-126391826D01*
X226699197Y-126388316D01*
X226675993Y-126382504D01*
X226653471Y-126374446D01*
X226631847Y-126364218D01*
X226611330Y-126351921D01*
X226592117Y-126337671D01*
X226574393Y-126321607D01*
X226558329Y-126303883D01*
X226544079Y-126284670D01*
X226531782Y-126264153D01*
X226521554Y-126242529D01*
X226513496Y-126220007D01*
X226507684Y-126196803D01*
X226504174Y-126173142D01*
X226503000Y-126149250D01*
X226503000Y-125661750D01*
X226504174Y-125637858D01*
X226507684Y-125614197D01*
X226513496Y-125590993D01*
X226521554Y-125568471D01*
X226531782Y-125546847D01*
X226544079Y-125526330D01*
X226558329Y-125507117D01*
X226574393Y-125489393D01*
X226592117Y-125473329D01*
X226611330Y-125459079D01*
X226631847Y-125446782D01*
X226653471Y-125436554D01*
X226675993Y-125428496D01*
X226699197Y-125422684D01*
X226722858Y-125419174D01*
X226746750Y-125418000D01*
X227659250Y-125418000D01*
X227683142Y-125419174D01*
G37*
G04 #@! TD.AperFunction*
G04 #@! TA.AperFunction,SMDPad,CuDef*
G36*
X227683142Y-123544174D02*
G01*
X227706803Y-123547684D01*
X227730007Y-123553496D01*
X227752529Y-123561554D01*
X227774153Y-123571782D01*
X227794670Y-123584079D01*
X227813883Y-123598329D01*
X227831607Y-123614393D01*
X227847671Y-123632117D01*
X227861921Y-123651330D01*
X227874218Y-123671847D01*
X227884446Y-123693471D01*
X227892504Y-123715993D01*
X227898316Y-123739197D01*
X227901826Y-123762858D01*
X227903000Y-123786750D01*
X227903000Y-124274250D01*
X227901826Y-124298142D01*
X227898316Y-124321803D01*
X227892504Y-124345007D01*
X227884446Y-124367529D01*
X227874218Y-124389153D01*
X227861921Y-124409670D01*
X227847671Y-124428883D01*
X227831607Y-124446607D01*
X227813883Y-124462671D01*
X227794670Y-124476921D01*
X227774153Y-124489218D01*
X227752529Y-124499446D01*
X227730007Y-124507504D01*
X227706803Y-124513316D01*
X227683142Y-124516826D01*
X227659250Y-124518000D01*
X226746750Y-124518000D01*
X226722858Y-124516826D01*
X226699197Y-124513316D01*
X226675993Y-124507504D01*
X226653471Y-124499446D01*
X226631847Y-124489218D01*
X226611330Y-124476921D01*
X226592117Y-124462671D01*
X226574393Y-124446607D01*
X226558329Y-124428883D01*
X226544079Y-124409670D01*
X226531782Y-124389153D01*
X226521554Y-124367529D01*
X226513496Y-124345007D01*
X226507684Y-124321803D01*
X226504174Y-124298142D01*
X226503000Y-124274250D01*
X226503000Y-123786750D01*
X226504174Y-123762858D01*
X226507684Y-123739197D01*
X226513496Y-123715993D01*
X226521554Y-123693471D01*
X226531782Y-123671847D01*
X226544079Y-123651330D01*
X226558329Y-123632117D01*
X226574393Y-123614393D01*
X226592117Y-123598329D01*
X226611330Y-123584079D01*
X226631847Y-123571782D01*
X226653471Y-123561554D01*
X226675993Y-123553496D01*
X226699197Y-123547684D01*
X226722858Y-123544174D01*
X226746750Y-123543000D01*
X227659250Y-123543000D01*
X227683142Y-123544174D01*
G37*
G04 #@! TD.AperFunction*
D15*
X217950000Y-102700000D03*
X216050000Y-102700000D03*
X217000000Y-99300000D03*
G04 #@! TA.AperFunction,SMDPad,CuDef*
D10*
G36*
X216330142Y-103701174D02*
G01*
X216353803Y-103704684D01*
X216377007Y-103710496D01*
X216399529Y-103718554D01*
X216421153Y-103728782D01*
X216441670Y-103741079D01*
X216460883Y-103755329D01*
X216478607Y-103771393D01*
X216494671Y-103789117D01*
X216508921Y-103808330D01*
X216521218Y-103828847D01*
X216531446Y-103850471D01*
X216539504Y-103872993D01*
X216545316Y-103896197D01*
X216548826Y-103919858D01*
X216550000Y-103943750D01*
X216550000Y-104856250D01*
X216548826Y-104880142D01*
X216545316Y-104903803D01*
X216539504Y-104927007D01*
X216531446Y-104949529D01*
X216521218Y-104971153D01*
X216508921Y-104991670D01*
X216494671Y-105010883D01*
X216478607Y-105028607D01*
X216460883Y-105044671D01*
X216441670Y-105058921D01*
X216421153Y-105071218D01*
X216399529Y-105081446D01*
X216377007Y-105089504D01*
X216353803Y-105095316D01*
X216330142Y-105098826D01*
X216306250Y-105100000D01*
X215818750Y-105100000D01*
X215794858Y-105098826D01*
X215771197Y-105095316D01*
X215747993Y-105089504D01*
X215725471Y-105081446D01*
X215703847Y-105071218D01*
X215683330Y-105058921D01*
X215664117Y-105044671D01*
X215646393Y-105028607D01*
X215630329Y-105010883D01*
X215616079Y-104991670D01*
X215603782Y-104971153D01*
X215593554Y-104949529D01*
X215585496Y-104927007D01*
X215579684Y-104903803D01*
X215576174Y-104880142D01*
X215575000Y-104856250D01*
X215575000Y-103943750D01*
X215576174Y-103919858D01*
X215579684Y-103896197D01*
X215585496Y-103872993D01*
X215593554Y-103850471D01*
X215603782Y-103828847D01*
X215616079Y-103808330D01*
X215630329Y-103789117D01*
X215646393Y-103771393D01*
X215664117Y-103755329D01*
X215683330Y-103741079D01*
X215703847Y-103728782D01*
X215725471Y-103718554D01*
X215747993Y-103710496D01*
X215771197Y-103704684D01*
X215794858Y-103701174D01*
X215818750Y-103700000D01*
X216306250Y-103700000D01*
X216330142Y-103701174D01*
G37*
G04 #@! TD.AperFunction*
G04 #@! TA.AperFunction,SMDPad,CuDef*
G36*
X218205142Y-103701174D02*
G01*
X218228803Y-103704684D01*
X218252007Y-103710496D01*
X218274529Y-103718554D01*
X218296153Y-103728782D01*
X218316670Y-103741079D01*
X218335883Y-103755329D01*
X218353607Y-103771393D01*
X218369671Y-103789117D01*
X218383921Y-103808330D01*
X218396218Y-103828847D01*
X218406446Y-103850471D01*
X218414504Y-103872993D01*
X218420316Y-103896197D01*
X218423826Y-103919858D01*
X218425000Y-103943750D01*
X218425000Y-104856250D01*
X218423826Y-104880142D01*
X218420316Y-104903803D01*
X218414504Y-104927007D01*
X218406446Y-104949529D01*
X218396218Y-104971153D01*
X218383921Y-104991670D01*
X218369671Y-105010883D01*
X218353607Y-105028607D01*
X218335883Y-105044671D01*
X218316670Y-105058921D01*
X218296153Y-105071218D01*
X218274529Y-105081446D01*
X218252007Y-105089504D01*
X218228803Y-105095316D01*
X218205142Y-105098826D01*
X218181250Y-105100000D01*
X217693750Y-105100000D01*
X217669858Y-105098826D01*
X217646197Y-105095316D01*
X217622993Y-105089504D01*
X217600471Y-105081446D01*
X217578847Y-105071218D01*
X217558330Y-105058921D01*
X217539117Y-105044671D01*
X217521393Y-105028607D01*
X217505329Y-105010883D01*
X217491079Y-104991670D01*
X217478782Y-104971153D01*
X217468554Y-104949529D01*
X217460496Y-104927007D01*
X217454684Y-104903803D01*
X217451174Y-104880142D01*
X217450000Y-104856250D01*
X217450000Y-103943750D01*
X217451174Y-103919858D01*
X217454684Y-103896197D01*
X217460496Y-103872993D01*
X217468554Y-103850471D01*
X217478782Y-103828847D01*
X217491079Y-103808330D01*
X217505329Y-103789117D01*
X217521393Y-103771393D01*
X217539117Y-103755329D01*
X217558330Y-103741079D01*
X217578847Y-103728782D01*
X217600471Y-103718554D01*
X217622993Y-103710496D01*
X217646197Y-103704684D01*
X217669858Y-103701174D01*
X217693750Y-103700000D01*
X218181250Y-103700000D01*
X218205142Y-103701174D01*
G37*
G04 #@! TD.AperFunction*
D13*
X220600000Y-98800000D03*
D14*
X220600000Y-101340000D03*
D13*
X220600000Y-103800000D03*
X227800000Y-103800000D03*
X227800000Y-98800000D03*
D14*
X227800000Y-101340000D03*
D15*
X225350000Y-102700000D03*
X223450000Y-102700000D03*
X224400000Y-99300000D03*
G04 #@! TA.AperFunction,SMDPad,CuDef*
D10*
G36*
X223739142Y-103568174D02*
G01*
X223762803Y-103571684D01*
X223786007Y-103577496D01*
X223808529Y-103585554D01*
X223830153Y-103595782D01*
X223850670Y-103608079D01*
X223869883Y-103622329D01*
X223887607Y-103638393D01*
X223903671Y-103656117D01*
X223917921Y-103675330D01*
X223930218Y-103695847D01*
X223940446Y-103717471D01*
X223948504Y-103739993D01*
X223954316Y-103763197D01*
X223957826Y-103786858D01*
X223959000Y-103810750D01*
X223959000Y-104723250D01*
X223957826Y-104747142D01*
X223954316Y-104770803D01*
X223948504Y-104794007D01*
X223940446Y-104816529D01*
X223930218Y-104838153D01*
X223917921Y-104858670D01*
X223903671Y-104877883D01*
X223887607Y-104895607D01*
X223869883Y-104911671D01*
X223850670Y-104925921D01*
X223830153Y-104938218D01*
X223808529Y-104948446D01*
X223786007Y-104956504D01*
X223762803Y-104962316D01*
X223739142Y-104965826D01*
X223715250Y-104967000D01*
X223227750Y-104967000D01*
X223203858Y-104965826D01*
X223180197Y-104962316D01*
X223156993Y-104956504D01*
X223134471Y-104948446D01*
X223112847Y-104938218D01*
X223092330Y-104925921D01*
X223073117Y-104911671D01*
X223055393Y-104895607D01*
X223039329Y-104877883D01*
X223025079Y-104858670D01*
X223012782Y-104838153D01*
X223002554Y-104816529D01*
X222994496Y-104794007D01*
X222988684Y-104770803D01*
X222985174Y-104747142D01*
X222984000Y-104723250D01*
X222984000Y-103810750D01*
X222985174Y-103786858D01*
X222988684Y-103763197D01*
X222994496Y-103739993D01*
X223002554Y-103717471D01*
X223012782Y-103695847D01*
X223025079Y-103675330D01*
X223039329Y-103656117D01*
X223055393Y-103638393D01*
X223073117Y-103622329D01*
X223092330Y-103608079D01*
X223112847Y-103595782D01*
X223134471Y-103585554D01*
X223156993Y-103577496D01*
X223180197Y-103571684D01*
X223203858Y-103568174D01*
X223227750Y-103567000D01*
X223715250Y-103567000D01*
X223739142Y-103568174D01*
G37*
G04 #@! TD.AperFunction*
G04 #@! TA.AperFunction,SMDPad,CuDef*
G36*
X225614142Y-103568174D02*
G01*
X225637803Y-103571684D01*
X225661007Y-103577496D01*
X225683529Y-103585554D01*
X225705153Y-103595782D01*
X225725670Y-103608079D01*
X225744883Y-103622329D01*
X225762607Y-103638393D01*
X225778671Y-103656117D01*
X225792921Y-103675330D01*
X225805218Y-103695847D01*
X225815446Y-103717471D01*
X225823504Y-103739993D01*
X225829316Y-103763197D01*
X225832826Y-103786858D01*
X225834000Y-103810750D01*
X225834000Y-104723250D01*
X225832826Y-104747142D01*
X225829316Y-104770803D01*
X225823504Y-104794007D01*
X225815446Y-104816529D01*
X225805218Y-104838153D01*
X225792921Y-104858670D01*
X225778671Y-104877883D01*
X225762607Y-104895607D01*
X225744883Y-104911671D01*
X225725670Y-104925921D01*
X225705153Y-104938218D01*
X225683529Y-104948446D01*
X225661007Y-104956504D01*
X225637803Y-104962316D01*
X225614142Y-104965826D01*
X225590250Y-104967000D01*
X225102750Y-104967000D01*
X225078858Y-104965826D01*
X225055197Y-104962316D01*
X225031993Y-104956504D01*
X225009471Y-104948446D01*
X224987847Y-104938218D01*
X224967330Y-104925921D01*
X224948117Y-104911671D01*
X224930393Y-104895607D01*
X224914329Y-104877883D01*
X224900079Y-104858670D01*
X224887782Y-104838153D01*
X224877554Y-104816529D01*
X224869496Y-104794007D01*
X224863684Y-104770803D01*
X224860174Y-104747142D01*
X224859000Y-104723250D01*
X224859000Y-103810750D01*
X224860174Y-103786858D01*
X224863684Y-103763197D01*
X224869496Y-103739993D01*
X224877554Y-103717471D01*
X224887782Y-103695847D01*
X224900079Y-103675330D01*
X224914329Y-103656117D01*
X224930393Y-103638393D01*
X224948117Y-103622329D01*
X224967330Y-103608079D01*
X224987847Y-103595782D01*
X225009471Y-103585554D01*
X225031993Y-103577496D01*
X225055197Y-103571684D01*
X225078858Y-103568174D01*
X225102750Y-103567000D01*
X225590250Y-103567000D01*
X225614142Y-103568174D01*
G37*
G04 #@! TD.AperFunction*
D13*
X234800000Y-103800000D03*
X234800000Y-98800000D03*
D14*
X234800000Y-101340000D03*
D15*
X232550000Y-102700000D03*
X230650000Y-102700000D03*
X231600000Y-99300000D03*
G04 #@! TA.AperFunction,SMDPad,CuDef*
D10*
G36*
X230930142Y-103701174D02*
G01*
X230953803Y-103704684D01*
X230977007Y-103710496D01*
X230999529Y-103718554D01*
X231021153Y-103728782D01*
X231041670Y-103741079D01*
X231060883Y-103755329D01*
X231078607Y-103771393D01*
X231094671Y-103789117D01*
X231108921Y-103808330D01*
X231121218Y-103828847D01*
X231131446Y-103850471D01*
X231139504Y-103872993D01*
X231145316Y-103896197D01*
X231148826Y-103919858D01*
X231150000Y-103943750D01*
X231150000Y-104856250D01*
X231148826Y-104880142D01*
X231145316Y-104903803D01*
X231139504Y-104927007D01*
X231131446Y-104949529D01*
X231121218Y-104971153D01*
X231108921Y-104991670D01*
X231094671Y-105010883D01*
X231078607Y-105028607D01*
X231060883Y-105044671D01*
X231041670Y-105058921D01*
X231021153Y-105071218D01*
X230999529Y-105081446D01*
X230977007Y-105089504D01*
X230953803Y-105095316D01*
X230930142Y-105098826D01*
X230906250Y-105100000D01*
X230418750Y-105100000D01*
X230394858Y-105098826D01*
X230371197Y-105095316D01*
X230347993Y-105089504D01*
X230325471Y-105081446D01*
X230303847Y-105071218D01*
X230283330Y-105058921D01*
X230264117Y-105044671D01*
X230246393Y-105028607D01*
X230230329Y-105010883D01*
X230216079Y-104991670D01*
X230203782Y-104971153D01*
X230193554Y-104949529D01*
X230185496Y-104927007D01*
X230179684Y-104903803D01*
X230176174Y-104880142D01*
X230175000Y-104856250D01*
X230175000Y-103943750D01*
X230176174Y-103919858D01*
X230179684Y-103896197D01*
X230185496Y-103872993D01*
X230193554Y-103850471D01*
X230203782Y-103828847D01*
X230216079Y-103808330D01*
X230230329Y-103789117D01*
X230246393Y-103771393D01*
X230264117Y-103755329D01*
X230283330Y-103741079D01*
X230303847Y-103728782D01*
X230325471Y-103718554D01*
X230347993Y-103710496D01*
X230371197Y-103704684D01*
X230394858Y-103701174D01*
X230418750Y-103700000D01*
X230906250Y-103700000D01*
X230930142Y-103701174D01*
G37*
G04 #@! TD.AperFunction*
G04 #@! TA.AperFunction,SMDPad,CuDef*
G36*
X232805142Y-103701174D02*
G01*
X232828803Y-103704684D01*
X232852007Y-103710496D01*
X232874529Y-103718554D01*
X232896153Y-103728782D01*
X232916670Y-103741079D01*
X232935883Y-103755329D01*
X232953607Y-103771393D01*
X232969671Y-103789117D01*
X232983921Y-103808330D01*
X232996218Y-103828847D01*
X233006446Y-103850471D01*
X233014504Y-103872993D01*
X233020316Y-103896197D01*
X233023826Y-103919858D01*
X233025000Y-103943750D01*
X233025000Y-104856250D01*
X233023826Y-104880142D01*
X233020316Y-104903803D01*
X233014504Y-104927007D01*
X233006446Y-104949529D01*
X232996218Y-104971153D01*
X232983921Y-104991670D01*
X232969671Y-105010883D01*
X232953607Y-105028607D01*
X232935883Y-105044671D01*
X232916670Y-105058921D01*
X232896153Y-105071218D01*
X232874529Y-105081446D01*
X232852007Y-105089504D01*
X232828803Y-105095316D01*
X232805142Y-105098826D01*
X232781250Y-105100000D01*
X232293750Y-105100000D01*
X232269858Y-105098826D01*
X232246197Y-105095316D01*
X232222993Y-105089504D01*
X232200471Y-105081446D01*
X232178847Y-105071218D01*
X232158330Y-105058921D01*
X232139117Y-105044671D01*
X232121393Y-105028607D01*
X232105329Y-105010883D01*
X232091079Y-104991670D01*
X232078782Y-104971153D01*
X232068554Y-104949529D01*
X232060496Y-104927007D01*
X232054684Y-104903803D01*
X232051174Y-104880142D01*
X232050000Y-104856250D01*
X232050000Y-103943750D01*
X232051174Y-103919858D01*
X232054684Y-103896197D01*
X232060496Y-103872993D01*
X232068554Y-103850471D01*
X232078782Y-103828847D01*
X232091079Y-103808330D01*
X232105329Y-103789117D01*
X232121393Y-103771393D01*
X232139117Y-103755329D01*
X232158330Y-103741079D01*
X232178847Y-103728782D01*
X232200471Y-103718554D01*
X232222993Y-103710496D01*
X232246197Y-103704684D01*
X232269858Y-103701174D01*
X232293750Y-103700000D01*
X232781250Y-103700000D01*
X232805142Y-103701174D01*
G37*
G04 #@! TD.AperFunction*
D14*
X239061001Y-113792000D03*
X239061001Y-116332000D03*
X236521001Y-113792000D03*
X236521001Y-116332000D03*
X233981001Y-113792000D03*
X233981001Y-116332000D03*
X231441001Y-113792000D03*
X231441001Y-116332000D03*
X228901001Y-113792000D03*
X228901001Y-116332000D03*
X226361001Y-113792000D03*
X226361001Y-116332000D03*
X223821001Y-113792000D03*
X223821001Y-116332000D03*
X221281001Y-113792000D03*
X221281001Y-116332000D03*
X218741001Y-113792000D03*
X218741001Y-116332000D03*
X216201001Y-113792000D03*
D13*
X216201001Y-116332000D03*
X216201001Y-111252000D03*
D14*
X216201001Y-108712000D03*
X218741001Y-111252000D03*
X218741001Y-108712000D03*
X221281001Y-111252000D03*
X221281001Y-108712000D03*
X223821001Y-111252000D03*
X223821001Y-108712000D03*
X226361001Y-111252000D03*
X226361001Y-108712000D03*
X228901001Y-111252000D03*
X228901001Y-108712000D03*
X231441001Y-111252000D03*
X231441001Y-108712000D03*
X233981001Y-111252000D03*
X233981001Y-108712000D03*
X236521001Y-111252000D03*
X236521001Y-108712000D03*
X239061001Y-111252000D03*
X239061001Y-108712000D03*
D13*
X216154000Y-118872000D03*
D14*
X218694000Y-118872000D03*
X221234000Y-118872000D03*
X223774000Y-118872000D03*
X226314000Y-118872000D03*
X228854000Y-118872000D03*
X231394000Y-118872000D03*
X233934000Y-118872000D03*
X236474000Y-118872000D03*
X239014000Y-118872000D03*
D16*
X148077000Y-113314000D03*
X148077000Y-112664000D03*
X148077000Y-112014000D03*
X148077000Y-111364000D03*
X148077000Y-110714000D03*
D17*
X148027000Y-115739000D03*
X148027000Y-108289000D03*
D18*
X144227000Y-115889000D03*
X144227000Y-108139000D03*
D13*
X211201000Y-108712000D03*
D14*
X213741000Y-108712000D03*
X211201000Y-111252000D03*
X213741000Y-111252000D03*
X213741000Y-118999000D03*
X211201000Y-118999000D03*
X213741000Y-116459000D03*
D13*
X211201000Y-116459000D03*
D19*
X146304000Y-105664000D03*
X154813000Y-106553000D03*
X152019000Y-99441000D03*
X215138000Y-105791000D03*
X161290000Y-116713000D03*
X180721000Y-110617000D03*
X179324000Y-108966000D03*
X183261000Y-113665000D03*
X204470000Y-115570000D03*
X204470000Y-112522000D03*
X208788000Y-121285000D03*
X184658000Y-112268000D03*
X191008000Y-110998000D03*
X192405000Y-112649000D03*
X193802000Y-114427000D03*
X195072000Y-116332000D03*
X160401000Y-112522000D03*
X162433000Y-112522000D03*
X164846000Y-112522000D03*
X167259000Y-112522000D03*
X169545000Y-112522000D03*
X170561000Y-109220000D03*
X179959000Y-104013000D03*
X218694000Y-122682000D03*
X232283000Y-122555000D03*
X211074000Y-122936000D03*
X224409000Y-122936000D03*
D20*
X148262500Y-120537500D02*
X148325000Y-120600000D01*
X148262500Y-118000000D02*
X148262500Y-120537500D01*
X145796000Y-106172000D02*
X146304000Y-105664000D01*
X145796000Y-116078000D02*
X145796000Y-106172000D01*
X148262500Y-118000000D02*
X147718000Y-118000000D01*
X147718000Y-118000000D02*
X145796000Y-116078000D01*
X166107000Y-101219000D02*
X166107000Y-102353000D01*
X166107000Y-102353000D02*
X167132000Y-103378000D01*
X167132000Y-103378000D02*
X171831000Y-103378000D01*
X176367177Y-107914177D02*
X176367177Y-107925806D01*
X171831000Y-103378000D02*
X176367177Y-107914177D01*
X186055000Y-118745000D02*
X183862509Y-116552509D01*
X184404000Y-123952000D02*
X184404000Y-123190000D01*
X186055000Y-121539000D02*
X186055000Y-118745000D01*
X184404000Y-123190000D02*
X186055000Y-121539000D01*
X163567000Y-101219000D02*
X163567000Y-102734000D01*
X163567000Y-102734000D02*
X164973000Y-104140000D01*
X171450000Y-104140000D02*
X175801491Y-108491491D01*
X164973000Y-104140000D02*
X171450000Y-104140000D01*
X150154500Y-117983000D02*
X150137500Y-118000000D01*
X152400000Y-117983000D02*
X150154500Y-117983000D01*
X185166000Y-118987371D02*
X183296823Y-117118194D01*
X185166000Y-120904000D02*
X185166000Y-118987371D01*
X181864000Y-123952000D02*
X182118000Y-123952000D01*
X182118000Y-123952000D02*
X185166000Y-120904000D01*
D21*
X163567000Y-101219000D02*
X163567000Y-98679000D01*
X166107000Y-101219000D02*
X166107000Y-98679000D01*
X190364000Y-101219000D02*
X190364000Y-98679000D01*
X192904000Y-101219000D02*
X192904000Y-98679000D01*
X155067000Y-126492000D02*
X155067000Y-123952000D01*
X157607000Y-126492000D02*
X157607000Y-123952000D01*
X181864000Y-126492000D02*
X181864000Y-123952000D01*
X184404000Y-126492000D02*
X184404000Y-123952000D01*
D20*
X216050000Y-104387500D02*
X216062500Y-104400000D01*
X216050000Y-102700000D02*
X216050000Y-104387500D01*
X223450000Y-104245500D02*
X223471500Y-104267000D01*
X223450000Y-102700000D02*
X223450000Y-104245500D01*
X230650000Y-104387500D02*
X230662500Y-104400000D01*
X230650000Y-102700000D02*
X230650000Y-104387500D01*
X216062500Y-104400000D02*
X216062500Y-105699500D01*
X216062500Y-105699500D02*
X216662000Y-106299000D01*
X216662000Y-106299000D02*
X222631000Y-106299000D01*
X223471500Y-105458500D02*
X223471500Y-104267000D01*
X222631000Y-106299000D02*
X223471500Y-105458500D01*
X223471500Y-104267000D02*
X223471500Y-105488500D01*
X223471500Y-105488500D02*
X224282000Y-106299000D01*
X224282000Y-106299000D02*
X229870000Y-106299000D01*
X230662500Y-105506500D02*
X230662500Y-104400000D01*
X229870000Y-106299000D02*
X230662500Y-105506500D01*
D21*
X152400000Y-115443000D02*
X153924000Y-115443000D01*
X153924000Y-115443000D02*
X154813000Y-114554000D01*
X154813000Y-106553000D02*
X154813000Y-106426000D01*
X152019000Y-103632000D02*
X152019000Y-99441000D01*
X154813000Y-106426000D02*
X152019000Y-103632000D01*
D20*
X148077000Y-110714000D02*
X149128000Y-110714000D01*
X151765000Y-108077000D02*
X154813000Y-108077000D01*
X149128000Y-110714000D02*
X151765000Y-108077000D01*
D21*
X154813000Y-114554000D02*
X154813000Y-108077000D01*
X154813000Y-108077000D02*
X154813000Y-106553000D01*
D20*
X177927000Y-109485629D02*
X176367177Y-107925806D01*
X183862509Y-116552509D02*
X177927000Y-110617000D01*
X177927000Y-110617000D02*
X177927000Y-109485629D01*
D21*
X211201000Y-116459000D02*
X213741000Y-116459000D01*
X211201000Y-116459000D02*
X211201000Y-118999000D01*
X213741000Y-118999000D02*
X211201000Y-118999000D01*
X213741000Y-116459000D02*
X213741000Y-118999000D01*
D22*
X215138000Y-105791000D02*
X216062500Y-104866500D01*
X216062500Y-104866500D02*
X216062500Y-104400000D01*
D20*
X213233000Y-124030500D02*
X213233000Y-123952000D01*
X213233000Y-123952000D02*
X216027000Y-121158000D01*
X216027000Y-121158000D02*
X225425000Y-121158000D01*
X227203000Y-122936000D02*
X227203000Y-124030500D01*
X225425000Y-121158000D02*
X227203000Y-122936000D01*
D21*
X154559000Y-117983000D02*
X152400000Y-117983000D01*
X161290000Y-116713000D02*
X155829000Y-116713000D01*
X155829000Y-116713000D02*
X154559000Y-117983000D01*
D20*
X148077000Y-113314000D02*
X149382000Y-113314000D01*
X149382000Y-113314000D02*
X150368000Y-114300000D01*
X150368000Y-117769500D02*
X150137500Y-118000000D01*
X150368000Y-114300000D02*
X150368000Y-117769500D01*
D22*
X212725000Y-121285000D02*
X213233000Y-121793000D01*
X208788000Y-121285000D02*
X212725000Y-121285000D01*
X213233000Y-121793000D02*
X213233000Y-124030500D01*
D21*
X211201000Y-111252000D02*
X209931000Y-111252000D01*
X209931000Y-111252000D02*
X208788000Y-112395000D01*
X180022500Y-109791500D02*
X179324000Y-109093000D01*
D20*
X177038000Y-110859371D02*
X183296823Y-117118194D01*
X175801491Y-108491491D02*
X177038000Y-109728000D01*
X177038000Y-109728000D02*
X177038000Y-110859371D01*
D21*
X180721000Y-110363000D02*
X179324000Y-108966000D01*
X180721000Y-110617000D02*
X180721000Y-110363000D01*
X180721000Y-110617000D02*
X180721000Y-111125000D01*
X180721000Y-111125000D02*
X183261000Y-113665000D01*
X204470000Y-115570000D02*
X204470000Y-112522000D01*
X209931000Y-112522000D02*
X211201000Y-111252000D01*
X204470000Y-112522000D02*
X209931000Y-112522000D01*
X211201000Y-111252000D02*
X213741000Y-111252000D01*
X211201000Y-111252000D02*
X211201000Y-108712000D01*
X211201000Y-108712000D02*
X213741000Y-108712000D01*
X213741000Y-108712000D02*
X213741000Y-111252000D01*
X204470000Y-115570000D02*
X208788000Y-115570000D01*
X208788000Y-112395000D02*
X208788000Y-115570000D01*
X208788000Y-115570000D02*
X208788000Y-121285000D01*
X186944000Y-126492000D02*
X186944000Y-123952000D01*
X189484000Y-126492000D02*
X189484000Y-123952000D01*
X192024000Y-126492000D02*
X192024000Y-123952000D01*
X194564000Y-126492000D02*
X194564000Y-123952000D01*
X197104000Y-126492000D02*
X197104000Y-123952000D01*
X199644000Y-126492000D02*
X199644000Y-123952000D01*
X202184000Y-126492000D02*
X202184000Y-123952000D01*
X204724000Y-126492000D02*
X204724000Y-123952000D01*
X160147000Y-126492000D02*
X160147000Y-123952000D01*
X162687000Y-126492000D02*
X162687000Y-123952000D01*
X165227000Y-126492000D02*
X165227000Y-123952000D01*
X167767000Y-126492000D02*
X167767000Y-123952000D01*
X170307000Y-126492000D02*
X170307000Y-123952000D01*
X172847000Y-126492000D02*
X172847000Y-123952000D01*
X175387000Y-126492000D02*
X175387000Y-123952000D01*
X177927000Y-126492000D02*
X177927000Y-123952000D01*
X195444000Y-101219000D02*
X195444000Y-98679000D01*
D20*
X184658000Y-112141000D02*
X179959000Y-107442000D01*
X184658000Y-112268000D02*
X184658000Y-112141000D01*
X179277483Y-107442000D02*
X178064233Y-106228750D01*
X179959000Y-107442000D02*
X179277483Y-107442000D01*
D21*
X197984000Y-101219000D02*
X197984000Y-98679000D01*
X200524000Y-101219000D02*
X200524000Y-98679000D01*
X203064000Y-101219000D02*
X203064000Y-98679000D01*
X205604000Y-101219000D02*
X205604000Y-98679000D01*
X208144000Y-101219000D02*
X208144000Y-98679000D01*
X210684000Y-101219000D02*
X210684000Y-98679000D01*
X213224000Y-101219000D02*
X213224000Y-98679000D01*
X168647000Y-101219000D02*
X168647000Y-98679000D01*
X171187000Y-101219000D02*
X171187000Y-98679000D01*
X173727000Y-101219000D02*
X173727000Y-98679000D01*
X176267000Y-101219000D02*
X176267000Y-98679000D01*
X178807000Y-101219000D02*
X178807000Y-98679000D01*
X181347000Y-101219000D02*
X181347000Y-98679000D01*
X183887000Y-101219000D02*
X183887000Y-98679000D01*
X186427000Y-101219000D02*
X186427000Y-98679000D01*
D20*
X184069517Y-103759000D02*
X181599767Y-106228750D01*
X196469000Y-103759000D02*
X184069517Y-103759000D01*
X197984000Y-101219000D02*
X197984000Y-102244000D01*
X197984000Y-102244000D02*
X196469000Y-103759000D01*
X199009000Y-104521000D02*
X184438887Y-104521000D01*
X200524000Y-101219000D02*
X200524000Y-103006000D01*
X184438887Y-104521000D02*
X182165452Y-106794435D01*
X200524000Y-103006000D02*
X199009000Y-104521000D01*
X200025000Y-105283000D02*
X184808258Y-105283000D01*
X184808258Y-105283000D02*
X182731138Y-107360120D01*
X203064000Y-101219000D02*
X203064000Y-102244000D01*
X203064000Y-102244000D02*
X200025000Y-105283000D01*
X189103000Y-109093000D02*
X191008000Y-110998000D01*
X185559565Y-110188548D02*
X185594452Y-110188548D01*
X186690000Y-109093000D02*
X189103000Y-109093000D01*
X185594452Y-110188548D02*
X186690000Y-109093000D01*
X186125250Y-110737250D02*
X186125250Y-110754233D01*
X192405000Y-112649000D02*
X190627000Y-112649000D01*
X187007500Y-109855000D02*
X186125250Y-110737250D01*
X190627000Y-112649000D02*
X187833000Y-109855000D01*
X187833000Y-109855000D02*
X187007500Y-109855000D01*
X193802000Y-114427000D02*
X190246000Y-114427000D01*
X190246000Y-114427000D02*
X187138918Y-111319918D01*
X187138918Y-111319918D02*
X186690936Y-111319918D01*
X186749082Y-113724082D02*
X186690936Y-113724082D01*
X189357000Y-116332000D02*
X186749082Y-113724082D01*
X195072000Y-116332000D02*
X189357000Y-116332000D01*
X185177629Y-106045000D02*
X183296823Y-107925806D01*
X204724000Y-123952000D02*
X204724000Y-118999000D01*
X191770000Y-106045000D02*
X185177629Y-106045000D01*
X204724000Y-118999000D02*
X191770000Y-106045000D01*
X185547000Y-106807000D02*
X183862509Y-108491491D01*
X191389000Y-106807000D02*
X185547000Y-106807000D01*
X202184000Y-123952000D02*
X202184000Y-117602000D01*
X202184000Y-117602000D02*
X191389000Y-106807000D01*
X185916371Y-107569000D02*
X184428194Y-109057177D01*
X190881000Y-107569000D02*
X185916371Y-107569000D01*
X199644000Y-123952000D02*
X199644000Y-116332000D01*
X199644000Y-116332000D02*
X190881000Y-107569000D01*
X186285742Y-108331000D02*
X184993880Y-109622862D01*
X190373000Y-108331000D02*
X186285742Y-108331000D01*
X197104000Y-123952000D02*
X197104000Y-115062000D01*
X197104000Y-115062000D02*
X190373000Y-108331000D01*
X194564000Y-122728517D02*
X186125250Y-114289767D01*
X194564000Y-123952000D02*
X194564000Y-122728517D01*
X192024000Y-121319887D02*
X185559565Y-114855452D01*
X192024000Y-123952000D02*
X192024000Y-121319887D01*
X189484000Y-119911258D02*
X184993880Y-115421138D01*
X189484000Y-123952000D02*
X189484000Y-119911258D01*
X186944000Y-118502629D02*
X184428194Y-115986823D01*
X186944000Y-123952000D02*
X186944000Y-118502629D01*
X164084000Y-116332000D02*
X160401000Y-112649000D01*
X173736000Y-116332000D02*
X164084000Y-116332000D01*
X174670120Y-115421138D02*
X174646862Y-115421138D01*
X160401000Y-112649000D02*
X160401000Y-112522000D01*
X174646862Y-115421138D02*
X173736000Y-116332000D01*
X173228000Y-115697000D02*
X165735000Y-115697000D01*
X162560000Y-112522000D02*
X162433000Y-112522000D01*
X174104435Y-114855452D02*
X174069548Y-114855452D01*
X165735000Y-115697000D02*
X162560000Y-112522000D01*
X174069548Y-114855452D02*
X173228000Y-115697000D01*
X172847000Y-114935000D02*
X167259000Y-114935000D01*
X167259000Y-114935000D02*
X164846000Y-112522000D01*
X173538750Y-114289767D02*
X173492233Y-114289767D01*
X173492233Y-114289767D02*
X172847000Y-114935000D01*
X172339000Y-114300000D02*
X168529000Y-114300000D01*
X167259000Y-113030000D02*
X167259000Y-112522000D01*
X168529000Y-114300000D02*
X167259000Y-113030000D01*
X172973064Y-113724082D02*
X172914918Y-113724082D01*
X172914918Y-113724082D02*
X172339000Y-114300000D01*
X169545000Y-112522000D02*
X171450000Y-110617000D01*
X172212000Y-110617000D02*
X172914918Y-111319918D01*
X171450000Y-110617000D02*
X172212000Y-110617000D01*
X172914918Y-111319918D02*
X172973064Y-111319918D01*
X173492233Y-110754233D02*
X173538750Y-110754233D01*
X172339000Y-109601000D02*
X173492233Y-110754233D01*
X170561000Y-109220000D02*
X170942000Y-109601000D01*
X170942000Y-109601000D02*
X172339000Y-109601000D01*
X179578000Y-103632000D02*
X178308000Y-103632000D01*
X176657000Y-105283000D02*
X176657000Y-105918000D01*
X179959000Y-104013000D02*
X179578000Y-103632000D01*
X177498548Y-106759548D02*
X177498548Y-106794435D01*
X178308000Y-103632000D02*
X176657000Y-105283000D01*
X176657000Y-105918000D02*
X177498548Y-106759548D01*
X176932862Y-107336862D02*
X175895000Y-106299000D01*
X184776000Y-102870000D02*
X186427000Y-101219000D01*
X177927000Y-102870000D02*
X184776000Y-102870000D01*
X176932862Y-107360120D02*
X176932862Y-107336862D01*
X175895000Y-106299000D02*
X175895000Y-104902000D01*
X175895000Y-104902000D02*
X177927000Y-102870000D01*
X184277000Y-119229742D02*
X182731138Y-117683880D01*
X179324000Y-123952000D02*
X181102000Y-122174000D01*
X177927000Y-123952000D02*
X179324000Y-123952000D01*
X184277000Y-120777000D02*
X184277000Y-119229742D01*
X181102000Y-122174000D02*
X182880000Y-122174000D01*
X182880000Y-122174000D02*
X184277000Y-120777000D01*
X183388000Y-119472113D02*
X182165452Y-118249565D01*
X183388000Y-120523000D02*
X183388000Y-119472113D01*
X182499000Y-121412000D02*
X183388000Y-120523000D01*
X175387000Y-123190000D02*
X176403000Y-122174000D01*
X175387000Y-123952000D02*
X175387000Y-123190000D01*
X179705000Y-122174000D02*
X180467000Y-121412000D01*
X176403000Y-122174000D02*
X179705000Y-122174000D01*
X180467000Y-121412000D02*
X182499000Y-121412000D01*
X182499000Y-120142000D02*
X182499000Y-119714483D01*
X182499000Y-119714483D02*
X181599767Y-118815250D01*
X181864000Y-120777000D02*
X182499000Y-120142000D01*
X172847000Y-122936000D02*
X174371000Y-121412000D01*
X179324000Y-121412000D02*
X179959000Y-120777000D01*
X172847000Y-123952000D02*
X172847000Y-122936000D01*
X174371000Y-121412000D02*
X179324000Y-121412000D01*
X179959000Y-120777000D02*
X181864000Y-120777000D01*
X178752500Y-120777000D02*
X180148564Y-119380936D01*
X172085000Y-120777000D02*
X178752500Y-120777000D01*
X170307000Y-123952000D02*
X170307000Y-122555000D01*
X180148564Y-119380936D02*
X181034082Y-119380936D01*
X170307000Y-122555000D02*
X172085000Y-120777000D01*
X170561000Y-120015000D02*
X175733113Y-120015000D01*
X167767000Y-123952000D02*
X167767000Y-122809000D01*
X175733113Y-120015000D02*
X177498548Y-118249565D01*
X167767000Y-122809000D02*
X170561000Y-120015000D01*
X167894000Y-119380000D02*
X175236742Y-119380000D01*
X165227000Y-123952000D02*
X165227000Y-122047000D01*
X175236742Y-119380000D02*
X176932862Y-117683880D01*
X165227000Y-122047000D02*
X167894000Y-119380000D01*
X166497000Y-118745000D02*
X174740371Y-118745000D01*
X174740371Y-118745000D02*
X176367177Y-117118194D01*
X162687000Y-123952000D02*
X162687000Y-122555000D01*
X162687000Y-122555000D02*
X166497000Y-118745000D01*
X160147000Y-123317000D02*
X165354000Y-118110000D01*
X160147000Y-123952000D02*
X160147000Y-123317000D01*
X165354000Y-118110000D02*
X174244000Y-118110000D01*
X174244000Y-118110000D02*
X175801491Y-116552509D01*
X150277000Y-120523000D02*
X150200000Y-120600000D01*
X152400000Y-120523000D02*
X150277000Y-120523000D01*
X164592000Y-117221000D02*
X161290000Y-120523000D01*
X173990000Y-117221000D02*
X164592000Y-117221000D01*
X161290000Y-120523000D02*
X152400000Y-120523000D01*
X175235806Y-115986823D02*
X175224177Y-115986823D01*
X175224177Y-115986823D02*
X173990000Y-117221000D01*
X174104435Y-110188548D02*
X174069548Y-110188548D01*
X174069548Y-110188548D02*
X170307000Y-106426000D01*
X170307000Y-106426000D02*
X158496000Y-106426000D01*
X155000000Y-102930000D02*
X155000000Y-101250000D01*
X158496000Y-106426000D02*
X155000000Y-102930000D01*
D21*
X155067000Y-101219000D02*
X155067000Y-98679000D01*
X157607000Y-101219000D02*
X157607000Y-98679000D01*
X160147000Y-101219000D02*
X160147000Y-98679000D01*
D20*
X157540000Y-101250000D02*
X157540000Y-103565000D01*
X157540000Y-103565000D02*
X159639000Y-105664000D01*
X159639000Y-105664000D02*
X170688000Y-105664000D01*
X174646862Y-109622862D02*
X174670120Y-109622862D01*
X170688000Y-105664000D02*
X174646862Y-109622862D01*
X160080000Y-101250000D02*
X160080000Y-103057000D01*
X160080000Y-103057000D02*
X161925000Y-104902000D01*
X171080629Y-104902000D02*
X175235806Y-109057177D01*
X161925000Y-104902000D02*
X171080629Y-104902000D01*
X217345500Y-124030500D02*
X218694000Y-122682000D01*
X217345500Y-124030500D02*
X216408000Y-124030500D01*
X229870000Y-123982000D02*
X231110000Y-123982000D01*
X231110000Y-123982000D02*
X232283000Y-122809000D01*
X232283000Y-122809000D02*
X232283000Y-122555000D01*
X212598000Y-125905500D02*
X215519000Y-125905500D01*
X212519500Y-125905500D02*
X212598000Y-125905500D01*
X211074000Y-122936000D02*
X211074000Y-124460000D01*
X211074000Y-124460000D02*
X212519500Y-125905500D01*
D22*
X216408000Y-125905500D02*
X213233000Y-125905500D01*
D20*
X229821500Y-125905500D02*
X229870000Y-125857000D01*
X227203000Y-125905500D02*
X229821500Y-125905500D01*
X227203000Y-125905500D02*
X225092500Y-125905500D01*
X225092500Y-125905500D02*
X224409000Y-125222000D01*
X224409000Y-125222000D02*
X224409000Y-122936000D01*
X220100000Y-99300000D02*
X220600000Y-98800000D01*
X217000000Y-99300000D02*
X220100000Y-99300000D01*
X220600000Y-101340000D02*
X220600000Y-98800000D01*
X227300000Y-99300000D02*
X227800000Y-98800000D01*
X224400000Y-99300000D02*
X227300000Y-99300000D01*
X227800000Y-98800000D02*
X227800000Y-101340000D01*
X234300000Y-99300000D02*
X234800000Y-98800000D01*
X231600000Y-99300000D02*
X234300000Y-99300000D01*
X234800000Y-98800000D02*
X234800000Y-101340000D01*
X218537500Y-103800000D02*
X217937500Y-104400000D01*
X220600000Y-103800000D02*
X218537500Y-103800000D01*
X217950000Y-104387500D02*
X217937500Y-104400000D01*
X217950000Y-102700000D02*
X217950000Y-104387500D01*
X225350000Y-104263500D02*
X225346500Y-104267000D01*
X225350000Y-102700000D02*
X225350000Y-104263500D01*
X225813500Y-103800000D02*
X225346500Y-104267000D01*
X227800000Y-103800000D02*
X225813500Y-103800000D01*
X232550000Y-104387500D02*
X232537500Y-104400000D01*
X232550000Y-102700000D02*
X232550000Y-104387500D01*
X233137500Y-103800000D02*
X232537500Y-104400000D01*
X234800000Y-103800000D02*
X233137500Y-103800000D01*
X148077000Y-112664000D02*
X150353000Y-112664000D01*
X148077000Y-112014000D02*
X150368000Y-112014000D01*
X148077000Y-111364000D02*
X150353000Y-111364000D01*
D23*
G36*
X215991341Y-97641341D02*
G01*
X215875499Y-97782495D01*
X215789420Y-97943536D01*
X215736413Y-98118276D01*
X215718515Y-98300000D01*
X215718515Y-100300000D01*
X215736413Y-100481724D01*
X215789420Y-100656464D01*
X215875499Y-100817505D01*
X215991341Y-100958659D01*
X216132495Y-101074501D01*
X216258759Y-101141991D01*
X216177000Y-101223750D01*
X216177000Y-102573000D01*
X216197000Y-102573000D01*
X216197000Y-102827000D01*
X216177000Y-102827000D01*
X216177000Y-104176250D01*
X216189500Y-104188750D01*
X216189500Y-104273000D01*
X216209500Y-104273000D01*
X216209500Y-104527000D01*
X216189500Y-104527000D01*
X216189500Y-105576250D01*
X216348250Y-105735000D01*
X216550000Y-105738072D01*
X216674482Y-105725812D01*
X216794180Y-105689502D01*
X216843105Y-105663350D01*
X216862733Y-105687267D01*
X217040824Y-105833422D01*
X217244007Y-105942026D01*
X217464473Y-106008903D01*
X217693750Y-106031485D01*
X218181250Y-106031485D01*
X218410527Y-106008903D01*
X218630993Y-105942026D01*
X218834176Y-105833422D01*
X219012267Y-105687267D01*
X219158422Y-105509176D01*
X219212467Y-105408065D01*
X219232495Y-105424501D01*
X219393536Y-105510580D01*
X219568276Y-105563587D01*
X219750000Y-105581485D01*
X221450000Y-105581485D01*
X221631724Y-105563587D01*
X221806464Y-105510580D01*
X221967505Y-105424501D01*
X222108659Y-105308659D01*
X222224501Y-105167505D01*
X222310580Y-105006464D01*
X222346514Y-104888007D01*
X222345928Y-104967000D01*
X222358188Y-105091482D01*
X222394498Y-105211180D01*
X222453463Y-105321494D01*
X222532815Y-105418185D01*
X222629506Y-105497537D01*
X222739820Y-105556502D01*
X222859518Y-105592812D01*
X222984000Y-105605072D01*
X223185750Y-105602000D01*
X223344500Y-105443250D01*
X223344500Y-104394000D01*
X223324500Y-104394000D01*
X223324500Y-104140000D01*
X223344500Y-104140000D01*
X223344500Y-103090750D01*
X223323000Y-103069250D01*
X223323000Y-102827000D01*
X222623750Y-102827000D01*
X222465000Y-102985750D01*
X222464080Y-103199569D01*
X222453463Y-103212506D01*
X222394498Y-103322820D01*
X222381485Y-103365718D01*
X222381485Y-102950000D01*
X222363587Y-102768276D01*
X222310580Y-102593536D01*
X222224501Y-102432495D01*
X222108659Y-102291341D01*
X222104044Y-102287554D01*
X222174757Y-102181725D01*
X222308711Y-101858332D01*
X222340205Y-101700000D01*
X222461928Y-101700000D01*
X222465000Y-102414250D01*
X222623750Y-102573000D01*
X223323000Y-102573000D01*
X223323000Y-101223750D01*
X223164250Y-101065000D01*
X223100000Y-101061928D01*
X222975518Y-101074188D01*
X222855820Y-101110498D01*
X222745506Y-101169463D01*
X222648815Y-101248815D01*
X222569463Y-101345506D01*
X222510498Y-101455820D01*
X222474188Y-101575518D01*
X222461928Y-101700000D01*
X222340205Y-101700000D01*
X222377000Y-101515019D01*
X222377000Y-101164981D01*
X222308711Y-100821668D01*
X222174757Y-100498275D01*
X222069521Y-100340779D01*
X222108659Y-100308659D01*
X222224501Y-100167505D01*
X222310580Y-100006464D01*
X222363587Y-99831724D01*
X222381485Y-99650000D01*
X222381485Y-97950000D01*
X222363587Y-97768276D01*
X222312237Y-97599000D01*
X223442934Y-97599000D01*
X223391341Y-97641341D01*
X223275499Y-97782495D01*
X223189420Y-97943536D01*
X223136413Y-98118276D01*
X223118515Y-98300000D01*
X223118515Y-100300000D01*
X223136413Y-100481724D01*
X223189420Y-100656464D01*
X223275499Y-100817505D01*
X223391341Y-100958659D01*
X223532495Y-101074501D01*
X223658759Y-101141991D01*
X223577000Y-101223750D01*
X223577000Y-102573000D01*
X223597000Y-102573000D01*
X223597000Y-102827000D01*
X223577000Y-102827000D01*
X223577000Y-104176250D01*
X223618500Y-104217750D01*
X223618500Y-104394000D01*
X223598500Y-104394000D01*
X223598500Y-105443250D01*
X223757250Y-105602000D01*
X223959000Y-105605072D01*
X224083482Y-105592812D01*
X224203180Y-105556502D01*
X224252105Y-105530350D01*
X224271733Y-105554267D01*
X224449824Y-105700422D01*
X224653007Y-105809026D01*
X224873473Y-105875903D01*
X225102750Y-105898485D01*
X225590250Y-105898485D01*
X225819527Y-105875903D01*
X226039993Y-105809026D01*
X226243176Y-105700422D01*
X226421267Y-105554267D01*
X226498715Y-105459896D01*
X226593536Y-105510580D01*
X226768276Y-105563587D01*
X226950000Y-105581485D01*
X228650000Y-105581485D01*
X228831724Y-105563587D01*
X229006464Y-105510580D01*
X229167505Y-105424501D01*
X229308659Y-105308659D01*
X229424501Y-105167505D01*
X229510580Y-105006464D01*
X229538299Y-104915086D01*
X229536928Y-105100000D01*
X229549188Y-105224482D01*
X229585498Y-105344180D01*
X229644463Y-105454494D01*
X229723815Y-105551185D01*
X229820506Y-105630537D01*
X229930820Y-105689502D01*
X230050518Y-105725812D01*
X230175000Y-105738072D01*
X230376750Y-105735000D01*
X230535500Y-105576250D01*
X230535500Y-104527000D01*
X230515500Y-104527000D01*
X230515500Y-104273000D01*
X230535500Y-104273000D01*
X230535500Y-103223750D01*
X230523000Y-103211250D01*
X230523000Y-102827000D01*
X229823750Y-102827000D01*
X229665000Y-102985750D01*
X229663553Y-103322245D01*
X229644463Y-103345506D01*
X229585498Y-103455820D01*
X229581485Y-103469049D01*
X229581485Y-102950000D01*
X229563587Y-102768276D01*
X229510580Y-102593536D01*
X229424501Y-102432495D01*
X229308659Y-102291341D01*
X229304044Y-102287554D01*
X229374757Y-102181725D01*
X229508711Y-101858332D01*
X229540205Y-101700000D01*
X229661928Y-101700000D01*
X229665000Y-102414250D01*
X229823750Y-102573000D01*
X230523000Y-102573000D01*
X230523000Y-101223750D01*
X230364250Y-101065000D01*
X230300000Y-101061928D01*
X230175518Y-101074188D01*
X230055820Y-101110498D01*
X229945506Y-101169463D01*
X229848815Y-101248815D01*
X229769463Y-101345506D01*
X229710498Y-101455820D01*
X229674188Y-101575518D01*
X229661928Y-101700000D01*
X229540205Y-101700000D01*
X229577000Y-101515019D01*
X229577000Y-101164981D01*
X229508711Y-100821668D01*
X229374757Y-100498275D01*
X229269521Y-100340779D01*
X229308659Y-100308659D01*
X229424501Y-100167505D01*
X229510580Y-100006464D01*
X229563587Y-99831724D01*
X229581485Y-99650000D01*
X229581485Y-97950000D01*
X229563587Y-97768276D01*
X229512237Y-97599000D01*
X230642934Y-97599000D01*
X230591341Y-97641341D01*
X230475499Y-97782495D01*
X230389420Y-97943536D01*
X230336413Y-98118276D01*
X230318515Y-98300000D01*
X230318515Y-100300000D01*
X230336413Y-100481724D01*
X230389420Y-100656464D01*
X230475499Y-100817505D01*
X230591341Y-100958659D01*
X230732495Y-101074501D01*
X230858759Y-101141991D01*
X230777000Y-101223750D01*
X230777000Y-102573000D01*
X230797000Y-102573000D01*
X230797000Y-102827000D01*
X230777000Y-102827000D01*
X230777000Y-104176250D01*
X230789500Y-104188750D01*
X230789500Y-104273000D01*
X230809500Y-104273000D01*
X230809500Y-104527000D01*
X230789500Y-104527000D01*
X230789500Y-105576250D01*
X230948250Y-105735000D01*
X231150000Y-105738072D01*
X231274482Y-105725812D01*
X231394180Y-105689502D01*
X231443105Y-105663350D01*
X231462733Y-105687267D01*
X231640824Y-105833422D01*
X231844007Y-105942026D01*
X232064473Y-106008903D01*
X232293750Y-106031485D01*
X232781250Y-106031485D01*
X233010527Y-106008903D01*
X233230993Y-105942026D01*
X233434176Y-105833422D01*
X233612267Y-105687267D01*
X233724633Y-105550348D01*
X233768276Y-105563587D01*
X233950000Y-105581485D01*
X235650000Y-105581485D01*
X235831724Y-105563587D01*
X236006464Y-105510580D01*
X236167505Y-105424501D01*
X236308659Y-105308659D01*
X236424501Y-105167505D01*
X236510580Y-105006464D01*
X236563587Y-104831724D01*
X236581485Y-104650000D01*
X236581485Y-102950000D01*
X236563587Y-102768276D01*
X236510580Y-102593536D01*
X236424501Y-102432495D01*
X236308659Y-102291341D01*
X236304044Y-102287554D01*
X236374757Y-102181725D01*
X236508711Y-101858332D01*
X236576389Y-101518088D01*
X236733075Y-101752585D01*
X237210415Y-102229925D01*
X237771707Y-102604968D01*
X238395381Y-102863303D01*
X239057470Y-102995000D01*
X239732530Y-102995000D01*
X240394619Y-102863303D01*
X241018293Y-102604968D01*
X241364000Y-102373974D01*
X241364001Y-122797026D01*
X241018293Y-122566032D01*
X240394619Y-122307697D01*
X239732530Y-122176000D01*
X239057470Y-122176000D01*
X238395381Y-122307697D01*
X237771707Y-122566032D01*
X237210415Y-122941075D01*
X236733075Y-123418415D01*
X236358032Y-123979707D01*
X236099697Y-124603381D01*
X235968000Y-125265470D01*
X235968000Y-125940530D01*
X236099697Y-126602619D01*
X236358032Y-127226293D01*
X236589026Y-127572000D01*
X206472943Y-127572000D01*
X206487587Y-127523724D01*
X206505485Y-127342000D01*
X206505485Y-125642000D01*
X206487587Y-125460276D01*
X206434580Y-125285536D01*
X206348501Y-125124495D01*
X206251000Y-125005690D01*
X206251000Y-124865198D01*
X206298757Y-124793725D01*
X206432711Y-124470332D01*
X206501000Y-124127019D01*
X206501000Y-123776981D01*
X206432711Y-123433668D01*
X206298757Y-123110275D01*
X206104286Y-122819229D01*
X205856771Y-122571714D01*
X205851000Y-122567858D01*
X205851000Y-119054354D01*
X205856452Y-118998999D01*
X205851000Y-118943645D01*
X205851000Y-118943635D01*
X205834693Y-118778069D01*
X205770250Y-118565629D01*
X205711786Y-118456250D01*
X205665600Y-118369842D01*
X205593261Y-118281698D01*
X205524765Y-118198235D01*
X205481758Y-118162940D01*
X204515818Y-117197000D01*
X204630245Y-117197000D01*
X204944578Y-117134475D01*
X205035050Y-117097000D01*
X207261000Y-117097000D01*
X207261001Y-120719948D01*
X207223525Y-120810422D01*
X207161000Y-121124755D01*
X207161000Y-121445245D01*
X207223525Y-121759578D01*
X207346172Y-122055673D01*
X207524227Y-122322152D01*
X207750848Y-122548773D01*
X208017327Y-122726828D01*
X208313422Y-122849475D01*
X208627755Y-122912000D01*
X208948245Y-122912000D01*
X209262578Y-122849475D01*
X209447579Y-122772845D01*
X209447000Y-122775755D01*
X209447000Y-123096245D01*
X209509525Y-123410578D01*
X209632172Y-123706673D01*
X209810227Y-123973152D01*
X209947000Y-124109925D01*
X209947000Y-124404646D01*
X209941548Y-124460000D01*
X209947000Y-124515354D01*
X209947000Y-124515365D01*
X209963307Y-124680931D01*
X209998457Y-124796802D01*
X210027750Y-124893370D01*
X210132400Y-125089156D01*
X210237942Y-125217760D01*
X210237946Y-125217764D01*
X210273236Y-125260765D01*
X210316237Y-125296055D01*
X211683445Y-126663264D01*
X211718735Y-126706265D01*
X211761736Y-126741555D01*
X211761739Y-126741558D01*
X211771426Y-126749508D01*
X211799578Y-126802176D01*
X211945733Y-126980267D01*
X212123824Y-127126422D01*
X212327007Y-127235026D01*
X212547473Y-127301903D01*
X212776750Y-127324485D01*
X213689250Y-127324485D01*
X213918527Y-127301903D01*
X214138993Y-127235026D01*
X214143719Y-127232500D01*
X215497281Y-127232500D01*
X215502007Y-127235026D01*
X215722473Y-127301903D01*
X215951750Y-127324485D01*
X216864250Y-127324485D01*
X217093527Y-127301903D01*
X217313993Y-127235026D01*
X217517176Y-127126422D01*
X217695267Y-126980267D01*
X217841422Y-126802176D01*
X217950026Y-126598993D01*
X218016903Y-126378527D01*
X218039485Y-126149250D01*
X218039485Y-125661750D01*
X218016903Y-125432473D01*
X217950026Y-125212007D01*
X217855761Y-125035651D01*
X217974657Y-124972100D01*
X218146265Y-124831265D01*
X218181559Y-124788259D01*
X218660818Y-124309000D01*
X218854245Y-124309000D01*
X219168578Y-124246475D01*
X219464673Y-124123828D01*
X219731152Y-123945773D01*
X219957773Y-123719152D01*
X220135828Y-123452673D01*
X220258475Y-123156578D01*
X220321000Y-122842245D01*
X220321000Y-122521755D01*
X220273906Y-122285000D01*
X222917602Y-122285000D01*
X222844525Y-122461422D01*
X222782000Y-122775755D01*
X222782000Y-123096245D01*
X222844525Y-123410578D01*
X222967172Y-123706673D01*
X223145227Y-123973152D01*
X223282000Y-124109925D01*
X223282000Y-125166645D01*
X223276548Y-125222000D01*
X223282000Y-125277354D01*
X223282000Y-125277364D01*
X223298307Y-125442930D01*
X223362750Y-125655370D01*
X223467400Y-125851157D01*
X223608235Y-126022765D01*
X223651242Y-126058060D01*
X224256440Y-126663258D01*
X224291735Y-126706265D01*
X224463343Y-126847100D01*
X224659129Y-126951750D01*
X224871569Y-127016193D01*
X225037135Y-127032500D01*
X225037145Y-127032500D01*
X225092500Y-127037952D01*
X225147854Y-127032500D01*
X225979379Y-127032500D01*
X226093824Y-127126422D01*
X226297007Y-127235026D01*
X226517473Y-127301903D01*
X226746750Y-127324485D01*
X227659250Y-127324485D01*
X227888527Y-127301903D01*
X228108993Y-127235026D01*
X228312176Y-127126422D01*
X228426621Y-127032500D01*
X228705477Y-127032500D01*
X228760824Y-127077922D01*
X228964007Y-127186526D01*
X229184473Y-127253403D01*
X229413750Y-127275985D01*
X230326250Y-127275985D01*
X230555527Y-127253403D01*
X230775993Y-127186526D01*
X230979176Y-127077922D01*
X231157267Y-126931767D01*
X231303422Y-126753676D01*
X231412026Y-126550493D01*
X231478903Y-126330027D01*
X231501485Y-126100750D01*
X231501485Y-125613250D01*
X231478903Y-125383973D01*
X231412026Y-125163507D01*
X231368142Y-125081405D01*
X231543371Y-125028250D01*
X231739157Y-124923600D01*
X231910765Y-124782765D01*
X231946059Y-124739759D01*
X232518859Y-124166959D01*
X232757578Y-124119475D01*
X233053673Y-123996828D01*
X233320152Y-123818773D01*
X233546773Y-123592152D01*
X233724828Y-123325673D01*
X233847475Y-123029578D01*
X233910000Y-122715245D01*
X233910000Y-122394755D01*
X233847475Y-122080422D01*
X233724828Y-121784327D01*
X233546773Y-121517848D01*
X233320152Y-121291227D01*
X233053673Y-121113172D01*
X232757578Y-120990525D01*
X232443245Y-120928000D01*
X232122755Y-120928000D01*
X231808422Y-120990525D01*
X231512327Y-121113172D01*
X231245848Y-121291227D01*
X231019227Y-121517848D01*
X230841172Y-121784327D01*
X230718525Y-122080422D01*
X230656000Y-122394755D01*
X230656000Y-122616075D01*
X230555527Y-122585597D01*
X230326250Y-122563015D01*
X229413750Y-122563015D01*
X229184473Y-122585597D01*
X228964007Y-122652474D01*
X228760824Y-122761078D01*
X228582733Y-122907233D01*
X228516599Y-122987818D01*
X228490267Y-122955733D01*
X228323953Y-122819243D01*
X228313693Y-122715069D01*
X228249250Y-122502629D01*
X228144600Y-122306843D01*
X228096637Y-122248400D01*
X228039058Y-122178239D01*
X228039055Y-122178236D01*
X228003765Y-122135235D01*
X227960764Y-122099945D01*
X226506367Y-120645549D01*
X226832332Y-120580711D01*
X227155725Y-120446757D01*
X227446771Y-120252286D01*
X227584000Y-120115057D01*
X227721229Y-120252286D01*
X228012275Y-120446757D01*
X228335668Y-120580711D01*
X228678981Y-120649000D01*
X229029019Y-120649000D01*
X229372332Y-120580711D01*
X229695725Y-120446757D01*
X229986771Y-120252286D01*
X230124000Y-120115057D01*
X230261229Y-120252286D01*
X230552275Y-120446757D01*
X230875668Y-120580711D01*
X231218981Y-120649000D01*
X231569019Y-120649000D01*
X231912332Y-120580711D01*
X232235725Y-120446757D01*
X232526771Y-120252286D01*
X232664000Y-120115057D01*
X232801229Y-120252286D01*
X233092275Y-120446757D01*
X233415668Y-120580711D01*
X233758981Y-120649000D01*
X234109019Y-120649000D01*
X234452332Y-120580711D01*
X234775725Y-120446757D01*
X235066771Y-120252286D01*
X235204000Y-120115057D01*
X235341229Y-120252286D01*
X235632275Y-120446757D01*
X235955668Y-120580711D01*
X236298981Y-120649000D01*
X236649019Y-120649000D01*
X236992332Y-120580711D01*
X237315725Y-120446757D01*
X237606771Y-120252286D01*
X237744000Y-120115057D01*
X237881229Y-120252286D01*
X238172275Y-120446757D01*
X238495668Y-120580711D01*
X238838981Y-120649000D01*
X239189019Y-120649000D01*
X239532332Y-120580711D01*
X239855725Y-120446757D01*
X240146771Y-120252286D01*
X240394286Y-120004771D01*
X240588757Y-119713725D01*
X240722711Y-119390332D01*
X240791000Y-119047019D01*
X240791000Y-118696981D01*
X240722711Y-118353668D01*
X240588757Y-118030275D01*
X240394286Y-117739229D01*
X240280558Y-117625501D01*
X240441287Y-117464771D01*
X240635758Y-117173725D01*
X240769712Y-116850332D01*
X240838001Y-116507019D01*
X240838001Y-116156981D01*
X240769712Y-115813668D01*
X240635758Y-115490275D01*
X240441287Y-115199229D01*
X240304058Y-115062000D01*
X240441287Y-114924771D01*
X240635758Y-114633725D01*
X240769712Y-114310332D01*
X240838001Y-113967019D01*
X240838001Y-113616981D01*
X240769712Y-113273668D01*
X240635758Y-112950275D01*
X240441287Y-112659229D01*
X240304058Y-112522000D01*
X240441287Y-112384771D01*
X240635758Y-112093725D01*
X240769712Y-111770332D01*
X240838001Y-111427019D01*
X240838001Y-111076981D01*
X240769712Y-110733668D01*
X240635758Y-110410275D01*
X240441287Y-110119229D01*
X240304058Y-109982000D01*
X240441287Y-109844771D01*
X240635758Y-109553725D01*
X240769712Y-109230332D01*
X240838001Y-108887019D01*
X240838001Y-108536981D01*
X240769712Y-108193668D01*
X240635758Y-107870275D01*
X240441287Y-107579229D01*
X240193772Y-107331714D01*
X239902726Y-107137243D01*
X239579333Y-107003289D01*
X239236020Y-106935000D01*
X238885982Y-106935000D01*
X238542669Y-107003289D01*
X238219276Y-107137243D01*
X237928230Y-107331714D01*
X237791001Y-107468943D01*
X237653772Y-107331714D01*
X237362726Y-107137243D01*
X237039333Y-107003289D01*
X236696020Y-106935000D01*
X236345982Y-106935000D01*
X236002669Y-107003289D01*
X235679276Y-107137243D01*
X235388230Y-107331714D01*
X235251001Y-107468943D01*
X235113772Y-107331714D01*
X234822726Y-107137243D01*
X234499333Y-107003289D01*
X234156020Y-106935000D01*
X233805982Y-106935000D01*
X233462669Y-107003289D01*
X233139276Y-107137243D01*
X232848230Y-107331714D01*
X232711001Y-107468943D01*
X232573772Y-107331714D01*
X232282726Y-107137243D01*
X231959333Y-107003289D01*
X231616020Y-106935000D01*
X231265982Y-106935000D01*
X230922669Y-107003289D01*
X230599276Y-107137243D01*
X230308230Y-107331714D01*
X230171001Y-107468943D01*
X230033772Y-107331714D01*
X229742726Y-107137243D01*
X229419333Y-107003289D01*
X229076020Y-106935000D01*
X228725982Y-106935000D01*
X228382669Y-107003289D01*
X228059276Y-107137243D01*
X227768230Y-107331714D01*
X227631001Y-107468943D01*
X227493772Y-107331714D01*
X227202726Y-107137243D01*
X226879333Y-107003289D01*
X226536020Y-106935000D01*
X226185982Y-106935000D01*
X225842669Y-107003289D01*
X225519276Y-107137243D01*
X225228230Y-107331714D01*
X225091001Y-107468943D01*
X224953772Y-107331714D01*
X224662726Y-107137243D01*
X224339333Y-107003289D01*
X223996020Y-106935000D01*
X223645982Y-106935000D01*
X223302669Y-107003289D01*
X222979276Y-107137243D01*
X222688230Y-107331714D01*
X222551001Y-107468943D01*
X222413772Y-107331714D01*
X222122726Y-107137243D01*
X221799333Y-107003289D01*
X221456020Y-106935000D01*
X221105982Y-106935000D01*
X220762669Y-107003289D01*
X220439276Y-107137243D01*
X220148230Y-107331714D01*
X220011001Y-107468943D01*
X219873772Y-107331714D01*
X219582726Y-107137243D01*
X219259333Y-107003289D01*
X218916020Y-106935000D01*
X218565982Y-106935000D01*
X218222669Y-107003289D01*
X217899276Y-107137243D01*
X217608230Y-107331714D01*
X217471001Y-107468943D01*
X217333772Y-107331714D01*
X217042726Y-107137243D01*
X216719333Y-107003289D01*
X216376020Y-106935000D01*
X216025982Y-106935000D01*
X215682669Y-107003289D01*
X215359276Y-107137243D01*
X215068230Y-107331714D01*
X214971001Y-107428944D01*
X214873771Y-107331714D01*
X214582725Y-107137243D01*
X214259332Y-107003289D01*
X213916019Y-106935000D01*
X213565981Y-106935000D01*
X213222668Y-107003289D01*
X212899275Y-107137243D01*
X212827802Y-107185000D01*
X212687310Y-107185000D01*
X212568505Y-107087499D01*
X212407464Y-107001420D01*
X212232724Y-106948413D01*
X212051000Y-106930515D01*
X210351000Y-106930515D01*
X210169276Y-106948413D01*
X209994536Y-107001420D01*
X209833495Y-107087499D01*
X209692341Y-107203341D01*
X209576499Y-107344495D01*
X209490420Y-107505536D01*
X209437413Y-107680276D01*
X209419515Y-107862000D01*
X209419515Y-109562000D01*
X209437413Y-109743724D01*
X209454717Y-109800768D01*
X209343815Y-109834410D01*
X209078540Y-109976203D01*
X208846024Y-110167024D01*
X208798207Y-110225289D01*
X208028497Y-110995000D01*
X205035050Y-110995000D01*
X204944578Y-110957525D01*
X204630245Y-110895000D01*
X204309755Y-110895000D01*
X203995422Y-110957525D01*
X203699327Y-111080172D01*
X203432848Y-111258227D01*
X203206227Y-111484848D01*
X203028172Y-111751327D01*
X202905525Y-112047422D01*
X202843000Y-112361755D01*
X202843000Y-112682245D01*
X202905525Y-112996578D01*
X202943001Y-113087052D01*
X202943000Y-115004949D01*
X202905525Y-115095422D01*
X202843000Y-115409755D01*
X202843000Y-115524182D01*
X193728818Y-106410000D01*
X199969646Y-106410000D01*
X200025000Y-106415452D01*
X200080354Y-106410000D01*
X200080365Y-106410000D01*
X200245931Y-106393693D01*
X200458371Y-106329250D01*
X200654157Y-106224600D01*
X200825765Y-106083765D01*
X200861059Y-106040759D01*
X201801818Y-105100000D01*
X214936928Y-105100000D01*
X214949188Y-105224482D01*
X214985498Y-105344180D01*
X215044463Y-105454494D01*
X215123815Y-105551185D01*
X215220506Y-105630537D01*
X215330820Y-105689502D01*
X215450518Y-105725812D01*
X215575000Y-105738072D01*
X215776750Y-105735000D01*
X215935500Y-105576250D01*
X215935500Y-104527000D01*
X215098750Y-104527000D01*
X214940000Y-104685750D01*
X214936928Y-105100000D01*
X201801818Y-105100000D01*
X203201818Y-103700000D01*
X214936928Y-103700000D01*
X214940000Y-104114250D01*
X215098750Y-104273000D01*
X215424947Y-104273000D01*
X215455820Y-104289502D01*
X215575518Y-104325812D01*
X215700000Y-104338072D01*
X215764250Y-104335000D01*
X215826250Y-104273000D01*
X215935500Y-104273000D01*
X215935500Y-103223750D01*
X215923000Y-103211250D01*
X215923000Y-102827000D01*
X215223750Y-102827000D01*
X215065000Y-102985750D01*
X215063553Y-103322245D01*
X215044463Y-103345506D01*
X214985498Y-103455820D01*
X214949188Y-103575518D01*
X214936928Y-103700000D01*
X203201818Y-103700000D01*
X203821764Y-103080055D01*
X203864765Y-103044765D01*
X203900055Y-103001764D01*
X203900058Y-103001761D01*
X204005600Y-102873157D01*
X204110250Y-102677371D01*
X204117963Y-102651944D01*
X204196771Y-102599286D01*
X204334000Y-102462057D01*
X204471229Y-102599286D01*
X204762275Y-102793757D01*
X205085668Y-102927711D01*
X205428981Y-102996000D01*
X205779019Y-102996000D01*
X206122332Y-102927711D01*
X206445725Y-102793757D01*
X206736771Y-102599286D01*
X206874000Y-102462057D01*
X207011229Y-102599286D01*
X207302275Y-102793757D01*
X207625668Y-102927711D01*
X207968981Y-102996000D01*
X208319019Y-102996000D01*
X208662332Y-102927711D01*
X208985725Y-102793757D01*
X209276771Y-102599286D01*
X209414000Y-102462057D01*
X209551229Y-102599286D01*
X209842275Y-102793757D01*
X210165668Y-102927711D01*
X210508981Y-102996000D01*
X210859019Y-102996000D01*
X211202332Y-102927711D01*
X211525725Y-102793757D01*
X211816771Y-102599286D01*
X211954000Y-102462057D01*
X212091229Y-102599286D01*
X212382275Y-102793757D01*
X212705668Y-102927711D01*
X213048981Y-102996000D01*
X213399019Y-102996000D01*
X213742332Y-102927711D01*
X214065725Y-102793757D01*
X214356771Y-102599286D01*
X214604286Y-102351771D01*
X214798757Y-102060725D01*
X214932711Y-101737332D01*
X214940136Y-101700000D01*
X215061928Y-101700000D01*
X215065000Y-102414250D01*
X215223750Y-102573000D01*
X215923000Y-102573000D01*
X215923000Y-101223750D01*
X215764250Y-101065000D01*
X215700000Y-101061928D01*
X215575518Y-101074188D01*
X215455820Y-101110498D01*
X215345506Y-101169463D01*
X215248815Y-101248815D01*
X215169463Y-101345506D01*
X215110498Y-101455820D01*
X215074188Y-101575518D01*
X215061928Y-101700000D01*
X214940136Y-101700000D01*
X215001000Y-101394019D01*
X215001000Y-101043981D01*
X214932711Y-100700668D01*
X214798757Y-100377275D01*
X214751000Y-100305802D01*
X214751000Y-99592198D01*
X214798757Y-99520725D01*
X214932711Y-99197332D01*
X215001000Y-98854019D01*
X215001000Y-98503981D01*
X214932711Y-98160668D01*
X214798757Y-97837275D01*
X214639547Y-97599000D01*
X216042934Y-97599000D01*
X215991341Y-97641341D01*
G37*
X215991341Y-97641341D02*
X215875499Y-97782495D01*
X215789420Y-97943536D01*
X215736413Y-98118276D01*
X215718515Y-98300000D01*
X215718515Y-100300000D01*
X215736413Y-100481724D01*
X215789420Y-100656464D01*
X215875499Y-100817505D01*
X215991341Y-100958659D01*
X216132495Y-101074501D01*
X216258759Y-101141991D01*
X216177000Y-101223750D01*
X216177000Y-102573000D01*
X216197000Y-102573000D01*
X216197000Y-102827000D01*
X216177000Y-102827000D01*
X216177000Y-104176250D01*
X216189500Y-104188750D01*
X216189500Y-104273000D01*
X216209500Y-104273000D01*
X216209500Y-104527000D01*
X216189500Y-104527000D01*
X216189500Y-105576250D01*
X216348250Y-105735000D01*
X216550000Y-105738072D01*
X216674482Y-105725812D01*
X216794180Y-105689502D01*
X216843105Y-105663350D01*
X216862733Y-105687267D01*
X217040824Y-105833422D01*
X217244007Y-105942026D01*
X217464473Y-106008903D01*
X217693750Y-106031485D01*
X218181250Y-106031485D01*
X218410527Y-106008903D01*
X218630993Y-105942026D01*
X218834176Y-105833422D01*
X219012267Y-105687267D01*
X219158422Y-105509176D01*
X219212467Y-105408065D01*
X219232495Y-105424501D01*
X219393536Y-105510580D01*
X219568276Y-105563587D01*
X219750000Y-105581485D01*
X221450000Y-105581485D01*
X221631724Y-105563587D01*
X221806464Y-105510580D01*
X221967505Y-105424501D01*
X222108659Y-105308659D01*
X222224501Y-105167505D01*
X222310580Y-105006464D01*
X222346514Y-104888007D01*
X222345928Y-104967000D01*
X222358188Y-105091482D01*
X222394498Y-105211180D01*
X222453463Y-105321494D01*
X222532815Y-105418185D01*
X222629506Y-105497537D01*
X222739820Y-105556502D01*
X222859518Y-105592812D01*
X222984000Y-105605072D01*
X223185750Y-105602000D01*
X223344500Y-105443250D01*
X223344500Y-104394000D01*
X223324500Y-104394000D01*
X223324500Y-104140000D01*
X223344500Y-104140000D01*
X223344500Y-103090750D01*
X223323000Y-103069250D01*
X223323000Y-102827000D01*
X222623750Y-102827000D01*
X222465000Y-102985750D01*
X222464080Y-103199569D01*
X222453463Y-103212506D01*
X222394498Y-103322820D01*
X222381485Y-103365718D01*
X222381485Y-102950000D01*
X222363587Y-102768276D01*
X222310580Y-102593536D01*
X222224501Y-102432495D01*
X222108659Y-102291341D01*
X222104044Y-102287554D01*
X222174757Y-102181725D01*
X222308711Y-101858332D01*
X222340205Y-101700000D01*
X222461928Y-101700000D01*
X222465000Y-102414250D01*
X222623750Y-102573000D01*
X223323000Y-102573000D01*
X223323000Y-101223750D01*
X223164250Y-101065000D01*
X223100000Y-101061928D01*
X222975518Y-101074188D01*
X222855820Y-101110498D01*
X222745506Y-101169463D01*
X222648815Y-101248815D01*
X222569463Y-101345506D01*
X222510498Y-101455820D01*
X222474188Y-101575518D01*
X222461928Y-101700000D01*
X222340205Y-101700000D01*
X222377000Y-101515019D01*
X222377000Y-101164981D01*
X222308711Y-100821668D01*
X222174757Y-100498275D01*
X222069521Y-100340779D01*
X222108659Y-100308659D01*
X222224501Y-100167505D01*
X222310580Y-100006464D01*
X222363587Y-99831724D01*
X222381485Y-99650000D01*
X222381485Y-97950000D01*
X222363587Y-97768276D01*
X222312237Y-97599000D01*
X223442934Y-97599000D01*
X223391341Y-97641341D01*
X223275499Y-97782495D01*
X223189420Y-97943536D01*
X223136413Y-98118276D01*
X223118515Y-98300000D01*
X223118515Y-100300000D01*
X223136413Y-100481724D01*
X223189420Y-100656464D01*
X223275499Y-100817505D01*
X223391341Y-100958659D01*
X223532495Y-101074501D01*
X223658759Y-101141991D01*
X223577000Y-101223750D01*
X223577000Y-102573000D01*
X223597000Y-102573000D01*
X223597000Y-102827000D01*
X223577000Y-102827000D01*
X223577000Y-104176250D01*
X223618500Y-104217750D01*
X223618500Y-104394000D01*
X223598500Y-104394000D01*
X223598500Y-105443250D01*
X223757250Y-105602000D01*
X223959000Y-105605072D01*
X224083482Y-105592812D01*
X224203180Y-105556502D01*
X224252105Y-105530350D01*
X224271733Y-105554267D01*
X224449824Y-105700422D01*
X224653007Y-105809026D01*
X224873473Y-105875903D01*
X225102750Y-105898485D01*
X225590250Y-105898485D01*
X225819527Y-105875903D01*
X226039993Y-105809026D01*
X226243176Y-105700422D01*
X226421267Y-105554267D01*
X226498715Y-105459896D01*
X226593536Y-105510580D01*
X226768276Y-105563587D01*
X226950000Y-105581485D01*
X228650000Y-105581485D01*
X228831724Y-105563587D01*
X229006464Y-105510580D01*
X229167505Y-105424501D01*
X229308659Y-105308659D01*
X229424501Y-105167505D01*
X229510580Y-105006464D01*
X229538299Y-104915086D01*
X229536928Y-105100000D01*
X229549188Y-105224482D01*
X229585498Y-105344180D01*
X229644463Y-105454494D01*
X229723815Y-105551185D01*
X229820506Y-105630537D01*
X229930820Y-105689502D01*
X230050518Y-105725812D01*
X230175000Y-105738072D01*
X230376750Y-105735000D01*
X230535500Y-105576250D01*
X230535500Y-104527000D01*
X230515500Y-104527000D01*
X230515500Y-104273000D01*
X230535500Y-104273000D01*
X230535500Y-103223750D01*
X230523000Y-103211250D01*
X230523000Y-102827000D01*
X229823750Y-102827000D01*
X229665000Y-102985750D01*
X229663553Y-103322245D01*
X229644463Y-103345506D01*
X229585498Y-103455820D01*
X229581485Y-103469049D01*
X229581485Y-102950000D01*
X229563587Y-102768276D01*
X229510580Y-102593536D01*
X229424501Y-102432495D01*
X229308659Y-102291341D01*
X229304044Y-102287554D01*
X229374757Y-102181725D01*
X229508711Y-101858332D01*
X229540205Y-101700000D01*
X229661928Y-101700000D01*
X229665000Y-102414250D01*
X229823750Y-102573000D01*
X230523000Y-102573000D01*
X230523000Y-101223750D01*
X230364250Y-101065000D01*
X230300000Y-101061928D01*
X230175518Y-101074188D01*
X230055820Y-101110498D01*
X229945506Y-101169463D01*
X229848815Y-101248815D01*
X229769463Y-101345506D01*
X229710498Y-101455820D01*
X229674188Y-101575518D01*
X229661928Y-101700000D01*
X229540205Y-101700000D01*
X229577000Y-101515019D01*
X229577000Y-101164981D01*
X229508711Y-100821668D01*
X229374757Y-100498275D01*
X229269521Y-100340779D01*
X229308659Y-100308659D01*
X229424501Y-100167505D01*
X229510580Y-100006464D01*
X229563587Y-99831724D01*
X229581485Y-99650000D01*
X229581485Y-97950000D01*
X229563587Y-97768276D01*
X229512237Y-97599000D01*
X230642934Y-97599000D01*
X230591341Y-97641341D01*
X230475499Y-97782495D01*
X230389420Y-97943536D01*
X230336413Y-98118276D01*
X230318515Y-98300000D01*
X230318515Y-100300000D01*
X230336413Y-100481724D01*
X230389420Y-100656464D01*
X230475499Y-100817505D01*
X230591341Y-100958659D01*
X230732495Y-101074501D01*
X230858759Y-101141991D01*
X230777000Y-101223750D01*
X230777000Y-102573000D01*
X230797000Y-102573000D01*
X230797000Y-102827000D01*
X230777000Y-102827000D01*
X230777000Y-104176250D01*
X230789500Y-104188750D01*
X230789500Y-104273000D01*
X230809500Y-104273000D01*
X230809500Y-104527000D01*
X230789500Y-104527000D01*
X230789500Y-105576250D01*
X230948250Y-105735000D01*
X231150000Y-105738072D01*
X231274482Y-105725812D01*
X231394180Y-105689502D01*
X231443105Y-105663350D01*
X231462733Y-105687267D01*
X231640824Y-105833422D01*
X231844007Y-105942026D01*
X232064473Y-106008903D01*
X232293750Y-106031485D01*
X232781250Y-106031485D01*
X233010527Y-106008903D01*
X233230993Y-105942026D01*
X233434176Y-105833422D01*
X233612267Y-105687267D01*
X233724633Y-105550348D01*
X233768276Y-105563587D01*
X233950000Y-105581485D01*
X235650000Y-105581485D01*
X235831724Y-105563587D01*
X236006464Y-105510580D01*
X236167505Y-105424501D01*
X236308659Y-105308659D01*
X236424501Y-105167505D01*
X236510580Y-105006464D01*
X236563587Y-104831724D01*
X236581485Y-104650000D01*
X236581485Y-102950000D01*
X236563587Y-102768276D01*
X236510580Y-102593536D01*
X236424501Y-102432495D01*
X236308659Y-102291341D01*
X236304044Y-102287554D01*
X236374757Y-102181725D01*
X236508711Y-101858332D01*
X236576389Y-101518088D01*
X236733075Y-101752585D01*
X237210415Y-102229925D01*
X237771707Y-102604968D01*
X238395381Y-102863303D01*
X239057470Y-102995000D01*
X239732530Y-102995000D01*
X240394619Y-102863303D01*
X241018293Y-102604968D01*
X241364000Y-102373974D01*
X241364001Y-122797026D01*
X241018293Y-122566032D01*
X240394619Y-122307697D01*
X239732530Y-122176000D01*
X239057470Y-122176000D01*
X238395381Y-122307697D01*
X237771707Y-122566032D01*
X237210415Y-122941075D01*
X236733075Y-123418415D01*
X236358032Y-123979707D01*
X236099697Y-124603381D01*
X235968000Y-125265470D01*
X235968000Y-125940530D01*
X236099697Y-126602619D01*
X236358032Y-127226293D01*
X236589026Y-127572000D01*
X206472943Y-127572000D01*
X206487587Y-127523724D01*
X206505485Y-127342000D01*
X206505485Y-125642000D01*
X206487587Y-125460276D01*
X206434580Y-125285536D01*
X206348501Y-125124495D01*
X206251000Y-125005690D01*
X206251000Y-124865198D01*
X206298757Y-124793725D01*
X206432711Y-124470332D01*
X206501000Y-124127019D01*
X206501000Y-123776981D01*
X206432711Y-123433668D01*
X206298757Y-123110275D01*
X206104286Y-122819229D01*
X205856771Y-122571714D01*
X205851000Y-122567858D01*
X205851000Y-119054354D01*
X205856452Y-118998999D01*
X205851000Y-118943645D01*
X205851000Y-118943635D01*
X205834693Y-118778069D01*
X205770250Y-118565629D01*
X205711786Y-118456250D01*
X205665600Y-118369842D01*
X205593261Y-118281698D01*
X205524765Y-118198235D01*
X205481758Y-118162940D01*
X204515818Y-117197000D01*
X204630245Y-117197000D01*
X204944578Y-117134475D01*
X205035050Y-117097000D01*
X207261000Y-117097000D01*
X207261001Y-120719948D01*
X207223525Y-120810422D01*
X207161000Y-121124755D01*
X207161000Y-121445245D01*
X207223525Y-121759578D01*
X207346172Y-122055673D01*
X207524227Y-122322152D01*
X207750848Y-122548773D01*
X208017327Y-122726828D01*
X208313422Y-122849475D01*
X208627755Y-122912000D01*
X208948245Y-122912000D01*
X209262578Y-122849475D01*
X209447579Y-122772845D01*
X209447000Y-122775755D01*
X209447000Y-123096245D01*
X209509525Y-123410578D01*
X209632172Y-123706673D01*
X209810227Y-123973152D01*
X209947000Y-124109925D01*
X209947000Y-124404646D01*
X209941548Y-124460000D01*
X209947000Y-124515354D01*
X209947000Y-124515365D01*
X209963307Y-124680931D01*
X209998457Y-124796802D01*
X210027750Y-124893370D01*
X210132400Y-125089156D01*
X210237942Y-125217760D01*
X210237946Y-125217764D01*
X210273236Y-125260765D01*
X210316237Y-125296055D01*
X211683445Y-126663264D01*
X211718735Y-126706265D01*
X211761736Y-126741555D01*
X211761739Y-126741558D01*
X211771426Y-126749508D01*
X211799578Y-126802176D01*
X211945733Y-126980267D01*
X212123824Y-127126422D01*
X212327007Y-127235026D01*
X212547473Y-127301903D01*
X212776750Y-127324485D01*
X213689250Y-127324485D01*
X213918527Y-127301903D01*
X214138993Y-127235026D01*
X214143719Y-127232500D01*
X215497281Y-127232500D01*
X215502007Y-127235026D01*
X215722473Y-127301903D01*
X215951750Y-127324485D01*
X216864250Y-127324485D01*
X217093527Y-127301903D01*
X217313993Y-127235026D01*
X217517176Y-127126422D01*
X217695267Y-126980267D01*
X217841422Y-126802176D01*
X217950026Y-126598993D01*
X218016903Y-126378527D01*
X218039485Y-126149250D01*
X218039485Y-125661750D01*
X218016903Y-125432473D01*
X217950026Y-125212007D01*
X217855761Y-125035651D01*
X217974657Y-124972100D01*
X218146265Y-124831265D01*
X218181559Y-124788259D01*
X218660818Y-124309000D01*
X218854245Y-124309000D01*
X219168578Y-124246475D01*
X219464673Y-124123828D01*
X219731152Y-123945773D01*
X219957773Y-123719152D01*
X220135828Y-123452673D01*
X220258475Y-123156578D01*
X220321000Y-122842245D01*
X220321000Y-122521755D01*
X220273906Y-122285000D01*
X222917602Y-122285000D01*
X222844525Y-122461422D01*
X222782000Y-122775755D01*
X222782000Y-123096245D01*
X222844525Y-123410578D01*
X222967172Y-123706673D01*
X223145227Y-123973152D01*
X223282000Y-124109925D01*
X223282000Y-125166645D01*
X223276548Y-125222000D01*
X223282000Y-125277354D01*
X223282000Y-125277364D01*
X223298307Y-125442930D01*
X223362750Y-125655370D01*
X223467400Y-125851157D01*
X223608235Y-126022765D01*
X223651242Y-126058060D01*
X224256440Y-126663258D01*
X224291735Y-126706265D01*
X224463343Y-126847100D01*
X224659129Y-126951750D01*
X224871569Y-127016193D01*
X225037135Y-127032500D01*
X225037145Y-127032500D01*
X225092500Y-127037952D01*
X225147854Y-127032500D01*
X225979379Y-127032500D01*
X226093824Y-127126422D01*
X226297007Y-127235026D01*
X226517473Y-127301903D01*
X226746750Y-127324485D01*
X227659250Y-127324485D01*
X227888527Y-127301903D01*
X228108993Y-127235026D01*
X228312176Y-127126422D01*
X228426621Y-127032500D01*
X228705477Y-127032500D01*
X228760824Y-127077922D01*
X228964007Y-127186526D01*
X229184473Y-127253403D01*
X229413750Y-127275985D01*
X230326250Y-127275985D01*
X230555527Y-127253403D01*
X230775993Y-127186526D01*
X230979176Y-127077922D01*
X231157267Y-126931767D01*
X231303422Y-126753676D01*
X231412026Y-126550493D01*
X231478903Y-126330027D01*
X231501485Y-126100750D01*
X231501485Y-125613250D01*
X231478903Y-125383973D01*
X231412026Y-125163507D01*
X231368142Y-125081405D01*
X231543371Y-125028250D01*
X231739157Y-124923600D01*
X231910765Y-124782765D01*
X231946059Y-124739759D01*
X232518859Y-124166959D01*
X232757578Y-124119475D01*
X233053673Y-123996828D01*
X233320152Y-123818773D01*
X233546773Y-123592152D01*
X233724828Y-123325673D01*
X233847475Y-123029578D01*
X233910000Y-122715245D01*
X233910000Y-122394755D01*
X233847475Y-122080422D01*
X233724828Y-121784327D01*
X233546773Y-121517848D01*
X233320152Y-121291227D01*
X233053673Y-121113172D01*
X232757578Y-120990525D01*
X232443245Y-120928000D01*
X232122755Y-120928000D01*
X231808422Y-120990525D01*
X231512327Y-121113172D01*
X231245848Y-121291227D01*
X231019227Y-121517848D01*
X230841172Y-121784327D01*
X230718525Y-122080422D01*
X230656000Y-122394755D01*
X230656000Y-122616075D01*
X230555527Y-122585597D01*
X230326250Y-122563015D01*
X229413750Y-122563015D01*
X229184473Y-122585597D01*
X228964007Y-122652474D01*
X228760824Y-122761078D01*
X228582733Y-122907233D01*
X228516599Y-122987818D01*
X228490267Y-122955733D01*
X228323953Y-122819243D01*
X228313693Y-122715069D01*
X228249250Y-122502629D01*
X228144600Y-122306843D01*
X228096637Y-122248400D01*
X228039058Y-122178239D01*
X228039055Y-122178236D01*
X228003765Y-122135235D01*
X227960764Y-122099945D01*
X226506367Y-120645549D01*
X226832332Y-120580711D01*
X227155725Y-120446757D01*
X227446771Y-120252286D01*
X227584000Y-120115057D01*
X227721229Y-120252286D01*
X228012275Y-120446757D01*
X228335668Y-120580711D01*
X228678981Y-120649000D01*
X229029019Y-120649000D01*
X229372332Y-120580711D01*
X229695725Y-120446757D01*
X229986771Y-120252286D01*
X230124000Y-120115057D01*
X230261229Y-120252286D01*
X230552275Y-120446757D01*
X230875668Y-120580711D01*
X231218981Y-120649000D01*
X231569019Y-120649000D01*
X231912332Y-120580711D01*
X232235725Y-120446757D01*
X232526771Y-120252286D01*
X232664000Y-120115057D01*
X232801229Y-120252286D01*
X233092275Y-120446757D01*
X233415668Y-120580711D01*
X233758981Y-120649000D01*
X234109019Y-120649000D01*
X234452332Y-120580711D01*
X234775725Y-120446757D01*
X235066771Y-120252286D01*
X235204000Y-120115057D01*
X235341229Y-120252286D01*
X235632275Y-120446757D01*
X235955668Y-120580711D01*
X236298981Y-120649000D01*
X236649019Y-120649000D01*
X236992332Y-120580711D01*
X237315725Y-120446757D01*
X237606771Y-120252286D01*
X237744000Y-120115057D01*
X237881229Y-120252286D01*
X238172275Y-120446757D01*
X238495668Y-120580711D01*
X238838981Y-120649000D01*
X239189019Y-120649000D01*
X239532332Y-120580711D01*
X239855725Y-120446757D01*
X240146771Y-120252286D01*
X240394286Y-120004771D01*
X240588757Y-119713725D01*
X240722711Y-119390332D01*
X240791000Y-119047019D01*
X240791000Y-118696981D01*
X240722711Y-118353668D01*
X240588757Y-118030275D01*
X240394286Y-117739229D01*
X240280558Y-117625501D01*
X240441287Y-117464771D01*
X240635758Y-117173725D01*
X240769712Y-116850332D01*
X240838001Y-116507019D01*
X240838001Y-116156981D01*
X240769712Y-115813668D01*
X240635758Y-115490275D01*
X240441287Y-115199229D01*
X240304058Y-115062000D01*
X240441287Y-114924771D01*
X240635758Y-114633725D01*
X240769712Y-114310332D01*
X240838001Y-113967019D01*
X240838001Y-113616981D01*
X240769712Y-113273668D01*
X240635758Y-112950275D01*
X240441287Y-112659229D01*
X240304058Y-112522000D01*
X240441287Y-112384771D01*
X240635758Y-112093725D01*
X240769712Y-111770332D01*
X240838001Y-111427019D01*
X240838001Y-111076981D01*
X240769712Y-110733668D01*
X240635758Y-110410275D01*
X240441287Y-110119229D01*
X240304058Y-109982000D01*
X240441287Y-109844771D01*
X240635758Y-109553725D01*
X240769712Y-109230332D01*
X240838001Y-108887019D01*
X240838001Y-108536981D01*
X240769712Y-108193668D01*
X240635758Y-107870275D01*
X240441287Y-107579229D01*
X240193772Y-107331714D01*
X239902726Y-107137243D01*
X239579333Y-107003289D01*
X239236020Y-106935000D01*
X238885982Y-106935000D01*
X238542669Y-107003289D01*
X238219276Y-107137243D01*
X237928230Y-107331714D01*
X237791001Y-107468943D01*
X237653772Y-107331714D01*
X237362726Y-107137243D01*
X237039333Y-107003289D01*
X236696020Y-106935000D01*
X236345982Y-106935000D01*
X236002669Y-107003289D01*
X235679276Y-107137243D01*
X235388230Y-107331714D01*
X235251001Y-107468943D01*
X235113772Y-107331714D01*
X234822726Y-107137243D01*
X234499333Y-107003289D01*
X234156020Y-106935000D01*
X233805982Y-106935000D01*
X233462669Y-107003289D01*
X233139276Y-107137243D01*
X232848230Y-107331714D01*
X232711001Y-107468943D01*
X232573772Y-107331714D01*
X232282726Y-107137243D01*
X231959333Y-107003289D01*
X231616020Y-106935000D01*
X231265982Y-106935000D01*
X230922669Y-107003289D01*
X230599276Y-107137243D01*
X230308230Y-107331714D01*
X230171001Y-107468943D01*
X230033772Y-107331714D01*
X229742726Y-107137243D01*
X229419333Y-107003289D01*
X229076020Y-106935000D01*
X228725982Y-106935000D01*
X228382669Y-107003289D01*
X228059276Y-107137243D01*
X227768230Y-107331714D01*
X227631001Y-107468943D01*
X227493772Y-107331714D01*
X227202726Y-107137243D01*
X226879333Y-107003289D01*
X226536020Y-106935000D01*
X226185982Y-106935000D01*
X225842669Y-107003289D01*
X225519276Y-107137243D01*
X225228230Y-107331714D01*
X225091001Y-107468943D01*
X224953772Y-107331714D01*
X224662726Y-107137243D01*
X224339333Y-107003289D01*
X223996020Y-106935000D01*
X223645982Y-106935000D01*
X223302669Y-107003289D01*
X222979276Y-107137243D01*
X222688230Y-107331714D01*
X222551001Y-107468943D01*
X222413772Y-107331714D01*
X222122726Y-107137243D01*
X221799333Y-107003289D01*
X221456020Y-106935000D01*
X221105982Y-106935000D01*
X220762669Y-107003289D01*
X220439276Y-107137243D01*
X220148230Y-107331714D01*
X220011001Y-107468943D01*
X219873772Y-107331714D01*
X219582726Y-107137243D01*
X219259333Y-107003289D01*
X218916020Y-106935000D01*
X218565982Y-106935000D01*
X218222669Y-107003289D01*
X217899276Y-107137243D01*
X217608230Y-107331714D01*
X217471001Y-107468943D01*
X217333772Y-107331714D01*
X217042726Y-107137243D01*
X216719333Y-107003289D01*
X216376020Y-106935000D01*
X216025982Y-106935000D01*
X215682669Y-107003289D01*
X215359276Y-107137243D01*
X215068230Y-107331714D01*
X214971001Y-107428944D01*
X214873771Y-107331714D01*
X214582725Y-107137243D01*
X214259332Y-107003289D01*
X213916019Y-106935000D01*
X213565981Y-106935000D01*
X213222668Y-107003289D01*
X212899275Y-107137243D01*
X212827802Y-107185000D01*
X212687310Y-107185000D01*
X212568505Y-107087499D01*
X212407464Y-107001420D01*
X212232724Y-106948413D01*
X212051000Y-106930515D01*
X210351000Y-106930515D01*
X210169276Y-106948413D01*
X209994536Y-107001420D01*
X209833495Y-107087499D01*
X209692341Y-107203341D01*
X209576499Y-107344495D01*
X209490420Y-107505536D01*
X209437413Y-107680276D01*
X209419515Y-107862000D01*
X209419515Y-109562000D01*
X209437413Y-109743724D01*
X209454717Y-109800768D01*
X209343815Y-109834410D01*
X209078540Y-109976203D01*
X208846024Y-110167024D01*
X208798207Y-110225289D01*
X208028497Y-110995000D01*
X205035050Y-110995000D01*
X204944578Y-110957525D01*
X204630245Y-110895000D01*
X204309755Y-110895000D01*
X203995422Y-110957525D01*
X203699327Y-111080172D01*
X203432848Y-111258227D01*
X203206227Y-111484848D01*
X203028172Y-111751327D01*
X202905525Y-112047422D01*
X202843000Y-112361755D01*
X202843000Y-112682245D01*
X202905525Y-112996578D01*
X202943001Y-113087052D01*
X202943000Y-115004949D01*
X202905525Y-115095422D01*
X202843000Y-115409755D01*
X202843000Y-115524182D01*
X193728818Y-106410000D01*
X199969646Y-106410000D01*
X200025000Y-106415452D01*
X200080354Y-106410000D01*
X200080365Y-106410000D01*
X200245931Y-106393693D01*
X200458371Y-106329250D01*
X200654157Y-106224600D01*
X200825765Y-106083765D01*
X200861059Y-106040759D01*
X201801818Y-105100000D01*
X214936928Y-105100000D01*
X214949188Y-105224482D01*
X214985498Y-105344180D01*
X215044463Y-105454494D01*
X215123815Y-105551185D01*
X215220506Y-105630537D01*
X215330820Y-105689502D01*
X215450518Y-105725812D01*
X215575000Y-105738072D01*
X215776750Y-105735000D01*
X215935500Y-105576250D01*
X215935500Y-104527000D01*
X215098750Y-104527000D01*
X214940000Y-104685750D01*
X214936928Y-105100000D01*
X201801818Y-105100000D01*
X203201818Y-103700000D01*
X214936928Y-103700000D01*
X214940000Y-104114250D01*
X215098750Y-104273000D01*
X215424947Y-104273000D01*
X215455820Y-104289502D01*
X215575518Y-104325812D01*
X215700000Y-104338072D01*
X215764250Y-104335000D01*
X215826250Y-104273000D01*
X215935500Y-104273000D01*
X215935500Y-103223750D01*
X215923000Y-103211250D01*
X215923000Y-102827000D01*
X215223750Y-102827000D01*
X215065000Y-102985750D01*
X215063553Y-103322245D01*
X215044463Y-103345506D01*
X214985498Y-103455820D01*
X214949188Y-103575518D01*
X214936928Y-103700000D01*
X203201818Y-103700000D01*
X203821764Y-103080055D01*
X203864765Y-103044765D01*
X203900055Y-103001764D01*
X203900058Y-103001761D01*
X204005600Y-102873157D01*
X204110250Y-102677371D01*
X204117963Y-102651944D01*
X204196771Y-102599286D01*
X204334000Y-102462057D01*
X204471229Y-102599286D01*
X204762275Y-102793757D01*
X205085668Y-102927711D01*
X205428981Y-102996000D01*
X205779019Y-102996000D01*
X206122332Y-102927711D01*
X206445725Y-102793757D01*
X206736771Y-102599286D01*
X206874000Y-102462057D01*
X207011229Y-102599286D01*
X207302275Y-102793757D01*
X207625668Y-102927711D01*
X207968981Y-102996000D01*
X208319019Y-102996000D01*
X208662332Y-102927711D01*
X208985725Y-102793757D01*
X209276771Y-102599286D01*
X209414000Y-102462057D01*
X209551229Y-102599286D01*
X209842275Y-102793757D01*
X210165668Y-102927711D01*
X210508981Y-102996000D01*
X210859019Y-102996000D01*
X211202332Y-102927711D01*
X211525725Y-102793757D01*
X211816771Y-102599286D01*
X211954000Y-102462057D01*
X212091229Y-102599286D01*
X212382275Y-102793757D01*
X212705668Y-102927711D01*
X213048981Y-102996000D01*
X213399019Y-102996000D01*
X213742332Y-102927711D01*
X214065725Y-102793757D01*
X214356771Y-102599286D01*
X214604286Y-102351771D01*
X214798757Y-102060725D01*
X214932711Y-101737332D01*
X214940136Y-101700000D01*
X215061928Y-101700000D01*
X215065000Y-102414250D01*
X215223750Y-102573000D01*
X215923000Y-102573000D01*
X215923000Y-101223750D01*
X215764250Y-101065000D01*
X215700000Y-101061928D01*
X215575518Y-101074188D01*
X215455820Y-101110498D01*
X215345506Y-101169463D01*
X215248815Y-101248815D01*
X215169463Y-101345506D01*
X215110498Y-101455820D01*
X215074188Y-101575518D01*
X215061928Y-101700000D01*
X214940136Y-101700000D01*
X215001000Y-101394019D01*
X215001000Y-101043981D01*
X214932711Y-100700668D01*
X214798757Y-100377275D01*
X214751000Y-100305802D01*
X214751000Y-99592198D01*
X214798757Y-99520725D01*
X214932711Y-99197332D01*
X215001000Y-98854019D01*
X215001000Y-98503981D01*
X214932711Y-98160668D01*
X214798757Y-97837275D01*
X214639547Y-97599000D01*
X216042934Y-97599000D01*
X215991341Y-97641341D01*
G36*
X146881940Y-118757758D02*
G01*
X146891566Y-118769487D01*
X146932974Y-118905993D01*
X147041578Y-119109176D01*
X147135500Y-119223621D01*
X147135501Y-119452535D01*
X147104078Y-119490824D01*
X146995474Y-119694007D01*
X146928597Y-119914473D01*
X146906015Y-120143750D01*
X146906015Y-121056250D01*
X146928597Y-121285527D01*
X146995474Y-121505993D01*
X147104078Y-121709176D01*
X147250233Y-121887267D01*
X147428324Y-122033422D01*
X147631507Y-122142026D01*
X147851973Y-122208903D01*
X148081250Y-122231485D01*
X148568750Y-122231485D01*
X148798027Y-122208903D01*
X149018493Y-122142026D01*
X149221676Y-122033422D01*
X149262500Y-121999919D01*
X149303324Y-122033422D01*
X149506507Y-122142026D01*
X149726973Y-122208903D01*
X149956250Y-122231485D01*
X150443750Y-122231485D01*
X150673027Y-122208903D01*
X150893493Y-122142026D01*
X150973630Y-122099192D01*
X151032495Y-122147501D01*
X151193536Y-122233580D01*
X151368276Y-122286587D01*
X151550000Y-122304485D01*
X153250000Y-122304485D01*
X153431724Y-122286587D01*
X153606464Y-122233580D01*
X153767505Y-122147501D01*
X153908659Y-122031659D01*
X154024501Y-121890505D01*
X154110580Y-121729464D01*
X154134685Y-121650000D01*
X160220182Y-121650000D01*
X159625638Y-122244544D01*
X159305275Y-122377243D01*
X159014229Y-122571714D01*
X158766714Y-122819229D01*
X158685336Y-122941020D01*
X158607269Y-122854412D01*
X158373920Y-122680359D01*
X158111099Y-122555175D01*
X157963890Y-122510524D01*
X157734000Y-122631845D01*
X157734000Y-123825000D01*
X157754000Y-123825000D01*
X157754000Y-124079000D01*
X157734000Y-124079000D01*
X157734000Y-126365000D01*
X157754000Y-126365000D01*
X157754000Y-126619000D01*
X157734000Y-126619000D01*
X157734000Y-126639000D01*
X157480000Y-126639000D01*
X157480000Y-126619000D01*
X157460000Y-126619000D01*
X157460000Y-126365000D01*
X157480000Y-126365000D01*
X157480000Y-124079000D01*
X157460000Y-124079000D01*
X157460000Y-123825000D01*
X157480000Y-123825000D01*
X157480000Y-122631845D01*
X157250110Y-122510524D01*
X157102901Y-122555175D01*
X156840080Y-122680359D01*
X156606731Y-122854412D01*
X156528664Y-122941020D01*
X156447286Y-122819229D01*
X156199771Y-122571714D01*
X155908725Y-122377243D01*
X155585332Y-122243289D01*
X155242019Y-122175000D01*
X154891981Y-122175000D01*
X154548668Y-122243289D01*
X154225275Y-122377243D01*
X153934229Y-122571714D01*
X153686714Y-122819229D01*
X153492243Y-123110275D01*
X153358289Y-123433668D01*
X153290000Y-123776981D01*
X153290000Y-124127019D01*
X153358289Y-124470332D01*
X153492243Y-124793725D01*
X153540001Y-124865199D01*
X153540001Y-125005689D01*
X153442499Y-125124495D01*
X153356420Y-125285536D01*
X153303413Y-125460276D01*
X153285515Y-125642000D01*
X153285515Y-127342000D01*
X153303413Y-127523724D01*
X153318057Y-127572000D01*
X148093974Y-127572000D01*
X148324968Y-127226293D01*
X148583303Y-126602619D01*
X148715000Y-125940530D01*
X148715000Y-125265470D01*
X148583303Y-124603381D01*
X148324968Y-123979707D01*
X147949925Y-123418415D01*
X147472585Y-122941075D01*
X146911293Y-122566032D01*
X146287619Y-122307697D01*
X145625530Y-122176000D01*
X144950470Y-122176000D01*
X144288381Y-122307697D01*
X143664707Y-122566032D01*
X143319000Y-122797026D01*
X143319000Y-117280479D01*
X143324429Y-117283381D01*
X143607557Y-117369267D01*
X143828217Y-117391000D01*
X144625783Y-117391000D01*
X144846443Y-117369267D01*
X145129571Y-117283381D01*
X145310731Y-117186549D01*
X146881940Y-118757758D01*
G37*
X146881940Y-118757758D02*
X146891566Y-118769487D01*
X146932974Y-118905993D01*
X147041578Y-119109176D01*
X147135500Y-119223621D01*
X147135501Y-119452535D01*
X147104078Y-119490824D01*
X146995474Y-119694007D01*
X146928597Y-119914473D01*
X146906015Y-120143750D01*
X146906015Y-121056250D01*
X146928597Y-121285527D01*
X146995474Y-121505993D01*
X147104078Y-121709176D01*
X147250233Y-121887267D01*
X147428324Y-122033422D01*
X147631507Y-122142026D01*
X147851973Y-122208903D01*
X148081250Y-122231485D01*
X148568750Y-122231485D01*
X148798027Y-122208903D01*
X149018493Y-122142026D01*
X149221676Y-122033422D01*
X149262500Y-121999919D01*
X149303324Y-122033422D01*
X149506507Y-122142026D01*
X149726973Y-122208903D01*
X149956250Y-122231485D01*
X150443750Y-122231485D01*
X150673027Y-122208903D01*
X150893493Y-122142026D01*
X150973630Y-122099192D01*
X151032495Y-122147501D01*
X151193536Y-122233580D01*
X151368276Y-122286587D01*
X151550000Y-122304485D01*
X153250000Y-122304485D01*
X153431724Y-122286587D01*
X153606464Y-122233580D01*
X153767505Y-122147501D01*
X153908659Y-122031659D01*
X154024501Y-121890505D01*
X154110580Y-121729464D01*
X154134685Y-121650000D01*
X160220182Y-121650000D01*
X159625638Y-122244544D01*
X159305275Y-122377243D01*
X159014229Y-122571714D01*
X158766714Y-122819229D01*
X158685336Y-122941020D01*
X158607269Y-122854412D01*
X158373920Y-122680359D01*
X158111099Y-122555175D01*
X157963890Y-122510524D01*
X157734000Y-122631845D01*
X157734000Y-123825000D01*
X157754000Y-123825000D01*
X157754000Y-124079000D01*
X157734000Y-124079000D01*
X157734000Y-126365000D01*
X157754000Y-126365000D01*
X157754000Y-126619000D01*
X157734000Y-126619000D01*
X157734000Y-126639000D01*
X157480000Y-126639000D01*
X157480000Y-126619000D01*
X157460000Y-126619000D01*
X157460000Y-126365000D01*
X157480000Y-126365000D01*
X157480000Y-124079000D01*
X157460000Y-124079000D01*
X157460000Y-123825000D01*
X157480000Y-123825000D01*
X157480000Y-122631845D01*
X157250110Y-122510524D01*
X157102901Y-122555175D01*
X156840080Y-122680359D01*
X156606731Y-122854412D01*
X156528664Y-122941020D01*
X156447286Y-122819229D01*
X156199771Y-122571714D01*
X155908725Y-122377243D01*
X155585332Y-122243289D01*
X155242019Y-122175000D01*
X154891981Y-122175000D01*
X154548668Y-122243289D01*
X154225275Y-122377243D01*
X153934229Y-122571714D01*
X153686714Y-122819229D01*
X153492243Y-123110275D01*
X153358289Y-123433668D01*
X153290000Y-123776981D01*
X153290000Y-124127019D01*
X153358289Y-124470332D01*
X153492243Y-124793725D01*
X153540001Y-124865199D01*
X153540001Y-125005689D01*
X153442499Y-125124495D01*
X153356420Y-125285536D01*
X153303413Y-125460276D01*
X153285515Y-125642000D01*
X153285515Y-127342000D01*
X153303413Y-127523724D01*
X153318057Y-127572000D01*
X148093974Y-127572000D01*
X148324968Y-127226293D01*
X148583303Y-126602619D01*
X148715000Y-125940530D01*
X148715000Y-125265470D01*
X148583303Y-124603381D01*
X148324968Y-123979707D01*
X147949925Y-123418415D01*
X147472585Y-122941075D01*
X146911293Y-122566032D01*
X146287619Y-122307697D01*
X145625530Y-122176000D01*
X144950470Y-122176000D01*
X144288381Y-122307697D01*
X143664707Y-122566032D01*
X143319000Y-122797026D01*
X143319000Y-117280479D01*
X143324429Y-117283381D01*
X143607557Y-117369267D01*
X143828217Y-117391000D01*
X144625783Y-117391000D01*
X144846443Y-117369267D01*
X145129571Y-117283381D01*
X145310731Y-117186549D01*
X146881940Y-118757758D01*
G36*
X184531000Y-123825000D02*
G01*
X184551000Y-123825000D01*
X184551000Y-124079000D01*
X184531000Y-124079000D01*
X184531000Y-126365000D01*
X184551000Y-126365000D01*
X184551000Y-126619000D01*
X184531000Y-126619000D01*
X184531000Y-126639000D01*
X184277000Y-126639000D01*
X184277000Y-126619000D01*
X184257000Y-126619000D01*
X184257000Y-126365000D01*
X184277000Y-126365000D01*
X184277000Y-124079000D01*
X184257000Y-124079000D01*
X184257000Y-123825000D01*
X184277000Y-123825000D01*
X184277000Y-123805000D01*
X184531000Y-123805000D01*
X184531000Y-123825000D01*
G37*
X184531000Y-123825000D02*
X184551000Y-123825000D01*
X184551000Y-124079000D01*
X184531000Y-124079000D01*
X184531000Y-126365000D01*
X184551000Y-126365000D01*
X184551000Y-126619000D01*
X184531000Y-126619000D01*
X184531000Y-126639000D01*
X184277000Y-126639000D01*
X184277000Y-126619000D01*
X184257000Y-126619000D01*
X184257000Y-126365000D01*
X184277000Y-126365000D01*
X184277000Y-124079000D01*
X184257000Y-124079000D01*
X184257000Y-123825000D01*
X184277000Y-123825000D01*
X184277000Y-123805000D01*
X184531000Y-123805000D01*
X184531000Y-123825000D01*
G36*
X214692342Y-112760659D02*
G01*
X214731480Y-112792779D01*
X214626244Y-112950275D01*
X214492290Y-113273668D01*
X214424001Y-113616981D01*
X214424001Y-113967019D01*
X214492290Y-114310332D01*
X214626244Y-114633725D01*
X214731480Y-114791221D01*
X214692342Y-114823341D01*
X214576500Y-114964495D01*
X214490421Y-115125536D01*
X214475084Y-115176097D01*
X214372252Y-115114843D01*
X214097891Y-115017519D01*
X213868000Y-115138186D01*
X213868000Y-116332000D01*
X213888000Y-116332000D01*
X213888000Y-116586000D01*
X213868000Y-116586000D01*
X213868000Y-118872000D01*
X213888000Y-118872000D01*
X213888000Y-119126000D01*
X213868000Y-119126000D01*
X213868000Y-119146000D01*
X213614000Y-119146000D01*
X213614000Y-119126000D01*
X211328000Y-119126000D01*
X211328000Y-119146000D01*
X211074000Y-119146000D01*
X211074000Y-119126000D01*
X211054000Y-119126000D01*
X211054000Y-118872000D01*
X211074000Y-118872000D01*
X211074000Y-116586000D01*
X211328000Y-116586000D01*
X211328000Y-118872000D01*
X213614000Y-118872000D01*
X213614000Y-116586000D01*
X211328000Y-116586000D01*
X211074000Y-116586000D01*
X211054000Y-116586000D01*
X211054000Y-116332000D01*
X211074000Y-116332000D01*
X211074000Y-115132750D01*
X211328000Y-115132750D01*
X211328000Y-116332000D01*
X213614000Y-116332000D01*
X213614000Y-115138186D01*
X213384109Y-115017519D01*
X213109748Y-115114843D01*
X212859645Y-115263822D01*
X212663498Y-115440626D01*
X212640502Y-115364820D01*
X212581537Y-115254506D01*
X212502185Y-115157815D01*
X212405494Y-115078463D01*
X212295180Y-115019498D01*
X212175482Y-114983188D01*
X212051000Y-114970928D01*
X211486750Y-114974000D01*
X211328000Y-115132750D01*
X211074000Y-115132750D01*
X210915250Y-114974000D01*
X210351000Y-114970928D01*
X210315000Y-114974474D01*
X210315000Y-114001225D01*
X210518185Y-113939590D01*
X210783460Y-113797797D01*
X211015976Y-113606976D01*
X211063796Y-113548707D01*
X211635022Y-112977481D01*
X211719332Y-112960711D01*
X212042725Y-112826757D01*
X212114198Y-112779000D01*
X212827802Y-112779000D01*
X212899275Y-112826757D01*
X213222668Y-112960711D01*
X213565981Y-113029000D01*
X213916019Y-113029000D01*
X214259332Y-112960711D01*
X214582725Y-112826757D01*
X214688554Y-112756044D01*
X214692342Y-112760659D01*
G37*
X214692342Y-112760659D02*
X214731480Y-112792779D01*
X214626244Y-112950275D01*
X214492290Y-113273668D01*
X214424001Y-113616981D01*
X214424001Y-113967019D01*
X214492290Y-114310332D01*
X214626244Y-114633725D01*
X214731480Y-114791221D01*
X214692342Y-114823341D01*
X214576500Y-114964495D01*
X214490421Y-115125536D01*
X214475084Y-115176097D01*
X214372252Y-115114843D01*
X214097891Y-115017519D01*
X213868000Y-115138186D01*
X213868000Y-116332000D01*
X213888000Y-116332000D01*
X213888000Y-116586000D01*
X213868000Y-116586000D01*
X213868000Y-118872000D01*
X213888000Y-118872000D01*
X213888000Y-119126000D01*
X213868000Y-119126000D01*
X213868000Y-119146000D01*
X213614000Y-119146000D01*
X213614000Y-119126000D01*
X211328000Y-119126000D01*
X211328000Y-119146000D01*
X211074000Y-119146000D01*
X211074000Y-119126000D01*
X211054000Y-119126000D01*
X211054000Y-118872000D01*
X211074000Y-118872000D01*
X211074000Y-116586000D01*
X211328000Y-116586000D01*
X211328000Y-118872000D01*
X213614000Y-118872000D01*
X213614000Y-116586000D01*
X211328000Y-116586000D01*
X211074000Y-116586000D01*
X211054000Y-116586000D01*
X211054000Y-116332000D01*
X211074000Y-116332000D01*
X211074000Y-115132750D01*
X211328000Y-115132750D01*
X211328000Y-116332000D01*
X213614000Y-116332000D01*
X213614000Y-115138186D01*
X213384109Y-115017519D01*
X213109748Y-115114843D01*
X212859645Y-115263822D01*
X212663498Y-115440626D01*
X212640502Y-115364820D01*
X212581537Y-115254506D01*
X212502185Y-115157815D01*
X212405494Y-115078463D01*
X212295180Y-115019498D01*
X212175482Y-114983188D01*
X212051000Y-114970928D01*
X211486750Y-114974000D01*
X211328000Y-115132750D01*
X211074000Y-115132750D01*
X210915250Y-114974000D01*
X210351000Y-114970928D01*
X210315000Y-114974474D01*
X210315000Y-114001225D01*
X210518185Y-113939590D01*
X210783460Y-113797797D01*
X211015976Y-113606976D01*
X211063796Y-113548707D01*
X211635022Y-112977481D01*
X211719332Y-112960711D01*
X212042725Y-112826757D01*
X212114198Y-112779000D01*
X212827802Y-112779000D01*
X212899275Y-112826757D01*
X213222668Y-112960711D01*
X213565981Y-113029000D01*
X213916019Y-113029000D01*
X214259332Y-112960711D01*
X214582725Y-112826757D01*
X214688554Y-112756044D01*
X214692342Y-112760659D01*
G36*
X153492243Y-97837275D02*
G01*
X153358289Y-98160668D01*
X153290000Y-98503981D01*
X153290000Y-98854019D01*
X153358289Y-99197332D01*
X153492243Y-99520725D01*
X153540001Y-99592199D01*
X153540001Y-99732689D01*
X153442499Y-99851495D01*
X153356420Y-100012536D01*
X153303413Y-100187276D01*
X153285515Y-100369000D01*
X153285515Y-102069000D01*
X153303413Y-102250724D01*
X153356420Y-102425464D01*
X153442499Y-102586505D01*
X153558341Y-102727659D01*
X153699495Y-102843501D01*
X153860536Y-102929580D01*
X153867721Y-102931760D01*
X153873000Y-102985354D01*
X153873000Y-102985364D01*
X153889307Y-103150930D01*
X153953750Y-103363370D01*
X154058400Y-103559157D01*
X154199235Y-103730765D01*
X154242241Y-103766059D01*
X157659945Y-107183764D01*
X157695235Y-107226765D01*
X157738236Y-107262055D01*
X157738239Y-107262058D01*
X157843840Y-107348722D01*
X157866843Y-107367600D01*
X158062629Y-107472250D01*
X158275069Y-107536693D01*
X158440635Y-107553000D01*
X158440643Y-107553000D01*
X158496000Y-107558452D01*
X158551357Y-107553000D01*
X169840182Y-107553000D01*
X169984800Y-107697618D01*
X169790327Y-107778172D01*
X169523848Y-107956227D01*
X169297227Y-108182848D01*
X169119172Y-108449327D01*
X168996525Y-108745422D01*
X168934000Y-109059755D01*
X168934000Y-109380245D01*
X168996525Y-109694578D01*
X169119172Y-109990673D01*
X169297227Y-110257152D01*
X169523848Y-110483773D01*
X169790327Y-110661828D01*
X169805195Y-110667987D01*
X169578182Y-110895000D01*
X169384755Y-110895000D01*
X169070422Y-110957525D01*
X168774327Y-111080172D01*
X168507848Y-111258227D01*
X168402000Y-111364075D01*
X168296152Y-111258227D01*
X168029673Y-111080172D01*
X167733578Y-110957525D01*
X167419245Y-110895000D01*
X167098755Y-110895000D01*
X166784422Y-110957525D01*
X166488327Y-111080172D01*
X166221848Y-111258227D01*
X166052500Y-111427575D01*
X165883152Y-111258227D01*
X165616673Y-111080172D01*
X165320578Y-110957525D01*
X165006245Y-110895000D01*
X164685755Y-110895000D01*
X164371422Y-110957525D01*
X164075327Y-111080172D01*
X163808848Y-111258227D01*
X163639500Y-111427575D01*
X163470152Y-111258227D01*
X163203673Y-111080172D01*
X162907578Y-110957525D01*
X162593245Y-110895000D01*
X162272755Y-110895000D01*
X161958422Y-110957525D01*
X161662327Y-111080172D01*
X161417000Y-111244094D01*
X161171673Y-111080172D01*
X160875578Y-110957525D01*
X160561245Y-110895000D01*
X160240755Y-110895000D01*
X159926422Y-110957525D01*
X159630327Y-111080172D01*
X159363848Y-111258227D01*
X159137227Y-111484848D01*
X158959172Y-111751327D01*
X158836525Y-112047422D01*
X158774000Y-112361755D01*
X158774000Y-112682245D01*
X158836525Y-112996578D01*
X158959172Y-113292673D01*
X159137227Y-113559152D01*
X159363848Y-113785773D01*
X159630327Y-113963828D01*
X159926422Y-114086475D01*
X160240755Y-114149000D01*
X160307182Y-114149000D01*
X161244182Y-115086000D01*
X161129755Y-115086000D01*
X160815422Y-115148525D01*
X160724950Y-115186000D01*
X155904000Y-115186000D01*
X155828999Y-115178613D01*
X155753998Y-115186000D01*
X155753989Y-115186000D01*
X155529656Y-115208095D01*
X155241815Y-115295410D01*
X154976540Y-115437203D01*
X154744024Y-115628024D01*
X154696207Y-115686289D01*
X153926497Y-116456000D01*
X153483464Y-116456000D01*
X153497588Y-116443269D01*
X153671641Y-116209920D01*
X153796825Y-115947099D01*
X153841476Y-115799890D01*
X153720155Y-115570000D01*
X152527000Y-115570000D01*
X152527000Y-115590000D01*
X152273000Y-115590000D01*
X152273000Y-115570000D01*
X152253000Y-115570000D01*
X152253000Y-115316000D01*
X152273000Y-115316000D01*
X152273000Y-115296000D01*
X152527000Y-115296000D01*
X152527000Y-115316000D01*
X153720155Y-115316000D01*
X153841476Y-115086110D01*
X153796825Y-114938901D01*
X153671641Y-114676080D01*
X153497588Y-114442731D01*
X153410980Y-114364664D01*
X153532771Y-114283286D01*
X153780286Y-114035771D01*
X153974757Y-113744725D01*
X154108711Y-113421332D01*
X154177000Y-113078019D01*
X154177000Y-112727981D01*
X154108711Y-112384668D01*
X153974757Y-112061275D01*
X153780286Y-111770229D01*
X153643057Y-111633000D01*
X153780286Y-111495771D01*
X153974757Y-111204725D01*
X154108711Y-110881332D01*
X154177000Y-110538019D01*
X154177000Y-110187981D01*
X154108711Y-109844668D01*
X153974757Y-109521275D01*
X153780286Y-109230229D01*
X153532771Y-108982714D01*
X153241725Y-108788243D01*
X152918332Y-108654289D01*
X152575019Y-108586000D01*
X152224981Y-108586000D01*
X151881668Y-108654289D01*
X151558275Y-108788243D01*
X151267229Y-108982714D01*
X151019714Y-109230229D01*
X150825243Y-109521275D01*
X150691289Y-109844668D01*
X150623000Y-110187981D01*
X150623000Y-110268192D01*
X150573931Y-110253307D01*
X150408365Y-110237000D01*
X149313000Y-110237000D01*
X149312416Y-110235182D01*
X149251650Y-110125850D01*
X149170722Y-110030474D01*
X149072742Y-109952718D01*
X148961475Y-109895572D01*
X148841198Y-109861230D01*
X148816650Y-109859218D01*
X148937252Y-109822634D01*
X149224243Y-109669234D01*
X149475792Y-109462792D01*
X149682234Y-109211243D01*
X149835634Y-108924252D01*
X149930097Y-108612849D01*
X149961993Y-108289000D01*
X149930097Y-107965151D01*
X149835634Y-107653748D01*
X149682234Y-107366757D01*
X149475792Y-107115208D01*
X149224243Y-106908766D01*
X148937252Y-106755366D01*
X148625849Y-106660903D01*
X148383155Y-106637000D01*
X147670845Y-106637000D01*
X147606397Y-106643348D01*
X147745828Y-106434673D01*
X147868475Y-106138578D01*
X147931000Y-105824245D01*
X147931000Y-105503755D01*
X147868475Y-105189422D01*
X147745828Y-104893327D01*
X147567773Y-104626848D01*
X147341152Y-104400227D01*
X147074673Y-104222172D01*
X146778578Y-104099525D01*
X146464245Y-104037000D01*
X146143755Y-104037000D01*
X145829422Y-104099525D01*
X145533327Y-104222172D01*
X145266848Y-104400227D01*
X145040227Y-104626848D01*
X144862172Y-104893327D01*
X144739525Y-105189422D01*
X144677000Y-105503755D01*
X144677000Y-105824245D01*
X144695526Y-105917383D01*
X144685308Y-105951069D01*
X144670898Y-106097371D01*
X144663548Y-106172000D01*
X144669001Y-106227364D01*
X144669001Y-106641257D01*
X144625783Y-106637000D01*
X143828217Y-106637000D01*
X143607557Y-106658733D01*
X143324429Y-106744619D01*
X143319000Y-106747521D01*
X143319000Y-102373974D01*
X143664707Y-102604968D01*
X144288381Y-102863303D01*
X144950470Y-102995000D01*
X145625530Y-102995000D01*
X146287619Y-102863303D01*
X146911293Y-102604968D01*
X147472585Y-102229925D01*
X147949925Y-101752585D01*
X148324968Y-101191293D01*
X148583303Y-100567619D01*
X148715000Y-99905530D01*
X148715000Y-99230470D01*
X148583303Y-98568381D01*
X148324968Y-97944707D01*
X148093974Y-97599000D01*
X153651453Y-97599000D01*
X153492243Y-97837275D01*
G37*
X153492243Y-97837275D02*
X153358289Y-98160668D01*
X153290000Y-98503981D01*
X153290000Y-98854019D01*
X153358289Y-99197332D01*
X153492243Y-99520725D01*
X153540001Y-99592199D01*
X153540001Y-99732689D01*
X153442499Y-99851495D01*
X153356420Y-100012536D01*
X153303413Y-100187276D01*
X153285515Y-100369000D01*
X153285515Y-102069000D01*
X153303413Y-102250724D01*
X153356420Y-102425464D01*
X153442499Y-102586505D01*
X153558341Y-102727659D01*
X153699495Y-102843501D01*
X153860536Y-102929580D01*
X153867721Y-102931760D01*
X153873000Y-102985354D01*
X153873000Y-102985364D01*
X153889307Y-103150930D01*
X153953750Y-103363370D01*
X154058400Y-103559157D01*
X154199235Y-103730765D01*
X154242241Y-103766059D01*
X157659945Y-107183764D01*
X157695235Y-107226765D01*
X157738236Y-107262055D01*
X157738239Y-107262058D01*
X157843840Y-107348722D01*
X157866843Y-107367600D01*
X158062629Y-107472250D01*
X158275069Y-107536693D01*
X158440635Y-107553000D01*
X158440643Y-107553000D01*
X158496000Y-107558452D01*
X158551357Y-107553000D01*
X169840182Y-107553000D01*
X169984800Y-107697618D01*
X169790327Y-107778172D01*
X169523848Y-107956227D01*
X169297227Y-108182848D01*
X169119172Y-108449327D01*
X168996525Y-108745422D01*
X168934000Y-109059755D01*
X168934000Y-109380245D01*
X168996525Y-109694578D01*
X169119172Y-109990673D01*
X169297227Y-110257152D01*
X169523848Y-110483773D01*
X169790327Y-110661828D01*
X169805195Y-110667987D01*
X169578182Y-110895000D01*
X169384755Y-110895000D01*
X169070422Y-110957525D01*
X168774327Y-111080172D01*
X168507848Y-111258227D01*
X168402000Y-111364075D01*
X168296152Y-111258227D01*
X168029673Y-111080172D01*
X167733578Y-110957525D01*
X167419245Y-110895000D01*
X167098755Y-110895000D01*
X166784422Y-110957525D01*
X166488327Y-111080172D01*
X166221848Y-111258227D01*
X166052500Y-111427575D01*
X165883152Y-111258227D01*
X165616673Y-111080172D01*
X165320578Y-110957525D01*
X165006245Y-110895000D01*
X164685755Y-110895000D01*
X164371422Y-110957525D01*
X164075327Y-111080172D01*
X163808848Y-111258227D01*
X163639500Y-111427575D01*
X163470152Y-111258227D01*
X163203673Y-111080172D01*
X162907578Y-110957525D01*
X162593245Y-110895000D01*
X162272755Y-110895000D01*
X161958422Y-110957525D01*
X161662327Y-111080172D01*
X161417000Y-111244094D01*
X161171673Y-111080172D01*
X160875578Y-110957525D01*
X160561245Y-110895000D01*
X160240755Y-110895000D01*
X159926422Y-110957525D01*
X159630327Y-111080172D01*
X159363848Y-111258227D01*
X159137227Y-111484848D01*
X158959172Y-111751327D01*
X158836525Y-112047422D01*
X158774000Y-112361755D01*
X158774000Y-112682245D01*
X158836525Y-112996578D01*
X158959172Y-113292673D01*
X159137227Y-113559152D01*
X159363848Y-113785773D01*
X159630327Y-113963828D01*
X159926422Y-114086475D01*
X160240755Y-114149000D01*
X160307182Y-114149000D01*
X161244182Y-115086000D01*
X161129755Y-115086000D01*
X160815422Y-115148525D01*
X160724950Y-115186000D01*
X155904000Y-115186000D01*
X155828999Y-115178613D01*
X155753998Y-115186000D01*
X155753989Y-115186000D01*
X155529656Y-115208095D01*
X155241815Y-115295410D01*
X154976540Y-115437203D01*
X154744024Y-115628024D01*
X154696207Y-115686289D01*
X153926497Y-116456000D01*
X153483464Y-116456000D01*
X153497588Y-116443269D01*
X153671641Y-116209920D01*
X153796825Y-115947099D01*
X153841476Y-115799890D01*
X153720155Y-115570000D01*
X152527000Y-115570000D01*
X152527000Y-115590000D01*
X152273000Y-115590000D01*
X152273000Y-115570000D01*
X152253000Y-115570000D01*
X152253000Y-115316000D01*
X152273000Y-115316000D01*
X152273000Y-115296000D01*
X152527000Y-115296000D01*
X152527000Y-115316000D01*
X153720155Y-115316000D01*
X153841476Y-115086110D01*
X153796825Y-114938901D01*
X153671641Y-114676080D01*
X153497588Y-114442731D01*
X153410980Y-114364664D01*
X153532771Y-114283286D01*
X153780286Y-114035771D01*
X153974757Y-113744725D01*
X154108711Y-113421332D01*
X154177000Y-113078019D01*
X154177000Y-112727981D01*
X154108711Y-112384668D01*
X153974757Y-112061275D01*
X153780286Y-111770229D01*
X153643057Y-111633000D01*
X153780286Y-111495771D01*
X153974757Y-111204725D01*
X154108711Y-110881332D01*
X154177000Y-110538019D01*
X154177000Y-110187981D01*
X154108711Y-109844668D01*
X153974757Y-109521275D01*
X153780286Y-109230229D01*
X153532771Y-108982714D01*
X153241725Y-108788243D01*
X152918332Y-108654289D01*
X152575019Y-108586000D01*
X152224981Y-108586000D01*
X151881668Y-108654289D01*
X151558275Y-108788243D01*
X151267229Y-108982714D01*
X151019714Y-109230229D01*
X150825243Y-109521275D01*
X150691289Y-109844668D01*
X150623000Y-110187981D01*
X150623000Y-110268192D01*
X150573931Y-110253307D01*
X150408365Y-110237000D01*
X149313000Y-110237000D01*
X149312416Y-110235182D01*
X149251650Y-110125850D01*
X149170722Y-110030474D01*
X149072742Y-109952718D01*
X148961475Y-109895572D01*
X148841198Y-109861230D01*
X148816650Y-109859218D01*
X148937252Y-109822634D01*
X149224243Y-109669234D01*
X149475792Y-109462792D01*
X149682234Y-109211243D01*
X149835634Y-108924252D01*
X149930097Y-108612849D01*
X149961993Y-108289000D01*
X149930097Y-107965151D01*
X149835634Y-107653748D01*
X149682234Y-107366757D01*
X149475792Y-107115208D01*
X149224243Y-106908766D01*
X148937252Y-106755366D01*
X148625849Y-106660903D01*
X148383155Y-106637000D01*
X147670845Y-106637000D01*
X147606397Y-106643348D01*
X147745828Y-106434673D01*
X147868475Y-106138578D01*
X147931000Y-105824245D01*
X147931000Y-105503755D01*
X147868475Y-105189422D01*
X147745828Y-104893327D01*
X147567773Y-104626848D01*
X147341152Y-104400227D01*
X147074673Y-104222172D01*
X146778578Y-104099525D01*
X146464245Y-104037000D01*
X146143755Y-104037000D01*
X145829422Y-104099525D01*
X145533327Y-104222172D01*
X145266848Y-104400227D01*
X145040227Y-104626848D01*
X144862172Y-104893327D01*
X144739525Y-105189422D01*
X144677000Y-105503755D01*
X144677000Y-105824245D01*
X144695526Y-105917383D01*
X144685308Y-105951069D01*
X144670898Y-106097371D01*
X144663548Y-106172000D01*
X144669001Y-106227364D01*
X144669001Y-106641257D01*
X144625783Y-106637000D01*
X143828217Y-106637000D01*
X143607557Y-106658733D01*
X143324429Y-106744619D01*
X143319000Y-106747521D01*
X143319000Y-102373974D01*
X143664707Y-102604968D01*
X144288381Y-102863303D01*
X144950470Y-102995000D01*
X145625530Y-102995000D01*
X146287619Y-102863303D01*
X146911293Y-102604968D01*
X147472585Y-102229925D01*
X147949925Y-101752585D01*
X148324968Y-101191293D01*
X148583303Y-100567619D01*
X148715000Y-99905530D01*
X148715000Y-99230470D01*
X148583303Y-98568381D01*
X148324968Y-97944707D01*
X148093974Y-97599000D01*
X153651453Y-97599000D01*
X153492243Y-97837275D01*
G36*
X166234000Y-98552000D02*
G01*
X166254000Y-98552000D01*
X166254000Y-98806000D01*
X166234000Y-98806000D01*
X166234000Y-101092000D01*
X166254000Y-101092000D01*
X166254000Y-101346000D01*
X166234000Y-101346000D01*
X166234000Y-102539155D01*
X166463890Y-102660476D01*
X166611099Y-102615825D01*
X166873920Y-102490641D01*
X167107269Y-102316588D01*
X167185336Y-102229980D01*
X167266714Y-102351771D01*
X167514229Y-102599286D01*
X167805275Y-102793757D01*
X168128668Y-102927711D01*
X168471981Y-102996000D01*
X168822019Y-102996000D01*
X169165332Y-102927711D01*
X169488725Y-102793757D01*
X169779771Y-102599286D01*
X169917000Y-102462057D01*
X170054229Y-102599286D01*
X170345275Y-102793757D01*
X170668668Y-102927711D01*
X171011981Y-102996000D01*
X171362019Y-102996000D01*
X171705332Y-102927711D01*
X172028725Y-102793757D01*
X172319771Y-102599286D01*
X172457000Y-102462057D01*
X172594229Y-102599286D01*
X172885275Y-102793757D01*
X173208668Y-102927711D01*
X173551981Y-102996000D01*
X173902019Y-102996000D01*
X174245332Y-102927711D01*
X174568725Y-102793757D01*
X174859771Y-102599286D01*
X174997000Y-102462057D01*
X175134229Y-102599286D01*
X175425275Y-102793757D01*
X175748668Y-102927711D01*
X176091981Y-102996000D01*
X176207181Y-102996000D01*
X175137237Y-104065945D01*
X175094236Y-104101235D01*
X175058946Y-104144236D01*
X175058942Y-104144240D01*
X174953400Y-104272844D01*
X174848750Y-104468630D01*
X174826303Y-104542628D01*
X174784307Y-104681069D01*
X174768000Y-104846635D01*
X174768000Y-104846646D01*
X174762548Y-104902000D01*
X174768000Y-104957354D01*
X174768000Y-105864181D01*
X172286057Y-103382239D01*
X172250765Y-103339235D01*
X172079157Y-103198400D01*
X171883371Y-103093750D01*
X171670931Y-103029307D01*
X171505365Y-103013000D01*
X171505354Y-103013000D01*
X171450000Y-103007548D01*
X171394646Y-103013000D01*
X165439819Y-103013000D01*
X165111187Y-102684368D01*
X165191501Y-102586505D01*
X165270488Y-102438733D01*
X165340080Y-102490641D01*
X165602901Y-102615825D01*
X165750110Y-102660476D01*
X165980000Y-102539155D01*
X165980000Y-101346000D01*
X165960000Y-101346000D01*
X165960000Y-101092000D01*
X165980000Y-101092000D01*
X165980000Y-98806000D01*
X165960000Y-98806000D01*
X165960000Y-98552000D01*
X165980000Y-98552000D01*
X165980000Y-98532000D01*
X166234000Y-98532000D01*
X166234000Y-98552000D01*
G37*
X166234000Y-98552000D02*
X166254000Y-98552000D01*
X166254000Y-98806000D01*
X166234000Y-98806000D01*
X166234000Y-101092000D01*
X166254000Y-101092000D01*
X166254000Y-101346000D01*
X166234000Y-101346000D01*
X166234000Y-102539155D01*
X166463890Y-102660476D01*
X166611099Y-102615825D01*
X166873920Y-102490641D01*
X167107269Y-102316588D01*
X167185336Y-102229980D01*
X167266714Y-102351771D01*
X167514229Y-102599286D01*
X167805275Y-102793757D01*
X168128668Y-102927711D01*
X168471981Y-102996000D01*
X168822019Y-102996000D01*
X169165332Y-102927711D01*
X169488725Y-102793757D01*
X169779771Y-102599286D01*
X169917000Y-102462057D01*
X170054229Y-102599286D01*
X170345275Y-102793757D01*
X170668668Y-102927711D01*
X171011981Y-102996000D01*
X171362019Y-102996000D01*
X171705332Y-102927711D01*
X172028725Y-102793757D01*
X172319771Y-102599286D01*
X172457000Y-102462057D01*
X172594229Y-102599286D01*
X172885275Y-102793757D01*
X173208668Y-102927711D01*
X173551981Y-102996000D01*
X173902019Y-102996000D01*
X174245332Y-102927711D01*
X174568725Y-102793757D01*
X174859771Y-102599286D01*
X174997000Y-102462057D01*
X175134229Y-102599286D01*
X175425275Y-102793757D01*
X175748668Y-102927711D01*
X176091981Y-102996000D01*
X176207181Y-102996000D01*
X175137237Y-104065945D01*
X175094236Y-104101235D01*
X175058946Y-104144236D01*
X175058942Y-104144240D01*
X174953400Y-104272844D01*
X174848750Y-104468630D01*
X174826303Y-104542628D01*
X174784307Y-104681069D01*
X174768000Y-104846635D01*
X174768000Y-104846646D01*
X174762548Y-104902000D01*
X174768000Y-104957354D01*
X174768000Y-105864181D01*
X172286057Y-103382239D01*
X172250765Y-103339235D01*
X172079157Y-103198400D01*
X171883371Y-103093750D01*
X171670931Y-103029307D01*
X171505365Y-103013000D01*
X171505354Y-103013000D01*
X171450000Y-103007548D01*
X171394646Y-103013000D01*
X165439819Y-103013000D01*
X165111187Y-102684368D01*
X165191501Y-102586505D01*
X165270488Y-102438733D01*
X165340080Y-102490641D01*
X165602901Y-102615825D01*
X165750110Y-102660476D01*
X165980000Y-102539155D01*
X165980000Y-101346000D01*
X165960000Y-101346000D01*
X165960000Y-101092000D01*
X165980000Y-101092000D01*
X165980000Y-98806000D01*
X165960000Y-98806000D01*
X165960000Y-98552000D01*
X165980000Y-98552000D01*
X165980000Y-98532000D01*
X166234000Y-98532000D01*
X166234000Y-98552000D01*
G36*
X193031000Y-98552000D02*
G01*
X193051000Y-98552000D01*
X193051000Y-98806000D01*
X193031000Y-98806000D01*
X193031000Y-101092000D01*
X193051000Y-101092000D01*
X193051000Y-101346000D01*
X193031000Y-101346000D01*
X193031000Y-101366000D01*
X192777000Y-101366000D01*
X192777000Y-101346000D01*
X192757000Y-101346000D01*
X192757000Y-101092000D01*
X192777000Y-101092000D01*
X192777000Y-98806000D01*
X192757000Y-98806000D01*
X192757000Y-98552000D01*
X192777000Y-98552000D01*
X192777000Y-98532000D01*
X193031000Y-98532000D01*
X193031000Y-98552000D01*
G37*
X193031000Y-98552000D02*
X193051000Y-98552000D01*
X193051000Y-98806000D01*
X193031000Y-98806000D01*
X193031000Y-101092000D01*
X193051000Y-101092000D01*
X193051000Y-101346000D01*
X193031000Y-101346000D01*
X193031000Y-101366000D01*
X192777000Y-101366000D01*
X192777000Y-101346000D01*
X192757000Y-101346000D01*
X192757000Y-101092000D01*
X192777000Y-101092000D01*
X192777000Y-98806000D01*
X192757000Y-98806000D01*
X192757000Y-98552000D01*
X192777000Y-98552000D01*
X192777000Y-98532000D01*
X193031000Y-98532000D01*
X193031000Y-98552000D01*
M02*
