M48
; DRILL file {KiCad (5.1.5)-2} date 2020-04-05 12:52:11 AM
; FORMAT={-:-/ absolute / metric / decimal}
; #@! TF.CreationDate,2020-04-05T00:52:11+07:00
; #@! TF.GenerationSoftware,Kicad,Pcbnew,(5.1.5)-2
; #@! TF.FileFunction,Plated,1,2,PTH
FMAT,2
METRIC
T1C0.500
T2C0.550
T3C0.800
T4C0.850
T5C1.000
T6C2.500
%
G90
G05
T1
X237.52Y-99.568
X238.069Y-98.242
X238.069Y-100.894
X239.395Y-97.693
X239.395Y-101.443
X240.721Y-98.242
X240.721Y-100.894
X241.27Y-99.568
X143.413Y-99.568
X143.962Y-98.242
X143.962Y-100.894
X145.288Y-97.693
X145.288Y-101.443
X146.614Y-98.242
X146.614Y-100.894
X147.163Y-99.568
X237.52Y-125.603
X238.069Y-124.277
X238.069Y-126.929
X239.395Y-123.728
X239.395Y-127.478
X240.721Y-124.277
X240.721Y-126.929
X241.27Y-125.603
X143.413Y-125.603
X143.962Y-124.277
X143.962Y-126.929
X145.288Y-123.728
X145.288Y-127.478
X146.614Y-124.277
X146.614Y-126.929
X147.163Y-125.603
T3
X146.304Y-105.664
X152.019Y-99.441
X154.813Y-106.553
X160.401Y-112.522
X161.29Y-116.713
X162.433Y-112.522
X164.846Y-112.522
X167.259Y-112.522
X169.545Y-112.522
X170.561Y-109.22
X179.324Y-108.966
X179.959Y-104.013
X180.721Y-110.617
X183.261Y-113.665
X184.658Y-112.268
X191.008Y-110.998
X192.405Y-112.649
X193.802Y-114.427
X195.072Y-116.332
X204.47Y-112.522
X204.47Y-115.57
X208.788Y-121.285
X211.074Y-122.936
X215.138Y-105.791
X218.694Y-122.682
X224.409Y-122.936
X232.283Y-122.555
T5
X216.154Y-118.872
X218.694Y-118.872
X221.234Y-118.872
X223.774Y-118.872
X226.314Y-118.872
X228.854Y-118.872
X231.394Y-118.872
X233.934Y-118.872
X236.474Y-118.872
X239.014Y-118.872
X216.201Y-113.792
X216.201Y-116.332
X218.741Y-113.792
X218.741Y-116.332
X221.281Y-113.792
X221.281Y-116.332
X223.821Y-113.792
X223.821Y-116.332
X226.361Y-113.792
X226.361Y-116.332
X228.901Y-113.792
X228.901Y-116.332
X231.441Y-113.792
X231.441Y-116.332
X233.981Y-113.792
X233.981Y-116.332
X236.521Y-113.792
X236.521Y-116.332
X239.061Y-113.792
X239.061Y-116.332
X155.067Y-98.679
X155.067Y-101.219
X157.607Y-98.679
X157.607Y-101.219
X160.147Y-98.679
X160.147Y-101.219
X155.067Y-123.952
X155.067Y-126.492
X157.607Y-123.952
X157.607Y-126.492
X181.864Y-123.952
X181.864Y-126.492
X184.404Y-123.952
X184.404Y-126.492
X186.944Y-123.952
X186.944Y-126.492
X189.484Y-123.952
X189.484Y-126.492
X192.024Y-123.952
X192.024Y-126.492
X194.564Y-123.952
X194.564Y-126.492
X197.104Y-123.952
X197.104Y-126.492
X199.644Y-123.952
X199.644Y-126.492
X202.184Y-123.952
X202.184Y-126.492
X204.724Y-123.952
X204.724Y-126.492
X234.8Y-98.8
X234.8Y-101.34
X211.201Y-108.712
X211.201Y-111.252
X213.741Y-108.712
X213.741Y-111.252
X195.444Y-98.679
X195.444Y-101.219
X197.984Y-98.679
X197.984Y-101.219
X200.524Y-98.679
X200.524Y-101.219
X203.064Y-98.679
X203.064Y-101.219
X205.604Y-98.679
X205.604Y-101.219
X208.144Y-98.679
X208.144Y-101.219
X210.684Y-98.679
X210.684Y-101.219
X213.224Y-98.679
X213.224Y-101.219
X211.201Y-116.459
X211.201Y-118.999
X213.741Y-116.459
X213.741Y-118.999
X216.201Y-108.712
X216.201Y-111.252
X218.741Y-108.712
X218.741Y-111.252
X221.281Y-108.712
X221.281Y-111.252
X223.821Y-108.712
X223.821Y-111.252
X226.361Y-108.712
X226.361Y-111.252
X228.901Y-108.712
X228.901Y-111.252
X231.441Y-108.712
X231.441Y-111.252
X233.981Y-108.712
X233.981Y-111.252
X236.521Y-108.712
X236.521Y-111.252
X239.061Y-108.712
X239.061Y-111.252
X234.8Y-103.8
X168.647Y-98.679
X168.647Y-101.219
X171.187Y-98.679
X171.187Y-101.219
X173.727Y-98.679
X173.727Y-101.219
X176.267Y-98.679
X176.267Y-101.219
X178.807Y-98.679
X178.807Y-101.219
X181.347Y-98.679
X181.347Y-101.219
X183.887Y-98.679
X183.887Y-101.219
X186.427Y-98.679
X186.427Y-101.219
X152.4Y-110.363
X152.4Y-112.903
X152.4Y-115.443
X152.4Y-117.983
X152.4Y-120.523
X227.8Y-98.8
X227.8Y-101.34
X220.6Y-98.8
X220.6Y-101.34
X160.147Y-123.952
X160.147Y-126.492
X162.687Y-123.952
X162.687Y-126.492
X165.227Y-123.952
X165.227Y-126.492
X167.767Y-123.952
X167.767Y-126.492
X170.307Y-123.952
X170.307Y-126.492
X172.847Y-123.952
X172.847Y-126.492
X175.387Y-123.952
X175.387Y-126.492
X177.927Y-123.952
X177.927Y-126.492
X220.6Y-103.8
X190.364Y-98.679
X190.364Y-101.219
X192.904Y-98.679
X192.904Y-101.219
X163.567Y-98.679
X163.567Y-101.219
X166.107Y-98.679
X166.107Y-101.219
X227.8Y-103.8
T6
X239.395Y-99.568
X145.288Y-99.568
X239.395Y-125.603
X145.288Y-125.603
T2
G00X143.902Y-108.139
M15
G01X144.552Y-108.139
M16
G05
G00X143.902Y-115.889
M15
G01X144.552Y-115.889
M16
G05
T4
G00X147.752Y-108.289
M15
G01X148.302Y-108.289
M16
G05
G00X147.752Y-115.739
M15
G01X148.302Y-115.739
M16
G05
T0
M30
