G04 #@! TF.GenerationSoftware,KiCad,Pcbnew,(5.1.5)-2*
G04 #@! TF.CreationDate,2020-04-05T00:52:07+07:00*
G04 #@! TF.ProjectId,KIT_PIC16F1937,4b49545f-5049-4433-9136-46313933372e,rev?*
G04 #@! TF.SameCoordinates,Original*
G04 #@! TF.FileFunction,Paste,Top*
G04 #@! TF.FilePolarity,Positive*
%FSLAX46Y46*%
G04 Gerber Fmt 4.6, Leading zero omitted, Abs format (unit mm)*
G04 Created by KiCad (PCBNEW (5.1.5)-2) date 2020-04-05 00:52:07*
%MOMM*%
%LPD*%
G04 APERTURE LIST*
%ADD10C,0.100000*%
%ADD11R,1.500000X1.500000*%
G04 APERTURE END LIST*
D10*
G36*
X150391691Y-100554053D02*
G01*
X150412926Y-100557203D01*
X150433750Y-100562419D01*
X150453962Y-100569651D01*
X150473368Y-100578830D01*
X150491781Y-100589866D01*
X150509024Y-100602654D01*
X150524930Y-100617070D01*
X150539346Y-100632976D01*
X150552134Y-100650219D01*
X150563170Y-100668632D01*
X150572349Y-100688038D01*
X150579581Y-100708250D01*
X150584797Y-100729074D01*
X150587947Y-100750309D01*
X150589000Y-100771750D01*
X150589000Y-101209250D01*
X150587947Y-101230691D01*
X150584797Y-101251926D01*
X150579581Y-101272750D01*
X150572349Y-101292962D01*
X150563170Y-101312368D01*
X150552134Y-101330781D01*
X150539346Y-101348024D01*
X150524930Y-101363930D01*
X150509024Y-101378346D01*
X150491781Y-101391134D01*
X150473368Y-101402170D01*
X150453962Y-101411349D01*
X150433750Y-101418581D01*
X150412926Y-101423797D01*
X150391691Y-101426947D01*
X150370250Y-101428000D01*
X149857750Y-101428000D01*
X149836309Y-101426947D01*
X149815074Y-101423797D01*
X149794250Y-101418581D01*
X149774038Y-101411349D01*
X149754632Y-101402170D01*
X149736219Y-101391134D01*
X149718976Y-101378346D01*
X149703070Y-101363930D01*
X149688654Y-101348024D01*
X149675866Y-101330781D01*
X149664830Y-101312368D01*
X149655651Y-101292962D01*
X149648419Y-101272750D01*
X149643203Y-101251926D01*
X149640053Y-101230691D01*
X149639000Y-101209250D01*
X149639000Y-100771750D01*
X149640053Y-100750309D01*
X149643203Y-100729074D01*
X149648419Y-100708250D01*
X149655651Y-100688038D01*
X149664830Y-100668632D01*
X149675866Y-100650219D01*
X149688654Y-100632976D01*
X149703070Y-100617070D01*
X149718976Y-100602654D01*
X149736219Y-100589866D01*
X149754632Y-100578830D01*
X149774038Y-100569651D01*
X149794250Y-100562419D01*
X149815074Y-100557203D01*
X149836309Y-100554053D01*
X149857750Y-100553000D01*
X150370250Y-100553000D01*
X150391691Y-100554053D01*
G37*
G36*
X150391691Y-98979053D02*
G01*
X150412926Y-98982203D01*
X150433750Y-98987419D01*
X150453962Y-98994651D01*
X150473368Y-99003830D01*
X150491781Y-99014866D01*
X150509024Y-99027654D01*
X150524930Y-99042070D01*
X150539346Y-99057976D01*
X150552134Y-99075219D01*
X150563170Y-99093632D01*
X150572349Y-99113038D01*
X150579581Y-99133250D01*
X150584797Y-99154074D01*
X150587947Y-99175309D01*
X150589000Y-99196750D01*
X150589000Y-99634250D01*
X150587947Y-99655691D01*
X150584797Y-99676926D01*
X150579581Y-99697750D01*
X150572349Y-99717962D01*
X150563170Y-99737368D01*
X150552134Y-99755781D01*
X150539346Y-99773024D01*
X150524930Y-99788930D01*
X150509024Y-99803346D01*
X150491781Y-99816134D01*
X150473368Y-99827170D01*
X150453962Y-99836349D01*
X150433750Y-99843581D01*
X150412926Y-99848797D01*
X150391691Y-99851947D01*
X150370250Y-99853000D01*
X149857750Y-99853000D01*
X149836309Y-99851947D01*
X149815074Y-99848797D01*
X149794250Y-99843581D01*
X149774038Y-99836349D01*
X149754632Y-99827170D01*
X149736219Y-99816134D01*
X149718976Y-99803346D01*
X149703070Y-99788930D01*
X149688654Y-99773024D01*
X149675866Y-99755781D01*
X149664830Y-99737368D01*
X149655651Y-99717962D01*
X149648419Y-99697750D01*
X149643203Y-99676926D01*
X149640053Y-99655691D01*
X149639000Y-99634250D01*
X149639000Y-99196750D01*
X149640053Y-99175309D01*
X149643203Y-99154074D01*
X149648419Y-99133250D01*
X149655651Y-99113038D01*
X149664830Y-99093632D01*
X149675866Y-99075219D01*
X149688654Y-99057976D01*
X149703070Y-99042070D01*
X149718976Y-99027654D01*
X149736219Y-99014866D01*
X149754632Y-99003830D01*
X149774038Y-98994651D01*
X149794250Y-98987419D01*
X149815074Y-98982203D01*
X149836309Y-98979053D01*
X149857750Y-98978000D01*
X150370250Y-98978000D01*
X150391691Y-98979053D01*
G37*
D11*
X144182000Y-105664000D03*
X151982000Y-105664000D03*
D10*
G36*
X150424504Y-123776204D02*
G01*
X150448773Y-123779804D01*
X150472571Y-123785765D01*
X150495671Y-123794030D01*
X150517849Y-123804520D01*
X150538893Y-123817133D01*
X150558598Y-123831747D01*
X150576777Y-123848223D01*
X150593253Y-123866402D01*
X150607867Y-123886107D01*
X150620480Y-123907151D01*
X150630970Y-123929329D01*
X150639235Y-123952429D01*
X150645196Y-123976227D01*
X150648796Y-124000496D01*
X150650000Y-124025000D01*
X150650000Y-124850000D01*
X150648796Y-124874504D01*
X150645196Y-124898773D01*
X150639235Y-124922571D01*
X150630970Y-124945671D01*
X150620480Y-124967849D01*
X150607867Y-124988893D01*
X150593253Y-125008598D01*
X150576777Y-125026777D01*
X150558598Y-125043253D01*
X150538893Y-125057867D01*
X150517849Y-125070480D01*
X150495671Y-125080970D01*
X150472571Y-125089235D01*
X150448773Y-125095196D01*
X150424504Y-125098796D01*
X150400000Y-125100000D01*
X149600000Y-125100000D01*
X149575496Y-125098796D01*
X149551227Y-125095196D01*
X149527429Y-125089235D01*
X149504329Y-125080970D01*
X149482151Y-125070480D01*
X149461107Y-125057867D01*
X149441402Y-125043253D01*
X149423223Y-125026777D01*
X149406747Y-125008598D01*
X149392133Y-124988893D01*
X149379520Y-124967849D01*
X149369030Y-124945671D01*
X149360765Y-124922571D01*
X149354804Y-124898773D01*
X149351204Y-124874504D01*
X149350000Y-124850000D01*
X149350000Y-124025000D01*
X149351204Y-124000496D01*
X149354804Y-123976227D01*
X149360765Y-123952429D01*
X149369030Y-123929329D01*
X149379520Y-123907151D01*
X149392133Y-123886107D01*
X149406747Y-123866402D01*
X149423223Y-123848223D01*
X149441402Y-123831747D01*
X149461107Y-123817133D01*
X149482151Y-123804520D01*
X149504329Y-123794030D01*
X149527429Y-123785765D01*
X149551227Y-123779804D01*
X149575496Y-123776204D01*
X149600000Y-123775000D01*
X150400000Y-123775000D01*
X150424504Y-123776204D01*
G37*
G36*
X150424504Y-125701204D02*
G01*
X150448773Y-125704804D01*
X150472571Y-125710765D01*
X150495671Y-125719030D01*
X150517849Y-125729520D01*
X150538893Y-125742133D01*
X150558598Y-125756747D01*
X150576777Y-125773223D01*
X150593253Y-125791402D01*
X150607867Y-125811107D01*
X150620480Y-125832151D01*
X150630970Y-125854329D01*
X150639235Y-125877429D01*
X150645196Y-125901227D01*
X150648796Y-125925496D01*
X150650000Y-125950000D01*
X150650000Y-126775000D01*
X150648796Y-126799504D01*
X150645196Y-126823773D01*
X150639235Y-126847571D01*
X150630970Y-126870671D01*
X150620480Y-126892849D01*
X150607867Y-126913893D01*
X150593253Y-126933598D01*
X150576777Y-126951777D01*
X150558598Y-126968253D01*
X150538893Y-126982867D01*
X150517849Y-126995480D01*
X150495671Y-127005970D01*
X150472571Y-127014235D01*
X150448773Y-127020196D01*
X150424504Y-127023796D01*
X150400000Y-127025000D01*
X149600000Y-127025000D01*
X149575496Y-127023796D01*
X149551227Y-127020196D01*
X149527429Y-127014235D01*
X149504329Y-127005970D01*
X149482151Y-126995480D01*
X149461107Y-126982867D01*
X149441402Y-126968253D01*
X149423223Y-126951777D01*
X149406747Y-126933598D01*
X149392133Y-126913893D01*
X149379520Y-126892849D01*
X149369030Y-126870671D01*
X149360765Y-126847571D01*
X149354804Y-126823773D01*
X149351204Y-126799504D01*
X149350000Y-126775000D01*
X149350000Y-125950000D01*
X149351204Y-125925496D01*
X149354804Y-125901227D01*
X149360765Y-125877429D01*
X149369030Y-125854329D01*
X149379520Y-125832151D01*
X149392133Y-125811107D01*
X149406747Y-125791402D01*
X149423223Y-125773223D01*
X149441402Y-125756747D01*
X149461107Y-125742133D01*
X149482151Y-125729520D01*
X149504329Y-125719030D01*
X149527429Y-125710765D01*
X149551227Y-125704804D01*
X149575496Y-125701204D01*
X149600000Y-125700000D01*
X150400000Y-125700000D01*
X150424504Y-125701204D01*
G37*
G36*
X216379504Y-121856204D02*
G01*
X216403773Y-121859804D01*
X216427571Y-121865765D01*
X216450671Y-121874030D01*
X216472849Y-121884520D01*
X216493893Y-121897133D01*
X216513598Y-121911747D01*
X216531777Y-121928223D01*
X216548253Y-121946402D01*
X216562867Y-121966107D01*
X216575480Y-121987151D01*
X216585970Y-122009329D01*
X216594235Y-122032429D01*
X216600196Y-122056227D01*
X216603796Y-122080496D01*
X216605000Y-122105000D01*
X216605000Y-122905000D01*
X216603796Y-122929504D01*
X216600196Y-122953773D01*
X216594235Y-122977571D01*
X216585970Y-123000671D01*
X216575480Y-123022849D01*
X216562867Y-123043893D01*
X216548253Y-123063598D01*
X216531777Y-123081777D01*
X216513598Y-123098253D01*
X216493893Y-123112867D01*
X216472849Y-123125480D01*
X216450671Y-123135970D01*
X216427571Y-123144235D01*
X216403773Y-123150196D01*
X216379504Y-123153796D01*
X216355000Y-123155000D01*
X215530000Y-123155000D01*
X215505496Y-123153796D01*
X215481227Y-123150196D01*
X215457429Y-123144235D01*
X215434329Y-123135970D01*
X215412151Y-123125480D01*
X215391107Y-123112867D01*
X215371402Y-123098253D01*
X215353223Y-123081777D01*
X215336747Y-123063598D01*
X215322133Y-123043893D01*
X215309520Y-123022849D01*
X215299030Y-123000671D01*
X215290765Y-122977571D01*
X215284804Y-122953773D01*
X215281204Y-122929504D01*
X215280000Y-122905000D01*
X215280000Y-122105000D01*
X215281204Y-122080496D01*
X215284804Y-122056227D01*
X215290765Y-122032429D01*
X215299030Y-122009329D01*
X215309520Y-121987151D01*
X215322133Y-121966107D01*
X215336747Y-121946402D01*
X215353223Y-121928223D01*
X215371402Y-121911747D01*
X215391107Y-121897133D01*
X215412151Y-121884520D01*
X215434329Y-121874030D01*
X215457429Y-121865765D01*
X215481227Y-121859804D01*
X215505496Y-121856204D01*
X215530000Y-121855000D01*
X216355000Y-121855000D01*
X216379504Y-121856204D01*
G37*
G36*
X214454504Y-121856204D02*
G01*
X214478773Y-121859804D01*
X214502571Y-121865765D01*
X214525671Y-121874030D01*
X214547849Y-121884520D01*
X214568893Y-121897133D01*
X214588598Y-121911747D01*
X214606777Y-121928223D01*
X214623253Y-121946402D01*
X214637867Y-121966107D01*
X214650480Y-121987151D01*
X214660970Y-122009329D01*
X214669235Y-122032429D01*
X214675196Y-122056227D01*
X214678796Y-122080496D01*
X214680000Y-122105000D01*
X214680000Y-122905000D01*
X214678796Y-122929504D01*
X214675196Y-122953773D01*
X214669235Y-122977571D01*
X214660970Y-123000671D01*
X214650480Y-123022849D01*
X214637867Y-123043893D01*
X214623253Y-123063598D01*
X214606777Y-123081777D01*
X214588598Y-123098253D01*
X214568893Y-123112867D01*
X214547849Y-123125480D01*
X214525671Y-123135970D01*
X214502571Y-123144235D01*
X214478773Y-123150196D01*
X214454504Y-123153796D01*
X214430000Y-123155000D01*
X213605000Y-123155000D01*
X213580496Y-123153796D01*
X213556227Y-123150196D01*
X213532429Y-123144235D01*
X213509329Y-123135970D01*
X213487151Y-123125480D01*
X213466107Y-123112867D01*
X213446402Y-123098253D01*
X213428223Y-123081777D01*
X213411747Y-123063598D01*
X213397133Y-123043893D01*
X213384520Y-123022849D01*
X213374030Y-123000671D01*
X213365765Y-122977571D01*
X213359804Y-122953773D01*
X213356204Y-122929504D01*
X213355000Y-122905000D01*
X213355000Y-122105000D01*
X213356204Y-122080496D01*
X213359804Y-122056227D01*
X213365765Y-122032429D01*
X213374030Y-122009329D01*
X213384520Y-121987151D01*
X213397133Y-121966107D01*
X213411747Y-121946402D01*
X213428223Y-121928223D01*
X213446402Y-121911747D01*
X213466107Y-121897133D01*
X213487151Y-121884520D01*
X213509329Y-121874030D01*
X213532429Y-121865765D01*
X213556227Y-121859804D01*
X213580496Y-121856204D01*
X213605000Y-121855000D01*
X214430000Y-121855000D01*
X214454504Y-121856204D01*
G37*
G36*
X227854504Y-121856204D02*
G01*
X227878773Y-121859804D01*
X227902571Y-121865765D01*
X227925671Y-121874030D01*
X227947849Y-121884520D01*
X227968893Y-121897133D01*
X227988598Y-121911747D01*
X228006777Y-121928223D01*
X228023253Y-121946402D01*
X228037867Y-121966107D01*
X228050480Y-121987151D01*
X228060970Y-122009329D01*
X228069235Y-122032429D01*
X228075196Y-122056227D01*
X228078796Y-122080496D01*
X228080000Y-122105000D01*
X228080000Y-122905000D01*
X228078796Y-122929504D01*
X228075196Y-122953773D01*
X228069235Y-122977571D01*
X228060970Y-123000671D01*
X228050480Y-123022849D01*
X228037867Y-123043893D01*
X228023253Y-123063598D01*
X228006777Y-123081777D01*
X227988598Y-123098253D01*
X227968893Y-123112867D01*
X227947849Y-123125480D01*
X227925671Y-123135970D01*
X227902571Y-123144235D01*
X227878773Y-123150196D01*
X227854504Y-123153796D01*
X227830000Y-123155000D01*
X227005000Y-123155000D01*
X226980496Y-123153796D01*
X226956227Y-123150196D01*
X226932429Y-123144235D01*
X226909329Y-123135970D01*
X226887151Y-123125480D01*
X226866107Y-123112867D01*
X226846402Y-123098253D01*
X226828223Y-123081777D01*
X226811747Y-123063598D01*
X226797133Y-123043893D01*
X226784520Y-123022849D01*
X226774030Y-123000671D01*
X226765765Y-122977571D01*
X226759804Y-122953773D01*
X226756204Y-122929504D01*
X226755000Y-122905000D01*
X226755000Y-122105000D01*
X226756204Y-122080496D01*
X226759804Y-122056227D01*
X226765765Y-122032429D01*
X226774030Y-122009329D01*
X226784520Y-121987151D01*
X226797133Y-121966107D01*
X226811747Y-121946402D01*
X226828223Y-121928223D01*
X226846402Y-121911747D01*
X226866107Y-121897133D01*
X226887151Y-121884520D01*
X226909329Y-121874030D01*
X226932429Y-121865765D01*
X226956227Y-121859804D01*
X226980496Y-121856204D01*
X227005000Y-121855000D01*
X227830000Y-121855000D01*
X227854504Y-121856204D01*
G37*
G36*
X229779504Y-121856204D02*
G01*
X229803773Y-121859804D01*
X229827571Y-121865765D01*
X229850671Y-121874030D01*
X229872849Y-121884520D01*
X229893893Y-121897133D01*
X229913598Y-121911747D01*
X229931777Y-121928223D01*
X229948253Y-121946402D01*
X229962867Y-121966107D01*
X229975480Y-121987151D01*
X229985970Y-122009329D01*
X229994235Y-122032429D01*
X230000196Y-122056227D01*
X230003796Y-122080496D01*
X230005000Y-122105000D01*
X230005000Y-122905000D01*
X230003796Y-122929504D01*
X230000196Y-122953773D01*
X229994235Y-122977571D01*
X229985970Y-123000671D01*
X229975480Y-123022849D01*
X229962867Y-123043893D01*
X229948253Y-123063598D01*
X229931777Y-123081777D01*
X229913598Y-123098253D01*
X229893893Y-123112867D01*
X229872849Y-123125480D01*
X229850671Y-123135970D01*
X229827571Y-123144235D01*
X229803773Y-123150196D01*
X229779504Y-123153796D01*
X229755000Y-123155000D01*
X228930000Y-123155000D01*
X228905496Y-123153796D01*
X228881227Y-123150196D01*
X228857429Y-123144235D01*
X228834329Y-123135970D01*
X228812151Y-123125480D01*
X228791107Y-123112867D01*
X228771402Y-123098253D01*
X228753223Y-123081777D01*
X228736747Y-123063598D01*
X228722133Y-123043893D01*
X228709520Y-123022849D01*
X228699030Y-123000671D01*
X228690765Y-122977571D01*
X228684804Y-122953773D01*
X228681204Y-122929504D01*
X228680000Y-122905000D01*
X228680000Y-122105000D01*
X228681204Y-122080496D01*
X228684804Y-122056227D01*
X228690765Y-122032429D01*
X228699030Y-122009329D01*
X228709520Y-121987151D01*
X228722133Y-121966107D01*
X228736747Y-121946402D01*
X228753223Y-121928223D01*
X228771402Y-121911747D01*
X228791107Y-121897133D01*
X228812151Y-121884520D01*
X228834329Y-121874030D01*
X228857429Y-121865765D01*
X228881227Y-121859804D01*
X228905496Y-121856204D01*
X228930000Y-121855000D01*
X229755000Y-121855000D01*
X229779504Y-121856204D01*
G37*
G36*
X152680142Y-125851174D02*
G01*
X152703803Y-125854684D01*
X152727007Y-125860496D01*
X152749529Y-125868554D01*
X152771153Y-125878782D01*
X152791670Y-125891079D01*
X152810883Y-125905329D01*
X152828607Y-125921393D01*
X152844671Y-125939117D01*
X152858921Y-125958330D01*
X152871218Y-125978847D01*
X152881446Y-126000471D01*
X152889504Y-126022993D01*
X152895316Y-126046197D01*
X152898826Y-126069858D01*
X152900000Y-126093750D01*
X152900000Y-126581250D01*
X152898826Y-126605142D01*
X152895316Y-126628803D01*
X152889504Y-126652007D01*
X152881446Y-126674529D01*
X152871218Y-126696153D01*
X152858921Y-126716670D01*
X152844671Y-126735883D01*
X152828607Y-126753607D01*
X152810883Y-126769671D01*
X152791670Y-126783921D01*
X152771153Y-126796218D01*
X152749529Y-126806446D01*
X152727007Y-126814504D01*
X152703803Y-126820316D01*
X152680142Y-126823826D01*
X152656250Y-126825000D01*
X151743750Y-126825000D01*
X151719858Y-126823826D01*
X151696197Y-126820316D01*
X151672993Y-126814504D01*
X151650471Y-126806446D01*
X151628847Y-126796218D01*
X151608330Y-126783921D01*
X151589117Y-126769671D01*
X151571393Y-126753607D01*
X151555329Y-126735883D01*
X151541079Y-126716670D01*
X151528782Y-126696153D01*
X151518554Y-126674529D01*
X151510496Y-126652007D01*
X151504684Y-126628803D01*
X151501174Y-126605142D01*
X151500000Y-126581250D01*
X151500000Y-126093750D01*
X151501174Y-126069858D01*
X151504684Y-126046197D01*
X151510496Y-126022993D01*
X151518554Y-126000471D01*
X151528782Y-125978847D01*
X151541079Y-125958330D01*
X151555329Y-125939117D01*
X151571393Y-125921393D01*
X151589117Y-125905329D01*
X151608330Y-125891079D01*
X151628847Y-125878782D01*
X151650471Y-125868554D01*
X151672993Y-125860496D01*
X151696197Y-125854684D01*
X151719858Y-125851174D01*
X151743750Y-125850000D01*
X152656250Y-125850000D01*
X152680142Y-125851174D01*
G37*
G36*
X152680142Y-123976174D02*
G01*
X152703803Y-123979684D01*
X152727007Y-123985496D01*
X152749529Y-123993554D01*
X152771153Y-124003782D01*
X152791670Y-124016079D01*
X152810883Y-124030329D01*
X152828607Y-124046393D01*
X152844671Y-124064117D01*
X152858921Y-124083330D01*
X152871218Y-124103847D01*
X152881446Y-124125471D01*
X152889504Y-124147993D01*
X152895316Y-124171197D01*
X152898826Y-124194858D01*
X152900000Y-124218750D01*
X152900000Y-124706250D01*
X152898826Y-124730142D01*
X152895316Y-124753803D01*
X152889504Y-124777007D01*
X152881446Y-124799529D01*
X152871218Y-124821153D01*
X152858921Y-124841670D01*
X152844671Y-124860883D01*
X152828607Y-124878607D01*
X152810883Y-124894671D01*
X152791670Y-124908921D01*
X152771153Y-124921218D01*
X152749529Y-124931446D01*
X152727007Y-124939504D01*
X152703803Y-124945316D01*
X152680142Y-124948826D01*
X152656250Y-124950000D01*
X151743750Y-124950000D01*
X151719858Y-124948826D01*
X151696197Y-124945316D01*
X151672993Y-124939504D01*
X151650471Y-124931446D01*
X151628847Y-124921218D01*
X151608330Y-124908921D01*
X151589117Y-124894671D01*
X151571393Y-124878607D01*
X151555329Y-124860883D01*
X151541079Y-124841670D01*
X151528782Y-124821153D01*
X151518554Y-124799529D01*
X151510496Y-124777007D01*
X151504684Y-124753803D01*
X151501174Y-124730142D01*
X151500000Y-124706250D01*
X151500000Y-124218750D01*
X151501174Y-124194858D01*
X151504684Y-124171197D01*
X151510496Y-124147993D01*
X151518554Y-124125471D01*
X151528782Y-124103847D01*
X151541079Y-124083330D01*
X151555329Y-124064117D01*
X151571393Y-124046393D01*
X151589117Y-124030329D01*
X151608330Y-124016079D01*
X151628847Y-124003782D01*
X151650471Y-123993554D01*
X151672993Y-123985496D01*
X151696197Y-123979684D01*
X151719858Y-123976174D01*
X151743750Y-123975000D01*
X152656250Y-123975000D01*
X152680142Y-123976174D01*
G37*
D11*
X211100000Y-125905000D03*
X218900000Y-125905000D03*
X224500000Y-125905000D03*
X232300000Y-125905000D03*
D10*
G36*
X218102504Y-102315704D02*
G01*
X218126773Y-102319304D01*
X218150571Y-102325265D01*
X218173671Y-102333530D01*
X218195849Y-102344020D01*
X218216893Y-102356633D01*
X218236598Y-102371247D01*
X218254777Y-102387723D01*
X218271253Y-102405902D01*
X218285867Y-102425607D01*
X218298480Y-102446651D01*
X218308970Y-102468829D01*
X218317235Y-102491929D01*
X218323196Y-102515727D01*
X218326796Y-102539996D01*
X218328000Y-102564500D01*
X218328000Y-103389500D01*
X218326796Y-103414004D01*
X218323196Y-103438273D01*
X218317235Y-103462071D01*
X218308970Y-103485171D01*
X218298480Y-103507349D01*
X218285867Y-103528393D01*
X218271253Y-103548098D01*
X218254777Y-103566277D01*
X218236598Y-103582753D01*
X218216893Y-103597367D01*
X218195849Y-103609980D01*
X218173671Y-103620470D01*
X218150571Y-103628735D01*
X218126773Y-103634696D01*
X218102504Y-103638296D01*
X218078000Y-103639500D01*
X217278000Y-103639500D01*
X217253496Y-103638296D01*
X217229227Y-103634696D01*
X217205429Y-103628735D01*
X217182329Y-103620470D01*
X217160151Y-103609980D01*
X217139107Y-103597367D01*
X217119402Y-103582753D01*
X217101223Y-103566277D01*
X217084747Y-103548098D01*
X217070133Y-103528393D01*
X217057520Y-103507349D01*
X217047030Y-103485171D01*
X217038765Y-103462071D01*
X217032804Y-103438273D01*
X217029204Y-103414004D01*
X217028000Y-103389500D01*
X217028000Y-102564500D01*
X217029204Y-102539996D01*
X217032804Y-102515727D01*
X217038765Y-102491929D01*
X217047030Y-102468829D01*
X217057520Y-102446651D01*
X217070133Y-102425607D01*
X217084747Y-102405902D01*
X217101223Y-102387723D01*
X217119402Y-102371247D01*
X217139107Y-102356633D01*
X217160151Y-102344020D01*
X217182329Y-102333530D01*
X217205429Y-102325265D01*
X217229227Y-102319304D01*
X217253496Y-102315704D01*
X217278000Y-102314500D01*
X218078000Y-102314500D01*
X218102504Y-102315704D01*
G37*
G36*
X218102504Y-104240704D02*
G01*
X218126773Y-104244304D01*
X218150571Y-104250265D01*
X218173671Y-104258530D01*
X218195849Y-104269020D01*
X218216893Y-104281633D01*
X218236598Y-104296247D01*
X218254777Y-104312723D01*
X218271253Y-104330902D01*
X218285867Y-104350607D01*
X218298480Y-104371651D01*
X218308970Y-104393829D01*
X218317235Y-104416929D01*
X218323196Y-104440727D01*
X218326796Y-104464996D01*
X218328000Y-104489500D01*
X218328000Y-105314500D01*
X218326796Y-105339004D01*
X218323196Y-105363273D01*
X218317235Y-105387071D01*
X218308970Y-105410171D01*
X218298480Y-105432349D01*
X218285867Y-105453393D01*
X218271253Y-105473098D01*
X218254777Y-105491277D01*
X218236598Y-105507753D01*
X218216893Y-105522367D01*
X218195849Y-105534980D01*
X218173671Y-105545470D01*
X218150571Y-105553735D01*
X218126773Y-105559696D01*
X218102504Y-105563296D01*
X218078000Y-105564500D01*
X217278000Y-105564500D01*
X217253496Y-105563296D01*
X217229227Y-105559696D01*
X217205429Y-105553735D01*
X217182329Y-105545470D01*
X217160151Y-105534980D01*
X217139107Y-105522367D01*
X217119402Y-105507753D01*
X217101223Y-105491277D01*
X217084747Y-105473098D01*
X217070133Y-105453393D01*
X217057520Y-105432349D01*
X217047030Y-105410171D01*
X217038765Y-105387071D01*
X217032804Y-105363273D01*
X217029204Y-105339004D01*
X217028000Y-105314500D01*
X217028000Y-104489500D01*
X217029204Y-104464996D01*
X217032804Y-104440727D01*
X217038765Y-104416929D01*
X217047030Y-104393829D01*
X217057520Y-104371651D01*
X217070133Y-104350607D01*
X217084747Y-104330902D01*
X217101223Y-104312723D01*
X217119402Y-104296247D01*
X217139107Y-104281633D01*
X217160151Y-104269020D01*
X217182329Y-104258530D01*
X217205429Y-104250265D01*
X217229227Y-104244304D01*
X217253496Y-104240704D01*
X217278000Y-104239500D01*
X218078000Y-104239500D01*
X218102504Y-104240704D01*
G37*
G36*
X225849504Y-104187204D02*
G01*
X225873773Y-104190804D01*
X225897571Y-104196765D01*
X225920671Y-104205030D01*
X225942849Y-104215520D01*
X225963893Y-104228133D01*
X225983598Y-104242747D01*
X226001777Y-104259223D01*
X226018253Y-104277402D01*
X226032867Y-104297107D01*
X226045480Y-104318151D01*
X226055970Y-104340329D01*
X226064235Y-104363429D01*
X226070196Y-104387227D01*
X226073796Y-104411496D01*
X226075000Y-104436000D01*
X226075000Y-105261000D01*
X226073796Y-105285504D01*
X226070196Y-105309773D01*
X226064235Y-105333571D01*
X226055970Y-105356671D01*
X226045480Y-105378849D01*
X226032867Y-105399893D01*
X226018253Y-105419598D01*
X226001777Y-105437777D01*
X225983598Y-105454253D01*
X225963893Y-105468867D01*
X225942849Y-105481480D01*
X225920671Y-105491970D01*
X225897571Y-105500235D01*
X225873773Y-105506196D01*
X225849504Y-105509796D01*
X225825000Y-105511000D01*
X225025000Y-105511000D01*
X225000496Y-105509796D01*
X224976227Y-105506196D01*
X224952429Y-105500235D01*
X224929329Y-105491970D01*
X224907151Y-105481480D01*
X224886107Y-105468867D01*
X224866402Y-105454253D01*
X224848223Y-105437777D01*
X224831747Y-105419598D01*
X224817133Y-105399893D01*
X224804520Y-105378849D01*
X224794030Y-105356671D01*
X224785765Y-105333571D01*
X224779804Y-105309773D01*
X224776204Y-105285504D01*
X224775000Y-105261000D01*
X224775000Y-104436000D01*
X224776204Y-104411496D01*
X224779804Y-104387227D01*
X224785765Y-104363429D01*
X224794030Y-104340329D01*
X224804520Y-104318151D01*
X224817133Y-104297107D01*
X224831747Y-104277402D01*
X224848223Y-104259223D01*
X224866402Y-104242747D01*
X224886107Y-104228133D01*
X224907151Y-104215520D01*
X224929329Y-104205030D01*
X224952429Y-104196765D01*
X224976227Y-104190804D01*
X225000496Y-104187204D01*
X225025000Y-104186000D01*
X225825000Y-104186000D01*
X225849504Y-104187204D01*
G37*
G36*
X225849504Y-102262204D02*
G01*
X225873773Y-102265804D01*
X225897571Y-102271765D01*
X225920671Y-102280030D01*
X225942849Y-102290520D01*
X225963893Y-102303133D01*
X225983598Y-102317747D01*
X226001777Y-102334223D01*
X226018253Y-102352402D01*
X226032867Y-102372107D01*
X226045480Y-102393151D01*
X226055970Y-102415329D01*
X226064235Y-102438429D01*
X226070196Y-102462227D01*
X226073796Y-102486496D01*
X226075000Y-102511000D01*
X226075000Y-103336000D01*
X226073796Y-103360504D01*
X226070196Y-103384773D01*
X226064235Y-103408571D01*
X226055970Y-103431671D01*
X226045480Y-103453849D01*
X226032867Y-103474893D01*
X226018253Y-103494598D01*
X226001777Y-103512777D01*
X225983598Y-103529253D01*
X225963893Y-103543867D01*
X225942849Y-103556480D01*
X225920671Y-103566970D01*
X225897571Y-103575235D01*
X225873773Y-103581196D01*
X225849504Y-103584796D01*
X225825000Y-103586000D01*
X225025000Y-103586000D01*
X225000496Y-103584796D01*
X224976227Y-103581196D01*
X224952429Y-103575235D01*
X224929329Y-103566970D01*
X224907151Y-103556480D01*
X224886107Y-103543867D01*
X224866402Y-103529253D01*
X224848223Y-103512777D01*
X224831747Y-103494598D01*
X224817133Y-103474893D01*
X224804520Y-103453849D01*
X224794030Y-103431671D01*
X224785765Y-103408571D01*
X224779804Y-103384773D01*
X224776204Y-103360504D01*
X224775000Y-103336000D01*
X224775000Y-102511000D01*
X224776204Y-102486496D01*
X224779804Y-102462227D01*
X224785765Y-102438429D01*
X224794030Y-102415329D01*
X224804520Y-102393151D01*
X224817133Y-102372107D01*
X224831747Y-102352402D01*
X224848223Y-102334223D01*
X224866402Y-102317747D01*
X224886107Y-102303133D01*
X224907151Y-102290520D01*
X224929329Y-102280030D01*
X224952429Y-102271765D01*
X224976227Y-102265804D01*
X225000496Y-102262204D01*
X225025000Y-102261000D01*
X225825000Y-102261000D01*
X225849504Y-102262204D01*
G37*
G36*
X218158142Y-98525174D02*
G01*
X218181803Y-98528684D01*
X218205007Y-98534496D01*
X218227529Y-98542554D01*
X218249153Y-98552782D01*
X218269670Y-98565079D01*
X218288883Y-98579329D01*
X218306607Y-98595393D01*
X218322671Y-98613117D01*
X218336921Y-98632330D01*
X218349218Y-98652847D01*
X218359446Y-98674471D01*
X218367504Y-98696993D01*
X218373316Y-98720197D01*
X218376826Y-98743858D01*
X218378000Y-98767750D01*
X218378000Y-99255250D01*
X218376826Y-99279142D01*
X218373316Y-99302803D01*
X218367504Y-99326007D01*
X218359446Y-99348529D01*
X218349218Y-99370153D01*
X218336921Y-99390670D01*
X218322671Y-99409883D01*
X218306607Y-99427607D01*
X218288883Y-99443671D01*
X218269670Y-99457921D01*
X218249153Y-99470218D01*
X218227529Y-99480446D01*
X218205007Y-99488504D01*
X218181803Y-99494316D01*
X218158142Y-99497826D01*
X218134250Y-99499000D01*
X217221750Y-99499000D01*
X217197858Y-99497826D01*
X217174197Y-99494316D01*
X217150993Y-99488504D01*
X217128471Y-99480446D01*
X217106847Y-99470218D01*
X217086330Y-99457921D01*
X217067117Y-99443671D01*
X217049393Y-99427607D01*
X217033329Y-99409883D01*
X217019079Y-99390670D01*
X217006782Y-99370153D01*
X216996554Y-99348529D01*
X216988496Y-99326007D01*
X216982684Y-99302803D01*
X216979174Y-99279142D01*
X216978000Y-99255250D01*
X216978000Y-98767750D01*
X216979174Y-98743858D01*
X216982684Y-98720197D01*
X216988496Y-98696993D01*
X216996554Y-98674471D01*
X217006782Y-98652847D01*
X217019079Y-98632330D01*
X217033329Y-98613117D01*
X217049393Y-98595393D01*
X217067117Y-98579329D01*
X217086330Y-98565079D01*
X217106847Y-98552782D01*
X217128471Y-98542554D01*
X217150993Y-98534496D01*
X217174197Y-98528684D01*
X217197858Y-98525174D01*
X217221750Y-98524000D01*
X218134250Y-98524000D01*
X218158142Y-98525174D01*
G37*
G36*
X218158142Y-100400174D02*
G01*
X218181803Y-100403684D01*
X218205007Y-100409496D01*
X218227529Y-100417554D01*
X218249153Y-100427782D01*
X218269670Y-100440079D01*
X218288883Y-100454329D01*
X218306607Y-100470393D01*
X218322671Y-100488117D01*
X218336921Y-100507330D01*
X218349218Y-100527847D01*
X218359446Y-100549471D01*
X218367504Y-100571993D01*
X218373316Y-100595197D01*
X218376826Y-100618858D01*
X218378000Y-100642750D01*
X218378000Y-101130250D01*
X218376826Y-101154142D01*
X218373316Y-101177803D01*
X218367504Y-101201007D01*
X218359446Y-101223529D01*
X218349218Y-101245153D01*
X218336921Y-101265670D01*
X218322671Y-101284883D01*
X218306607Y-101302607D01*
X218288883Y-101318671D01*
X218269670Y-101332921D01*
X218249153Y-101345218D01*
X218227529Y-101355446D01*
X218205007Y-101363504D01*
X218181803Y-101369316D01*
X218158142Y-101372826D01*
X218134250Y-101374000D01*
X217221750Y-101374000D01*
X217197858Y-101372826D01*
X217174197Y-101369316D01*
X217150993Y-101363504D01*
X217128471Y-101355446D01*
X217106847Y-101345218D01*
X217086330Y-101332921D01*
X217067117Y-101318671D01*
X217049393Y-101302607D01*
X217033329Y-101284883D01*
X217019079Y-101265670D01*
X217006782Y-101245153D01*
X216996554Y-101223529D01*
X216988496Y-101201007D01*
X216982684Y-101177803D01*
X216979174Y-101154142D01*
X216978000Y-101130250D01*
X216978000Y-100642750D01*
X216979174Y-100618858D01*
X216982684Y-100595197D01*
X216988496Y-100571993D01*
X216996554Y-100549471D01*
X217006782Y-100527847D01*
X217019079Y-100507330D01*
X217033329Y-100488117D01*
X217049393Y-100470393D01*
X217067117Y-100454329D01*
X217086330Y-100440079D01*
X217106847Y-100427782D01*
X217128471Y-100417554D01*
X217150993Y-100409496D01*
X217174197Y-100403684D01*
X217197858Y-100400174D01*
X217221750Y-100399000D01*
X218134250Y-100399000D01*
X218158142Y-100400174D01*
G37*
G36*
X225905142Y-100400174D02*
G01*
X225928803Y-100403684D01*
X225952007Y-100409496D01*
X225974529Y-100417554D01*
X225996153Y-100427782D01*
X226016670Y-100440079D01*
X226035883Y-100454329D01*
X226053607Y-100470393D01*
X226069671Y-100488117D01*
X226083921Y-100507330D01*
X226096218Y-100527847D01*
X226106446Y-100549471D01*
X226114504Y-100571993D01*
X226120316Y-100595197D01*
X226123826Y-100618858D01*
X226125000Y-100642750D01*
X226125000Y-101130250D01*
X226123826Y-101154142D01*
X226120316Y-101177803D01*
X226114504Y-101201007D01*
X226106446Y-101223529D01*
X226096218Y-101245153D01*
X226083921Y-101265670D01*
X226069671Y-101284883D01*
X226053607Y-101302607D01*
X226035883Y-101318671D01*
X226016670Y-101332921D01*
X225996153Y-101345218D01*
X225974529Y-101355446D01*
X225952007Y-101363504D01*
X225928803Y-101369316D01*
X225905142Y-101372826D01*
X225881250Y-101374000D01*
X224968750Y-101374000D01*
X224944858Y-101372826D01*
X224921197Y-101369316D01*
X224897993Y-101363504D01*
X224875471Y-101355446D01*
X224853847Y-101345218D01*
X224833330Y-101332921D01*
X224814117Y-101318671D01*
X224796393Y-101302607D01*
X224780329Y-101284883D01*
X224766079Y-101265670D01*
X224753782Y-101245153D01*
X224743554Y-101223529D01*
X224735496Y-101201007D01*
X224729684Y-101177803D01*
X224726174Y-101154142D01*
X224725000Y-101130250D01*
X224725000Y-100642750D01*
X224726174Y-100618858D01*
X224729684Y-100595197D01*
X224735496Y-100571993D01*
X224743554Y-100549471D01*
X224753782Y-100527847D01*
X224766079Y-100507330D01*
X224780329Y-100488117D01*
X224796393Y-100470393D01*
X224814117Y-100454329D01*
X224833330Y-100440079D01*
X224853847Y-100427782D01*
X224875471Y-100417554D01*
X224897993Y-100409496D01*
X224921197Y-100403684D01*
X224944858Y-100400174D01*
X224968750Y-100399000D01*
X225881250Y-100399000D01*
X225905142Y-100400174D01*
G37*
G36*
X225905142Y-98525174D02*
G01*
X225928803Y-98528684D01*
X225952007Y-98534496D01*
X225974529Y-98542554D01*
X225996153Y-98552782D01*
X226016670Y-98565079D01*
X226035883Y-98579329D01*
X226053607Y-98595393D01*
X226069671Y-98613117D01*
X226083921Y-98632330D01*
X226096218Y-98652847D01*
X226106446Y-98674471D01*
X226114504Y-98696993D01*
X226120316Y-98720197D01*
X226123826Y-98743858D01*
X226125000Y-98767750D01*
X226125000Y-99255250D01*
X226123826Y-99279142D01*
X226120316Y-99302803D01*
X226114504Y-99326007D01*
X226106446Y-99348529D01*
X226096218Y-99370153D01*
X226083921Y-99390670D01*
X226069671Y-99409883D01*
X226053607Y-99427607D01*
X226035883Y-99443671D01*
X226016670Y-99457921D01*
X225996153Y-99470218D01*
X225974529Y-99480446D01*
X225952007Y-99488504D01*
X225928803Y-99494316D01*
X225905142Y-99497826D01*
X225881250Y-99499000D01*
X224968750Y-99499000D01*
X224944858Y-99497826D01*
X224921197Y-99494316D01*
X224897993Y-99488504D01*
X224875471Y-99480446D01*
X224853847Y-99470218D01*
X224833330Y-99457921D01*
X224814117Y-99443671D01*
X224796393Y-99427607D01*
X224780329Y-99409883D01*
X224766079Y-99390670D01*
X224753782Y-99370153D01*
X224743554Y-99348529D01*
X224735496Y-99326007D01*
X224729684Y-99302803D01*
X224726174Y-99279142D01*
X224725000Y-99255250D01*
X224725000Y-98767750D01*
X224726174Y-98743858D01*
X224729684Y-98720197D01*
X224735496Y-98696993D01*
X224743554Y-98674471D01*
X224753782Y-98652847D01*
X224766079Y-98632330D01*
X224780329Y-98613117D01*
X224796393Y-98595393D01*
X224814117Y-98579329D01*
X224833330Y-98565079D01*
X224853847Y-98552782D01*
X224875471Y-98542554D01*
X224897993Y-98534496D01*
X224921197Y-98528684D01*
X224944858Y-98525174D01*
X224968750Y-98524000D01*
X225881250Y-98524000D01*
X225905142Y-98525174D01*
G37*
G36*
X232834504Y-102135204D02*
G01*
X232858773Y-102138804D01*
X232882571Y-102144765D01*
X232905671Y-102153030D01*
X232927849Y-102163520D01*
X232948893Y-102176133D01*
X232968598Y-102190747D01*
X232986777Y-102207223D01*
X233003253Y-102225402D01*
X233017867Y-102245107D01*
X233030480Y-102266151D01*
X233040970Y-102288329D01*
X233049235Y-102311429D01*
X233055196Y-102335227D01*
X233058796Y-102359496D01*
X233060000Y-102384000D01*
X233060000Y-103209000D01*
X233058796Y-103233504D01*
X233055196Y-103257773D01*
X233049235Y-103281571D01*
X233040970Y-103304671D01*
X233030480Y-103326849D01*
X233017867Y-103347893D01*
X233003253Y-103367598D01*
X232986777Y-103385777D01*
X232968598Y-103402253D01*
X232948893Y-103416867D01*
X232927849Y-103429480D01*
X232905671Y-103439970D01*
X232882571Y-103448235D01*
X232858773Y-103454196D01*
X232834504Y-103457796D01*
X232810000Y-103459000D01*
X232010000Y-103459000D01*
X231985496Y-103457796D01*
X231961227Y-103454196D01*
X231937429Y-103448235D01*
X231914329Y-103439970D01*
X231892151Y-103429480D01*
X231871107Y-103416867D01*
X231851402Y-103402253D01*
X231833223Y-103385777D01*
X231816747Y-103367598D01*
X231802133Y-103347893D01*
X231789520Y-103326849D01*
X231779030Y-103304671D01*
X231770765Y-103281571D01*
X231764804Y-103257773D01*
X231761204Y-103233504D01*
X231760000Y-103209000D01*
X231760000Y-102384000D01*
X231761204Y-102359496D01*
X231764804Y-102335227D01*
X231770765Y-102311429D01*
X231779030Y-102288329D01*
X231789520Y-102266151D01*
X231802133Y-102245107D01*
X231816747Y-102225402D01*
X231833223Y-102207223D01*
X231851402Y-102190747D01*
X231871107Y-102176133D01*
X231892151Y-102163520D01*
X231914329Y-102153030D01*
X231937429Y-102144765D01*
X231961227Y-102138804D01*
X231985496Y-102135204D01*
X232010000Y-102134000D01*
X232810000Y-102134000D01*
X232834504Y-102135204D01*
G37*
G36*
X232834504Y-104060204D02*
G01*
X232858773Y-104063804D01*
X232882571Y-104069765D01*
X232905671Y-104078030D01*
X232927849Y-104088520D01*
X232948893Y-104101133D01*
X232968598Y-104115747D01*
X232986777Y-104132223D01*
X233003253Y-104150402D01*
X233017867Y-104170107D01*
X233030480Y-104191151D01*
X233040970Y-104213329D01*
X233049235Y-104236429D01*
X233055196Y-104260227D01*
X233058796Y-104284496D01*
X233060000Y-104309000D01*
X233060000Y-105134000D01*
X233058796Y-105158504D01*
X233055196Y-105182773D01*
X233049235Y-105206571D01*
X233040970Y-105229671D01*
X233030480Y-105251849D01*
X233017867Y-105272893D01*
X233003253Y-105292598D01*
X232986777Y-105310777D01*
X232968598Y-105327253D01*
X232948893Y-105341867D01*
X232927849Y-105354480D01*
X232905671Y-105364970D01*
X232882571Y-105373235D01*
X232858773Y-105379196D01*
X232834504Y-105382796D01*
X232810000Y-105384000D01*
X232010000Y-105384000D01*
X231985496Y-105382796D01*
X231961227Y-105379196D01*
X231937429Y-105373235D01*
X231914329Y-105364970D01*
X231892151Y-105354480D01*
X231871107Y-105341867D01*
X231851402Y-105327253D01*
X231833223Y-105310777D01*
X231816747Y-105292598D01*
X231802133Y-105272893D01*
X231789520Y-105251849D01*
X231779030Y-105229671D01*
X231770765Y-105206571D01*
X231764804Y-105182773D01*
X231761204Y-105158504D01*
X231760000Y-105134000D01*
X231760000Y-104309000D01*
X231761204Y-104284496D01*
X231764804Y-104260227D01*
X231770765Y-104236429D01*
X231779030Y-104213329D01*
X231789520Y-104191151D01*
X231802133Y-104170107D01*
X231816747Y-104150402D01*
X231833223Y-104132223D01*
X231851402Y-104115747D01*
X231871107Y-104101133D01*
X231892151Y-104088520D01*
X231914329Y-104078030D01*
X231937429Y-104069765D01*
X231961227Y-104063804D01*
X231985496Y-104060204D01*
X232010000Y-104059000D01*
X232810000Y-104059000D01*
X232834504Y-104060204D01*
G37*
G36*
X232890142Y-98398174D02*
G01*
X232913803Y-98401684D01*
X232937007Y-98407496D01*
X232959529Y-98415554D01*
X232981153Y-98425782D01*
X233001670Y-98438079D01*
X233020883Y-98452329D01*
X233038607Y-98468393D01*
X233054671Y-98486117D01*
X233068921Y-98505330D01*
X233081218Y-98525847D01*
X233091446Y-98547471D01*
X233099504Y-98569993D01*
X233105316Y-98593197D01*
X233108826Y-98616858D01*
X233110000Y-98640750D01*
X233110000Y-99128250D01*
X233108826Y-99152142D01*
X233105316Y-99175803D01*
X233099504Y-99199007D01*
X233091446Y-99221529D01*
X233081218Y-99243153D01*
X233068921Y-99263670D01*
X233054671Y-99282883D01*
X233038607Y-99300607D01*
X233020883Y-99316671D01*
X233001670Y-99330921D01*
X232981153Y-99343218D01*
X232959529Y-99353446D01*
X232937007Y-99361504D01*
X232913803Y-99367316D01*
X232890142Y-99370826D01*
X232866250Y-99372000D01*
X231953750Y-99372000D01*
X231929858Y-99370826D01*
X231906197Y-99367316D01*
X231882993Y-99361504D01*
X231860471Y-99353446D01*
X231838847Y-99343218D01*
X231818330Y-99330921D01*
X231799117Y-99316671D01*
X231781393Y-99300607D01*
X231765329Y-99282883D01*
X231751079Y-99263670D01*
X231738782Y-99243153D01*
X231728554Y-99221529D01*
X231720496Y-99199007D01*
X231714684Y-99175803D01*
X231711174Y-99152142D01*
X231710000Y-99128250D01*
X231710000Y-98640750D01*
X231711174Y-98616858D01*
X231714684Y-98593197D01*
X231720496Y-98569993D01*
X231728554Y-98547471D01*
X231738782Y-98525847D01*
X231751079Y-98505330D01*
X231765329Y-98486117D01*
X231781393Y-98468393D01*
X231799117Y-98452329D01*
X231818330Y-98438079D01*
X231838847Y-98425782D01*
X231860471Y-98415554D01*
X231882993Y-98407496D01*
X231906197Y-98401684D01*
X231929858Y-98398174D01*
X231953750Y-98397000D01*
X232866250Y-98397000D01*
X232890142Y-98398174D01*
G37*
G36*
X232890142Y-100273174D02*
G01*
X232913803Y-100276684D01*
X232937007Y-100282496D01*
X232959529Y-100290554D01*
X232981153Y-100300782D01*
X233001670Y-100313079D01*
X233020883Y-100327329D01*
X233038607Y-100343393D01*
X233054671Y-100361117D01*
X233068921Y-100380330D01*
X233081218Y-100400847D01*
X233091446Y-100422471D01*
X233099504Y-100444993D01*
X233105316Y-100468197D01*
X233108826Y-100491858D01*
X233110000Y-100515750D01*
X233110000Y-101003250D01*
X233108826Y-101027142D01*
X233105316Y-101050803D01*
X233099504Y-101074007D01*
X233091446Y-101096529D01*
X233081218Y-101118153D01*
X233068921Y-101138670D01*
X233054671Y-101157883D01*
X233038607Y-101175607D01*
X233020883Y-101191671D01*
X233001670Y-101205921D01*
X232981153Y-101218218D01*
X232959529Y-101228446D01*
X232937007Y-101236504D01*
X232913803Y-101242316D01*
X232890142Y-101245826D01*
X232866250Y-101247000D01*
X231953750Y-101247000D01*
X231929858Y-101245826D01*
X231906197Y-101242316D01*
X231882993Y-101236504D01*
X231860471Y-101228446D01*
X231838847Y-101218218D01*
X231818330Y-101205921D01*
X231799117Y-101191671D01*
X231781393Y-101175607D01*
X231765329Y-101157883D01*
X231751079Y-101138670D01*
X231738782Y-101118153D01*
X231728554Y-101096529D01*
X231720496Y-101074007D01*
X231714684Y-101050803D01*
X231711174Y-101027142D01*
X231710000Y-101003250D01*
X231710000Y-100515750D01*
X231711174Y-100491858D01*
X231714684Y-100468197D01*
X231720496Y-100444993D01*
X231728554Y-100422471D01*
X231738782Y-100400847D01*
X231751079Y-100380330D01*
X231765329Y-100361117D01*
X231781393Y-100343393D01*
X231799117Y-100327329D01*
X231818330Y-100313079D01*
X231838847Y-100300782D01*
X231860471Y-100290554D01*
X231882993Y-100282496D01*
X231906197Y-100276684D01*
X231929858Y-100273174D01*
X231953750Y-100272000D01*
X232866250Y-100272000D01*
X232890142Y-100273174D01*
G37*
M02*
