G04 #@! TF.GenerationSoftware,KiCad,Pcbnew,(5.1.5)-2*
G04 #@! TF.CreationDate,2020-04-05T00:52:07+07:00*
G04 #@! TF.ProjectId,KIT_PIC16F1937,4b49545f-5049-4433-9136-46313933372e,rev?*
G04 #@! TF.SameCoordinates,Original*
G04 #@! TF.FileFunction,Paste,Bot*
G04 #@! TF.FilePolarity,Positive*
%FSLAX46Y46*%
G04 Gerber Fmt 4.6, Leading zero omitted, Abs format (unit mm)*
G04 Created by KiCad (PCBNEW (5.1.5)-2) date 2020-04-05 00:52:07*
%MOMM*%
%LPD*%
G04 APERTURE LIST*
%ADD10C,0.100000*%
%ADD11R,0.700000X2.000000*%
%ADD12R,1.300000X0.450000*%
G04 APERTURE END LIST*
D10*
G36*
X187415720Y-114059958D02*
G01*
X187026812Y-114448866D01*
X185966152Y-113388206D01*
X186355060Y-112999298D01*
X187415720Y-114059958D01*
G37*
G36*
X186850034Y-114625643D02*
G01*
X186461126Y-115014551D01*
X185400466Y-113953891D01*
X185789374Y-113564983D01*
X186850034Y-114625643D01*
G37*
G36*
X186284349Y-115191328D02*
G01*
X185895441Y-115580236D01*
X184834781Y-114519576D01*
X185223689Y-114130668D01*
X186284349Y-115191328D01*
G37*
G36*
X185718664Y-115757014D02*
G01*
X185329756Y-116145922D01*
X184269096Y-115085262D01*
X184658004Y-114696354D01*
X185718664Y-115757014D01*
G37*
G36*
X185152978Y-116322699D02*
G01*
X184764070Y-116711607D01*
X183703410Y-115650947D01*
X184092318Y-115262039D01*
X185152978Y-116322699D01*
G37*
G36*
X184587293Y-116888385D02*
G01*
X184198385Y-117277293D01*
X183137725Y-116216633D01*
X183526633Y-115827725D01*
X184587293Y-116888385D01*
G37*
G36*
X184021607Y-117454070D02*
G01*
X183632699Y-117842978D01*
X182572039Y-116782318D01*
X182960947Y-116393410D01*
X184021607Y-117454070D01*
G37*
G36*
X183455922Y-118019756D02*
G01*
X183067014Y-118408664D01*
X182006354Y-117348004D01*
X182395262Y-116959096D01*
X183455922Y-118019756D01*
G37*
G36*
X182890236Y-118585441D02*
G01*
X182501328Y-118974349D01*
X181440668Y-117913689D01*
X181829576Y-117524781D01*
X182890236Y-118585441D01*
G37*
G36*
X182324551Y-119151126D02*
G01*
X181935643Y-119540034D01*
X180874983Y-118479374D01*
X181263891Y-118090466D01*
X182324551Y-119151126D01*
G37*
G36*
X181758866Y-119716812D02*
G01*
X181369958Y-120105720D01*
X180309298Y-119045060D01*
X180698206Y-118656152D01*
X181758866Y-119716812D01*
G37*
G36*
X178294042Y-120105720D02*
G01*
X177905134Y-119716812D01*
X178965794Y-118656152D01*
X179354702Y-119045060D01*
X178294042Y-120105720D01*
G37*
G36*
X177728357Y-119540034D02*
G01*
X177339449Y-119151126D01*
X178400109Y-118090466D01*
X178789017Y-118479374D01*
X177728357Y-119540034D01*
G37*
G36*
X177162672Y-118974349D02*
G01*
X176773764Y-118585441D01*
X177834424Y-117524781D01*
X178223332Y-117913689D01*
X177162672Y-118974349D01*
G37*
G36*
X176596986Y-118408664D02*
G01*
X176208078Y-118019756D01*
X177268738Y-116959096D01*
X177657646Y-117348004D01*
X176596986Y-118408664D01*
G37*
G36*
X176031301Y-117842978D02*
G01*
X175642393Y-117454070D01*
X176703053Y-116393410D01*
X177091961Y-116782318D01*
X176031301Y-117842978D01*
G37*
G36*
X175465615Y-117277293D02*
G01*
X175076707Y-116888385D01*
X176137367Y-115827725D01*
X176526275Y-116216633D01*
X175465615Y-117277293D01*
G37*
G36*
X174899930Y-116711607D02*
G01*
X174511022Y-116322699D01*
X175571682Y-115262039D01*
X175960590Y-115650947D01*
X174899930Y-116711607D01*
G37*
G36*
X174334244Y-116145922D02*
G01*
X173945336Y-115757014D01*
X175005996Y-114696354D01*
X175394904Y-115085262D01*
X174334244Y-116145922D01*
G37*
G36*
X173768559Y-115580236D02*
G01*
X173379651Y-115191328D01*
X174440311Y-114130668D01*
X174829219Y-114519576D01*
X173768559Y-115580236D01*
G37*
G36*
X173202874Y-115014551D02*
G01*
X172813966Y-114625643D01*
X173874626Y-113564983D01*
X174263534Y-113953891D01*
X173202874Y-115014551D01*
G37*
G36*
X172637188Y-114448866D02*
G01*
X172248280Y-114059958D01*
X173308940Y-112999298D01*
X173697848Y-113388206D01*
X172637188Y-114448866D01*
G37*
G36*
X173697848Y-111655794D02*
G01*
X173308940Y-112044702D01*
X172248280Y-110984042D01*
X172637188Y-110595134D01*
X173697848Y-111655794D01*
G37*
G36*
X174263534Y-111090109D02*
G01*
X173874626Y-111479017D01*
X172813966Y-110418357D01*
X173202874Y-110029449D01*
X174263534Y-111090109D01*
G37*
G36*
X174829219Y-110524424D02*
G01*
X174440311Y-110913332D01*
X173379651Y-109852672D01*
X173768559Y-109463764D01*
X174829219Y-110524424D01*
G37*
G36*
X175394904Y-109958738D02*
G01*
X175005996Y-110347646D01*
X173945336Y-109286986D01*
X174334244Y-108898078D01*
X175394904Y-109958738D01*
G37*
G36*
X175960590Y-109393053D02*
G01*
X175571682Y-109781961D01*
X174511022Y-108721301D01*
X174899930Y-108332393D01*
X175960590Y-109393053D01*
G37*
G36*
X176526275Y-108827367D02*
G01*
X176137367Y-109216275D01*
X175076707Y-108155615D01*
X175465615Y-107766707D01*
X176526275Y-108827367D01*
G37*
G36*
X177091961Y-108261682D02*
G01*
X176703053Y-108650590D01*
X175642393Y-107589930D01*
X176031301Y-107201022D01*
X177091961Y-108261682D01*
G37*
G36*
X177657646Y-107695996D02*
G01*
X177268738Y-108084904D01*
X176208078Y-107024244D01*
X176596986Y-106635336D01*
X177657646Y-107695996D01*
G37*
G36*
X178223332Y-107130311D02*
G01*
X177834424Y-107519219D01*
X176773764Y-106458559D01*
X177162672Y-106069651D01*
X178223332Y-107130311D01*
G37*
G36*
X178789017Y-106564626D02*
G01*
X178400109Y-106953534D01*
X177339449Y-105892874D01*
X177728357Y-105503966D01*
X178789017Y-106564626D01*
G37*
G36*
X179354702Y-105998940D02*
G01*
X178965794Y-106387848D01*
X177905134Y-105327188D01*
X178294042Y-104938280D01*
X179354702Y-105998940D01*
G37*
G36*
X180698206Y-106387848D02*
G01*
X180309298Y-105998940D01*
X181369958Y-104938280D01*
X181758866Y-105327188D01*
X180698206Y-106387848D01*
G37*
G36*
X181263891Y-106953534D02*
G01*
X180874983Y-106564626D01*
X181935643Y-105503966D01*
X182324551Y-105892874D01*
X181263891Y-106953534D01*
G37*
G36*
X181829576Y-107519219D02*
G01*
X181440668Y-107130311D01*
X182501328Y-106069651D01*
X182890236Y-106458559D01*
X181829576Y-107519219D01*
G37*
G36*
X182395262Y-108084904D02*
G01*
X182006354Y-107695996D01*
X183067014Y-106635336D01*
X183455922Y-107024244D01*
X182395262Y-108084904D01*
G37*
G36*
X182960947Y-108650590D02*
G01*
X182572039Y-108261682D01*
X183632699Y-107201022D01*
X184021607Y-107589930D01*
X182960947Y-108650590D01*
G37*
G36*
X183526633Y-109216275D02*
G01*
X183137725Y-108827367D01*
X184198385Y-107766707D01*
X184587293Y-108155615D01*
X183526633Y-109216275D01*
G37*
G36*
X184092318Y-109781961D02*
G01*
X183703410Y-109393053D01*
X184764070Y-108332393D01*
X185152978Y-108721301D01*
X184092318Y-109781961D01*
G37*
G36*
X184658004Y-110347646D02*
G01*
X184269096Y-109958738D01*
X185329756Y-108898078D01*
X185718664Y-109286986D01*
X184658004Y-110347646D01*
G37*
G36*
X185223689Y-110913332D02*
G01*
X184834781Y-110524424D01*
X185895441Y-109463764D01*
X186284349Y-109852672D01*
X185223689Y-110913332D01*
G37*
G36*
X185789374Y-111479017D02*
G01*
X185400466Y-111090109D01*
X186461126Y-110029449D01*
X186850034Y-110418357D01*
X185789374Y-111479017D01*
G37*
G36*
X186355060Y-112044702D02*
G01*
X185966152Y-111655794D01*
X187026812Y-110595134D01*
X187415720Y-110984042D01*
X186355060Y-112044702D01*
G37*
G36*
X148592642Y-119901174D02*
G01*
X148616303Y-119904684D01*
X148639507Y-119910496D01*
X148662029Y-119918554D01*
X148683653Y-119928782D01*
X148704170Y-119941079D01*
X148723383Y-119955329D01*
X148741107Y-119971393D01*
X148757171Y-119989117D01*
X148771421Y-120008330D01*
X148783718Y-120028847D01*
X148793946Y-120050471D01*
X148802004Y-120072993D01*
X148807816Y-120096197D01*
X148811326Y-120119858D01*
X148812500Y-120143750D01*
X148812500Y-121056250D01*
X148811326Y-121080142D01*
X148807816Y-121103803D01*
X148802004Y-121127007D01*
X148793946Y-121149529D01*
X148783718Y-121171153D01*
X148771421Y-121191670D01*
X148757171Y-121210883D01*
X148741107Y-121228607D01*
X148723383Y-121244671D01*
X148704170Y-121258921D01*
X148683653Y-121271218D01*
X148662029Y-121281446D01*
X148639507Y-121289504D01*
X148616303Y-121295316D01*
X148592642Y-121298826D01*
X148568750Y-121300000D01*
X148081250Y-121300000D01*
X148057358Y-121298826D01*
X148033697Y-121295316D01*
X148010493Y-121289504D01*
X147987971Y-121281446D01*
X147966347Y-121271218D01*
X147945830Y-121258921D01*
X147926617Y-121244671D01*
X147908893Y-121228607D01*
X147892829Y-121210883D01*
X147878579Y-121191670D01*
X147866282Y-121171153D01*
X147856054Y-121149529D01*
X147847996Y-121127007D01*
X147842184Y-121103803D01*
X147838674Y-121080142D01*
X147837500Y-121056250D01*
X147837500Y-120143750D01*
X147838674Y-120119858D01*
X147842184Y-120096197D01*
X147847996Y-120072993D01*
X147856054Y-120050471D01*
X147866282Y-120028847D01*
X147878579Y-120008330D01*
X147892829Y-119989117D01*
X147908893Y-119971393D01*
X147926617Y-119955329D01*
X147945830Y-119941079D01*
X147966347Y-119928782D01*
X147987971Y-119918554D01*
X148010493Y-119910496D01*
X148033697Y-119904684D01*
X148057358Y-119901174D01*
X148081250Y-119900000D01*
X148568750Y-119900000D01*
X148592642Y-119901174D01*
G37*
G36*
X150467642Y-119901174D02*
G01*
X150491303Y-119904684D01*
X150514507Y-119910496D01*
X150537029Y-119918554D01*
X150558653Y-119928782D01*
X150579170Y-119941079D01*
X150598383Y-119955329D01*
X150616107Y-119971393D01*
X150632171Y-119989117D01*
X150646421Y-120008330D01*
X150658718Y-120028847D01*
X150668946Y-120050471D01*
X150677004Y-120072993D01*
X150682816Y-120096197D01*
X150686326Y-120119858D01*
X150687500Y-120143750D01*
X150687500Y-121056250D01*
X150686326Y-121080142D01*
X150682816Y-121103803D01*
X150677004Y-121127007D01*
X150668946Y-121149529D01*
X150658718Y-121171153D01*
X150646421Y-121191670D01*
X150632171Y-121210883D01*
X150616107Y-121228607D01*
X150598383Y-121244671D01*
X150579170Y-121258921D01*
X150558653Y-121271218D01*
X150537029Y-121281446D01*
X150514507Y-121289504D01*
X150491303Y-121295316D01*
X150467642Y-121298826D01*
X150443750Y-121300000D01*
X149956250Y-121300000D01*
X149932358Y-121298826D01*
X149908697Y-121295316D01*
X149885493Y-121289504D01*
X149862971Y-121281446D01*
X149841347Y-121271218D01*
X149820830Y-121258921D01*
X149801617Y-121244671D01*
X149783893Y-121228607D01*
X149767829Y-121210883D01*
X149753579Y-121191670D01*
X149741282Y-121171153D01*
X149731054Y-121149529D01*
X149722996Y-121127007D01*
X149717184Y-121103803D01*
X149713674Y-121080142D01*
X149712500Y-121056250D01*
X149712500Y-120143750D01*
X149713674Y-120119858D01*
X149717184Y-120096197D01*
X149722996Y-120072993D01*
X149731054Y-120050471D01*
X149741282Y-120028847D01*
X149753579Y-120008330D01*
X149767829Y-119989117D01*
X149783893Y-119971393D01*
X149801617Y-119955329D01*
X149820830Y-119941079D01*
X149841347Y-119928782D01*
X149862971Y-119918554D01*
X149885493Y-119910496D01*
X149908697Y-119904684D01*
X149932358Y-119901174D01*
X149956250Y-119900000D01*
X150443750Y-119900000D01*
X150467642Y-119901174D01*
G37*
G36*
X150405142Y-117301174D02*
G01*
X150428803Y-117304684D01*
X150452007Y-117310496D01*
X150474529Y-117318554D01*
X150496153Y-117328782D01*
X150516670Y-117341079D01*
X150535883Y-117355329D01*
X150553607Y-117371393D01*
X150569671Y-117389117D01*
X150583921Y-117408330D01*
X150596218Y-117428847D01*
X150606446Y-117450471D01*
X150614504Y-117472993D01*
X150620316Y-117496197D01*
X150623826Y-117519858D01*
X150625000Y-117543750D01*
X150625000Y-118456250D01*
X150623826Y-118480142D01*
X150620316Y-118503803D01*
X150614504Y-118527007D01*
X150606446Y-118549529D01*
X150596218Y-118571153D01*
X150583921Y-118591670D01*
X150569671Y-118610883D01*
X150553607Y-118628607D01*
X150535883Y-118644671D01*
X150516670Y-118658921D01*
X150496153Y-118671218D01*
X150474529Y-118681446D01*
X150452007Y-118689504D01*
X150428803Y-118695316D01*
X150405142Y-118698826D01*
X150381250Y-118700000D01*
X149893750Y-118700000D01*
X149869858Y-118698826D01*
X149846197Y-118695316D01*
X149822993Y-118689504D01*
X149800471Y-118681446D01*
X149778847Y-118671218D01*
X149758330Y-118658921D01*
X149739117Y-118644671D01*
X149721393Y-118628607D01*
X149705329Y-118610883D01*
X149691079Y-118591670D01*
X149678782Y-118571153D01*
X149668554Y-118549529D01*
X149660496Y-118527007D01*
X149654684Y-118503803D01*
X149651174Y-118480142D01*
X149650000Y-118456250D01*
X149650000Y-117543750D01*
X149651174Y-117519858D01*
X149654684Y-117496197D01*
X149660496Y-117472993D01*
X149668554Y-117450471D01*
X149678782Y-117428847D01*
X149691079Y-117408330D01*
X149705329Y-117389117D01*
X149721393Y-117371393D01*
X149739117Y-117355329D01*
X149758330Y-117341079D01*
X149778847Y-117328782D01*
X149800471Y-117318554D01*
X149822993Y-117310496D01*
X149846197Y-117304684D01*
X149869858Y-117301174D01*
X149893750Y-117300000D01*
X150381250Y-117300000D01*
X150405142Y-117301174D01*
G37*
G36*
X148530142Y-117301174D02*
G01*
X148553803Y-117304684D01*
X148577007Y-117310496D01*
X148599529Y-117318554D01*
X148621153Y-117328782D01*
X148641670Y-117341079D01*
X148660883Y-117355329D01*
X148678607Y-117371393D01*
X148694671Y-117389117D01*
X148708921Y-117408330D01*
X148721218Y-117428847D01*
X148731446Y-117450471D01*
X148739504Y-117472993D01*
X148745316Y-117496197D01*
X148748826Y-117519858D01*
X148750000Y-117543750D01*
X148750000Y-118456250D01*
X148748826Y-118480142D01*
X148745316Y-118503803D01*
X148739504Y-118527007D01*
X148731446Y-118549529D01*
X148721218Y-118571153D01*
X148708921Y-118591670D01*
X148694671Y-118610883D01*
X148678607Y-118628607D01*
X148660883Y-118644671D01*
X148641670Y-118658921D01*
X148621153Y-118671218D01*
X148599529Y-118681446D01*
X148577007Y-118689504D01*
X148553803Y-118695316D01*
X148530142Y-118698826D01*
X148506250Y-118700000D01*
X148018750Y-118700000D01*
X147994858Y-118698826D01*
X147971197Y-118695316D01*
X147947993Y-118689504D01*
X147925471Y-118681446D01*
X147903847Y-118671218D01*
X147883330Y-118658921D01*
X147864117Y-118644671D01*
X147846393Y-118628607D01*
X147830329Y-118610883D01*
X147816079Y-118591670D01*
X147803782Y-118571153D01*
X147793554Y-118549529D01*
X147785496Y-118527007D01*
X147779684Y-118503803D01*
X147776174Y-118480142D01*
X147775000Y-118456250D01*
X147775000Y-117543750D01*
X147776174Y-117519858D01*
X147779684Y-117496197D01*
X147785496Y-117472993D01*
X147793554Y-117450471D01*
X147803782Y-117428847D01*
X147816079Y-117408330D01*
X147830329Y-117389117D01*
X147846393Y-117371393D01*
X147864117Y-117355329D01*
X147883330Y-117341079D01*
X147903847Y-117328782D01*
X147925471Y-117318554D01*
X147947993Y-117310496D01*
X147971197Y-117304684D01*
X147994858Y-117301174D01*
X148018750Y-117300000D01*
X148506250Y-117300000D01*
X148530142Y-117301174D01*
G37*
G36*
X216888142Y-123544174D02*
G01*
X216911803Y-123547684D01*
X216935007Y-123553496D01*
X216957529Y-123561554D01*
X216979153Y-123571782D01*
X216999670Y-123584079D01*
X217018883Y-123598329D01*
X217036607Y-123614393D01*
X217052671Y-123632117D01*
X217066921Y-123651330D01*
X217079218Y-123671847D01*
X217089446Y-123693471D01*
X217097504Y-123715993D01*
X217103316Y-123739197D01*
X217106826Y-123762858D01*
X217108000Y-123786750D01*
X217108000Y-124274250D01*
X217106826Y-124298142D01*
X217103316Y-124321803D01*
X217097504Y-124345007D01*
X217089446Y-124367529D01*
X217079218Y-124389153D01*
X217066921Y-124409670D01*
X217052671Y-124428883D01*
X217036607Y-124446607D01*
X217018883Y-124462671D01*
X216999670Y-124476921D01*
X216979153Y-124489218D01*
X216957529Y-124499446D01*
X216935007Y-124507504D01*
X216911803Y-124513316D01*
X216888142Y-124516826D01*
X216864250Y-124518000D01*
X215951750Y-124518000D01*
X215927858Y-124516826D01*
X215904197Y-124513316D01*
X215880993Y-124507504D01*
X215858471Y-124499446D01*
X215836847Y-124489218D01*
X215816330Y-124476921D01*
X215797117Y-124462671D01*
X215779393Y-124446607D01*
X215763329Y-124428883D01*
X215749079Y-124409670D01*
X215736782Y-124389153D01*
X215726554Y-124367529D01*
X215718496Y-124345007D01*
X215712684Y-124321803D01*
X215709174Y-124298142D01*
X215708000Y-124274250D01*
X215708000Y-123786750D01*
X215709174Y-123762858D01*
X215712684Y-123739197D01*
X215718496Y-123715993D01*
X215726554Y-123693471D01*
X215736782Y-123671847D01*
X215749079Y-123651330D01*
X215763329Y-123632117D01*
X215779393Y-123614393D01*
X215797117Y-123598329D01*
X215816330Y-123584079D01*
X215836847Y-123571782D01*
X215858471Y-123561554D01*
X215880993Y-123553496D01*
X215904197Y-123547684D01*
X215927858Y-123544174D01*
X215951750Y-123543000D01*
X216864250Y-123543000D01*
X216888142Y-123544174D01*
G37*
G36*
X216888142Y-125419174D02*
G01*
X216911803Y-125422684D01*
X216935007Y-125428496D01*
X216957529Y-125436554D01*
X216979153Y-125446782D01*
X216999670Y-125459079D01*
X217018883Y-125473329D01*
X217036607Y-125489393D01*
X217052671Y-125507117D01*
X217066921Y-125526330D01*
X217079218Y-125546847D01*
X217089446Y-125568471D01*
X217097504Y-125590993D01*
X217103316Y-125614197D01*
X217106826Y-125637858D01*
X217108000Y-125661750D01*
X217108000Y-126149250D01*
X217106826Y-126173142D01*
X217103316Y-126196803D01*
X217097504Y-126220007D01*
X217089446Y-126242529D01*
X217079218Y-126264153D01*
X217066921Y-126284670D01*
X217052671Y-126303883D01*
X217036607Y-126321607D01*
X217018883Y-126337671D01*
X216999670Y-126351921D01*
X216979153Y-126364218D01*
X216957529Y-126374446D01*
X216935007Y-126382504D01*
X216911803Y-126388316D01*
X216888142Y-126391826D01*
X216864250Y-126393000D01*
X215951750Y-126393000D01*
X215927858Y-126391826D01*
X215904197Y-126388316D01*
X215880993Y-126382504D01*
X215858471Y-126374446D01*
X215836847Y-126364218D01*
X215816330Y-126351921D01*
X215797117Y-126337671D01*
X215779393Y-126321607D01*
X215763329Y-126303883D01*
X215749079Y-126284670D01*
X215736782Y-126264153D01*
X215726554Y-126242529D01*
X215718496Y-126220007D01*
X215712684Y-126196803D01*
X215709174Y-126173142D01*
X215708000Y-126149250D01*
X215708000Y-125661750D01*
X215709174Y-125637858D01*
X215712684Y-125614197D01*
X215718496Y-125590993D01*
X215726554Y-125568471D01*
X215736782Y-125546847D01*
X215749079Y-125526330D01*
X215763329Y-125507117D01*
X215779393Y-125489393D01*
X215797117Y-125473329D01*
X215816330Y-125459079D01*
X215836847Y-125446782D01*
X215858471Y-125436554D01*
X215880993Y-125428496D01*
X215904197Y-125422684D01*
X215927858Y-125419174D01*
X215951750Y-125418000D01*
X216864250Y-125418000D01*
X216888142Y-125419174D01*
G37*
G36*
X213713142Y-125419174D02*
G01*
X213736803Y-125422684D01*
X213760007Y-125428496D01*
X213782529Y-125436554D01*
X213804153Y-125446782D01*
X213824670Y-125459079D01*
X213843883Y-125473329D01*
X213861607Y-125489393D01*
X213877671Y-125507117D01*
X213891921Y-125526330D01*
X213904218Y-125546847D01*
X213914446Y-125568471D01*
X213922504Y-125590993D01*
X213928316Y-125614197D01*
X213931826Y-125637858D01*
X213933000Y-125661750D01*
X213933000Y-126149250D01*
X213931826Y-126173142D01*
X213928316Y-126196803D01*
X213922504Y-126220007D01*
X213914446Y-126242529D01*
X213904218Y-126264153D01*
X213891921Y-126284670D01*
X213877671Y-126303883D01*
X213861607Y-126321607D01*
X213843883Y-126337671D01*
X213824670Y-126351921D01*
X213804153Y-126364218D01*
X213782529Y-126374446D01*
X213760007Y-126382504D01*
X213736803Y-126388316D01*
X213713142Y-126391826D01*
X213689250Y-126393000D01*
X212776750Y-126393000D01*
X212752858Y-126391826D01*
X212729197Y-126388316D01*
X212705993Y-126382504D01*
X212683471Y-126374446D01*
X212661847Y-126364218D01*
X212641330Y-126351921D01*
X212622117Y-126337671D01*
X212604393Y-126321607D01*
X212588329Y-126303883D01*
X212574079Y-126284670D01*
X212561782Y-126264153D01*
X212551554Y-126242529D01*
X212543496Y-126220007D01*
X212537684Y-126196803D01*
X212534174Y-126173142D01*
X212533000Y-126149250D01*
X212533000Y-125661750D01*
X212534174Y-125637858D01*
X212537684Y-125614197D01*
X212543496Y-125590993D01*
X212551554Y-125568471D01*
X212561782Y-125546847D01*
X212574079Y-125526330D01*
X212588329Y-125507117D01*
X212604393Y-125489393D01*
X212622117Y-125473329D01*
X212641330Y-125459079D01*
X212661847Y-125446782D01*
X212683471Y-125436554D01*
X212705993Y-125428496D01*
X212729197Y-125422684D01*
X212752858Y-125419174D01*
X212776750Y-125418000D01*
X213689250Y-125418000D01*
X213713142Y-125419174D01*
G37*
G36*
X213713142Y-123544174D02*
G01*
X213736803Y-123547684D01*
X213760007Y-123553496D01*
X213782529Y-123561554D01*
X213804153Y-123571782D01*
X213824670Y-123584079D01*
X213843883Y-123598329D01*
X213861607Y-123614393D01*
X213877671Y-123632117D01*
X213891921Y-123651330D01*
X213904218Y-123671847D01*
X213914446Y-123693471D01*
X213922504Y-123715993D01*
X213928316Y-123739197D01*
X213931826Y-123762858D01*
X213933000Y-123786750D01*
X213933000Y-124274250D01*
X213931826Y-124298142D01*
X213928316Y-124321803D01*
X213922504Y-124345007D01*
X213914446Y-124367529D01*
X213904218Y-124389153D01*
X213891921Y-124409670D01*
X213877671Y-124428883D01*
X213861607Y-124446607D01*
X213843883Y-124462671D01*
X213824670Y-124476921D01*
X213804153Y-124489218D01*
X213782529Y-124499446D01*
X213760007Y-124507504D01*
X213736803Y-124513316D01*
X213713142Y-124516826D01*
X213689250Y-124518000D01*
X212776750Y-124518000D01*
X212752858Y-124516826D01*
X212729197Y-124513316D01*
X212705993Y-124507504D01*
X212683471Y-124499446D01*
X212661847Y-124489218D01*
X212641330Y-124476921D01*
X212622117Y-124462671D01*
X212604393Y-124446607D01*
X212588329Y-124428883D01*
X212574079Y-124409670D01*
X212561782Y-124389153D01*
X212551554Y-124367529D01*
X212543496Y-124345007D01*
X212537684Y-124321803D01*
X212534174Y-124298142D01*
X212533000Y-124274250D01*
X212533000Y-123786750D01*
X212534174Y-123762858D01*
X212537684Y-123739197D01*
X212543496Y-123715993D01*
X212551554Y-123693471D01*
X212561782Y-123671847D01*
X212574079Y-123651330D01*
X212588329Y-123632117D01*
X212604393Y-123614393D01*
X212622117Y-123598329D01*
X212641330Y-123584079D01*
X212661847Y-123571782D01*
X212683471Y-123561554D01*
X212705993Y-123553496D01*
X212729197Y-123547684D01*
X212752858Y-123544174D01*
X212776750Y-123543000D01*
X213689250Y-123543000D01*
X213713142Y-123544174D01*
G37*
G36*
X230350142Y-123495674D02*
G01*
X230373803Y-123499184D01*
X230397007Y-123504996D01*
X230419529Y-123513054D01*
X230441153Y-123523282D01*
X230461670Y-123535579D01*
X230480883Y-123549829D01*
X230498607Y-123565893D01*
X230514671Y-123583617D01*
X230528921Y-123602830D01*
X230541218Y-123623347D01*
X230551446Y-123644971D01*
X230559504Y-123667493D01*
X230565316Y-123690697D01*
X230568826Y-123714358D01*
X230570000Y-123738250D01*
X230570000Y-124225750D01*
X230568826Y-124249642D01*
X230565316Y-124273303D01*
X230559504Y-124296507D01*
X230551446Y-124319029D01*
X230541218Y-124340653D01*
X230528921Y-124361170D01*
X230514671Y-124380383D01*
X230498607Y-124398107D01*
X230480883Y-124414171D01*
X230461670Y-124428421D01*
X230441153Y-124440718D01*
X230419529Y-124450946D01*
X230397007Y-124459004D01*
X230373803Y-124464816D01*
X230350142Y-124468326D01*
X230326250Y-124469500D01*
X229413750Y-124469500D01*
X229389858Y-124468326D01*
X229366197Y-124464816D01*
X229342993Y-124459004D01*
X229320471Y-124450946D01*
X229298847Y-124440718D01*
X229278330Y-124428421D01*
X229259117Y-124414171D01*
X229241393Y-124398107D01*
X229225329Y-124380383D01*
X229211079Y-124361170D01*
X229198782Y-124340653D01*
X229188554Y-124319029D01*
X229180496Y-124296507D01*
X229174684Y-124273303D01*
X229171174Y-124249642D01*
X229170000Y-124225750D01*
X229170000Y-123738250D01*
X229171174Y-123714358D01*
X229174684Y-123690697D01*
X229180496Y-123667493D01*
X229188554Y-123644971D01*
X229198782Y-123623347D01*
X229211079Y-123602830D01*
X229225329Y-123583617D01*
X229241393Y-123565893D01*
X229259117Y-123549829D01*
X229278330Y-123535579D01*
X229298847Y-123523282D01*
X229320471Y-123513054D01*
X229342993Y-123504996D01*
X229366197Y-123499184D01*
X229389858Y-123495674D01*
X229413750Y-123494500D01*
X230326250Y-123494500D01*
X230350142Y-123495674D01*
G37*
G36*
X230350142Y-125370674D02*
G01*
X230373803Y-125374184D01*
X230397007Y-125379996D01*
X230419529Y-125388054D01*
X230441153Y-125398282D01*
X230461670Y-125410579D01*
X230480883Y-125424829D01*
X230498607Y-125440893D01*
X230514671Y-125458617D01*
X230528921Y-125477830D01*
X230541218Y-125498347D01*
X230551446Y-125519971D01*
X230559504Y-125542493D01*
X230565316Y-125565697D01*
X230568826Y-125589358D01*
X230570000Y-125613250D01*
X230570000Y-126100750D01*
X230568826Y-126124642D01*
X230565316Y-126148303D01*
X230559504Y-126171507D01*
X230551446Y-126194029D01*
X230541218Y-126215653D01*
X230528921Y-126236170D01*
X230514671Y-126255383D01*
X230498607Y-126273107D01*
X230480883Y-126289171D01*
X230461670Y-126303421D01*
X230441153Y-126315718D01*
X230419529Y-126325946D01*
X230397007Y-126334004D01*
X230373803Y-126339816D01*
X230350142Y-126343326D01*
X230326250Y-126344500D01*
X229413750Y-126344500D01*
X229389858Y-126343326D01*
X229366197Y-126339816D01*
X229342993Y-126334004D01*
X229320471Y-126325946D01*
X229298847Y-126315718D01*
X229278330Y-126303421D01*
X229259117Y-126289171D01*
X229241393Y-126273107D01*
X229225329Y-126255383D01*
X229211079Y-126236170D01*
X229198782Y-126215653D01*
X229188554Y-126194029D01*
X229180496Y-126171507D01*
X229174684Y-126148303D01*
X229171174Y-126124642D01*
X229170000Y-126100750D01*
X229170000Y-125613250D01*
X229171174Y-125589358D01*
X229174684Y-125565697D01*
X229180496Y-125542493D01*
X229188554Y-125519971D01*
X229198782Y-125498347D01*
X229211079Y-125477830D01*
X229225329Y-125458617D01*
X229241393Y-125440893D01*
X229259117Y-125424829D01*
X229278330Y-125410579D01*
X229298847Y-125398282D01*
X229320471Y-125388054D01*
X229342993Y-125379996D01*
X229366197Y-125374184D01*
X229389858Y-125370674D01*
X229413750Y-125369500D01*
X230326250Y-125369500D01*
X230350142Y-125370674D01*
G37*
G36*
X227683142Y-125419174D02*
G01*
X227706803Y-125422684D01*
X227730007Y-125428496D01*
X227752529Y-125436554D01*
X227774153Y-125446782D01*
X227794670Y-125459079D01*
X227813883Y-125473329D01*
X227831607Y-125489393D01*
X227847671Y-125507117D01*
X227861921Y-125526330D01*
X227874218Y-125546847D01*
X227884446Y-125568471D01*
X227892504Y-125590993D01*
X227898316Y-125614197D01*
X227901826Y-125637858D01*
X227903000Y-125661750D01*
X227903000Y-126149250D01*
X227901826Y-126173142D01*
X227898316Y-126196803D01*
X227892504Y-126220007D01*
X227884446Y-126242529D01*
X227874218Y-126264153D01*
X227861921Y-126284670D01*
X227847671Y-126303883D01*
X227831607Y-126321607D01*
X227813883Y-126337671D01*
X227794670Y-126351921D01*
X227774153Y-126364218D01*
X227752529Y-126374446D01*
X227730007Y-126382504D01*
X227706803Y-126388316D01*
X227683142Y-126391826D01*
X227659250Y-126393000D01*
X226746750Y-126393000D01*
X226722858Y-126391826D01*
X226699197Y-126388316D01*
X226675993Y-126382504D01*
X226653471Y-126374446D01*
X226631847Y-126364218D01*
X226611330Y-126351921D01*
X226592117Y-126337671D01*
X226574393Y-126321607D01*
X226558329Y-126303883D01*
X226544079Y-126284670D01*
X226531782Y-126264153D01*
X226521554Y-126242529D01*
X226513496Y-126220007D01*
X226507684Y-126196803D01*
X226504174Y-126173142D01*
X226503000Y-126149250D01*
X226503000Y-125661750D01*
X226504174Y-125637858D01*
X226507684Y-125614197D01*
X226513496Y-125590993D01*
X226521554Y-125568471D01*
X226531782Y-125546847D01*
X226544079Y-125526330D01*
X226558329Y-125507117D01*
X226574393Y-125489393D01*
X226592117Y-125473329D01*
X226611330Y-125459079D01*
X226631847Y-125446782D01*
X226653471Y-125436554D01*
X226675993Y-125428496D01*
X226699197Y-125422684D01*
X226722858Y-125419174D01*
X226746750Y-125418000D01*
X227659250Y-125418000D01*
X227683142Y-125419174D01*
G37*
G36*
X227683142Y-123544174D02*
G01*
X227706803Y-123547684D01*
X227730007Y-123553496D01*
X227752529Y-123561554D01*
X227774153Y-123571782D01*
X227794670Y-123584079D01*
X227813883Y-123598329D01*
X227831607Y-123614393D01*
X227847671Y-123632117D01*
X227861921Y-123651330D01*
X227874218Y-123671847D01*
X227884446Y-123693471D01*
X227892504Y-123715993D01*
X227898316Y-123739197D01*
X227901826Y-123762858D01*
X227903000Y-123786750D01*
X227903000Y-124274250D01*
X227901826Y-124298142D01*
X227898316Y-124321803D01*
X227892504Y-124345007D01*
X227884446Y-124367529D01*
X227874218Y-124389153D01*
X227861921Y-124409670D01*
X227847671Y-124428883D01*
X227831607Y-124446607D01*
X227813883Y-124462671D01*
X227794670Y-124476921D01*
X227774153Y-124489218D01*
X227752529Y-124499446D01*
X227730007Y-124507504D01*
X227706803Y-124513316D01*
X227683142Y-124516826D01*
X227659250Y-124518000D01*
X226746750Y-124518000D01*
X226722858Y-124516826D01*
X226699197Y-124513316D01*
X226675993Y-124507504D01*
X226653471Y-124499446D01*
X226631847Y-124489218D01*
X226611330Y-124476921D01*
X226592117Y-124462671D01*
X226574393Y-124446607D01*
X226558329Y-124428883D01*
X226544079Y-124409670D01*
X226531782Y-124389153D01*
X226521554Y-124367529D01*
X226513496Y-124345007D01*
X226507684Y-124321803D01*
X226504174Y-124298142D01*
X226503000Y-124274250D01*
X226503000Y-123786750D01*
X226504174Y-123762858D01*
X226507684Y-123739197D01*
X226513496Y-123715993D01*
X226521554Y-123693471D01*
X226531782Y-123671847D01*
X226544079Y-123651330D01*
X226558329Y-123632117D01*
X226574393Y-123614393D01*
X226592117Y-123598329D01*
X226611330Y-123584079D01*
X226631847Y-123571782D01*
X226653471Y-123561554D01*
X226675993Y-123553496D01*
X226699197Y-123547684D01*
X226722858Y-123544174D01*
X226746750Y-123543000D01*
X227659250Y-123543000D01*
X227683142Y-123544174D01*
G37*
D11*
X217950000Y-102700000D03*
X216050000Y-102700000D03*
X217000000Y-99300000D03*
D10*
G36*
X216330142Y-103701174D02*
G01*
X216353803Y-103704684D01*
X216377007Y-103710496D01*
X216399529Y-103718554D01*
X216421153Y-103728782D01*
X216441670Y-103741079D01*
X216460883Y-103755329D01*
X216478607Y-103771393D01*
X216494671Y-103789117D01*
X216508921Y-103808330D01*
X216521218Y-103828847D01*
X216531446Y-103850471D01*
X216539504Y-103872993D01*
X216545316Y-103896197D01*
X216548826Y-103919858D01*
X216550000Y-103943750D01*
X216550000Y-104856250D01*
X216548826Y-104880142D01*
X216545316Y-104903803D01*
X216539504Y-104927007D01*
X216531446Y-104949529D01*
X216521218Y-104971153D01*
X216508921Y-104991670D01*
X216494671Y-105010883D01*
X216478607Y-105028607D01*
X216460883Y-105044671D01*
X216441670Y-105058921D01*
X216421153Y-105071218D01*
X216399529Y-105081446D01*
X216377007Y-105089504D01*
X216353803Y-105095316D01*
X216330142Y-105098826D01*
X216306250Y-105100000D01*
X215818750Y-105100000D01*
X215794858Y-105098826D01*
X215771197Y-105095316D01*
X215747993Y-105089504D01*
X215725471Y-105081446D01*
X215703847Y-105071218D01*
X215683330Y-105058921D01*
X215664117Y-105044671D01*
X215646393Y-105028607D01*
X215630329Y-105010883D01*
X215616079Y-104991670D01*
X215603782Y-104971153D01*
X215593554Y-104949529D01*
X215585496Y-104927007D01*
X215579684Y-104903803D01*
X215576174Y-104880142D01*
X215575000Y-104856250D01*
X215575000Y-103943750D01*
X215576174Y-103919858D01*
X215579684Y-103896197D01*
X215585496Y-103872993D01*
X215593554Y-103850471D01*
X215603782Y-103828847D01*
X215616079Y-103808330D01*
X215630329Y-103789117D01*
X215646393Y-103771393D01*
X215664117Y-103755329D01*
X215683330Y-103741079D01*
X215703847Y-103728782D01*
X215725471Y-103718554D01*
X215747993Y-103710496D01*
X215771197Y-103704684D01*
X215794858Y-103701174D01*
X215818750Y-103700000D01*
X216306250Y-103700000D01*
X216330142Y-103701174D01*
G37*
G36*
X218205142Y-103701174D02*
G01*
X218228803Y-103704684D01*
X218252007Y-103710496D01*
X218274529Y-103718554D01*
X218296153Y-103728782D01*
X218316670Y-103741079D01*
X218335883Y-103755329D01*
X218353607Y-103771393D01*
X218369671Y-103789117D01*
X218383921Y-103808330D01*
X218396218Y-103828847D01*
X218406446Y-103850471D01*
X218414504Y-103872993D01*
X218420316Y-103896197D01*
X218423826Y-103919858D01*
X218425000Y-103943750D01*
X218425000Y-104856250D01*
X218423826Y-104880142D01*
X218420316Y-104903803D01*
X218414504Y-104927007D01*
X218406446Y-104949529D01*
X218396218Y-104971153D01*
X218383921Y-104991670D01*
X218369671Y-105010883D01*
X218353607Y-105028607D01*
X218335883Y-105044671D01*
X218316670Y-105058921D01*
X218296153Y-105071218D01*
X218274529Y-105081446D01*
X218252007Y-105089504D01*
X218228803Y-105095316D01*
X218205142Y-105098826D01*
X218181250Y-105100000D01*
X217693750Y-105100000D01*
X217669858Y-105098826D01*
X217646197Y-105095316D01*
X217622993Y-105089504D01*
X217600471Y-105081446D01*
X217578847Y-105071218D01*
X217558330Y-105058921D01*
X217539117Y-105044671D01*
X217521393Y-105028607D01*
X217505329Y-105010883D01*
X217491079Y-104991670D01*
X217478782Y-104971153D01*
X217468554Y-104949529D01*
X217460496Y-104927007D01*
X217454684Y-104903803D01*
X217451174Y-104880142D01*
X217450000Y-104856250D01*
X217450000Y-103943750D01*
X217451174Y-103919858D01*
X217454684Y-103896197D01*
X217460496Y-103872993D01*
X217468554Y-103850471D01*
X217478782Y-103828847D01*
X217491079Y-103808330D01*
X217505329Y-103789117D01*
X217521393Y-103771393D01*
X217539117Y-103755329D01*
X217558330Y-103741079D01*
X217578847Y-103728782D01*
X217600471Y-103718554D01*
X217622993Y-103710496D01*
X217646197Y-103704684D01*
X217669858Y-103701174D01*
X217693750Y-103700000D01*
X218181250Y-103700000D01*
X218205142Y-103701174D01*
G37*
D11*
X225350000Y-102700000D03*
X223450000Y-102700000D03*
X224400000Y-99300000D03*
D10*
G36*
X223739142Y-103568174D02*
G01*
X223762803Y-103571684D01*
X223786007Y-103577496D01*
X223808529Y-103585554D01*
X223830153Y-103595782D01*
X223850670Y-103608079D01*
X223869883Y-103622329D01*
X223887607Y-103638393D01*
X223903671Y-103656117D01*
X223917921Y-103675330D01*
X223930218Y-103695847D01*
X223940446Y-103717471D01*
X223948504Y-103739993D01*
X223954316Y-103763197D01*
X223957826Y-103786858D01*
X223959000Y-103810750D01*
X223959000Y-104723250D01*
X223957826Y-104747142D01*
X223954316Y-104770803D01*
X223948504Y-104794007D01*
X223940446Y-104816529D01*
X223930218Y-104838153D01*
X223917921Y-104858670D01*
X223903671Y-104877883D01*
X223887607Y-104895607D01*
X223869883Y-104911671D01*
X223850670Y-104925921D01*
X223830153Y-104938218D01*
X223808529Y-104948446D01*
X223786007Y-104956504D01*
X223762803Y-104962316D01*
X223739142Y-104965826D01*
X223715250Y-104967000D01*
X223227750Y-104967000D01*
X223203858Y-104965826D01*
X223180197Y-104962316D01*
X223156993Y-104956504D01*
X223134471Y-104948446D01*
X223112847Y-104938218D01*
X223092330Y-104925921D01*
X223073117Y-104911671D01*
X223055393Y-104895607D01*
X223039329Y-104877883D01*
X223025079Y-104858670D01*
X223012782Y-104838153D01*
X223002554Y-104816529D01*
X222994496Y-104794007D01*
X222988684Y-104770803D01*
X222985174Y-104747142D01*
X222984000Y-104723250D01*
X222984000Y-103810750D01*
X222985174Y-103786858D01*
X222988684Y-103763197D01*
X222994496Y-103739993D01*
X223002554Y-103717471D01*
X223012782Y-103695847D01*
X223025079Y-103675330D01*
X223039329Y-103656117D01*
X223055393Y-103638393D01*
X223073117Y-103622329D01*
X223092330Y-103608079D01*
X223112847Y-103595782D01*
X223134471Y-103585554D01*
X223156993Y-103577496D01*
X223180197Y-103571684D01*
X223203858Y-103568174D01*
X223227750Y-103567000D01*
X223715250Y-103567000D01*
X223739142Y-103568174D01*
G37*
G36*
X225614142Y-103568174D02*
G01*
X225637803Y-103571684D01*
X225661007Y-103577496D01*
X225683529Y-103585554D01*
X225705153Y-103595782D01*
X225725670Y-103608079D01*
X225744883Y-103622329D01*
X225762607Y-103638393D01*
X225778671Y-103656117D01*
X225792921Y-103675330D01*
X225805218Y-103695847D01*
X225815446Y-103717471D01*
X225823504Y-103739993D01*
X225829316Y-103763197D01*
X225832826Y-103786858D01*
X225834000Y-103810750D01*
X225834000Y-104723250D01*
X225832826Y-104747142D01*
X225829316Y-104770803D01*
X225823504Y-104794007D01*
X225815446Y-104816529D01*
X225805218Y-104838153D01*
X225792921Y-104858670D01*
X225778671Y-104877883D01*
X225762607Y-104895607D01*
X225744883Y-104911671D01*
X225725670Y-104925921D01*
X225705153Y-104938218D01*
X225683529Y-104948446D01*
X225661007Y-104956504D01*
X225637803Y-104962316D01*
X225614142Y-104965826D01*
X225590250Y-104967000D01*
X225102750Y-104967000D01*
X225078858Y-104965826D01*
X225055197Y-104962316D01*
X225031993Y-104956504D01*
X225009471Y-104948446D01*
X224987847Y-104938218D01*
X224967330Y-104925921D01*
X224948117Y-104911671D01*
X224930393Y-104895607D01*
X224914329Y-104877883D01*
X224900079Y-104858670D01*
X224887782Y-104838153D01*
X224877554Y-104816529D01*
X224869496Y-104794007D01*
X224863684Y-104770803D01*
X224860174Y-104747142D01*
X224859000Y-104723250D01*
X224859000Y-103810750D01*
X224860174Y-103786858D01*
X224863684Y-103763197D01*
X224869496Y-103739993D01*
X224877554Y-103717471D01*
X224887782Y-103695847D01*
X224900079Y-103675330D01*
X224914329Y-103656117D01*
X224930393Y-103638393D01*
X224948117Y-103622329D01*
X224967330Y-103608079D01*
X224987847Y-103595782D01*
X225009471Y-103585554D01*
X225031993Y-103577496D01*
X225055197Y-103571684D01*
X225078858Y-103568174D01*
X225102750Y-103567000D01*
X225590250Y-103567000D01*
X225614142Y-103568174D01*
G37*
D11*
X232550000Y-102700000D03*
X230650000Y-102700000D03*
X231600000Y-99300000D03*
D10*
G36*
X230930142Y-103701174D02*
G01*
X230953803Y-103704684D01*
X230977007Y-103710496D01*
X230999529Y-103718554D01*
X231021153Y-103728782D01*
X231041670Y-103741079D01*
X231060883Y-103755329D01*
X231078607Y-103771393D01*
X231094671Y-103789117D01*
X231108921Y-103808330D01*
X231121218Y-103828847D01*
X231131446Y-103850471D01*
X231139504Y-103872993D01*
X231145316Y-103896197D01*
X231148826Y-103919858D01*
X231150000Y-103943750D01*
X231150000Y-104856250D01*
X231148826Y-104880142D01*
X231145316Y-104903803D01*
X231139504Y-104927007D01*
X231131446Y-104949529D01*
X231121218Y-104971153D01*
X231108921Y-104991670D01*
X231094671Y-105010883D01*
X231078607Y-105028607D01*
X231060883Y-105044671D01*
X231041670Y-105058921D01*
X231021153Y-105071218D01*
X230999529Y-105081446D01*
X230977007Y-105089504D01*
X230953803Y-105095316D01*
X230930142Y-105098826D01*
X230906250Y-105100000D01*
X230418750Y-105100000D01*
X230394858Y-105098826D01*
X230371197Y-105095316D01*
X230347993Y-105089504D01*
X230325471Y-105081446D01*
X230303847Y-105071218D01*
X230283330Y-105058921D01*
X230264117Y-105044671D01*
X230246393Y-105028607D01*
X230230329Y-105010883D01*
X230216079Y-104991670D01*
X230203782Y-104971153D01*
X230193554Y-104949529D01*
X230185496Y-104927007D01*
X230179684Y-104903803D01*
X230176174Y-104880142D01*
X230175000Y-104856250D01*
X230175000Y-103943750D01*
X230176174Y-103919858D01*
X230179684Y-103896197D01*
X230185496Y-103872993D01*
X230193554Y-103850471D01*
X230203782Y-103828847D01*
X230216079Y-103808330D01*
X230230329Y-103789117D01*
X230246393Y-103771393D01*
X230264117Y-103755329D01*
X230283330Y-103741079D01*
X230303847Y-103728782D01*
X230325471Y-103718554D01*
X230347993Y-103710496D01*
X230371197Y-103704684D01*
X230394858Y-103701174D01*
X230418750Y-103700000D01*
X230906250Y-103700000D01*
X230930142Y-103701174D01*
G37*
G36*
X232805142Y-103701174D02*
G01*
X232828803Y-103704684D01*
X232852007Y-103710496D01*
X232874529Y-103718554D01*
X232896153Y-103728782D01*
X232916670Y-103741079D01*
X232935883Y-103755329D01*
X232953607Y-103771393D01*
X232969671Y-103789117D01*
X232983921Y-103808330D01*
X232996218Y-103828847D01*
X233006446Y-103850471D01*
X233014504Y-103872993D01*
X233020316Y-103896197D01*
X233023826Y-103919858D01*
X233025000Y-103943750D01*
X233025000Y-104856250D01*
X233023826Y-104880142D01*
X233020316Y-104903803D01*
X233014504Y-104927007D01*
X233006446Y-104949529D01*
X232996218Y-104971153D01*
X232983921Y-104991670D01*
X232969671Y-105010883D01*
X232953607Y-105028607D01*
X232935883Y-105044671D01*
X232916670Y-105058921D01*
X232896153Y-105071218D01*
X232874529Y-105081446D01*
X232852007Y-105089504D01*
X232828803Y-105095316D01*
X232805142Y-105098826D01*
X232781250Y-105100000D01*
X232293750Y-105100000D01*
X232269858Y-105098826D01*
X232246197Y-105095316D01*
X232222993Y-105089504D01*
X232200471Y-105081446D01*
X232178847Y-105071218D01*
X232158330Y-105058921D01*
X232139117Y-105044671D01*
X232121393Y-105028607D01*
X232105329Y-105010883D01*
X232091079Y-104991670D01*
X232078782Y-104971153D01*
X232068554Y-104949529D01*
X232060496Y-104927007D01*
X232054684Y-104903803D01*
X232051174Y-104880142D01*
X232050000Y-104856250D01*
X232050000Y-103943750D01*
X232051174Y-103919858D01*
X232054684Y-103896197D01*
X232060496Y-103872993D01*
X232068554Y-103850471D01*
X232078782Y-103828847D01*
X232091079Y-103808330D01*
X232105329Y-103789117D01*
X232121393Y-103771393D01*
X232139117Y-103755329D01*
X232158330Y-103741079D01*
X232178847Y-103728782D01*
X232200471Y-103718554D01*
X232222993Y-103710496D01*
X232246197Y-103704684D01*
X232269858Y-103701174D01*
X232293750Y-103700000D01*
X232781250Y-103700000D01*
X232805142Y-103701174D01*
G37*
D12*
X148077000Y-113314000D03*
X148077000Y-112664000D03*
X148077000Y-112014000D03*
X148077000Y-111364000D03*
X148077000Y-110714000D03*
M02*
