G04 #@! TF.GenerationSoftware,KiCad,Pcbnew,(5.1.5)-2*
G04 #@! TF.CreationDate,2020-04-05T00:52:07+07:00*
G04 #@! TF.ProjectId,KIT_PIC16F1937,4b49545f-5049-4433-9136-46313933372e,rev?*
G04 #@! TF.SameCoordinates,Original*
G04 #@! TF.FileFunction,OtherDrawing,Comment*
%FSLAX46Y46*%
G04 Gerber Fmt 4.6, Leading zero omitted, Abs format (unit mm)*
G04 Created by KiCad (PCBNEW (5.1.5)-2) date 2020-04-05 00:52:07*
%MOMM*%
%LPD*%
G04 APERTURE LIST*
%ADD10C,0.080000*%
G04 APERTURE END LIST*
D10*
X142653190Y-113728285D02*
X142153190Y-113728285D01*
X142153190Y-113537809D01*
X142177000Y-113490190D01*
X142200809Y-113466380D01*
X142248428Y-113442571D01*
X142319857Y-113442571D01*
X142367476Y-113466380D01*
X142391285Y-113490190D01*
X142415095Y-113537809D01*
X142415095Y-113728285D01*
X142605571Y-112942571D02*
X142629380Y-112966380D01*
X142653190Y-113037809D01*
X142653190Y-113085428D01*
X142629380Y-113156857D01*
X142581761Y-113204476D01*
X142534142Y-113228285D01*
X142438904Y-113252095D01*
X142367476Y-113252095D01*
X142272238Y-113228285D01*
X142224619Y-113204476D01*
X142177000Y-113156857D01*
X142153190Y-113085428D01*
X142153190Y-113037809D01*
X142177000Y-112966380D01*
X142200809Y-112942571D01*
X142391285Y-112561619D02*
X142415095Y-112490190D01*
X142438904Y-112466380D01*
X142486523Y-112442571D01*
X142557952Y-112442571D01*
X142605571Y-112466380D01*
X142629380Y-112490190D01*
X142653190Y-112537809D01*
X142653190Y-112728285D01*
X142153190Y-112728285D01*
X142153190Y-112561619D01*
X142177000Y-112514000D01*
X142200809Y-112490190D01*
X142248428Y-112466380D01*
X142296047Y-112466380D01*
X142343666Y-112490190D01*
X142367476Y-112514000D01*
X142391285Y-112561619D01*
X142391285Y-112728285D01*
X142391285Y-111847333D02*
X142391285Y-111680666D01*
X142653190Y-111609238D02*
X142653190Y-111847333D01*
X142153190Y-111847333D01*
X142153190Y-111609238D01*
X142653190Y-111180666D02*
X142153190Y-111180666D01*
X142629380Y-111180666D02*
X142653190Y-111228285D01*
X142653190Y-111323523D01*
X142629380Y-111371142D01*
X142605571Y-111394952D01*
X142557952Y-111418761D01*
X142415095Y-111418761D01*
X142367476Y-111394952D01*
X142343666Y-111371142D01*
X142319857Y-111323523D01*
X142319857Y-111228285D01*
X142343666Y-111180666D01*
X142319857Y-110728285D02*
X142724619Y-110728285D01*
X142772238Y-110752095D01*
X142796047Y-110775904D01*
X142819857Y-110823523D01*
X142819857Y-110894952D01*
X142796047Y-110942571D01*
X142629380Y-110728285D02*
X142653190Y-110775904D01*
X142653190Y-110871142D01*
X142629380Y-110918761D01*
X142605571Y-110942571D01*
X142557952Y-110966380D01*
X142415095Y-110966380D01*
X142367476Y-110942571D01*
X142343666Y-110918761D01*
X142319857Y-110871142D01*
X142319857Y-110775904D01*
X142343666Y-110728285D01*
X142629380Y-110299714D02*
X142653190Y-110347333D01*
X142653190Y-110442571D01*
X142629380Y-110490190D01*
X142581761Y-110514000D01*
X142391285Y-110514000D01*
X142343666Y-110490190D01*
X142319857Y-110442571D01*
X142319857Y-110347333D01*
X142343666Y-110299714D01*
X142391285Y-110275904D01*
X142438904Y-110275904D01*
X142486523Y-110514000D01*
M02*
